<svg width="97" height="96" viewBox="0 0 97 96" fill="none" xmlns="http://www.w3.org/2000/svg">
<path d="M21.6498 52.6868L23.0173 51.6279L21.4173 50.9711L2.0378 43.016L11.8995 18.9416L31.2865 26.8771L32.8879 27.5326L32.6564 25.8178L29.8527 5.05329L55.6276 1.5603L58.4516 22.3221L58.6848 24.0366L60.0539 22.9786L76.6295 10.1694L92.543 30.7508L75.9796 43.5768L74.6121 44.6358L76.2122 45.2926L95.5918 53.2477L85.73 77.3221L66.3431 69.3865L64.7417 68.7311L64.9733 70.4458L67.7769 91.2103L42.002 94.7033L39.178 73.9416L38.9448 72.227L37.5757 73.2851L20.9999 86.0943L5.08655 65.5128L21.6498 52.6868Z" stroke="#333333" stroke-width="2"/>
</svg>
