<?xml version="1.0" encoding="utf-8"?>
<!-- Generator: Adobe Illustrator 27.0.0, SVG Export Plug-In . SVG Version: 6.00 Build 0)  -->
<svg version="1.1" id="Layer_1" xmlns="http://www.w3.org/2000/svg" xmlns:xlink="http://www.w3.org/1999/xlink" x="0px" y="0px" width="288"
	 viewBox="0 0 288 288" style="enable-background:new 0 0 288 288;" xml:space="preserve">
<style type="text/css">
	.st0{fill:#363636;}
</style>
<g id="STORY_1">
	<g>
		<g>
			<path class="st0" d="M54.7,253.8c1.2,1,2.4,1.9,3.6,2.8L256.8,58.1c-0.9-1.2-1.8-2.4-2.8-3.6L54.7,253.8z"/>
			<path class="st0" d="M103.2,279.3c1.6,0.5,3.3,1,4.9,1.3L280.8,108c-0.4-1.6-0.9-3.3-1.3-4.9L103.2,279.3z"/>
			<path class="st0" d="M69.2,264c1.3,0.8,2.6,1.6,4,2.4L266.6,73c-0.7-1.3-1.6-2.7-2.4-4L69.2,264z"/>
			<path class="st0" d="M85.2,272.6c1.5,0.7,2.9,1.3,4.4,1.9l185-185c-0.6-1.5-1.3-3-1.9-4.4L85.2,272.6z"/>
			<path class="st0" d="M123.4,283.7c1.9,0.3,3.7,0.5,5.7,0.7L284.5,129c-0.2-1.9-0.4-3.7-0.7-5.7L123.4,283.7z"/>
			<path class="st0" d="M43.4,243.7c0.5,0.5,1,1,1.6,1.6L245.4,44.9c-0.5-0.5-1-1-1.6-1.6c-0.5-0.5-1-1-1.6-1.6L41.9,242.1
				C42.4,242.6,42.8,243.2,43.4,243.7z"/>
			<path class="st0" d="M146.7,285.2c2.2-0.1,4.4-0.1,6.6-0.3L285,153.2c0.1-2.2,0.2-4.4,0.3-6.6L146.7,285.2z"/>
			<path class="st0" d="M281.9,174.6L174.8,281.7c2.8-0.7,5.7-1.3,8.5-2.2l96.3-96.3C280.5,180.3,281.2,177.5,281.9,174.6z"/>
			<path class="st0" d="M2.3,133.8C2.1,136,2,138.2,2,140.4L140.5,1.8c-2.2,0.1-4.4,0.1-6.6,0.3L2.3,133.8z"/>
			<path class="st0" d="M2.6,158c0.2,1.9,0.4,3.7,0.7,5.7L163.7,3.2c-1.9-0.3-3.7-0.5-5.7-0.7L2.6,158z"/>
			<path class="st0" d="M215.6,265.6c10.1-6,19.6-13.3,28.2-21.9c8.7-8.7,16-18.1,21.9-28.2L215.6,265.6z"/>
			<path class="st0" d="M7.5,103.8c-0.8,2.8-1.6,5.7-2.2,8.5L112.5,5.2c-2.8,0.7-5.7,1.3-8.5,2.2L7.5,103.8z"/>
			<path class="st0" d="M71.6,21.4c-10.1,6-19.6,13.3-28.2,21.9c-8.7,8.7-16,18.1-21.9,28.2L71.6,21.4z"/>
			<path class="st0" d="M20.7,214c0.7,1.3,1.6,2.7,2.4,4L218.1,22.9c-1.3-0.8-2.6-1.6-4-2.4L20.7,214z"/>
			<path class="st0" d="M30.5,228.8c0.9,1.2,1.8,2.4,2.8,3.6L232.5,33.2c-1.2-1-2.4-1.9-3.6-2.8L30.5,228.8z"/>
			<path class="st0" d="M6.4,178.9c0.4,1.6,0.9,3.3,1.3,4.9L184,7.6c-1.6-0.5-3.3-1-4.9-1.3L6.4,178.9z"/>
			<path class="st0" d="M12.5,197.4c0.6,1.5,1.3,3,1.9,4.4L201.9,14.3c-1.5-0.7-2.9-1.3-4.4-1.9L12.5,197.4z"/>
		</g>
	</g>
</g>
</svg>
