<?xml version="1.0" encoding="utf-8"?>
<!-- Generator: Adobe Illustrator 27.0.0, SVG Export Plug-In . SVG Version: 6.00 Build 0)  -->
<svg version="1.1" id="Layer_1" xmlns="http://www.w3.org/2000/svg" xmlns:xlink="http://www.w3.org/1999/xlink" x="0px" y="0px" width="170"
	 viewBox="0 0 164.7 108.7" style="enable-background:new 0 0 164.7 108.7;" xml:space="preserve">
<style type="text/css">
	.st0{fill:#030303;}
</style>
<path class="st0" d="M2.1,18.5l0.4,0.4l0,0l0,0l0,0c0,0,0.1-0.1,0.1-0.1c0.1-0.1,0.3-0.3,0.5-0.5c0.5-0.4,1.1-1.1,2-1.8
	c1.7-1.5,4-3.6,6.7-5.6c2.7-2,5.7-4.1,8.7-5.6c3-1.5,5.9-2.5,8.5-2.5c5.1,0,9,3.9,13.1,8l0.1,0.1c4,4,8.2,8.3,13.7,8.3
	s9.7-4.2,13.7-8.3l0.1-0.1c4.1-4.1,8-8,13.1-8s9,3.9,13.1,8l0.1,0.1c4,4,8.2,8.3,13.7,8.3c5.6,0,9.7-4.2,13.7-8.3l0.1-0.1
	c4.1-4.1,8-8,13.1-8c2.6,0,5.5,1,8.5,2.5c3,1.5,6,3.5,8.7,5.6c2.7,2,5,4.1,6.7,5.6c0.8,0.8,1.5,1.4,2,1.8c0.2,0.2,0.4,0.4,0.5,0.5
	c0.1,0.1,0.1,0.1,0.1,0.1l0,0l0,0l0.4-0.4l0.3-0.4c0,0,0,0,0,0l0,0l0,0l0,0c0,0-0.1-0.1-0.1-0.1c-0.1-0.1-0.3-0.3-0.5-0.5
	c-0.5-0.5-1.1-1.1-2-1.9c-1.7-1.5-4.1-3.6-6.8-5.7c-2.7-2.1-5.8-4.1-8.8-5.7c-3.1-1.5-6.2-2.6-8.9-2.6c-5.6,0-9.7,4.2-13.7,8.3
	l-0.1,0.1c-4.1,4.1-8,8-13.1,8c-5.1,0-9-3.9-13.1-8l-0.1-0.1c-4-4-8.2-8.3-13.7-8.3S73,5.8,69,9.8L69,9.9c-4.1,4.1-8,8-13.1,8
	c-5.1,0-9-3.9-13.1-8l-0.1-0.1c-4-4-8.2-8.3-13.7-8.3c-2.8,0-5.9,1.1-8.9,2.6C17,5.7,14,7.8,11.2,9.8c-2.7,2.1-5.1,4.1-6.8,5.7
	c-0.8,0.8-1.5,1.4-2,1.9c-0.2,0.2-0.4,0.4-0.5,0.5C1.9,17.9,1.8,18,1.8,18l0,0l0,0C1.8,18.1,1.8,18.1,2.1,18.5z"/>
<path class="st0" d="M2.1,47.9l0.4,0.4l0,0l0,0l0,0c0,0,0.1-0.1,0.1-0.1c0.1-0.1,0.3-0.3,0.5-0.5c0.5-0.4,1.1-1.1,2-1.8
	c1.7-1.5,4-3.6,6.7-5.6c2.7-2,5.7-4.1,8.7-5.6c3-1.5,5.9-2.5,8.5-2.5c5.1,0,9,3.9,13.1,8l0.1,0.1c4,4,8.2,8.3,13.7,8.3
	s9.7-4.2,13.7-8.3l0.1-0.1c4.1-4.1,8-8,13.1-8s9,3.9,13.1,8l0.1,0.1c4,4,8.2,8.3,13.7,8.3c5.6,0,9.7-4.2,13.7-8.3l0.1-0.1
	c4.1-4.1,8-8,13.1-8c2.6,0,5.5,1,8.5,2.5c3,1.5,6,3.5,8.7,5.6c2.7,2,5,4.1,6.7,5.6c0.8,0.8,1.5,1.4,2,1.8c0.2,0.2,0.4,0.4,0.5,0.5
	c0.1,0.1,0.1,0.1,0.1,0.1l0,0l0,0l0.4-0.4c0.4-0.4,0.4-0.4,0.4-0.4l0,0l0,0l0,0c0,0-0.1-0.1-0.1-0.1c-0.1-0.1-0.3-0.3-0.5-0.5
	c-0.5-0.5-1.1-1.1-2-1.9c-1.7-1.5-4.1-3.6-6.8-5.7c-2.7-2.1-5.8-4.1-8.8-5.7c-3.1-1.5-6.2-2.6-8.9-2.6c-5.6,0-9.7,4.2-13.7,8.3
	l-0.1,0.1c-4.1,4.1-8,8-13.1,8c-5.1,0-9-3.9-13.1-8l-0.1-0.1c-4-4-8.2-8.3-13.7-8.3S73,35.2,69,39.2L69,39.3c-4.1,4.1-8,8-13.1,8
	c-5.1,0-9-3.9-13.1-8l-0.1-0.1c-4-4-8.2-8.3-13.7-8.3c-2.8,0-5.9,1.1-8.9,2.6c-3.1,1.6-6.1,3.6-8.8,5.7c-2.7,2.1-5.1,4.1-6.8,5.7
	c-0.8,0.8-1.5,1.4-2,1.9C2.3,47,2.1,47.2,2,47.3c-0.1,0.1-0.1,0.1-0.1,0.1l0,0l0,0l0,0C1.8,47.5,1.8,47.5,2.1,47.9z"/>
<path class="st0" d="M2.5,77.8l-0.4-0.4c-0.4-0.4-0.4-0.4-0.4-0.4l0,0l0,0l0,0c0,0,0.1-0.1,0.1-0.1c0.1-0.1,0.3-0.3,0.5-0.5
	c0.5-0.5,1.1-1.1,2-1.9c1.7-1.5,4.1-3.6,6.8-5.7c2.7-2.1,5.8-4.1,8.8-5.7c3.1-1.5,6.2-2.6,8.9-2.6c5.6,0,9.7,4.2,13.7,8.3l0.1,0.1
	c4.1,4.1,8,8,13.1,8c5.1,0,9-3.9,13.1-8l0.1-0.1c4-4,8.2-8.3,13.7-8.3s9.7,4.2,13.7,8.3l0.1,0.1c4.1,4.1,8,8,13.1,8
	c5.1,0,9-3.9,13.1-8l0.1-0.1c4-4,8.2-8.3,13.7-8.3c2.8,0,5.9,1.1,8.9,2.6c3.1,1.6,6.1,3.6,8.8,5.7c2.7,2.1,5.1,4.1,6.8,5.7
	c0.8,0.8,1.5,1.4,2,1.9c0.2,0.2,0.4,0.4,0.5,0.5c0.1,0.1,0.1,0.1,0.1,0.1l0,0l0,0c0,0,0,0-0.4,0.4l-0.4,0.4l0,0l0,0l0,0l0,0l0,0
	c0,0,0,0-0.1-0.1c-0.1-0.1-0.3-0.3-0.5-0.5c-0.5-0.4-1.1-1.1-2-1.8c-1.7-1.5-4-3.6-6.7-5.6c-2.7-2-5.7-4.1-8.7-5.6
	c-3-1.5-5.9-2.5-8.5-2.5c-5.1,0-9,3.9-13.1,8l-0.1,0.1c-4,4-8.2,8.3-13.7,8.3c-5.6,0-9.7-4.2-13.7-8.3l-0.1-0.1c-4.1-4.1-8-8-13.1-8
	s-9,3.9-13.1,8l-0.1,0.1c-4,4-8.2,8.3-13.7,8.3s-9.7-4.2-13.7-8.3l-0.1-0.1c-4.1-4.1-8-8-13.1-8c-2.6,0-5.5,1-8.5,2.5
	c-3,1.5-6,3.5-8.7,5.6c-2.7,2-5,4.1-6.7,5.6c-0.8,0.8-1.5,1.4-2,1.8c-0.2,0.2-0.4,0.4-0.5,0.5C2.6,77.7,2.6,77.7,2.5,77.8L2.5,77.8
	L2.5,77.8z"/>
<path class="st0" d="M2.1,106.8l0.4,0.4l0,0l0,0c0,0,0.1-0.1,0.1-0.1c0.1-0.1,0.3-0.3,0.5-0.5c0.5-0.4,1.1-1.1,2-1.8
	c1.7-1.5,4-3.6,6.7-5.6c2.7-2,5.7-4.1,8.7-5.6c3-1.5,5.9-2.5,8.5-2.5c5.1,0,9,3.9,13.1,8l0.1,0.1c4,4,8.2,8.3,13.7,8.3
	s9.7-4.2,13.7-8.3l0.1-0.1c4.1-4.1,8-8,13.1-8s9,3.9,13.1,8l0.1,0.1c4,4,8.2,8.3,13.7,8.3c5.6,0,9.7-4.2,13.7-8.3l0.1-0.1
	c4.1-4.1,8-8,13.1-8c2.6,0,5.5,1,8.5,2.5c3,1.5,6,3.5,8.7,5.6c2.7,2,5,4.1,6.7,5.6c0.8,0.8,1.5,1.4,2,1.8c0.2,0.2,0.4,0.4,0.5,0.5
	c0.1,0.1,0.1,0.1,0.1,0.1l0,0l0,0l0,0l0.4-0.4c0.4-0.4,0.4-0.4,0.4-0.4l0,0l0,0l0,0c0,0-0.1-0.1-0.1-0.1c-0.1-0.1-0.3-0.3-0.5-0.5
	c-0.5-0.5-1.1-1.1-2-1.9c-1.7-1.5-4.1-3.6-6.8-5.7c-2.7-2.1-5.8-4.1-8.8-5.7c-3.1-1.5-6.2-2.6-8.9-2.6c-5.6,0-9.7,4.2-13.7,8.3
	l-0.1,0.1c-4.1,4.1-8,8-13.1,8c-5.1,0-9-3.9-13.1-8l-0.1-0.1c-4-4-8.2-8.3-13.7-8.3S73,94.1,69,98.1L69,98.2c-4.1,4.1-8,8-13.1,8
	c-5.1,0-9-3.9-13.1-8l-0.1-0.1c-4-4-8.2-8.3-13.7-8.3c-2.8,0-5.9,1.1-8.9,2.6C17,94,14,96.1,11.2,98.1c-2.7,2.1-5.1,4.1-6.8,5.7
	c-0.8,0.8-1.5,1.4-2,1.9c-0.2,0.2-0.4,0.4-0.5,0.5c-0.1,0.1-0.1,0.1-0.1,0.1l0,0l0,0l0,0C1.8,106.4,1.8,106.4,2.1,106.8z"/>
</svg>
