<?xml version="1.0" encoding="utf-8"?>
<!-- Generator: Adobe Illustrator 27.0.0, SVG Export Plug-In . SVG Version: 6.00 Build 0)  -->
<svg version="1.1" id="Layer_1" xmlns="http://www.w3.org/2000/svg" xmlns:xlink="http://www.w3.org/1999/xlink" x="0px" y="0px" width="100"
	 viewBox="0 0 101.2 100.5" style="enable-background:new 0 0 101.2 100.5;" xml:space="preserve">
<style type="text/css">
	.st0{fill:#151514;}
</style>
<g>
	<path class="st0" d="M5.6,3c0,1.3-1.1,2.4-2.4,2.4C1.8,5.4,0.7,4.3,0.7,3s1.1-2.4,2.4-2.4C4.5,0.5,5.6,1.6,5.6,3z"/>
	<path class="st0" d="M37.3,3c0,1.3-1.1,2.4-2.4,2.4c-1.3,0-2.4-1.1-2.4-2.4s1.1-2.4,2.4-2.4C36.2,0.5,37.3,1.6,37.3,3z"/>
	<path class="st0" d="M68.9,3c0,1.3-1.1,2.4-2.4,2.4c-1.3,0-2.4-1.1-2.4-2.4s1.1-2.4,2.4-2.4C67.8,0.5,68.9,1.6,68.9,3z"/>
	<path class="st0" d="M100.6,3c0,1.3-1.1,2.4-2.4,2.4c-1.3,0-2.4-1.1-2.4-2.4s1.1-2.4,2.4-2.4C99.5,0.5,100.6,1.6,100.6,3z"/>
	<path class="st0" d="M5.6,34.3c0,1.3-1.1,2.4-2.4,2.4c-1.3,0-2.4-1.1-2.4-2.4c0-1.3,1.1-2.4,2.4-2.4C4.5,31.9,5.6,33,5.6,34.3z"/>
	<path class="st0" d="M37.3,34.3c0,1.3-1.1,2.4-2.4,2.4c-1.3,0-2.4-1.1-2.4-2.4c0-1.3,1.1-2.4,2.4-2.4C36.2,31.9,37.3,33,37.3,34.3z
		"/>
	<path class="st0" d="M68.9,34.3c0,1.3-1.1,2.4-2.4,2.4c-1.3,0-2.4-1.1-2.4-2.4c0-1.3,1.1-2.4,2.4-2.4C67.8,31.9,68.9,33,68.9,34.3z
		"/>
	<path class="st0" d="M100.6,34.3c0,1.3-1.1,2.4-2.4,2.4c-1.3,0-2.4-1.1-2.4-2.4c0-1.3,1.1-2.4,2.4-2.4
		C99.5,31.9,100.6,33,100.6,34.3z"/>
	<path class="st0" d="M5.6,65.7c0,1.3-1.1,2.4-2.4,2.4c-1.3,0-2.4-1.1-2.4-2.4c0-1.3,1.1-2.4,2.4-2.4C4.5,63.3,5.6,64.4,5.6,65.7z"
		/>
	<path class="st0" d="M37.3,65.7c0,1.3-1.1,2.4-2.4,2.4c-1.3,0-2.4-1.1-2.4-2.4c0-1.3,1.1-2.4,2.4-2.4
		C36.2,63.3,37.3,64.4,37.3,65.7z"/>
	<path class="st0" d="M68.9,65.7c0,1.3-1.1,2.4-2.4,2.4c-1.3,0-2.4-1.1-2.4-2.4c0-1.3,1.1-2.4,2.4-2.4
		C67.8,63.3,68.9,64.4,68.9,65.7z"/>
	<path class="st0" d="M100.6,65.7c0,1.3-1.1,2.4-2.4,2.4c-1.3,0-2.4-1.1-2.4-2.4c0-1.3,1.1-2.4,2.4-2.4
		C99.5,63.3,100.6,64.4,100.6,65.7z"/>
	<path class="st0" d="M5.6,97.1c0,1.3-1.1,2.4-2.4,2.4c-1.3,0-2.4-1.1-2.4-2.4c0-1.3,1.1-2.4,2.4-2.4C4.5,94.7,5.6,95.8,5.6,97.1z"
		/>
	<path class="st0" d="M37.3,97.1c0,1.3-1.1,2.4-2.4,2.4c-1.3,0-2.4-1.1-2.4-2.4c0-1.3,1.1-2.4,2.4-2.4
		C36.2,94.7,37.3,95.8,37.3,97.1z"/>
	<path class="st0" d="M68.9,97.1c0,1.3-1.1,2.4-2.4,2.4c-1.3,0-2.4-1.1-2.4-2.4c0-1.3,1.1-2.4,2.4-2.4
		C67.8,94.7,68.9,95.8,68.9,97.1z"/>
	<path class="st0" d="M100.6,97.1c0,1.3-1.1,2.4-2.4,2.4c-1.3,0-2.4-1.1-2.4-2.4c0-1.3,1.1-2.4,2.4-2.4
		C99.5,94.7,100.6,95.8,100.6,97.1z"/>
</g>
</svg>
