<?xml version="1.0" encoding="utf-8"?>
<!-- Generator: Adobe Illustrator 27.0.0, SVG Export Plug-In . SVG Version: 6.00 Build 0)  -->
<svg version="1.1" id="Layer_1" xmlns="http://www.w3.org/2000/svg" xmlns:xlink="http://www.w3.org/1999/xlink" x="0px" y="0px" width="180"
	 viewBox="0 0 183.2 67.9" style="enable-background:new 0 0 183.2 67.9;" xml:space="preserve">
<style type="text/css">
	.st0{fill:#141515;}
</style>
<g>
	<g>
		<path class="st0" d="M12.5,58.9c-1.5-0.1-3,0-4.5,0.1c-0.1-0.8-0.2-1.6-0.3-2.4c-0.1-0.5-0.1-1.1-0.3-1.5
			c-0.1-0.2-0.1-0.3-0.2-0.4c-0.1-0.2-0.3-0.4-0.4-0.6c-0.1-0.2-0.4-0.2-0.4,0c0,0.2-0.2,0.3-0.3,0.5c-0.1,0.2-0.2,0.4-0.2,0.7
			c-0.1,0.4-0.1,0.9-0.2,1.4c-0.1,0.8-0.1,1.7-0.1,2.5c-1.7,0.2-3.3,0.5-4.8,1.1c-0.4,0.2-0.4,0.8,0.1,0.8c1.6,0.1,3.2,0.1,4.8,0.1
			c0,1.6,0.1,3.1,0.1,4.7c0,1.8,2.8,1.7,2.7,0c-0.1-1.6-0.2-3.2-0.3-4.8c1.4,0,2.9,0,4.4-0.1C13.8,61,13.8,59,12.5,58.9z"/>
		<path class="st0" d="M36.7,58.9c-1.5-0.1-3,0-4.5,0.1c-0.1-0.8-0.2-1.6-0.3-2.4c-0.1-0.5-0.1-1.1-0.3-1.5
			c-0.1-0.2-0.1-0.3-0.2-0.4c-0.1-0.2-0.3-0.4-0.4-0.6c-0.1-0.2-0.4-0.2-0.4,0c0,0.2-0.2,0.3-0.3,0.5c-0.1,0.2-0.2,0.4-0.2,0.7
			c-0.1,0.4-0.1,0.9-0.2,1.4c-0.1,0.8-0.1,1.7-0.1,2.5c-1.7,0.2-3.3,0.5-4.8,1.1c-0.4,0.2-0.4,0.8,0.1,0.8c1.6,0.1,3.2,0.1,4.8,0.1
			c0,1.6,0.1,3.1,0.1,4.7c0,1.8,2.8,1.7,2.7,0c-0.1-1.6-0.2-3.2-0.3-4.8c1.4,0,2.9,0,4.4-0.1C38.1,61,38.1,59,36.7,58.9z"/>
		<path class="st0" d="M60.9,58.9c-1.5-0.1-3,0-4.5,0.1c-0.1-0.8-0.2-1.6-0.3-2.4c-0.1-0.5-0.1-1.1-0.3-1.5
			c-0.1-0.2-0.1-0.3-0.2-0.4c-0.1-0.2-0.3-0.4-0.4-0.6c-0.1-0.2-0.4-0.2-0.4,0c0,0.2-0.2,0.3-0.3,0.5c-0.1,0.2-0.2,0.4-0.2,0.7
			c-0.1,0.4-0.1,0.9-0.2,1.4c-0.1,0.8-0.1,1.7-0.1,2.5c-1.7,0.2-3.3,0.5-4.8,1.1c-0.4,0.2-0.4,0.8,0.1,0.8c1.6,0.1,3.2,0.1,4.8,0.1
			c0,1.6,0.1,3.1,0.1,4.7c0,1.8,2.8,1.7,2.7,0c-0.1-1.6-0.2-3.2-0.3-4.8c1.4,0,2.9,0,4.4-0.1C62.3,61,62.3,59,60.9,58.9z"/>
		<path class="st0" d="M85.1,58.9c-1.5-0.1-3,0-4.5,0.1c-0.1-0.8-0.2-1.6-0.3-2.4c-0.1-0.5-0.1-1.1-0.3-1.5
			c-0.1-0.2-0.1-0.3-0.2-0.4c-0.1-0.2-0.3-0.4-0.4-0.6c-0.1-0.2-0.4-0.2-0.4,0c0,0.2-0.2,0.3-0.3,0.5c-0.1,0.2-0.2,0.4-0.2,0.7
			c-0.1,0.4-0.1,0.9-0.2,1.4c-0.1,0.8-0.1,1.7-0.1,2.5c-1.7,0.2-3.3,0.5-4.8,1.1c-0.4,0.2-0.4,0.8,0.1,0.8c1.6,0.1,3.2,0.1,4.8,0.1
			c0,1.6,0.1,3.1,0.1,4.7c0,1.8,2.8,1.7,2.7,0c-0.1-1.6-0.2-3.2-0.3-4.8c1.4,0,2.9,0,4.4-0.1C86.5,61,86.5,59,85.1,58.9z"/>
		<path class="st0" d="M109.4,58.9c-1.5-0.1-3,0-4.5,0.1c-0.1-0.8-0.2-1.6-0.3-2.4c-0.1-0.5-0.1-1.1-0.3-1.5
			c-0.1-0.2-0.1-0.3-0.2-0.4c-0.1-0.2-0.3-0.4-0.4-0.6c-0.1-0.2-0.4-0.2-0.4,0c0,0.2-0.2,0.3-0.3,0.5c-0.1,0.2-0.2,0.4-0.2,0.7
			c-0.1,0.4-0.1,0.9-0.2,1.4c-0.1,0.8-0.1,1.7-0.1,2.5c-1.7,0.2-3.3,0.5-4.8,1.1c-0.4,0.2-0.4,0.8,0.1,0.8c1.6,0.1,3.2,0.1,4.8,0.1
			c0,1.6,0.1,3.1,0.1,4.7c0,1.8,2.8,1.7,2.7,0c-0.1-1.6-0.2-3.2-0.3-4.8c1.4,0,2.9,0,4.4-0.1C110.7,61,110.7,59,109.4,58.9z"/>
		<path class="st0" d="M133.6,58.9c-1.5-0.1-3,0-4.5,0.1c-0.1-0.8-0.2-1.6-0.3-2.4c-0.1-0.5-0.1-1.1-0.3-1.5
			c-0.1-0.2-0.1-0.3-0.2-0.4c-0.1-0.2-0.3-0.4-0.4-0.6c-0.1-0.2-0.4-0.2-0.4,0c0,0.2-0.2,0.3-0.3,0.5c-0.1,0.2-0.2,0.4-0.2,0.7
			c-0.1,0.4-0.1,0.9-0.2,1.4c-0.1,0.8-0.1,1.7-0.1,2.5c-1.7,0.2-3.3,0.5-4.8,1.1c-0.4,0.2-0.4,0.8,0.1,0.8c1.6,0.1,3.2,0.1,4.8,0.1
			c0,1.6,0.1,3.1,0.1,4.7c0,1.8,2.8,1.7,2.7,0c-0.1-1.6-0.2-3.2-0.3-4.8c1.4,0,2.9,0,4.4-0.1C135,61,134.9,59,133.6,58.9z"/>
		<path class="st0" d="M157.8,58.9c-1.5-0.1-3,0-4.5,0.1c-0.1-0.8-0.2-1.6-0.3-2.4c-0.1-0.5-0.1-1.1-0.3-1.5
			c-0.1-0.2-0.1-0.3-0.2-0.4c-0.1-0.2-0.3-0.4-0.4-0.6c-0.1-0.2-0.4-0.2-0.4,0c0,0.2-0.2,0.3-0.3,0.5c-0.1,0.2-0.2,0.4-0.2,0.7
			c-0.1,0.4-0.1,0.9-0.2,1.4c-0.1,0.8-0.1,1.7-0.1,2.5c-1.7,0.2-3.3,0.5-4.8,1.1c-0.4,0.2-0.4,0.8,0.1,0.8c1.6,0.1,3.2,0.1,4.8,0.1
			c0,1.6,0.1,3.1,0.1,4.7c0,1.8,2.8,1.7,2.7,0c-0.1-1.6-0.2-3.2-0.3-4.8c1.4,0,2.9,0,4.4-0.1C159.2,61,159.2,59,157.8,58.9z"/>
		<path class="st0" d="M182,58.9c-1.5-0.1-3,0-4.5,0.1c-0.1-0.8-0.2-1.6-0.3-2.4c-0.1-0.5-0.1-1.1-0.3-1.5c-0.1-0.2-0.1-0.3-0.2-0.4
			c-0.1-0.2-0.3-0.4-0.4-0.6c-0.1-0.2-0.4-0.2-0.4,0c0,0.2-0.2,0.3-0.3,0.5c-0.1,0.2-0.2,0.4-0.2,0.7c-0.1,0.4-0.1,0.9-0.2,1.4
			c-0.1,0.8-0.1,1.7-0.1,2.5c-1.7,0.2-3.3,0.5-4.8,1.1c-0.4,0.2-0.4,0.8,0.1,0.8c1.6,0.1,3.2,0.1,4.8,0.1c0,1.6,0.1,3.1,0.1,4.7
			c0,1.8,2.8,1.7,2.7,0c-0.1-1.6-0.2-3.2-0.3-4.8c1.4,0,2.9,0,4.4-0.1C183.4,61,183.4,59,182,58.9z"/>
	</g>
	<g>
		<path class="st0" d="M12.5,32.6c-1.5-0.1-3,0-4.5,0.1c-0.1-0.8-0.2-1.6-0.3-2.4c-0.1-0.5-0.1-1.1-0.3-1.5
			c-0.1-0.2-0.1-0.3-0.2-0.4c-0.1-0.2-0.3-0.4-0.4-0.6c-0.1-0.2-0.4-0.2-0.4,0c0,0.2-0.2,0.3-0.3,0.5c-0.1,0.2-0.2,0.4-0.2,0.7
			c-0.1,0.4-0.1,0.9-0.2,1.4c-0.1,0.8-0.1,1.7-0.1,2.5c-1.7,0.2-3.3,0.5-4.8,1.1c-0.4,0.2-0.4,0.8,0.1,0.8c1.6,0.1,3.2,0.1,4.8,0.1
			c0,1.6,0.1,3.1,0.1,4.7c0,1.8,2.8,1.7,2.7,0c-0.1-1.6-0.2-3.2-0.3-4.8c1.4,0,2.9,0,4.4-0.1C13.8,34.7,13.8,32.6,12.5,32.6z"/>
		<path class="st0" d="M36.7,32.6c-1.5-0.1-3,0-4.5,0.1c-0.1-0.8-0.2-1.6-0.3-2.4c-0.1-0.5-0.1-1.1-0.3-1.5
			c-0.1-0.2-0.1-0.3-0.2-0.4c-0.1-0.2-0.3-0.4-0.4-0.6c-0.1-0.2-0.4-0.2-0.4,0c0,0.2-0.2,0.3-0.3,0.5c-0.1,0.2-0.2,0.4-0.2,0.7
			c-0.1,0.4-0.1,0.9-0.2,1.4c-0.1,0.8-0.1,1.7-0.1,2.5c-1.7,0.2-3.3,0.5-4.8,1.1c-0.4,0.2-0.4,0.8,0.1,0.8c1.6,0.1,3.2,0.1,4.8,0.1
			c0,1.6,0.1,3.1,0.1,4.7c0,1.8,2.8,1.7,2.7,0c-0.1-1.6-0.2-3.2-0.3-4.8c1.4,0,2.9,0,4.4-0.1C38.1,34.7,38.1,32.6,36.7,32.6z"/>
		<path class="st0" d="M60.9,32.6c-1.5-0.1-3,0-4.5,0.1c-0.1-0.8-0.2-1.6-0.3-2.4c-0.1-0.5-0.1-1.1-0.3-1.5
			c-0.1-0.2-0.1-0.3-0.2-0.4c-0.1-0.2-0.3-0.4-0.4-0.6c-0.1-0.2-0.4-0.2-0.4,0c0,0.2-0.2,0.3-0.3,0.5c-0.1,0.2-0.2,0.4-0.2,0.7
			c-0.1,0.4-0.1,0.9-0.2,1.4c-0.1,0.8-0.1,1.7-0.1,2.5c-1.7,0.2-3.3,0.5-4.8,1.1c-0.4,0.2-0.4,0.8,0.1,0.8c1.6,0.1,3.2,0.1,4.8,0.1
			c0,1.6,0.1,3.1,0.1,4.7c0,1.8,2.8,1.7,2.7,0c-0.1-1.6-0.2-3.2-0.3-4.8c1.4,0,2.9,0,4.4-0.1C62.3,34.7,62.3,32.6,60.9,32.6z"/>
		<path class="st0" d="M85.1,32.6c-1.5-0.1-3,0-4.5,0.1c-0.1-0.8-0.2-1.6-0.3-2.4c-0.1-0.5-0.1-1.1-0.3-1.5
			c-0.1-0.2-0.1-0.3-0.2-0.4c-0.1-0.2-0.3-0.4-0.4-0.6c-0.1-0.2-0.4-0.2-0.4,0c0,0.2-0.2,0.3-0.3,0.5c-0.1,0.2-0.2,0.4-0.2,0.7
			c-0.1,0.4-0.1,0.9-0.2,1.4c-0.1,0.8-0.1,1.7-0.1,2.5c-1.7,0.2-3.3,0.5-4.8,1.1c-0.4,0.2-0.4,0.8,0.1,0.8c1.6,0.1,3.2,0.1,4.8,0.1
			c0,1.6,0.1,3.1,0.1,4.7c0,1.8,2.8,1.7,2.7,0c-0.1-1.6-0.2-3.2-0.3-4.8c1.4,0,2.9,0,4.4-0.1C86.5,34.7,86.5,32.6,85.1,32.6z"/>
		<path class="st0" d="M109.4,32.6c-1.5-0.1-3,0-4.5,0.1c-0.1-0.8-0.2-1.6-0.3-2.4c-0.1-0.5-0.1-1.1-0.3-1.5
			c-0.1-0.2-0.1-0.3-0.2-0.4c-0.1-0.2-0.3-0.4-0.4-0.6c-0.1-0.2-0.4-0.2-0.4,0c0,0.2-0.2,0.3-0.3,0.5c-0.1,0.2-0.2,0.4-0.2,0.7
			c-0.1,0.4-0.1,0.9-0.2,1.4c-0.1,0.8-0.1,1.7-0.1,2.5c-1.7,0.2-3.3,0.5-4.8,1.1c-0.4,0.2-0.4,0.8,0.1,0.8c1.6,0.1,3.2,0.1,4.8,0.1
			c0,1.6,0.1,3.1,0.1,4.7c0,1.8,2.8,1.7,2.7,0c-0.1-1.6-0.2-3.2-0.3-4.8c1.4,0,2.9,0,4.4-0.1C110.7,34.7,110.7,32.6,109.4,32.6z"/>
		<path class="st0" d="M133.6,32.6c-1.5-0.1-3,0-4.5,0.1c-0.1-0.8-0.2-1.6-0.3-2.4c-0.1-0.5-0.1-1.1-0.3-1.5
			c-0.1-0.2-0.1-0.3-0.2-0.4c-0.1-0.2-0.3-0.4-0.4-0.6c-0.1-0.2-0.4-0.2-0.4,0c0,0.2-0.2,0.3-0.3,0.5c-0.1,0.2-0.2,0.4-0.2,0.7
			c-0.1,0.4-0.1,0.9-0.2,1.4c-0.1,0.8-0.1,1.7-0.1,2.5c-1.7,0.2-3.3,0.5-4.8,1.1c-0.4,0.2-0.4,0.8,0.1,0.8c1.6,0.1,3.2,0.1,4.8,0.1
			c0,1.6,0.1,3.1,0.1,4.7c0,1.8,2.8,1.7,2.7,0c-0.1-1.6-0.2-3.2-0.3-4.8c1.4,0,2.9,0,4.4-0.1C135,34.7,134.9,32.6,133.6,32.6z"/>
		<path class="st0" d="M157.8,32.6c-1.5-0.1-3,0-4.5,0.1c-0.1-0.8-0.2-1.6-0.3-2.4c-0.1-0.5-0.1-1.1-0.3-1.5
			c-0.1-0.2-0.1-0.3-0.2-0.4c-0.1-0.2-0.3-0.4-0.4-0.6c-0.1-0.2-0.4-0.2-0.4,0c0,0.2-0.2,0.3-0.3,0.5c-0.1,0.2-0.2,0.4-0.2,0.7
			c-0.1,0.4-0.1,0.9-0.2,1.4c-0.1,0.8-0.1,1.7-0.1,2.5c-1.7,0.2-3.3,0.5-4.8,1.1c-0.4,0.2-0.4,0.8,0.1,0.8c1.6,0.1,3.2,0.1,4.8,0.1
			c0,1.6,0.1,3.1,0.1,4.7c0,1.8,2.8,1.7,2.7,0c-0.1-1.6-0.2-3.2-0.3-4.8c1.4,0,2.9,0,4.4-0.1C159.2,34.7,159.2,32.6,157.8,32.6z"/>
		<path class="st0" d="M182,32.6c-1.5-0.1-3,0-4.5,0.1c-0.1-0.8-0.2-1.6-0.3-2.4c-0.1-0.5-0.1-1.1-0.3-1.5c-0.1-0.2-0.1-0.3-0.2-0.4
			c-0.1-0.2-0.3-0.4-0.4-0.6c-0.1-0.2-0.4-0.2-0.4,0c0,0.2-0.2,0.3-0.3,0.5c-0.1,0.2-0.2,0.4-0.2,0.7c-0.1,0.4-0.1,0.9-0.2,1.4
			c-0.1,0.8-0.1,1.7-0.1,2.5c-1.7,0.2-3.3,0.5-4.8,1.1c-0.4,0.2-0.4,0.8,0.1,0.8c1.6,0.1,3.2,0.1,4.8,0.1c0,1.6,0.1,3.1,0.1,4.7
			c0,1.8,2.8,1.7,2.7,0c-0.1-1.6-0.2-3.2-0.3-4.8c1.4,0,2.9,0,4.4-0.1C183.4,34.7,183.4,32.6,182,32.6z"/>
	</g>
	<g>
		<path class="st0" d="M12.5,6.2c-1.5-0.1-3,0-4.5,0.1C7.9,5.4,7.8,4.6,7.7,3.8C7.6,3.4,7.5,2.8,7.4,2.3C7.3,2.1,7.2,2,7.1,1.9
			C7,1.7,6.8,1.5,6.7,1.3c-0.1-0.2-0.4-0.2-0.4,0c0,0.2-0.2,0.3-0.3,0.5C5.9,2.1,5.8,2.3,5.8,2.5C5.7,3,5.6,3.4,5.6,3.9
			C5.5,4.7,5.5,5.6,5.5,6.4C3.8,6.6,2.2,6.9,0.7,7.6C0.2,7.7,0.3,8.3,0.8,8.4c1.6,0.1,3.2,0.1,4.8,0.1c0,1.6,0.1,3.1,0.1,4.7
			c0,1.8,2.8,1.7,2.7,0c-0.1-1.6-0.2-3.2-0.3-4.8c1.4,0,2.9,0,4.4-0.1C13.8,8.3,13.8,6.2,12.5,6.2z"/>
		<path class="st0" d="M36.7,6.2c-1.5-0.1-3,0-4.5,0.1c-0.1-0.8-0.2-1.6-0.3-2.4c-0.1-0.5-0.1-1.1-0.3-1.5c-0.1-0.2-0.1-0.3-0.2-0.4
			C31.3,1.7,31,1.5,31,1.3c-0.1-0.2-0.4-0.2-0.4,0c0,0.2-0.2,0.3-0.3,0.5C30.1,2.1,30,2.3,30,2.5c-0.1,0.4-0.1,0.9-0.2,1.4
			c-0.1,0.8-0.1,1.7-0.1,2.5c-1.7,0.2-3.3,0.5-4.8,1.1c-0.4,0.2-0.4,0.8,0.1,0.8c1.6,0.1,3.2,0.1,4.8,0.1c0,1.6,0.1,3.1,0.1,4.7
			c0,1.8,2.8,1.7,2.7,0c-0.1-1.6-0.2-3.2-0.3-4.8c1.4,0,2.9,0,4.4-0.1C38.1,8.3,38.1,6.2,36.7,6.2z"/>
		<path class="st0" d="M60.9,6.2c-1.5-0.1-3,0-4.5,0.1c-0.1-0.8-0.2-1.6-0.3-2.4c-0.1-0.5-0.1-1.1-0.3-1.5c-0.1-0.2-0.1-0.3-0.2-0.4
			c-0.1-0.2-0.3-0.4-0.4-0.6c-0.1-0.2-0.4-0.2-0.4,0c0,0.2-0.2,0.3-0.3,0.5c-0.1,0.2-0.2,0.4-0.2,0.7C54.1,3,54.1,3.4,54,3.9
			c-0.1,0.8-0.1,1.7-0.1,2.5c-1.7,0.2-3.3,0.5-4.8,1.1c-0.4,0.2-0.4,0.8,0.1,0.8c1.6,0.1,3.2,0.1,4.8,0.1c0,1.6,0.1,3.1,0.1,4.7
			c0,1.8,2.8,1.7,2.7,0c-0.1-1.6-0.2-3.2-0.3-4.8c1.4,0,2.9,0,4.4-0.1C62.3,8.3,62.3,6.2,60.9,6.2z"/>
		<path class="st0" d="M85.1,6.2c-1.5-0.1-3,0-4.5,0.1c-0.1-0.8-0.2-1.6-0.3-2.4c-0.1-0.5-0.1-1.1-0.3-1.5C80,2.1,79.9,2,79.8,1.9
			c-0.1-0.2-0.3-0.4-0.4-0.6c-0.1-0.2-0.4-0.2-0.4,0c0,0.2-0.2,0.3-0.3,0.5c-0.1,0.2-0.2,0.4-0.2,0.7c-0.1,0.4-0.1,0.9-0.2,1.4
			c-0.1,0.8-0.1,1.7-0.1,2.5c-1.7,0.2-3.3,0.5-4.8,1.1c-0.4,0.2-0.4,0.8,0.1,0.8c1.6,0.1,3.2,0.1,4.8,0.1c0,1.6,0.1,3.1,0.1,4.7
			c0,1.8,2.8,1.7,2.7,0c-0.1-1.6-0.2-3.2-0.3-4.8c1.4,0,2.9,0,4.4-0.1C86.5,8.3,86.5,6.2,85.1,6.2z"/>
		<path class="st0" d="M109.4,6.2c-1.5-0.1-3,0-4.5,0.1c-0.1-0.8-0.2-1.6-0.3-2.4c-0.1-0.5-0.1-1.1-0.3-1.5
			c-0.1-0.2-0.1-0.3-0.2-0.4c-0.1-0.2-0.3-0.4-0.4-0.6c-0.1-0.2-0.4-0.2-0.4,0c0,0.2-0.2,0.3-0.3,0.5c-0.1,0.2-0.2,0.4-0.2,0.7
			c-0.1,0.4-0.1,0.9-0.2,1.4c-0.1,0.8-0.1,1.7-0.1,2.5c-1.7,0.2-3.3,0.5-4.8,1.1c-0.4,0.2-0.4,0.8,0.1,0.8c1.6,0.1,3.2,0.1,4.8,0.1
			c0,1.6,0.1,3.1,0.1,4.7c0,1.8,2.8,1.7,2.7,0c-0.1-1.6-0.2-3.2-0.3-4.8c1.4,0,2.9,0,4.4-0.1C110.7,8.3,110.7,6.2,109.4,6.2z"/>
		<path class="st0" d="M133.6,6.2c-1.5-0.1-3,0-4.5,0.1c-0.1-0.8-0.2-1.6-0.3-2.4c-0.1-0.5-0.1-1.1-0.3-1.5
			c-0.1-0.2-0.1-0.3-0.2-0.4c-0.1-0.2-0.3-0.4-0.4-0.6c-0.1-0.2-0.4-0.2-0.4,0c0,0.2-0.2,0.3-0.3,0.5c-0.1,0.2-0.2,0.4-0.2,0.7
			c-0.1,0.4-0.1,0.9-0.2,1.4c-0.1,0.8-0.1,1.7-0.1,2.5c-1.7,0.2-3.3,0.5-4.8,1.1c-0.4,0.2-0.4,0.8,0.1,0.8c1.6,0.1,3.2,0.1,4.8,0.1
			c0,1.6,0.1,3.1,0.1,4.7c0,1.8,2.8,1.7,2.7,0c-0.1-1.6-0.2-3.2-0.3-4.8c1.4,0,2.9,0,4.4-0.1C135,8.3,134.9,6.2,133.6,6.2z"/>
		<path class="st0" d="M157.8,6.2c-1.5-0.1-3,0-4.5,0.1c-0.1-0.8-0.2-1.6-0.3-2.4c-0.1-0.5-0.1-1.1-0.3-1.5
			c-0.1-0.2-0.1-0.3-0.2-0.4c-0.1-0.2-0.3-0.4-0.4-0.6c-0.1-0.2-0.4-0.2-0.4,0c0,0.2-0.2,0.3-0.3,0.5c-0.1,0.2-0.2,0.4-0.2,0.7
			c-0.1,0.4-0.1,0.9-0.2,1.4c-0.1,0.8-0.1,1.7-0.1,2.5c-1.7,0.2-3.3,0.5-4.8,1.1c-0.4,0.2-0.4,0.8,0.1,0.8c1.6,0.1,3.2,0.1,4.8,0.1
			c0,1.6,0.1,3.1,0.1,4.7c0,1.8,2.8,1.7,2.7,0c-0.1-1.6-0.2-3.2-0.3-4.8c1.4,0,2.9,0,4.4-0.1C159.2,8.3,159.2,6.2,157.8,6.2z"/>
		<path class="st0" d="M182,6.2c-1.5-0.1-3,0-4.5,0.1c-0.1-0.8-0.2-1.6-0.3-2.4c-0.1-0.5-0.1-1.1-0.3-1.5c-0.1-0.2-0.1-0.3-0.2-0.4
			c-0.1-0.2-0.3-0.4-0.4-0.6c-0.1-0.2-0.4-0.2-0.4,0c0,0.2-0.2,0.3-0.3,0.5c-0.1,0.2-0.2,0.4-0.2,0.7c-0.1,0.4-0.1,0.9-0.2,1.4
			c-0.1,0.8-0.1,1.7-0.1,2.5c-1.7,0.2-3.3,0.5-4.8,1.1c-0.4,0.2-0.4,0.8,0.1,0.8c1.6,0.1,3.2,0.1,4.8,0.1c0,1.6,0.1,3.1,0.1,4.7
			c0,1.8,2.8,1.7,2.7,0c-0.1-1.6-0.2-3.2-0.3-4.8c1.4,0,2.9,0,4.4-0.1C183.4,8.3,183.4,6.2,182,6.2z"/>
	</g>
</g>
</svg>
