<?xml version="1.0" encoding="utf-8"?>
<!-- Generator: Adobe Illustrator 27.0.0, SVG Export Plug-In . SVG Version: 6.00 Build 0)  -->
<svg version="1.1" id="Layer_1" xmlns="http://www.w3.org/2000/svg" xmlns:xlink="http://www.w3.org/1999/xlink" x="0px" y="0px" width="88"
	 viewBox="0 0 85.4 156" style="enable-background:new 0 0 85.4 156;" xml:space="preserve">
<style type="text/css">
	.st0{fill:#151515;}
	.st1{fill:#FFFFFF;}
	.st2{fill:#141414;}
	.st3{fill:none;}
</style>
<path class="st0" d="M89.1,51.1c-0.1,0.1-0.3,0.3-0.4,0.4v-0.7C88.9,50.8,89,51,89.1,51.1z"/>
<path class="st1" d="M83,67.3c-9.4,32.4-46.9,15.1-55.4,35.4c-8.5,20.3,9.6,50-17.1,52.9c-4.4,0.5-8.3,0.2-11.7-0.7V56.9
	c12.5-19.7,30-34,49.3-32.8c10.9,0.7,20,5.1,26.3,11.4C82.8,43.9,86.4,55.9,83,67.3z"/>
<g>
	<path class="st2" d="M74.5,35.4c0.1,8.9-3.4,18.2-10.3,24.1c-7,5.9-16.4,7.5-25.1,9.2c-8.2,1.5-18.1,3.8-21,12.7
		c-3,8.4-2.1,17.4-1.7,26.2c0.8,14.2-0.9,24.9-17.6,25.7c0,0-0.3,0-0.3,0s0-0.3,0-0.3C-1.6,96.9-2.3,57.2-2.2,21c0,0,0-0.4,0-0.4
		S-2,20.3-2,20.3C7.7,9.4,21.3,0,36.5,0.5C55.6,0.6,74.3,15.6,74.5,35.4L74.5,35.4z M74.3,35.4c-0.4-19.7-19-33.6-37.8-33.3
		c-14.6,0-27.5,9-36.9,19.6c0,0,0.3-0.7,0.3-0.7c0,25.9-0.3,58-0.6,84c-0.1,9.3-0.1,18.7-0.2,28c0,0-0.3-0.3-0.3-0.3
		c16.3-1,17.5-11.2,16.4-25c-0.7-11.2-3-26.3,6.6-34.5c4.9-3.8,11.2-4.9,17.1-6c5.9-1,11.8-1.8,17.3-3.9
		C67.8,59.1,74.4,47.5,74.3,35.4L74.3,35.4z"/>
</g>
<rect x="-76.5" y="-4.7" class="st3" width="75.3" height="190.6"/>
</svg>
