<?xml version="1.0" encoding="utf-8"?>
<!-- Generator: Adobe Illustrator 27.0.0, SVG Export Plug-In . SVG Version: 6.00 Build 0)  -->
<svg version="1.1" id="Layer_1" xmlns="http://www.w3.org/2000/svg" xmlns:xlink="http://www.w3.org/1999/xlink" x="0px" y="0px" width="180"
	 viewBox="0 0 181.1 36.7" style="enable-background:new 0 0 181.1 36.7;" xml:space="preserve">
<g>
	<circle cx="4.2" cy="32.8" r="2.2"/>
	<circle cx="4.2" cy="3.8" r="2.2"/>
	<circle cx="32.9" cy="32.8" r="2.2"/>
	<circle cx="32.9" cy="3.8" r="2.2"/>
	<path d="M61.6,30.6c1.2,0,2.2,1,2.2,2.2c0,1.2-1,2.2-2.2,2.2c-1.2,0-2.2-1-2.2-2.2C59.4,31.6,60.4,30.6,61.6,30.6z"/>
	<path d="M61.6,1.6c1.2,0,2.2,1,2.2,2.2c0,1.2-1,2.2-2.2,2.2c-1.2,0-2.2-1-2.2-2.2C59.4,2.6,60.4,1.6,61.6,1.6z"/>
	<path d="M90.4,30.6c1.2,0,2.2,1,2.2,2.2c0,1.2-1,2.2-2.2,2.2c-1.2,0-2.2-1-2.2-2.2C88.1,31.6,89.1,30.6,90.4,30.6z"/>
	<path d="M90.4,1.6c1.2,0,2.2,1,2.2,2.2c0,1.2-1,2.2-2.2,2.2c-1.2,0-2.2-1-2.2-2.2C88.1,2.6,89.1,1.6,90.4,1.6z"/>
	<circle cx="119.1" cy="32.8" r="2.2"/>
	<circle cx="119.1" cy="3.8" r="2.2"/>
	<circle cx="147.8" cy="32.8" r="2.2"/>
	<circle cx="147.8" cy="3.8" r="2.2"/>
	<path d="M176.6,30.6c1.2,0,2.2,1,2.2,2.2c0,1.2-1,2.2-2.2,2.2c-1.2,0-2.2-1-2.2-2.2C174.3,31.6,175.3,30.6,176.6,30.6z"/>
	<path d="M176.6,1.6c1.2,0,2.2,1,2.2,2.2c0,1.2-1,2.2-2.2,2.2c-1.2,0-2.2-1-2.2-2.2C174.3,2.6,175.3,1.6,176.6,1.6z"/>
</g>
</svg>
