<?xml version="1.0" encoding="utf-8"?>
<!-- Generator: Adobe Illustrator 27.0.0, SVG Export Plug-In . SVG Version: 6.00 Build 0)  -->
<svg version="1.1" id="Layer_1" xmlns="http://www.w3.org/2000/svg" xmlns:xlink="http://www.w3.org/1999/xlink" x="0px" y="0px" width="90"
	 viewBox="0 0 33.1 25.2" style="enable-background:new 0 0 33.1 25.2;" xml:space="preserve">
<style type="text/css">
	.st0{fill-rule:evenodd;clip-rule:evenodd;fill:#151515;}
</style>
<path class="st0" d="M32.2,8.3c0.3-1.4,0.6-2.7,0.9-4.1c0.1-0.3-0.1-0.6-0.4-0.6C32.4,3.5,32.1,3.7,32,4c-0.3,1.4-0.6,2.7-0.9,4.1
	c-0.1,0.3,0.1,0.6,0.4,0.6C31.9,8.8,32.2,8.6,32.2,8.3z"/>
<path class="st0" d="M21.2,11.8c-2.1-3.9-4.5-7.6-6.7-11.5c-0.2-0.3-0.5-0.3-0.7-0.2c-0.3,0.2-0.3,0.5-0.2,0.7
	c2.2,3.8,4.5,7.6,6.7,11.4c0.1,0.3,0.5,0.4,0.7,0.2C21.3,12.4,21.4,12.1,21.2,11.8z"/>
<path class="st0" d="M10.9,24c-3.3-1.7-6.7-3.3-10-5.1c-0.3-0.1-0.6,0-0.7,0.2c-0.1,0.3,0,0.6,0.2,0.7c3.3,1.8,6.7,3.4,10,5.1
	c0.3,0.1,0.6,0,0.7-0.2C11.3,24.5,11.2,24.1,10.9,24z"/>
</svg>
