<?xml version="1.0" encoding="utf-8"?>
<!-- Generator: Adobe Illustrator 27.0.0, SVG Export Plug-In . SVG Version: 6.00 Build 0)  -->
<svg version="1.1" id="Layer_1" xmlns="http://www.w3.org/2000/svg" xmlns:xlink="http://www.w3.org/1999/xlink" x="0px" y="0px" width="70"
	 viewBox="0 0 79.1 136.1" style="enable-background:new 0 0 79.1 136.1;" xml:space="preserve">
<g>
	<path d="M32.7,6c0.6-0.4,1.3-0.7,1.9-1.1C34.2,5.5,33.5,6,32.7,6z"/>
	<path d="M16.2,19c1-1.1,2.1-2.2,3.2-3.2c0.7,0.4,1.2,1.2,1.2,2.1c0,1.3-1.1,2.4-2.4,2.4C17.4,20.3,16.6,19.8,16.2,19z"/>
	<path d="M5.3,34.2c0.3-0.7,0.7-1.3,1.1-1.9C6.4,33.1,6,33.8,5.3,34.2z"/>
	<path d="M34.6,130.9c-0.4-0.6-1.1-1.1-1.9-1.1C33.3,130.2,34,130.6,34.6,130.9z"/>
	<path d="M19.5,120c0.7-0.4,1.2-1.2,1.2-2.1c0-1.3-1.1-2.4-2.4-2.4c-0.9,0-1.7,0.5-2.1,1.2C17.3,117.9,18.3,119,19.5,120z"/>
	<path d="M6.4,103.6c0-0.8-0.4-1.5-1.1-1.9C5.7,102.3,6,102.9,6.4,103.6z"/>
	<path d="M49.3,3.6c0,1.3-1.1,2.4-2.4,2.4c-1.3,0-2.4-1.1-2.4-2.4s1.1-2.4,2.4-2.4C48.2,1.2,49.3,2.3,49.3,3.6z"/>
	<path d="M63.6,3.6c0,1.3-1.1,2.4-2.4,2.4c-1.3,0-2.4-1.1-2.4-2.4s1.1-2.4,2.4-2.4C62.5,1.2,63.6,2.3,63.6,3.6z"/>
	<path d="M77.9,3.6c0,1.3-1.1,2.4-2.4,2.4c-1.3,0-2.4-1.1-2.4-2.4s1.1-2.4,2.4-2.4C76.8,1.2,77.9,2.3,77.9,3.6z"/>
	<path d="M35,17.9c0,1.3-1.1,2.4-2.4,2.4c-1.3,0-2.4-1.1-2.4-2.4s1.1-2.4,2.4-2.4C33.9,15.5,35,16.6,35,17.9z"/>
	<path d="M49.3,17.9c0,1.3-1.1,2.4-2.4,2.4c-1.3,0-2.4-1.1-2.4-2.4s1.1-2.4,2.4-2.4C48.2,15.5,49.3,16.6,49.3,17.9z"/>
	<path d="M63.6,17.9c0,1.3-1.1,2.4-2.4,2.4c-1.3,0-2.4-1.1-2.4-2.4s1.1-2.4,2.4-2.4C62.5,15.5,63.6,16.6,63.6,17.9z"/>
	<path d="M77.9,17.9c0,1.3-1.1,2.4-2.4,2.4c-1.3,0-2.4-1.1-2.4-2.4s1.1-2.4,2.4-2.4C76.8,15.5,77.9,16.6,77.9,17.9z"/>
	<path d="M20.7,32.2c0,1.3-1.1,2.4-2.4,2.4c-1.3,0-2.4-1.1-2.4-2.4c0-1.3,1.1-2.4,2.4-2.4C19.6,29.8,20.7,30.9,20.7,32.2z"/>
	<path d="M35,32.2c0,1.3-1.1,2.4-2.4,2.4c-1.3,0-2.4-1.1-2.4-2.4c0-1.3,1.1-2.4,2.4-2.4C33.9,29.8,35,30.9,35,32.2z"/>
	<path d="M49.3,32.2c0,1.3-1.1,2.4-2.4,2.4c-1.3,0-2.4-1.1-2.4-2.4c0-1.3,1.1-2.4,2.4-2.4C48.2,29.8,49.3,30.9,49.3,32.2z"/>
	<path d="M63.6,32.2c0,1.3-1.1,2.4-2.4,2.4c-1.3,0-2.4-1.1-2.4-2.4c0-1.3,1.1-2.4,2.4-2.4C62.5,29.8,63.6,30.9,63.6,32.2z"/>
	<path d="M77.9,32.2c0,1.3-1.1,2.4-2.4,2.4c-1.3,0-2.4-1.1-2.4-2.4c0-1.3,1.1-2.4,2.4-2.4C76.8,29.8,77.9,30.9,77.9,32.2z"/>
	<path d="M6.4,46.5c0,1.3-1.1,2.4-2.4,2.4s-2.4-1.1-2.4-2.4c0-1.3,1.1-2.4,2.4-2.4S6.4,45.2,6.4,46.5z"/>
	<path d="M20.7,46.5c0,1.3-1.1,2.4-2.4,2.4c-1.3,0-2.4-1.1-2.4-2.4c0-1.3,1.1-2.4,2.4-2.4C19.6,44.1,20.7,45.2,20.7,46.5z"/>
	<path d="M35,46.5c0,1.3-1.1,2.4-2.4,2.4c-1.3,0-2.4-1.1-2.4-2.4c0-1.3,1.1-2.4,2.4-2.4C33.9,44.1,35,45.2,35,46.5z"/>
	<path d="M49.3,46.5c0,1.3-1.1,2.4-2.4,2.4c-1.3,0-2.4-1.1-2.4-2.4c0-1.3,1.1-2.4,2.4-2.4C48.2,44.1,49.3,45.2,49.3,46.5z"/>
	<path d="M63.6,46.5c0,1.3-1.1,2.4-2.4,2.4c-1.3,0-2.4-1.1-2.4-2.4c0-1.3,1.1-2.4,2.4-2.4C62.5,44.1,63.6,45.2,63.6,46.5z"/>
	<path d="M77.9,46.5c0,1.3-1.1,2.4-2.4,2.4c-1.3,0-2.4-1.1-2.4-2.4c0-1.3,1.1-2.4,2.4-2.4C76.8,44.1,77.9,45.2,77.9,46.5z"/>
	<path d="M6.4,60.8c0,1.3-1.1,2.4-2.4,2.4s-2.4-1.1-2.4-2.4c0-1.3,1.1-2.4,2.4-2.4S6.4,59.5,6.4,60.8z"/>
	<path d="M20.7,60.8c0,1.3-1.1,2.4-2.4,2.4c-1.3,0-2.4-1.1-2.4-2.4c0-1.3,1.1-2.4,2.4-2.4C19.6,58.4,20.7,59.5,20.7,60.8z"/>
	<path d="M35,60.8c0,1.3-1.1,2.4-2.4,2.4c-1.3,0-2.4-1.1-2.4-2.4c0-1.3,1.1-2.4,2.4-2.4C33.9,58.4,35,59.5,35,60.8z"/>
	<path d="M49.3,60.8c0,1.3-1.1,2.4-2.4,2.4c-1.3,0-2.4-1.1-2.4-2.4c0-1.3,1.1-2.4,2.4-2.4C48.2,58.4,49.3,59.5,49.3,60.8z"/>
	<path d="M63.6,60.8c0,1.3-1.1,2.4-2.4,2.4c-1.3,0-2.4-1.1-2.4-2.4c0-1.3,1.1-2.4,2.4-2.4C62.5,58.4,63.6,59.5,63.6,60.8z"/>
	<path d="M77.9,60.8c0,1.3-1.1,2.4-2.4,2.4c-1.3,0-2.4-1.1-2.4-2.4c0-1.3,1.1-2.4,2.4-2.4C76.8,58.4,77.9,59.5,77.9,60.8z"/>
	<path d="M6.4,75.1c0,1.3-1.1,2.4-2.4,2.4s-2.4-1.1-2.4-2.4c0-1.3,1.1-2.4,2.4-2.4S6.4,73.7,6.4,75.1z"/>
	<path d="M20.7,75.1c0,1.3-1.1,2.4-2.4,2.4c-1.3,0-2.4-1.1-2.4-2.4c0-1.3,1.1-2.4,2.4-2.4C19.6,72.7,20.7,73.7,20.7,75.1z"/>
	<path d="M35,75.1c0,1.3-1.1,2.4-2.4,2.4c-1.3,0-2.4-1.1-2.4-2.4c0-1.3,1.1-2.4,2.4-2.4C33.9,72.7,35,73.7,35,75.1z"/>
	<path d="M49.3,75.1c0,1.3-1.1,2.4-2.4,2.4c-1.3,0-2.4-1.1-2.4-2.4c0-1.3,1.1-2.4,2.4-2.4C48.2,72.7,49.3,73.7,49.3,75.1z"/>
	<path d="M63.6,75.1c0,1.3-1.1,2.4-2.4,2.4c-1.3,0-2.4-1.1-2.4-2.4c0-1.3,1.1-2.4,2.4-2.4C62.5,72.7,63.6,73.7,63.6,75.1z"/>
	<path d="M77.9,75.1c0,1.3-1.1,2.4-2.4,2.4c-1.3,0-2.4-1.1-2.4-2.4c0-1.3,1.1-2.4,2.4-2.4C76.8,72.7,77.9,73.7,77.9,75.1z"/>
	<path d="M6.4,89.3c0,1.3-1.1,2.4-2.4,2.4s-2.4-1.1-2.4-2.4C1.7,88,2.7,87,4,87S6.4,88,6.4,89.3z"/>
	<path d="M20.7,89.3c0,1.3-1.1,2.4-2.4,2.4c-1.3,0-2.4-1.1-2.4-2.4c0-1.3,1.1-2.4,2.4-2.4C19.6,87,20.7,88,20.7,89.3z"/>
	<path d="M35,89.3c0,1.3-1.1,2.4-2.4,2.4c-1.3,0-2.4-1.1-2.4-2.4c0-1.3,1.1-2.4,2.4-2.4C33.9,87,35,88,35,89.3z"/>
	<path d="M49.3,89.3c0,1.3-1.1,2.4-2.4,2.4c-1.3,0-2.4-1.1-2.4-2.4c0-1.3,1.1-2.4,2.4-2.4C48.2,87,49.3,88,49.3,89.3z"/>
	<path d="M63.6,89.3c0,1.3-1.1,2.4-2.4,2.4c-1.3,0-2.4-1.1-2.4-2.4c0-1.3,1.1-2.4,2.4-2.4C62.5,87,63.6,88,63.6,89.3z"/>
	<path d="M77.9,89.3c0,1.3-1.1,2.4-2.4,2.4c-1.3,0-2.4-1.1-2.4-2.4c0-1.3,1.1-2.4,2.4-2.4C76.8,87,77.9,88,77.9,89.3z"/>
	<path d="M20.7,103.6c0,1.3-1.1,2.4-2.4,2.4c-1.3,0-2.4-1.1-2.4-2.4s1.1-2.4,2.4-2.4C19.6,101.3,20.7,102.3,20.7,103.6z"/>
	<path d="M35,103.6c0,1.3-1.1,2.4-2.4,2.4c-1.3,0-2.4-1.1-2.4-2.4s1.1-2.4,2.4-2.4C33.9,101.3,35,102.3,35,103.6z"/>
	<path d="M49.3,103.6c0,1.3-1.1,2.4-2.4,2.4c-1.3,0-2.4-1.1-2.4-2.4s1.1-2.4,2.4-2.4C48.2,101.3,49.3,102.3,49.3,103.6z"/>
	<path d="M63.6,103.6c0,1.3-1.1,2.4-2.4,2.4c-1.3,0-2.4-1.1-2.4-2.4s1.1-2.4,2.4-2.4C62.5,101.3,63.6,102.3,63.6,103.6z"/>
	<path d="M77.9,103.6c0,1.3-1.1,2.4-2.4,2.4c-1.3,0-2.4-1.1-2.4-2.4s1.1-2.4,2.4-2.4C76.8,101.3,77.9,102.3,77.9,103.6z"/>
	<path d="M35,117.9c0,1.3-1.1,2.4-2.4,2.4c-1.3,0-2.4-1.1-2.4-2.4c0-1.3,1.1-2.4,2.4-2.4C33.9,115.5,35,116.6,35,117.9z"/>
	<path d="M49.3,117.9c0,1.3-1.1,2.4-2.4,2.4c-1.3,0-2.4-1.1-2.4-2.4c0-1.3,1.1-2.4,2.4-2.4C48.2,115.5,49.3,116.6,49.3,117.9z"/>
	<path d="M63.6,117.9c0,1.3-1.1,2.4-2.4,2.4c-1.3,0-2.4-1.1-2.4-2.4c0-1.3,1.1-2.4,2.4-2.4C62.5,115.5,63.6,116.6,63.6,117.9z"/>
	<path d="M77.9,117.9c0,1.3-1.1,2.4-2.4,2.4c-1.3,0-2.4-1.1-2.4-2.4c0-1.3,1.1-2.4,2.4-2.4C76.8,115.5,77.9,116.6,77.9,117.9z"/>
	<path d="M49.3,132.2c0,1.3-1.1,2.4-2.4,2.4c-1.3,0-2.4-1.1-2.4-2.4s1.1-2.4,2.4-2.4C48.2,129.8,49.3,130.9,49.3,132.2z"/>
	<path d="M63.6,132.2c0,1.3-1.1,2.4-2.4,2.4c-1.3,0-2.4-1.1-2.4-2.4s1.1-2.4,2.4-2.4C62.5,129.8,63.6,130.9,63.6,132.2z"/>
	<path d="M77.9,132.2c0,1.3-1.1,2.4-2.4,2.4c-1.3,0-2.4-1.1-2.4-2.4s1.1-2.4,2.4-2.4C76.8,129.8,77.9,130.9,77.9,132.2z"/>
</g>
</svg>
