<?xml version="1.0" encoding="utf-8"?>
<!-- Generator: Adobe Illustrator 26.0.1, SVG Export Plug-In . SVG Version: 6.00 Build 0)  -->
<svg version="1.1" xmlns="http://www.w3.org/2000/svg" xmlns:xlink="http://www.w3.org/1999/xlink" x="0px" y="0px"
	 viewBox="0 0 446.9 348.3" style="enable-background:new 0 0 446.9 348.3;" xml:space="preserve">
<style type="text/css">
	.st0{fill:#DFEDF4;}
	.st1{fill:#F9FBFC;}
	.st2{fill:url(#SVGID_1_);}
	.st3{fill:url(#SVGID_00000111897819514604961750000016767931833524529801_);}
	.st4{fill:url(#SVGID_00000044893114377631586890000013950843934414823315_);}
	.st5{fill:url(#SVGID_00000043457128092592145530000005867009839007676809_);}
	.st6{fill:url(#SVGID_00000021816284063742953670000018349188396613427645_);}
	.st7{fill:#DCECF4;}
	.st8{fill:url(#SVGID_00000012441572485155771510000007171733057596143017_);}
	.st9{fill:url(#SVGID_00000124879818764806409990000002610074229569752487_);}
	.st10{fill:url(#SVGID_00000027591833000062614290000012141155864374378415_);}
	.st11{fill:#D1D3D4;}
	.st12{fill:url(#SVGID_00000005975914775442058310000001033769387069131688_);}
	.st13{fill:#FFC8AF;}
	.st14{fill:url(#SVGID_00000136393280818987343010000001165136753156336558_);}
	.st15{fill:#BD884C;}
	.st16{fill:#F4AE92;}
	.st17{fill:#FF8578;}
	.st18{fill:#F08879;}
	.st19{fill:url(#SVGID_00000008858497719981268210000006093471271697578149_);}
	.st20{fill:url(#SVGID_00000112614756618710107190000000066491496362321317_);}
	.st21{fill:url(#SVGID_00000124161511603749377910000014244519872200192165_);}
	.st22{fill:url(#SVGID_00000003093980656724592520000018176580681368367788_);}
	.st23{font-family:'FiraSans-Medium';}
	.st24{font-size:11.3586px;}
	.st25{letter-spacing:1;}
	.st26{fill:url(#SVGID_00000150785786919680200420000008233079188693524668_);}
	.st27{fill:url(#SVGID_00000158009516222311258520000006728211481865525923_);}
	.st28{fill:url(#SVGID_00000031886419416816965870000013882758766741122711_);}
	.st29{fill:#EDF1F4;}
	.st30{fill:#BCBEC0;}
	.st31{font-family:'FiraSans-Regular';}
	.st32{font-size:6.3849px;}
	.st33{fill:url(#SVGID_00000034808805577878484520000014572405048617596292_);}
	.st34{fill:#F1F2F2;}
	.st35{fill:url(#SVGID_00000152244675316267649010000002558475186304721546_);}
	.st36{fill:url(#SVGID_00000041264670529485211090000013234402678236099004_);}
	.st37{fill:none;}
	.st38{fill:url(#SVGID_00000128472516712066646220000011002154408243632316_);}
	.st39{fill:url(#SVGID_00000082362663039951108390000006088076000608603032_);}
	.st40{fill:url(#SVGID_00000029038054386758618880000011587677500421670311_);}
	.st41{fill:url(#SVGID_00000054970120831327795610000006262676349967349415_);}
	.st42{fill:#A8D0E2;}
	.st43{fill:#BEE1F4;}
	.st44{fill:#112B46;}
	.st45{fill:url(#SVGID_00000181766793704086979260000010602480975778055100_);}
	.st46{fill:#25BCAF;}
	.st47{fill:url(#SVGID_00000075851482116226306580000012112108521862573732_);}
	.st48{fill:url(#SVGID_00000080921008527852081120000005303301735748443033_);}
	.st49{fill:url(#SVGID_00000024694329411777955730000002617430973819690678_);}
	.st50{fill:url(#SVGID_00000148632539216939954760000003806277829622353851_);}
	.st51{fill:url(#SVGID_00000085963013153762979560000007446903599005963662_);}
	.st52{fill:url(#SVGID_00000057115066001260235770000017162270853242496908_);}
	.st53{fill:url(#SVGID_00000173159071127164441170000011503546558001096118_);}
	.st54{fill:url(#SVGID_00000121242349953117816190000008694473451217135261_);}
	.st55{fill:url(#SVGID_00000016782003695192653520000013410029637951422640_);}
	.st56{fill:url(#SVGID_00000177451991302330238790000016019654660334220215_);}
	.st57{fill:url(#SVGID_00000168830598897665763010000012251074221474280340_);}
	.st58{fill:url(#SVGID_00000116194580809800010470000000022986228434667956_);}
	.st59{fill:url(#SVGID_00000098220719097706229010000001633350898729639612_);}
	.st60{fill:url(#SVGID_00000126303005451876181880000002900518737703975313_);}
	.st61{fill:url(#SVGID_00000137844217038070817390000006189846781959388554_);}
	.st62{fill:url(#SVGID_00000067955465608367900390000007147053074937705663_);}
	.st63{fill:url(#SVGID_00000132079294532296390290000004756514224089227431_);}
	.st64{fill:url(#SVGID_00000111158841295928484430000008990869865121744539_);}
	.st65{fill:url(#SVGID_00000076586037984290961180000013546295335072497596_);}
	.st66{fill:url(#SVGID_00000115475558311177200540000012390726549854008995_);}
	.st67{fill:url(#SVGID_00000160898886248608450210000012650100373866884739_);}
	.st68{fill:url(#SVGID_00000111149907750869686560000014204749672293027719_);}
	.st69{fill:url(#SVGID_00000145762619260008032410000003623211177724589230_);}
	.st70{fill:url(#SVGID_00000044152450276304801970000005941494498828377993_);}
	.st71{fill:url(#SVGID_00000051352978208778175330000012838476683329956779_);}
	.st72{fill:url(#SVGID_00000116945176610872454370000012812853764012077987_);}
</style>
<g id="OBJECTS">
	<g>
		<g>
			<g>
				<g id="XMLID_38_">
					<g>
						<path class="st0" d="M299.5,310.1h-18.3c0-23.5-26.5-46.5-6.5-49c7.1-0.9,12.2,2.8,15.8,8.4
							C299.5,283.6,299.5,310.1,299.5,310.1z"/>
						<path class="st0" d="M336.6,310.1h-27.3c0-14.6-9.6-29.1-16.8-41.4c-0.2-0.4-0.5-0.8-0.7-1.2c-6.2-10.7-14.3-20.7-16.7-33.2
							c-0.7-3.6-0.8-7.6,0.9-10.8c1.8-3.5,5.5-5.7,9.3-6.7C330.8,205.1,340.3,265.9,336.6,310.1z"/>
						<path class="st0" d="M371.5,310.1H349c-3.7-33.8-2.7-118.5,46.3-110.2C432.8,206.3,372.4,255.1,371.5,310.1z"/>
						<path class="st0" d="M391.9,310.1h-14.3c0,0-3.8-30.1,12.4-30C404.7,280.1,394.9,298.6,391.9,310.1z"/>
						<path class="st0" d="M419.3,310.1H406c0-35.3,13.5-64,32.5-63.6C457.4,246.8,420.8,285.5,419.3,310.1z"/>
					</g>
				</g>
				<g>
					<path class="st1" d="M324.9,310.1h-1.2c-0.1-6.2-0.8-12.4-1.8-18.5c-1.2-7.4-3-14.6-5.4-21.7c-4.7-14.1-12-27.4-21.5-39
						c-0.8-1-0.1-1.5,0.7-0.6c10.4,11,18.3,24.4,23.1,38.9c2.4,7.2,4.1,14.7,5.1,22.2C324.8,297.5,325.2,303.8,324.9,310.1z"/>
				</g>
				<g>
					<path class="st1" d="M383.8,218.6c-3,3.3-5.4,7.1-7.6,10.9c-2.2,3.9-4,7.9-5.5,12.1c-1.5,4.2-2.9,8.4-4,12.7
						c-1.1,4.3-2,8.7-2.8,13.1c-1.6,8.8-2.5,17.7-3.1,26.6c-0.3,5.4-0.6,10.7-0.6,16.1h-1.5c-0.2-5.4-0.2-10.8,0-16.2
						c0.3-9,1.2-18,2.8-26.9c0.8-4.5,1.8-8.9,3-13.2c1.2-4.4,2.6-8.7,4.3-12.9c0.8-2.1,1.8-4.2,2.8-6.2c1.1-2,2.1-4,3.3-5.9
						c2.4-3.9,5.1-7.6,8.2-10.8C384,216.9,384.7,217.5,383.8,218.6z"/>
				</g>
				<g>
					<path class="st1" d="M387.7,287.5c-2.1,6.8-3,13.8-3.5,20.9c0,0.6-0.1,1.2-0.1,1.7h-1.2c0-0.6,0-1.2,0.1-1.8
						c0.5-7.1,1.7-14.3,4.3-21C387.5,286.8,387.8,286.9,387.7,287.5z"/>
				</g>
				<g>
					<path class="st1" d="M292.5,310.1h-1.2c-0.4-3.6-1-7.1-1.6-10.6c-1-4.9-2.3-9.8-3.9-14.5c-0.4-1.2-0.9-2.3-1.4-3.5
						c-0.2-0.6-0.4-1.2-0.7-1.7l-0.8-1.7l-0.8-1.7c-0.3-0.6-0.6-1.1-0.9-1.7l-2-3.2c-0.4-0.7-0.1-0.9,0.4-0.3l2.1,3.1
						c0.4,0.5,0.7,1.1,1,1.6l0.9,1.7l0.9,1.7c0.3,0.6,0.5,1.1,0.8,1.7c0.5,1.2,1,2.3,1.5,3.5c1.8,4.8,3.2,9.7,4.2,14.6
						C291.6,302.8,292.1,306.4,292.5,310.1z"/>
				</g>
				<g>
					<path class="st1" d="M432,256.7c-2,2.3-3.7,4.9-5.2,7.6c-0.4,0.7-0.8,1.3-1.2,2l-1.1,2c-0.8,1.3-1.4,2.8-2,4.1
						c-2.6,5.6-4.5,11.4-6.1,17.3c-1.7,6.7-2.8,13.5-3.4,20.4h-1c0.4-7,1.5-13.9,3.2-20.7c1.6-6,3.7-11.9,6.4-17.4
						c0.7-1.4,1.4-2.8,2.1-4.1l1.1-2c0.4-0.7,0.8-1.3,1.2-2c1.7-2.6,3.5-5.1,5.6-7.4C432.3,255.7,432.6,256,432,256.7z"/>
				</g>
			</g>
			<g>
				<g id="XMLID_40_">
					<g>
						<path class="st0" d="M53.9,310.1H35.6c0-23.5-26.5-46.5-6.5-49c7.1-0.9,12.2,2.8,15.8,8.4C53.9,283.6,53.9,310.1,53.9,310.1z"
							/>
						<path class="st0" d="M91.1,310.1H63.7c0-14.6-9.6-29.1-16.8-41.4c-0.2-0.4-0.5-0.8-0.7-1.2c-6.2-10.7-14.3-20.7-16.7-33.2
							c-0.7-3.6-0.8-7.6,0.9-10.8c1.8-3.5,5.5-5.7,9.3-6.7C85.2,205.1,94.7,265.9,91.1,310.1z"/>
						<path class="st0" d="M125.9,310.1h-22.5c-3.7-33.8-2.7-118.5,46.3-110.2C187.3,206.3,126.9,255.1,125.9,310.1z"/>
						<path class="st0" d="M146.3,310.1h-14.3c0,0-3.8-30.1,12.4-30C159.1,280.1,149.3,298.6,146.3,310.1z"/>
						<path class="st0" d="M173.7,310.1h-13.3c0-35.3,13.5-64,32.5-63.6C211.8,246.8,175.2,285.5,173.7,310.1z"/>
					</g>
				</g>
				<g>
					<path class="st1" d="M79.3,310.1h-1.2c-0.1-6.2-0.8-12.4-1.8-18.5c-1.2-7.4-3-14.6-5.4-21.7c-4.7-14.1-12-27.4-21.5-39
						c-0.8-1-0.1-1.5,0.7-0.6c10.4,11,18.3,24.4,23.1,38.9c2.4,7.2,4.1,14.7,5.1,22.2C79.2,297.5,79.6,303.8,79.3,310.1z"/>
				</g>
				<g>
					<path class="st1" d="M138.2,218.6c-3,3.3-5.4,7.1-7.6,10.9c-2.2,3.9-4,7.9-5.5,12.1c-1.6,4.2-2.9,8.4-4,12.7
						c-1.1,4.3-2,8.7-2.8,13.1c-1.6,8.8-2.5,17.7-3.1,26.6c-0.3,5.4-0.6,10.7-0.6,16.1h-1.5c-0.2-5.4-0.2-10.8,0-16.2
						c0.3-9,1.2-18,2.8-26.9c0.8-4.5,1.8-8.9,3-13.2c1.2-4.4,2.6-8.7,4.3-12.9c0.8-2.1,1.8-4.2,2.8-6.2c1.1-2,2.1-4,3.3-5.9
						c2.4-3.9,5.1-7.6,8.2-10.8C138.5,216.9,139.1,217.5,138.2,218.6z"/>
				</g>
				<g>
					<path class="st1" d="M142.1,287.5c-2.1,6.8-3,13.8-3.5,20.9c0,0.6-0.1,1.2-0.1,1.7h-1.2c0-0.6,0.1-1.2,0.1-1.8
						c0.5-7.1,1.7-14.3,4.3-21C141.9,286.8,142.3,286.9,142.1,287.5z"/>
				</g>
				<g>
					<path class="st1" d="M46.9,310.1h-1.2c-0.4-3.6-1-7.1-1.6-10.6c-1-4.9-2.3-9.8-3.9-14.5c-0.4-1.2-0.9-2.3-1.4-3.5
						c-0.2-0.6-0.5-1.2-0.7-1.7l-0.8-1.7l-0.8-1.7c-0.3-0.6-0.6-1.1-0.9-1.7l-2-3.2c-0.4-0.7-0.1-0.9,0.4-0.3l2.1,3.1
						c0.4,0.5,0.7,1.1,1,1.6l0.9,1.7l0.9,1.7c0.3,0.6,0.5,1.1,0.8,1.7c0.5,1.2,1,2.3,1.5,3.5c1.8,4.8,3.2,9.7,4.2,14.6
						C46,302.8,46.5,306.4,46.9,310.1z"/>
				</g>
				<g>
					<path class="st1" d="M186.4,256.7c-2,2.3-3.7,4.9-5.2,7.6c-0.4,0.7-0.8,1.3-1.2,2l-1.1,2c-0.8,1.3-1.4,2.8-2,4.1
						c-2.6,5.6-4.5,11.4-6.1,17.3c-1.7,6.7-2.8,13.5-3.4,20.4h-1c0.4-7,1.5-13.9,3.2-20.7c1.6-6,3.7-11.9,6.4-17.4
						c0.7-1.4,1.4-2.8,2.1-4.1l1.1-2c0.4-0.7,0.8-1.3,1.2-2c1.7-2.6,3.5-5.1,5.6-7.4C186.7,255.7,187,256,186.4,256.7z"/>
				</g>
			</g>
			<path class="st0" d="M357.8,145.5c1.1,2.1-0.1,5.7-0.4,8c-0.2,1.1-0.4,2.2-0.8,3.3c-0.1,1.8-0.5,3.4-0.4,5.1
				c2.3-2,4.6-3.8,7.1-5.5c0-0.1,0-0.2,0-0.3c-0.2-0.7-0.4-1.4-0.5-2.1c-0.5-0.9-1.2-1.8-1.7-2.6c-0.8-1.3-1.1-2.6-0.7-4.1
				c0.7-3.4,2.4-6.6,5.1-8.9c0.2-0.2,0.6,0,0.6,0.3c-0.6,3.1-1.7,6.1-2.4,9.1c-0.2,0.8-0.4,1.4-0.5,2.1c0.1,1.9,0.5,3.9,1,5.7
				c1.9-1.3,3.9-2.6,5.8-3.8c0-0.1,0.1-0.2,0.3-0.2c0,0,0.1,0,0.1,0c0.1-0.1,0.2-0.1,0.3-0.2c0-0.2-0.1-0.3-0.1-0.5
				c0-0.1-0.1-0.3-0.1-0.4c-0.5-1.3-1.2-2.4-1.8-3.7c-0.7-1.4-0.5-3-0.1-4.4c0.7-2.9,2.6-6.5,5.2-8.2c0.3-0.2,0.5,0,0.6,0.3
				c0.5,2.7-1.3,5.5-2.2,8.1c-0.5,1.4-0.6,2.8-1,4.1c-0.3,0.9-0.3,1.8-0.2,2.7c0.1,0.6,0.3,1.1,0.6,1.7c0.7-0.4,1.4-0.8,2.1-1.3
				c2.1-1.3,4.3-2.6,6.4-3.9c-0.1-0.6-0.1-1.3-0.1-2c-0.2-2-0.5-4.1,0.3-6.1c0.9-2.3,2.9-4.8,5-6.2c0.3-0.2,0.7,0,0.7,0.3
				c-0.2,2.4-1.8,4.7-2.8,6.9c-0.6,1.2-1.2,2.4-1.6,3.6c-0.3,0.9-0.4,1.9-0.6,2.8c1-0.6,1.9-1.1,2.9-1.7c0,0,0-0.1,0-0.1
				c0.8-0.9,2-1.5,2.9-2.3c1.2-1,2-1.8,3.3-2.5c2.1-1.1,4.9-2.5,7.2-1.8c0.2,0.1,0.2,0.3,0.1,0.4c-1.5,1.8-4,2.7-6.1,3.5
				c-1,0.4-2,0.7-3,1c-0.3,0.1-0.6,0.2-0.8,0.3c-1.9,1.1-3.9,2.2-5.8,3.4c-0.1,0-0.1,0.1-0.2,0.1c2.3,0.1,4.6,0,6.9,0.1
				c2.7,0.1,5.8,0,8.4,0.7c0.4,0.1,0.7,0.7,0.2,0.9c-2.4,1.3-5.4,1.2-8.1,1.1c-1.4-0.1-2.7-0.4-4.1-0.8c-1-0.3-1.8-0.8-2.8-1.1
				c-0.5,0-1,0-1.6,0.1c-0.1,0-0.1,0-0.2,0c-0.1,0-0.2,0-0.3,0c0,0,0,0,0,0c-2.8,1.7-5.5,3.4-8.3,5.1c0,0.1,0,0.1,0,0.2
				c0.1,0,0.2,0,0.3,0.1c0.7,0,1.4,0.1,2.1,0.1c0.5,0,1-0.1,1.4-0.1c1.9-0.2,3.5-0.3,5.4-0.2c3.8,0.2,7.7,0.4,11.5,1.2
				c0.5,0.1,0.4,0.7-0.1,0.8c-4.1,0.7-8.2,1.2-12.3,0.7c-2-0.2-3.5-1-5.4-1.6c-1-0.3-2.1-0.3-3.1-0.5c-0.2,0-0.4,0-0.7,0
				c-0.9,0.5-1.8,1.1-2.7,1.7c-1.2,0.8-2.3,1.6-3.4,2.4c3.7,0.8,7.7,0.1,11.5,0.5c3.9,0.4,8.1,0.5,11.6,2.2c0.4,0.2,0.3,0.9-0.2,0.9
				c-4.3-0.2-8.6,0.3-12.8,0.1c-1-0.1-1.9-0.1-2.8-0.5c-1-0.3-1.8-1-2.9-1.3c-0.7-0.2-1.4-0.4-2.1-0.6c-1.2,0-2.3-0.1-3.4-0.4
				c-2.3,1.8-4.5,3.7-6.6,5.8c1.7,0.7,3.5,0.5,5.3,0.5c2.3-0.1,4.5,0.3,6.7,0.4c4.8,0.3,9.8,0,14.5,1.5c0.5,0.2,0.3,1-0.2,1
				c-5.3,0.2-10.6,0.6-15.9,0.5c-3.6-0.1-6.8-1-9.8-2.7c-0.4-0.1-0.8-0.2-1.2-0.3c-0.1,0.2-0.4,0.4-0.5,0.2
				c-0.6,0.6-1.2,1.2-1.7,1.9c-0.7,0.7-1.3,1.5-2,2.3c2.6,0,5.2,0.9,7.7,1.4c0.9,0.2,1.8,0.4,2.6,0.5c0.9,0.1,1.8,0.1,2.7,0.2
				c2.4,0.1,4.8,0.2,7.1,0.4c2,0.1,4.3,0.4,5.8,1.6c0.4,0.4,0.1,1-0.4,1.1c-4.4,0.9-9.3,0.5-13.6-0.1c-2.2-0.3-4.7-0.5-6.7-1.4
				c-1.9-0.8-3.7-2.4-5.7-3.1c-0.1,0.1-0.2,0.2-0.2,0.3c0,0,0,0,0,0c0.3,0.4-0.3,1-0.7,0.8c-1.2,1.5-2.4,3-3.5,4.5
				c1,0.2,2.1,0.5,3.1,0.7c2.8,0.4,5.6,0.8,8.5,1c4.4,0.4,9.4,1.1,13.3,3.2c0.5,0.3,0.4,1.1-0.2,1.1c-4.5,0.3-9.4-0.4-13.6-1.5
				c-1.9-0.5-3.8-1.2-5.7-1.9c-1.5-0.6-3.1-1.4-4.7-1.9c-0.3-0.1-0.6-0.1-1-0.2c-1.3,1.8-2.5,3.7-3.7,5.7c1.6,0.1,3.3-0.1,4.9,0
				c2,0.1,3.9,0.5,5.8,0.9c3.8,0.8,7.2,2.2,10.7,3.8c0.4,0.2,0.1,0.9-0.3,0.9c-3.9-0.2-7.7-0.3-11.5-1.2c-1.8-0.4-3.6-0.8-5.2-1.5
				c-0.9-0.4-1.8-0.8-2.6-1.3c-0.8-0.1-1.7-0.2-2.4-0.4c-1,1.7-1.9,3.5-2.7,5.2c0.2,0,0.3,0,0.5,0.1c2.4,0,4.8-0.4,7.3,0.1
				c2.9,0.5,6.2,1.4,8.7,2.9c0.5,0.3,0.4,1.2-0.3,1.2c-3.1,0-6.5-0.3-9.5-0.8c-2.6-0.4-4.7-1.6-7-2.6c-1.7,3.5-3.2,7.2-4.8,10.7
				c-0.6,1.3-2.9,0.8-2.5-0.7c1-3.8,2.5-7.5,4.3-11.1c-0.6-0.6-1.1-1.2-1.6-1.8c-1.6-1.6-3.1-3.3-4.5-5c-1.7-2.1-2.5-4.8-0.7-7.1
				c0.3-0.4,0.9-0.1,0.9,0.3c0,0.8,0.9,1.9,1.3,2.6c0.6,1.1,1.2,2.1,1.6,3.3c0.9,2.5,1.3,5.3,3.3,7.2c1.1-2.1,2.4-4.2,3.8-6.2
				c-0.3-0.5-0.6-1-1-1.5c-1.3-1.5-2.7-2.8-3.6-4.6c-1.2-2.4-1.9-4.7-0.2-7.2c0.4-0.6,1.6-0.4,1.8,0.3c0.5,2.2,0.7,4.4,1.1,6.6
				c0.4,1.8,1.2,3.4,1.9,5.1c0.2,0.2,0.3,0.4,0.5,0.7c1.2-1.7,2.4-3.4,3.7-5c-0.1-0.2-0.2-0.5-0.4-0.7c-1.9-1.4-3-3.2-3.4-5.7
				c-0.4-3,0.3-6.2,1.6-9c0.2-0.3,0.7-0.4,0.9-0.1c1.2,2.1,1.2,4.8,1,7.2c-0.1,1.4-0.5,3.5-0.4,5.3c0.3,0.7,0.7,1.4,1.2,2.1
				c1.4-1.7,2.8-3.3,4.2-4.9c0-0.1-0.1-0.1-0.1-0.2c-0.5-0.4-0.9-0.8-1.3-1.5c-0.7-1.2-1.5-2.3-1.8-3.7c-0.5-2.5,0.4-5.8,1.9-8
				c0.4-0.5,1.1-0.4,1.2,0.2c0.3,2,0.5,4.3,0.4,6.4c0,0.9-0.2,1.9-0.3,2.8c0.2,1,0.5,2,1,2.9c0.7-0.8,1.4-1.5,2.2-2.2
				c0.9-0.9,1.8-1.7,2.7-2.5c-0.1-0.3-0.1-0.7-0.1-1c-1-2.4-2-4.9-1.8-7.5c0.2-1.6,0.6-3.2,1.2-4.7c0.5-1.4,1.1-3.1,2.4-4
				C357.3,145.3,357.7,145.3,357.8,145.5z"/>
			<path class="st0" d="M98.4,171c-1.8,1.6-2,5.3-2.5,7.6c-0.2,1.1-0.4,2.2-0.5,3.3c-0.6,1.7-0.8,3.4-1.4,4.9
				c-1.4-2.6-3-5.2-4.6-7.6c0.1-0.1,0.1-0.2,0.1-0.2c0.4-0.6,0.9-1.1,1.2-1.7c0.8-0.7,1.8-1.2,2.6-1.9c1.2-0.9,1.9-2,2.2-3.6
				c0.6-3.4,0.2-7-1.6-10.1c-0.2-0.3-0.6-0.2-0.7,0.1c-0.5,3.1-0.6,6.3-1,9.4c-0.1,0.8-0.2,1.5-0.3,2.2c-0.8,1.8-1.9,3.4-3,5
				c-1.3-1.9-2.7-3.8-4.1-5.6c0-0.1,0-0.3-0.2-0.3c0,0-0.1,0-0.1,0c-0.1-0.1-0.2-0.2-0.2-0.3c0.1-0.1,0.2-0.3,0.3-0.4
				c0.1-0.1,0.2-0.2,0.3-0.3c0.9-1.1,2-1.8,3-2.8c1.1-1,1.5-2.6,1.7-4.1c0.4-3-0.1-7-1.9-9.6c-0.2-0.2-0.5-0.2-0.6,0
				c-1.5,2.3-0.7,5.6-0.8,8.3c0,1.4-0.4,2.8-0.6,4.2c-0.1,0.9-0.4,1.8-0.8,2.6c-0.3,0.5-0.7,0.9-1.2,1.3c-0.5-0.7-1-1.3-1.5-1.9
				c-1.5-2-3.1-4-4.6-6c0.3-0.6,0.6-1.2,0.8-1.8c0.9-1.8,2-3.6,1.9-5.8c-0.1-2.5-1-5.5-2.5-7.6c-0.2-0.3-0.6-0.3-0.7,0.1
				c-0.6,2.3,0,5,0.1,7.4c0.1,1.3,0.3,2.6,0.2,3.9c-0.1,1-0.3,1.9-0.4,2.9c-0.7-0.9-1.4-1.8-2.1-2.6c0,0,0,0,0-0.1
				c-0.5-1.2-1.3-2.1-1.9-3.2c-0.7-1.4-1.2-2.4-2.2-3.5c-1.5-1.8-3.6-4.1-6.1-4.3c-0.2,0-0.3,0.2-0.3,0.4c0.7,2.2,2.8,3.9,4.4,5.4
				c0.8,0.7,1.6,1.4,2.5,2c0.2,0.2,0.5,0.4,0.7,0.6c1.4,1.7,2.9,3.4,4.2,5.2c0,0.1,0.1,0.1,0.1,0.2c-2.2-0.7-4.3-1.6-6.5-2.4
				c-2.5-0.9-5.4-2.1-8.1-2.4c-0.4,0-0.9,0.4-0.5,0.8c1.8,2.1,4.6,3.1,7.1,3.9c1.4,0.5,2.7,0.6,4.1,0.7c1,0,2,0,3,0
				c0.5,0.2,1,0.4,1.4,0.6c0.1,0.1,0.1,0.1,0.2,0.1c0.1,0.1,0.2,0.1,0.3,0.1c0,0,0,0,0,0c2,2.6,3.9,5.2,5.9,7.8c0,0.1,0,0.1,0,0.2
				c-0.1,0-0.2,0-0.3-0.1c-0.7-0.2-1.3-0.5-2-0.7c-0.5-0.2-0.9-0.4-1.3-0.6c-1.7-0.8-3.2-1.5-5-2.1c-3.7-1.2-7.4-2.3-11.1-3
				c-0.5-0.1-0.7,0.5-0.2,0.8c3.6,2.1,7.3,4,11.2,5.1c1.9,0.5,3.7,0.3,5.6,0.4c1,0,2.1,0.5,3.1,0.6c0.2,0.1,0.4,0.1,0.6,0.2
				c0.6,0.8,1.3,1.7,1.9,2.5c0.8,1.1,1.6,2.3,2.3,3.5c-3.8-0.6-7.2-2.6-10.9-3.6c-3.8-1-7.7-2.5-11.6-2.1c-0.4,0-0.6,0.8-0.1,0.9
				c4.1,1.3,7.9,3.4,11.9,4.7c0.9,0.3,1.8,0.6,2.8,0.6c1.1,0,2.1-0.2,3.1-0.2c0.7,0,1.4,0.1,2.2,0.2c1.1,0.4,2.2,0.7,3.4,0.9
				c1.5,2.5,2.9,5.1,4.1,7.8c-1.8,0.1-3.4-0.7-5.1-1.4c-2.1-0.9-4.3-1.4-6.4-2c-4.6-1.5-9.2-3.5-14-3.8c-0.5,0-0.7,0.8-0.2,1
				c4.8,2.1,9.7,4.3,14.6,6.1c3.3,1.2,6.7,1.5,10.1,1c0.4,0.1,0.8,0.1,1.2,0.1c0,0.2,0.2,0.5,0.4,0.4c0.3,0.8,0.7,1.6,1,2.3
				c0.4,0.9,0.7,1.9,1,2.8c-2.4-0.9-5.1-1-7.6-1.5c-0.9-0.2-1.8-0.3-2.7-0.4c-0.9-0.3-1.7-0.5-2.6-0.8c-2.3-0.7-4.5-1.5-6.8-2.2
				c-1.9-0.6-4.1-1.2-6-0.6c-0.5,0.2-0.5,0.9,0,1.1c3.8,2.4,8.5,3.8,12.8,4.8c2.2,0.5,4.6,1.2,6.8,1.1c2.1-0.1,4.3-0.9,6.5-0.9
				c0,0.1,0.1,0.2,0.1,0.4c0,0,0,0,0,0c-0.4,0.3-0.1,1,0.4,1c0.6,1.8,1.1,3.6,1.6,5.5c-1-0.2-2.1-0.3-3.1-0.4
				c-2.8-0.6-5.5-1.3-8.3-2.1c-4.2-1.2-9.2-2.4-13.5-1.7c-0.5,0.1-0.7,0.9-0.2,1.1c4,1.9,8.9,3,13.3,3.4c2,0.2,4,0.3,6,0.3
				c1.7,0,3.4-0.2,5.1,0c0.3,0.1,0.6,0.1,1,0.1c0.6,2.2,1,4.4,1.4,6.6c-1.6-0.5-3.1-1.2-4.6-1.7c-1.9-0.6-3.8-0.9-5.8-1.2
				c-3.9-0.6-7.5-0.5-11.3-0.3c-0.5,0-0.5,0.8,0,0.9c3.7,1.3,7.3,2.4,11.1,3c1.8,0.3,3.6,0.5,5.4,0.5c1,0,2-0.1,2.9-0.3
				c0.8,0.2,1.6,0.4,2.4,0.5c0.3,2,0.5,3.9,0.7,5.9c-0.2,0-0.3-0.1-0.5-0.1c-2.3-0.9-4.4-2.1-6.8-2.5c-2.9-0.5-6.3-0.9-9.1-0.4
				c-0.6,0.1-0.8,1-0.2,1.2c2.9,1.1,6.2,2,9.2,2.6c2.5,0.5,5,0.2,7.5,0.1c0.3,3.9,0.4,7.8,0.7,11.8c0.1,1.4,2.4,1.8,2.6,0.3
				c0.4-3.9,0.4-7.9-0.1-11.9c0.8-0.4,1.5-0.7,2.2-1.1c2.1-0.9,4.1-2,6-3.1c2.3-1.4,4-3.6,3.2-6.4c-0.1-0.5-0.8-0.4-0.9,0
				c-0.3,0.8-1.5,1.4-2.2,2c-0.9,0.8-1.9,1.6-2.7,2.5c-1.8,2.1-3.1,4.5-5.7,5.5c-0.3-2.4-0.7-4.8-1.3-7.2c0.5-0.4,0.9-0.7,1.4-1
				c1.8-0.9,3.5-1.6,5-3c2-1.9,3.4-3.7,2.8-6.7c-0.2-0.7-1.4-1-1.7-0.4c-1.2,1.9-2.2,3.9-3.4,5.7c-1,1.5-2.4,2.7-3.6,4
				c-0.2,0.1-0.5,0.3-0.7,0.4c-0.5-2-1-4.1-1.7-6c0.2-0.2,0.4-0.3,0.6-0.5c2.2-0.6,4-1.9,5.2-4.1c1.5-2.7,1.9-5.9,1.7-9
				c0-0.4-0.5-0.7-0.8-0.4c-1.9,1.5-2.8,4-3.5,6.3c-0.4,1.4-0.8,3.5-1.6,5.1c-0.6,0.5-1.2,1-1.9,1.5c-0.7-2.1-1.4-4.1-2.2-6.1
				c0.1-0.1,0.1-0.1,0.2-0.2c0.6-0.2,1.1-0.4,1.7-0.9c1-0.9,2.3-1.6,3-2.8c1.4-2.2,1.7-5.5,1.1-8.1c-0.1-0.6-0.9-0.7-1.2-0.2
				c-1,1.8-2,3.8-2.7,5.8c-0.3,0.9-0.5,1.8-0.7,2.8c-0.6,0.9-1.2,1.7-2,2.4c-0.4-1-0.8-1.9-1.2-2.9c-0.5-1.1-1-2.2-1.6-3.3
				c0.2-0.3,0.3-0.6,0.4-0.9c1.8-1.9,3.7-3.9,4.3-6.4c0.4-1.6,0.6-3.2,0.6-4.8c0-1.5,0.1-3.3-0.8-4.6
				C98.9,170.9,98.6,170.8,98.4,171z"/>
		</g>
		<g>
			<linearGradient id="SVGID_1_" gradientUnits="userSpaceOnUse" x1="225.581" y1="346.2988" x2="225.581" y2="308.8987">
				<stop  offset="0" style="stop-color:#F9FBFC"/>
				<stop  offset="1" style="stop-color:#BEE1F4"/>
			</linearGradient>
			<path class="st2" d="M423.7,321.8H27.4c-3.2,0-5.8-2.6-5.8-5.8v0c0-3.2,2.6-5.8,5.8-5.8h396.3c3.2,0,5.8,2.6,5.8,5.8v0
				C429.6,319.2,427,321.8,423.7,321.8z"/>
			
				<linearGradient id="SVGID_00000106112440696331336950000000377939148433138344_" gradientUnits="userSpaceOnUse" x1="187.9199" y1="346.2989" x2="187.9199" y2="308.8986">
				<stop  offset="0" style="stop-color:#F9FBFC"/>
				<stop  offset="1" style="stop-color:#BEE1F4"/>
			</linearGradient>
			<path style="fill:url(#SVGID_00000106112440696331336950000000377939148433138344_);" d="M360.1,322.9H15.7
				c-1.6,0-2.9-1.5-2.9-3.5l0,0c0-1.9,1.3-3.5,2.9-3.5h344.4c1.6,0,2.9,1.5,2.9,3.5l0,0C363.1,321.4,361.7,322.9,360.1,322.9z"/>
			
				<linearGradient id="SVGID_00000180337713989912295210000000553093186452289175_" gradientUnits="userSpaceOnUse" x1="223.3109" y1="346.299" x2="223.3109" y2="308.8986">
				<stop  offset="0" style="stop-color:#F9FBFC"/>
				<stop  offset="1" style="stop-color:#BEE1F4"/>
			</linearGradient>
			<path style="fill:url(#SVGID_00000180337713989912295210000000553093186452289175_);" d="M371.2,335.6H75.4
				c-4.4,0-8.1-3.6-8.1-8.1l0,0c0-4.4,3.6-8.1,8.1-8.1h295.8c4.4,0,8.1,3.6,8.1,8.1l0,0C379.3,332,375.7,335.6,371.2,335.6z"/>
			
				<linearGradient id="SVGID_00000129910988682128185460000015329171684834231465_" gradientUnits="userSpaceOnUse" x1="189.3674" y1="346.2989" x2="189.3674" y2="308.8986">
				<stop  offset="0" style="stop-color:#F9FBFC"/>
				<stop  offset="1" style="stop-color:#BEE1F4"/>
			</linearGradient>
			<path style="fill:url(#SVGID_00000129910988682128185460000015329171684834231465_);" d="M255,342.9H123.7
				c-4.2,0-7.7-3.5-7.7-7.7l0,0c0-4.2,3.5-7.7,7.7-7.7H255c4.2,0,7.7,3.5,7.7,7.7l0,0C262.7,339.5,259.3,342.9,255,342.9z"/>
		</g>
		<g>
			<g>
				
					<linearGradient id="SVGID_00000001630308744368038740000011841585852408024756_" gradientUnits="userSpaceOnUse" x1="357.2287" y1="149.2071" x2="357.2287" y2="312.8623">
					<stop  offset="0" style="stop-color:#BEE1F4"/>
					<stop  offset="1" style="stop-color:#606BF1"/>
				</linearGradient>
				<path style="fill:url(#SVGID_00000001630308744368038740000011841585852408024756_);" d="M330.7,303.4
					c6.6,2.6,14.7,0.3,19.8-6.5c4.7-6.1,9.5-15,11.1-22.7c-4.9,0.7-13.6-3.2-16.5-7.3c3.2,2.6,14.3,3.3,18,1.3
					c3.9-2.1,5.3-11.4,6.6-15.3c1-2.9,1.7-5.5,2.8-8.4c0.8-2.2,1-4.7,1.9-6.7c-2-1.3-4.5-2.3-6.6-3.7c2.1,0.2,4.9,0.5,6.8-0.2
					c-3.3-0.8-6.8-5.1-8.5-7.9c2.7,0.5,11.2,5.6,13.7,3.4c2.1-1.8,2.2-5.4,3.2-7.8c1.2-3,3.4-5.7,5.3-8.4c4-5.7,8.8-10.9,12.6-16.8
					c2-3,0.5-3.5-2.1-5.7c2.7,0.3,5.5,0.8,8.1,0.9c0.4-2.7,3.3-5.2,4.8-7.3c2.4-3.4,4.5-6.9,6.4-10.5c1.9-3.7,3.4-7.5,4.4-11.6
					c0.5-1.9,0.2-10.1,1.1-11c-7.3,7.6-16.7,8.6-25.9,12.1c0.5,2,1.1,4.9,0.9,6.9c-1.6-1.4-5.6-2.6-6.3-4.6c-2.2,0.9-4.9,1.2-7.3,2
					c-3.5,1.1-6.9,2.4-9.9,4.3c-3.3,2-6.6,4.2-10.5,4.9c2.3,0.7,3.8,7.2,4.4,9.5c-1.4-1.3-4.6-3.2-6.2-5c0.9,2.5,1.7,6,2.5,8.6
					c-2.8-3.3-6.6-5.8-9.3-9c-1.3-1.5-14.5,11.8-16,13.4c-1.5,1.6-2.5,3.6-4.2,5c3.4,3.6,5.2,8.4,8.6,12c2.3,2.4,4.4,5,6.4,7.6
					c-4.4-1.7-8-5.1-11.6-7.9c-2.9-2.3-6.3-4.1-9.2-6.4c-2.8,4.2-6.6,7.8-9.6,11.9c-3.9,5.3-9.8,12.8-10.8,19.6
					c2,1.6,3.8,3.7,5.1,5.8c-2.3-0.7-7.4-2.8-9.5-1.4c-2.1,1.4-3.9,6.8-5.4,9c2.2,1.7,5,3.6,6.4,6.1c-2.9-0.3-5.8-1.4-8.8-1.4
					c0.1,3.2-2.6,6.3-3.4,9.4c-0.9,3.5-2.2,7.2-2.9,10.9c-1.5,7.9-0.1,16.2,6.7,21.2c6.7,4.9,18.4,6,23.9-1.6
					C323.8,298.9,327,302,330.7,303.4z"/>
				<g>
					<path class="st7" d="M415.7,164c-12.1,11.5-25.4,21.6-37.9,32.6c-11.1,9.8-20.9,20.7-29.3,32.9c-8.7,12.7-15.8,26.5-21.6,40.7
						c-5.5,13.4-12.4,28.6-11.3,43.4c0.2,2.6,4.1,2.5,4.1-0.1c-0.1-7.8,1.8-15.2,3.7-22.7c1.9-7.5,4.2-14.8,7.1-22
						c5.8-14.2,13.2-27.6,21.9-40.2c17.4-25.3,42.1-42.9,63.6-64.4C416.1,164.1,415.9,163.9,415.7,164L415.7,164z"/>
				</g>
			</g>
			<g>
				
					<linearGradient id="SVGID_00000096054666038670921630000017241936433998304161_" gradientUnits="userSpaceOnUse" x1="25.7918" y1="228.4625" x2="164.9349" y2="228.4625">
					<stop  offset="0" style="stop-color:#BEE1F4"/>
					<stop  offset="1" style="stop-color:#606BF1"/>
				</linearGradient>
				<path style="fill:url(#SVGID_00000096054666038670921630000017241936433998304161_);" d="M126.1,301.5c-6.4,2.9-14.6,1-20.1-5.6
					c-5-5.9-10.2-14.6-12.1-22.1c5,0.4,13.4-3.8,16.1-8.1c-3,2.7-14.1,4-18,2.2c-4-1.9-5.8-11.2-7.3-15c-1.1-2.8-2-5.5-3.2-8.3
					c-0.9-2.1-1.2-4.6-2.3-6.6c2-1.4,4.4-2.6,6.5-4c-2.1,0.3-4.9,0.7-6.8,0.1c3.2-0.9,6.5-5.5,8.1-8.3c-2.7,0.6-10.9,6.1-13.5,4.1
					c-2.2-1.7-2.5-5.3-3.6-7.6c-1.4-2.9-3.7-5.5-5.7-8.1c-4.3-5.5-9.3-10.5-13.4-16.1c-2.1-2.9-0.7-3.5,1.9-5.8
					c-2.7,0.4-5.5,1.1-8.1,1.3c-0.5-2.7-3.6-5-5.2-7c-2.5-3.2-4.9-6.6-6.9-10.2c-2-3.6-3.8-7.4-5-11.3c-0.6-1.8-0.7-10-1.7-11
					c7.6,7.2,17.1,7.7,26.4,10.8c-0.4,2.1-0.9,4.9-0.6,6.9c1.5-1.4,5.4-2.9,6.1-4.9c2.3,0.8,5,1,7.4,1.6c3.5,0.9,7,2,10.1,3.8
					c3.4,1.9,6.8,3.9,10.8,4.4c-2.3,0.8-3.4,7.3-3.9,9.7c1.3-1.4,4.4-3.4,6-5.3c-0.8,2.5-1.4,6.1-2,8.8c2.6-3.5,6.3-6.2,8.9-9.4
					c1.2-1.5,15,11.1,16.6,12.6c1.6,1.5,2.6,3.4,4.4,4.8c-3.2,3.8-4.8,8.6-8,12.4c-2.1,2.5-4.1,5.2-6,7.9c4.3-1.9,7.7-5.4,11.2-8.5
					c2.8-2.5,6-4.4,8.8-6.8c3,4,7,7.5,10.2,11.4c4.2,5.1,10.4,12.3,11.7,19c-1.9,1.7-3.6,3.8-4.8,6.1c2.3-0.8,7.3-3.1,9.4-1.8
					c2.1,1.3,4.2,6.6,5.8,8.7c-2.1,1.8-4.8,3.9-6.1,6.4c2.9-0.4,5.7-1.6,8.7-1.8c0.1,3.2,2.9,6.2,3.9,9.2c1.1,3.4,2.5,7.1,3.4,10.7
					c1.9,7.8,0.9,16.1-5.6,21.5c-6.4,5.2-18.1,6.9-23.9-0.4C132.8,296.7,129.7,299.9,126.1,301.5z"/>
				<g>
					<path class="st7" d="M34.4,166.4c12.6,10.9,26.4,20.3,39.5,30.7c11.5,9.2,21.9,19.7,30.9,31.5c9.3,12.2,17.1,25.7,23.6,39.6
						c6.1,13.1,13.8,27.9,13.3,42.8c-0.1,2.6-4,2.7-4.1,0.1c-0.3-7.8-2.5-15.1-4.8-22.5c-2.3-7.4-4.9-14.6-8.1-21.7
						c-6.4-13.9-14.6-26.9-23.8-39.1c-18.6-24.4-44.1-40.8-66.6-61.2C34,166.5,34.3,166.3,34.4,166.4L34.4,166.4z"/>
				</g>
			</g>
			<g>
				
					<linearGradient id="SVGID_00000049922936153355223790000001840990693188846472_" gradientUnits="userSpaceOnUse" x1="91.9327" y1="157.0821" x2="172.9003" y2="157.0821">
					<stop  offset="0" style="stop-color:#BEE1F4"/>
					<stop  offset="1" style="stop-color:#606BF1"/>
				</linearGradient>
				<path style="fill:url(#SVGID_00000049922936153355223790000001840990693188846472_);" d="M162.8,164.6c1.8,4.5,3.6,9,5.6,13.4
					c0.5,1.2,1.5,2.2,1.3,3.3c-0.4,1.4-3,3.1-4.1,4.1c-1.4,1.3-4,4.5-5.8,5.1c2.3-0.8,7.2-3.1,10.1-2.5c-0.6,1.9-2.2,3.7-3.1,5.5
					c2.1-1.1,3.7-1.6,5.9-1.8c-0.7,1.8,0,4.4,0.1,6.3c0.4,9.5-0.2,20.9-5.8,29c-6.1,8.8-18.6,5.2-26.8,1.6
					c-4.1-1.8-8.3-4.3-11.4-7.4c-1.2-1.2-4.8-6.6-7-5.5c0.8-1.8,1.9-3.5,2.4-5.3c-1.4,0.7-3.1,0.1-4.2,1.1c-1.8-1.9-2.6-4.6-4.8-6.2
					c2.2-1.7,3.3-5,5.4-6.8c-2.4-0.1-5.2,0.1-7.5,0.7c-0.4-1.6-1.3-3.2-2-4.6c-3.2-6.3-5.7-13.2-7.7-19.9c-1.3-4.2-2.9-8-4.6-12
					c2.2-1.2,4.1-3.5,6.1-5c2.6-2,5.2-3.8,7.8-5.8c-1.3-0.3-2.4,0.2-3.7,0.4c-4.1,0.5-8.5,0.8-12.7,1c0.1-1.6-5.1-17.2-4.2-17.5
					c2.7-0.9,6.1-2.2,8.4-3.5c-2.7,0.2-5.3-0.9-7.9-1.3c1.7-2.6,7.7-4.3,10.3-6.2c-1.9-0.9-4.2-0.3-6.3-0.5
					c-1.4-0.1-2.8-0.8-4.1-0.2c0-4.4,0.8-8.6,1.4-12.9c0.4-2.8,0.2-7.7,1.7-10.1c1-1.6,4.2-2.1,5.2-3.6c-1.1-0.8-2.3-0.8-3.6-0.9
					c0.2-1,3.3-14.9,4.2-14.6c8.4,2.7,16.1,5.5,23,11.1c1.3,1,2.9,1.9,3.1,3.3c0.3,3-2.5,6.8-3.3,9.5c2.9-2.2,6.8-3.5,10-5.3
					c2.7,3.3,5,6.2,6.9,10.2c1.6,3.4,3.6,6.7,4.9,10.2c0.5,1.3,1.8,3.5,1.9,4.8c0.1,3.3-7.6,9.2-10.2,11.3c3.5,0.3,7.5-2.4,11.3-2.3
					c4,0.1,3.4,4.3,5.5,6.1c-1.6-0.1-3.8,2.2-4.9,3.3c1.8,0.2,3.7-0.7,5.3,0.2c-2,3-4.2,5.9-7,8.3c2.2,0.3,4.5-0.9,6.8-1
					c1.1-0.1,2.2,0.2,3.2,0c1,4.4,3.2,8.4,4.9,12.6C162.6,164.2,162.7,164.4,162.8,164.6z"/>
				<g>
					<path class="st7" d="M105.7,93c4.1,5.3,5.3,14,7,20.4c1.9,6.9,3.5,13.9,5.4,20.8c3.5,12.8,7.4,25.5,13,37.6
						c11.5,24.6,21.4,50.8,36.6,73.4c1,1.5,3.8,0,2.9-1.7c-13.6-24.4-26.7-48.8-38.5-74.2c-6.1-13-9.9-26.7-13.7-40.4
						c-3.4-12.3-6.3-25.1-11.2-36.9C106.6,91,104.8,92,105.7,93L105.7,93z"/>
				</g>
			</g>
		</g>
		<g>
			
				<linearGradient id="SVGID_00000093162499642607942650000015354456471096353668_" gradientUnits="userSpaceOnUse" x1="239.7625" y1="9.5535" x2="239.7625" y2="128.2417">
				<stop  offset="0" style="stop-color:#BEE1F4"/>
				<stop  offset="0.4644" style="stop-color:#E6E7E8"/>
				<stop  offset="1" style="stop-color:#B4B7EC"/>
			</linearGradient>
			<polygon style="fill:url(#SVGID_00000093162499642607942650000015354456471096353668_);" points="359.9,173.2 119.6,173.2 
				239.8,70.4 			"/>
			<polygon class="st11" points="359.9,173.2 277.2,243.7 239.8,211.9 202.4,243.7 119.6,173.2 			"/>
			<g>
				<g>
					<g>
						
							<linearGradient id="SVGID_00000058571881325206935470000014934674671372477350_" gradientUnits="userSpaceOnUse" x1="328.686" y1="47.1417" x2="328.686" y2="74.0307">
							<stop  offset="0" style="stop-color:#FF8578"/>
							<stop  offset="1" style="stop-color:#A854DA"/>
						</linearGradient>
						<path style="fill:url(#SVGID_00000058571881325206935470000014934674671372477350_);" d="M336.2,52c0.4,8.1,1.8,23.3,1.8,23.3
							l-18.6,0l1.4-25.3l6.8-3.5L336.2,52z"/>
						<path class="st13" d="M297.8,95.6c1.8,1.9,13.8-7.8,18.6-12.3c4.8-4.5,7.8-8.9,5.5-11.2c-2.3-2.3-6.7,0.5-11.3,5.2
							C306,81.9,295.9,93.7,297.8,95.6z"/>
						<path class="st13" d="M319.9,160.7c-3.7,0.1-6.5-20.1-7-28.8c-0.5-8.7,0.7-15.6,5.2-15.8c4.5-0.2,6.3,6.6,6.4,15.4
							C324.7,140.1,323.6,160.5,319.9,160.7z"/>
						<path class="st13" d="M321.7,204.1c-3.3,0.1-5.3-28.7-5.6-35.2c-0.3-6.5,0-13.3,3.6-13.4c3.6-0.1,4.4,6.7,4.7,13.1
							C324.7,175.1,324.9,204,321.7,204.1z"/>
						<path class="st13" d="M337.1,160.7c-3.7,0.3-7.5-19.8-8.4-28.4c-1-8.7-0.1-15.7,4.4-16.1c4.5-0.4,6.6,6.3,7.2,15
							C340.8,139.9,340.7,160.3,337.1,160.7z"/>
						<path class="st13" d="M340.5,204c-3.2,0.3-6.2-28.5-6.8-34.9c-0.6-6.4-0.7-13.3,2.9-13.6c3.6-0.3,4.8,6.4,5.3,12.9
							C342.5,174.8,343.7,203.7,340.5,204z"/>
						<path class="st13" d="M338.9,122.7h-25.8c0,0,2.2-11.5,2.4-15.6c0.1-3.4,1.4-14.2,1.4-14.2s-3.1-4.7-3.1-7.1
							c0-3.7,6.3-13.8,6.3-13.8l9.1-2.8l6.2,1.5c3.9,0.7,4,4.4,4,8.3c0,11.8-5,19.9-4.5,26.7C335.1,109.9,338.9,122.7,338.9,122.7z"
							/>
						<g>
							<path class="st13" d="M332.1,61.5v9.2c0,0-1.7,1-5.5,1c-2.1,0-2.6-1-2.6-1v-2.9L332.1,61.5z"/>
							<path class="st13" d="M332.3,56.6c0,0.3,0,0.6,0,0.8c0,0.1,0,0.2,0,0.3c0.2,4.7-0.3,8.3-5.6,10.2c-1,0.1-4.3,0.9-5.6-0.6
								c-1.5-1.7-2.7-5.9-2.7-7.4v-0.1c0-1.5,0.2-1.9,0.2-2.7c0-0.7-0.4-2.7-0.4-3.6c0-1.5,0.5-3.2,1.2-4.5c1.2-2.4,3.3-3.8,6.6-3.8
								C333.4,45.3,332.5,51.6,332.3,56.6z"/>
							
								<linearGradient id="SVGID_00000083782551716005115800000001073036864688621726_" gradientUnits="userSpaceOnUse" x1="326.8398" y1="47.1417" x2="326.8398" y2="74.0306">
								<stop  offset="0" style="stop-color:#FF8578"/>
								<stop  offset="1" style="stop-color:#A854DA"/>
							</linearGradient>
							<path style="fill:url(#SVGID_00000083782551716005115800000001073036864688621726_);" d="M330.5,55.4
								c0.6,1.7,3.4,6.3,3.4,6.3s2.7-5.7,2.3-9.6c-0.5-5.8-4.2-5-4.2-5c-2.7-3.7-9.2-2.8-12.3,1.1c-1.6,2.1-2.5,4.9-2.1,6.3
								c0.2,0.6,1,2.4,1,2.4l-0.2-1.5c0.6-3.3,6.2-3,9.3-5.7C327.7,49.7,329.7,53.5,330.5,55.4z"/>
							<path class="st15" d="M329.7,52.8C329.7,52.8,329.7,52.8,329.7,52.8"/>
							<g>
								<path class="st13" d="M332.2,56.9c0.6-0.1,2-0.6,1.7,1.5c-0.4,3.6-2.5,3.4-2.5,3.4c0.1-0.5,0.3-1.2,0.5-2.1
									c-0.6-0.3-0.1-0.7,0-1.2c0-0.1,0.1-0.3,0.1-0.4C331.9,57.8,332.2,57.4,332.2,56.9z"/>
								<path class="st16" d="M332.1,58.2c0,0,0.7-0.6,1.2-0.4c0.5,0.3,0.1,1.4-0.2,2.1c-0.4,0.7-0.8,0.7-0.9,0.6
									c-0.1-0.2,0.8-0.6,0.5-0.9c-0.3-0.3-0.6-0.4-0.6-0.6C332,58.8,332.1,58.2,332.1,58.2z"/>
								<path class="st17" d="M330.5,54.8c0.2,1.4,1.3,4.2,1.3,4.2l0.7-2.6L330.5,54.8z"/>
							</g>
							<path class="st16" d="M325,68.1c1.5-0.2,4.1-1.1,5.4-2.5c0,0-0.3,1.4-1.6,2.1C327.4,68.4,325,68.1,325,68.1z"/>
						</g>
						<path class="st13" d="M323.9,202.8l0.2,3.4c0,0.5-0.4,0.9-0.9,0.9h-9c-0.8,0-1.9-1.5-1.2-1.9c1.5-0.9,4.2-2.3,5.8-3
							c0.1-0.1,1.5-27.5,2.8-27.5C322.8,174.6,323.9,202.8,323.9,202.8z"/>
						<path class="st13" d="M342.5,202.6c0,0,0,0.2,0,0.4v2.7c0,0.3-1.5,1.5-2.2,1.8c-2.3,1-5.8,0.4-6-0.4c-0.2-0.8,2.2-3.6,2.2-3.6
							c0.6-0.8,1-1.5,1-1.5s1.2-27.5,2.5-27.4C341.5,174.7,342.5,202.6,342.5,202.6z"/>
						<path class="st18" d="M312.7,207h11.1c0.1,0,0.3-0.1,0.3-0.3V205c-2.2,0-7.3,0.1-7.6,0c-0.3-0.1-1.3-1.2-1.5-1.5
							c-0.9,0.5-2.1,1.2-2.8,1.7C311.4,205.8,311.8,207,312.7,207z"/>
						<path class="st18" d="M340.4,207.6c0.6-0.3,2.2-1.5,2.2-1.8v-1.4l-2.2,1.3c-1.5-1.6-4.4-2.1-5.1-0.7l0,0
							c-0.6,0.9-1,1.7-0.9,2.2C334.6,208,338.1,208.5,340.4,207.6z"/>
						
							<linearGradient id="SVGID_00000093166912664008992680000015167769371522778752_" gradientUnits="userSpaceOnUse" x1="329.2422" y1="69.9949" x2="329.2422" y2="106.667">
							<stop  offset="0" style="stop-color:#606BF1"/>
							<stop  offset="1" style="stop-color:#8741FF"/>
						</linearGradient>
						<path style="fill:url(#SVGID_00000093166912664008992680000015167769371522778752_);" d="M312,159c0,0,0.4-26.1,0.8-34.7
							c0.4-8,3.3-32.8,3.3-32.8c-1.4-1.8-2.6-4.6-2.6-6.4c0-0.9,1.2-4.1,2.6-7.2c0.4-0.9-0.1-4.5,1.5-6.1c1.2-1.2,6.5-1.2,6.5-1.2
							c-3,0.9-3.7,5-3.3,5.4c0.4,0.3,6.3,0.2,7.3,0c1.1-0.2,3-5.4,5.9-5.9c0,0,1.9-0.3,4,1.1c2.1,1.3,3,5,3,5s-7.8-0.2-7.3,4.4
							c0,0.1,0,0.2,0,0.3c0.6,4.6,3.9,12.9,3.9,12.9s-2,5-1.3,10.4c0.9,6.7,10.2,54.7,10.2,54.7H312z"/>
					</g>
					<g>
						<path class="st13" d="M353.9,99c-2.2,1.5-12.2-10.1-16.2-15.4c-3.9-5.3-6.1-10.1-3.4-12c2.6-1.9,6.5,1.7,10.2,7.1
							C348.3,84.2,356,97.5,353.9,99z"/>
						<path class="st13" d="M357.5,126.8c-2.3,0.4-5.9-16.5-6.8-21.3s-1.4-9.9,1.2-10.4c2.6-0.5,3.8,4.5,4.7,9.4
							C357.5,109.2,359.8,126.4,357.5,126.8z"/>
						<g>
							<path class="st13" d="M353.9,125.3c0.5-1.7,1.1-2.5,2.8-3c2.7-0.7,3.7,4.9,3.8,6.5c0.2,1.5-1.8,4.7-2.8,4.9
								c-1.1,0.1-1.7-5.5-2-5.6c-0.3,0-0.4,0.2-0.4,0.6h-1.6C353.6,127.6,353.6,126.2,353.9,125.3z"/>
						</g>
					</g>
					
						<linearGradient id="SVGID_00000017500805201233550670000007462790037179024789_" gradientUnits="userSpaceOnUse" x1="338.5114" y1="69.995" x2="338.5114" y2="106.6671">
						<stop  offset="0" style="stop-color:#606BF1"/>
						<stop  offset="1" style="stop-color:#8741FF"/>
					</linearGradient>
					<path style="fill:url(#SVGID_00000017500805201233550670000007462790037179024789_);" d="M335.6,70.4c3.1,0.6,5.9,4.1,9.3,7.4
						c0,0-2.1,3.1-7.2,5.8l1.4,1.8c0,0-0.4,4.3-1.6,8.5c-1.1,4.1-4.4-9.7-4.4-9.7l-1-12L335.6,70.4z"/>
					
						<linearGradient id="SVGID_00000067207235302790890500000005839446998441289353_" gradientUnits="userSpaceOnUse" x1="315.0803" y1="69.995" x2="315.0803" y2="106.6668">
						<stop  offset="0" style="stop-color:#606BF1"/>
						<stop  offset="1" style="stop-color:#8741FF"/>
					</linearGradient>
					<path style="fill:url(#SVGID_00000067207235302790890500000005839446998441289353_);" d="M319.3,71.2c-3.3,0.7-5.9,3-8.4,5.3
						c0,0,3.2,5.3,4.2,6.5c1,1.2,3.5-7.9,3.5-7.9L319.3,71.2z"/>
				</g>
				
					<linearGradient id="SVGID_00000092456126769838137580000011318128382570988219_" gradientUnits="userSpaceOnUse" x1="241.1709" y1="107.4236" x2="241.1709" y2="261.3043">
					<stop  offset="0" style="stop-color:#FFDE4D"/>
					<stop  offset="1" style="stop-color:#FF72A8"/>
				</linearGradient>
				
					<rect x="122.3" y="107.4" style="fill:url(#SVGID_00000092456126769838137580000011318128382570988219_);" width="237.7" height="153.9"/>
				<path class="st13" d="M297.4,122.1c2.3,0.2,4.8-16.9,5.3-21.7c0.5-4.8,0.7-10-1.9-10.3c-2.6-0.3-3.5,4.8-4,9.6
					C296.2,104.6,295.1,121.8,297.4,122.1z"/>
				<g>
					<path class="st13" d="M301,121.3c-0.5-1.7-1.1-2.5-2.8-3c-2.7-0.7-3.7,4.9-3.8,6.5c-0.2,1.5,1.8,4.7,2.8,4.9
						c1.1,0.1,1.7-5.5,2-5.6c0.3,0,0.4,0.2,0.4,0.6h1.6C301.3,123.5,301.2,122.1,301,121.3z"/>
				</g>
				<text transform="matrix(1 0 0 1 204.1881 128.3076)" class="st1 st23 st24 st25">CONTACT US</text>
				
					<linearGradient id="SVGID_00000081645518042520356930000014444840364098378425_" gradientUnits="userSpaceOnUse" x1="239.8669" y1="153.9977" x2="239.8669" y2="141.3297">
					<stop  offset="0" style="stop-color:#F9FBFC"/>
					<stop  offset="0.4155" style="stop-color:#F6FAFC"/>
					<stop  offset="0.681" style="stop-color:#EEF6FA"/>
					<stop  offset="0.9037" style="stop-color:#DFEFF8"/>
					<stop  offset="1" style="stop-color:#D6EBF7"/>
				</linearGradient>
				
					<rect x="145.4" y="141.3" style="fill:url(#SVGID_00000081645518042520356930000014444840364098378425_);" width="188.9" height="12.7"/>
				
					<linearGradient id="SVGID_00000019676375834432952830000001468057302110643841_" gradientUnits="userSpaceOnUse" x1="239.8669" y1="175.0492" x2="239.8669" y2="162.381">
					<stop  offset="0" style="stop-color:#F9FBFC"/>
					<stop  offset="0.4155" style="stop-color:#F6FAFC"/>
					<stop  offset="0.681" style="stop-color:#EEF6FA"/>
					<stop  offset="0.9037" style="stop-color:#DFEFF8"/>
					<stop  offset="1" style="stop-color:#D6EBF7"/>
				</linearGradient>
				
					<rect x="145.4" y="162.4" style="fill:url(#SVGID_00000019676375834432952830000001468057302110643841_);" width="188.9" height="12.7"/>
				
					<linearGradient id="SVGID_00000036243634609594207950000009605758753598003113_" gradientUnits="userSpaceOnUse" x1="239.8669" y1="246.028" x2="239.8669" y2="183.4325">
					<stop  offset="0" style="stop-color:#F9FBFC"/>
					<stop  offset="0.4155" style="stop-color:#F6FAFC"/>
					<stop  offset="0.681" style="stop-color:#EEF6FA"/>
					<stop  offset="0.9037" style="stop-color:#DFEFF8"/>
					<stop  offset="1" style="stop-color:#D6EBF7"/>
				</linearGradient>
				
					<rect x="145.4" y="183.4" style="fill:url(#SVGID_00000036243634609594207950000009605758753598003113_);" width="188.9" height="62.6"/>
				<path class="st29" d="M352.7,306.3c-2,2-4.3,3.6-6.9,4.8c-3.2,1.5-6.9,2.4-10.7,2.4H144.4c-3.8,0-7.5-0.9-10.7-2.4
					c-2.6-1.2-4.9-2.8-6.9-4.8l75.6-64.4l37-31.5l0,0l0.4-0.3l37.4,31.9L352.7,306.3z"/>
				<text transform="matrix(1 0 0 1 151.7008 149.8623)" class="st30 st31 st32">Name</text>
				<text transform="matrix(1 0 0 1 151.7008 170.9619)" class="st30 st31 st32">Email</text>
				<text transform="matrix(1 0 0 1 151.7008 192.8975)" class="st30 st31 st32">Message</text>
			</g>
			<g>
				
					<linearGradient id="SVGID_00000117637687698964526000000010975125956354530990_" gradientUnits="userSpaceOnUse" x1="160.8587" y1="202.7035" x2="160.8587" y2="327.5916">
					<stop  offset="0" style="stop-color:#BEE1F4"/>
					<stop  offset="0.4644" style="stop-color:#E6E7E8"/>
					<stop  offset="1" style="stop-color:#B4B7EC"/>
				</linearGradient>
				<path style="fill:url(#SVGID_00000117637687698964526000000010975125956354530990_);" d="M202.4,243.7l-75.6,64.4
					c-2-2-3.7-4.3-4.9-6.8c-1.7-3.3-2.6-7.1-2.6-11.1V173.2h0.3l80.6,68.7L202.4,243.7z"/>
				<polygon class="st34" points="119.4,172.8 119.7,173.2 119.3,173.2 119.3,172.8 				"/>
				
					<linearGradient id="SVGID_00000049194148088272572590000002897171414088665513_" gradientUnits="userSpaceOnUse" x1="318.6886" y1="202.7034" x2="318.6886" y2="327.5915">
					<stop  offset="0" style="stop-color:#BEE1F4"/>
					<stop  offset="0.4644" style="stop-color:#E6E7E8"/>
					<stop  offset="1" style="stop-color:#B4B7EC"/>
				</linearGradient>
				<path style="fill:url(#SVGID_00000049194148088272572590000002897171414088665513_);" d="M360.2,172.9v117.4
					c0,4-0.9,7.7-2.6,11.1c-1.3,2.5-2.9,4.8-4.9,6.8l-75.6-64.4l2.1-1.8l80.6-68.7L360.2,172.9z"/>
				
					<linearGradient id="SVGID_00000177442200108600865440000005527021806086002847_" gradientUnits="userSpaceOnUse" x1="176.5766" y1="244.9345" x2="345.0639" y2="413.4218">
					<stop  offset="0" style="stop-color:#BEE1F4"/>
					<stop  offset="0.4644" style="stop-color:#E6E7E8"/>
					<stop  offset="1" style="stop-color:#B4B7EC"/>
				</linearGradient>
				<path style="fill:url(#SVGID_00000177442200108600865440000005527021806086002847_);" d="M352.7,308.1c-2,2-4.3,3.6-6.9,4.8
					c-3.2,1.5-6.9,2.4-10.7,2.4H144.4c-3.8,0-7.5-0.9-10.7-2.4c-2.6-1.2-4.9-2.8-6.9-4.8l75.6-64.4l37-31.5l0,0l0.4-0.3l37.4,31.9
					L352.7,308.1z"/>
			</g>
			<path class="st34" d="M357.6,301.4c-1.3,2.5-2.9,4.8-4.9,6.8l-75.6-64.4l2.1-1.8L357.6,301.4z"/>
			<path class="st34" d="M202.4,243.7l-75.6,64.4c-2-2-3.7-4.3-4.9-6.8l78.3-59.4L202.4,243.7z"/>
			<path class="st11" d="M359.9,173.2"/>
			<polyline class="st37" points="360.6,172.6 360.2,172.9 359.9,173.2 			"/>
		</g>
		<g>
			<g>
				
					<linearGradient id="SVGID_00000062889508556685200020000001454941040073658767_" gradientUnits="userSpaceOnUse" x1="42.9755" y1="266.2568" x2="42.9755" y2="288.9797">
					<stop  offset="0" style="stop-color:#BEE1F4"/>
					<stop  offset="1" style="stop-color:#606BF1"/>
				</linearGradient>
				<path style="fill:url(#SVGID_00000062889508556685200020000001454941040073658767_);" d="M51.2,285c-0.6,2.8-4.2,4.2-6.8,3.9
					c-3.9-0.4-7.5-2.9-9.2-6.4c-1.4-2.9-0.8-6.4-1.3-9.6c-0.3-2.2-1.6-6-3.8-6.7c1.4,0,3,0.9,4.5,1.1c2.8,0.3,5.5,0.2,8.3,0.3
					c4.5,0.2,9.2,0.5,11.6,4.8c1.4,2.5,1.6,6,0.5,8.7c-0.5,1.3-2.6,4.3-4,3.8"/>
				<path class="st7" d="M57,295.3c-0.4-1.1-1-2.2-1.4-3.4c-0.5-1.3-3.4-7.3-4.1-8.5c0,0,0-0.1-0.1-0.1c1.7-2.5,3.3-5.4,2.9-8.6
					c0-0.1-0.2-0.1-0.2,0c0,3.2-1.3,5.7-2.9,8.3c-0.3-0.5-0.6-1-0.9-1.6c0.9-1.3,1.6-2.6,2-4.1c0.4-1.4,1.1-3.1,0.9-4.6
					c0-0.1-0.1-0.1-0.1,0c0.2,1.6-0.6,3.4-1.1,4.9c-0.3,0.8-0.5,1.6-1,2.3c-0.3,0.4-0.6,0.8-0.9,1.2c-0.2-0.4-0.5-0.8-0.7-1.2
					c0.1-0.2,0.2-0.4,0.3-0.7c0.4-0.9,0.8-1.8,1.2-2.8c0.6-1.8,1-3.7,1-5.6c0-0.1-0.1-0.1-0.1,0c-0.1,1.7-0.4,3.4-1,5.1
					c-0.2,0.7-0.5,1.4-0.8,2c-0.2,0.4-0.4,1.1-0.8,1.6c-0.4-0.5-0.7-1-1.1-1.5c0.7-1.3,1.2-2.7,1.7-4.1c0.4-1.3,0.8-2.6,0.4-3.9
					c0,0-0.1,0-0.1,0c0.4,1.4-0.1,2.9-0.6,4.2c-0.5,1.2-0.9,2.5-1.6,3.6c-0.2-0.2-0.4-0.5-0.6-0.7c-0.2-0.2-0.3-0.3-0.5-0.5
					c0.4-1.2,1-2.4,1.3-3.6c0.4-1.5,0.2-2.7,0.1-4.2c0-0.1-0.1-0.1-0.1,0c0,1.6,0.1,3-0.4,4.5c-0.3,1.1-0.8,2-1.1,3.1
					c-0.4-0.4-0.8-0.7-1.2-1c0.9-2.2,1.3-4.2,1.3-6.6c0-0.1-0.2-0.1-0.2,0c0,1.3-0.1,2.6-0.4,3.8c-0.2,0.9-0.6,1.8-1,2.7
					c0,0,0,0,0,0c0,0,0,0-0.1-0.1c-0.5-0.4-1-0.8-1.5-1.1c0.9-1.7,0.6-3.8,0.5-5.6c0-0.1-0.1,0-0.1,0c0.1,1.8,0.2,3.8-0.6,5.5
					c-0.4-0.3-0.8-0.5-1.2-0.8c0.3-1.6,0.7-3.3,0.2-4.9c0,0-0.1,0,0,0c0.4,1.6,0,3.2-0.3,4.9c-0.5-0.4-1.1-0.7-1.7-1
					c0.6-1,0.7-2.6,0.4-3.7c0-0.1-0.1,0-0.1,0c0.2,0.9,0.1,1.7-0.1,2.5c-0.1,0.3-0.3,0.8-0.3,1.1c-0.4-0.3-0.9-0.5-1.4-0.8
					c0,0,0,0,0,0c0,0,0,0,0,0c0.2-1,0.4-1.9,0.1-2.9c0-0.1-0.1,0-0.1,0c0.2,0.9,0.1,1.9-0.1,2.8c-0.4-0.2-0.7-0.4-1.1-0.6
					c0,0,0,0,0,0c0,0,0,0,0,0c0.2-0.7,0-1.4,0-2c0,0,0,0,0,0c0,0.7,0.1,1.3-0.1,2c0,0,0,0,0,0c-0.4-0.2-0.8-0.4-1.2-0.7
					c0.1-0.6,0-1.1-0.1-1.6c0,0-0.1,0-0.1,0c0.1,0.5,0.1,1,0,1.6c0,0-0.1,0-0.1,0c0,0,0,0,0,0c-0.8-0.4-1.6-0.8-2.3-1.3c0,0,0,0,0,0
					c0.7,0.4,1.5,0.9,2.2,1.3c-0.6,0.4-1.1,0.7-1.9,0.7c-0.1,0-0.1,0.1,0,0.1c0.8,0,1.4-0.3,2-0.8c0,0,0.1,0,0.1,0.1c0,0,0,0,0,0.1
					c0,0.1,0.1,0.1,0.1,0c0.4,0.2,0.7,0.4,1.1,0.6c-0.9,0.5-1.6,1.2-2.7,1.2c-0.1,0-0.1,0.1,0,0.1c1.1,0,1.9-0.7,2.9-1.2
					c0,0,0,0,0,0c0,0.1,0.1,0.1,0.1,0c0,0,0,0,0,0c0.4,0.2,0.7,0.4,1.1,0.6c0,0,0,0,0,0.1c0,0,0,0,0,0c-1,0.9-2,1.7-3.5,1.7
					c0,0-0.1,0.1,0,0.1c1.3,0.1,2.9-0.5,3.6-1.7c0.4,0.3,0.9,0.5,1.3,0.8c-1,1-2.1,2.6-3.7,2.6c-0.1,0-0.1,0.1,0,0.1
					c1.6,0,2.8-1.6,3.8-2.6c0,0,0.1,0.1,0.1,0c0.5,0.3,1,0.6,1.5,1c-1,2.3-3.9,2.9-6.1,3.6c-0.1,0-0.1,0.2,0,0.2
					c2.2-0.8,5.1-1.3,6.2-3.7c0,0,0,0,0,0c0,0,0,0.1,0.1,0c0.3,0.2,0.7,0.5,1,0.7c-0.8,1.1-2,2.1-3.1,2.9c-1.3,0.9-2.8,1.5-4.4,1.5
					c-0.1,0-0.1,0.1,0,0.1c1.6,0.1,3-0.5,4.3-1.4c1.2-0.8,2.5-1.8,3.3-3c0.5,0.4,0.9,0.8,1.4,1.2c-1.1,1.2-2.1,2.4-3.5,3.3
					c-1.6,1-3.2,1.4-5,1.7c-0.1,0-0.1,0.1,0,0.1c1.9-0.3,3.4-0.6,5.1-1.7c1.4-0.9,2.5-2.1,3.7-3.3c0,0,0,0,0.1,0.1c0,0,0,0,0.1,0.1
					c0.4,0.4,0.8,0.8,1.2,1.2c-1.1,1.4-2.4,2.7-3.9,3.8c-1.7,1.3-3.7,1.5-5.7,1.8c-0.1,0,0,0.1,0,0.1c1.9-0.2,3.8-0.4,5.5-1.5
					c1.5-1,3-2.4,4.2-3.9c0,0,0.1,0,0.1,0c0.2,0.2,0.3,0.4,0.5,0.6c0.1,0.2,0.3,0.4,0.4,0.6c-0.9,1.6-2.3,3.1-3.7,4.2
					c-1.5,1.2-3.2,1.4-5,2c-0.1,0,0,0.1,0.1,0.1c1.9-0.6,3.6-0.7,5.2-2c0.8-0.6,1.4-1.3,2.1-2c0.6-0.6,1.2-1.1,1.6-1.8
					c0.4,0.6,0.7,1.2,1.1,1.8c-2,2.4-4.5,6.5-8.1,5.7c0,0-0.1,0.1,0,0.1c3.3,0.8,6.5-2.9,8.3-5.4c0.3,0.5,0.5,1,0.7,1.5
					c-1.3,2.2-3.8,4.1-6.2,4.8c-0.1,0,0,0.1,0,0.1c1.6-0.4,3-1.2,4.2-2.3c0.7-0.6,1.6-1.4,2.2-2.3c0.2,0.5,0.4,1,0.6,1.6
					c-0.5,0.7-1,1.3-1.6,1.8c-0.8,0.6-1.7,1.1-2.5,1.6c-0.1,0,0,0.2,0.1,0.1c0.9-0.5,1.8-0.9,2.6-1.6c0.6-0.5,1.1-1.1,1.6-1.7
					c0,0.1,0.1,0.2,0.1,0.3c0.5,1.2,3.2,7.1,3.6,8.3c0.3,1,0.6,2.1,1.5,2.8C56.5,296.5,57.2,295.9,57,295.3z"/>
			</g>
			<g>
				
					<linearGradient id="SVGID_00000050648085784017178210000007968865244710012332_" gradientUnits="userSpaceOnUse" x1="77.0056" y1="265.8518" x2="77.0056" y2="288.5745">
					<stop  offset="0" style="stop-color:#BEE1F4"/>
					<stop  offset="1" style="stop-color:#606BF1"/>
				</linearGradient>
				<path style="fill:url(#SVGID_00000050648085784017178210000007968865244710012332_);" d="M68.8,284.6c0.6,2.8,4.2,4.2,6.8,3.9
					c3.9-0.4,7.5-2.9,9.2-6.4c1.4-2.9,0.8-6.4,1.3-9.6c0.3-2.2,1.6-6,3.8-6.7c-1.4,0-3,0.9-4.5,1.1c-2.8,0.3-5.5,0.2-8.3,0.3
					c-4.5,0.2-9.2,0.5-11.6,4.8c-1.4,2.5-1.6,6-0.5,8.7c0.5,1.3,2.6,4.3,4,3.8"/>
				<path class="st7" d="M63,294.9c0.4-1.1,1-2.2,1.4-3.4c0.5-1.3,3.4-7.3,4.1-8.5c0,0,0-0.1,0.1-0.1c-1.7-2.5-3.3-5.4-2.9-8.6
					c0-0.1,0.2-0.1,0.2,0c0,3.2,1.3,5.7,2.9,8.3c0.3-0.5,0.6-1,0.9-1.6c-0.9-1.3-1.6-2.6-2-4.1c-0.4-1.4-1.1-3.1-0.9-4.6
					c0-0.1,0.1-0.1,0.1,0c-0.2,1.6,0.6,3.4,1.1,4.9c0.3,0.8,0.5,1.6,1,2.3c0.3,0.4,0.6,0.8,0.9,1.2c0.2-0.4,0.5-0.8,0.7-1.2
					c-0.1-0.2-0.2-0.4-0.3-0.7c-0.4-0.9-0.8-1.8-1.2-2.8c-0.6-1.8-1-3.7-1-5.6c0-0.1,0.1-0.1,0.1,0c0.1,1.7,0.4,3.4,1,5.1
					c0.2,0.7,0.5,1.4,0.8,2c0.2,0.4,0.4,1.1,0.8,1.6c0.4-0.5,0.7-1,1.1-1.5c-0.7-1.3-1.2-2.7-1.7-4.1c-0.4-1.3-0.8-2.6-0.4-3.9
					c0,0,0.1,0,0.1,0c-0.4,1.4,0.1,2.9,0.6,4.2c0.5,1.2,0.9,2.5,1.6,3.6c0.2-0.2,0.4-0.5,0.6-0.7c0.2-0.2,0.3-0.3,0.5-0.5
					c-0.4-1.2-1-2.4-1.3-3.6c-0.4-1.5-0.2-2.7-0.1-4.2c0-0.1,0.1-0.1,0.1,0c0,1.6-0.1,3,0.4,4.5c0.3,1.1,0.8,2,1.1,3.1
					c0.4-0.4,0.8-0.7,1.2-1c-0.9-2.2-1.3-4.2-1.3-6.6c0-0.1,0.2-0.1,0.2,0c0,1.3,0.1,2.6,0.4,3.8c0.2,0.9,0.6,1.8,1,2.7c0,0,0,0,0,0
					c0,0,0,0,0.1-0.1c0.5-0.4,1-0.8,1.5-1.1c-0.9-1.7-0.6-3.8-0.5-5.6c0-0.1,0.1,0,0.1,0c-0.1,1.8-0.2,3.8,0.6,5.5
					c0.4-0.3,0.8-0.5,1.2-0.8c-0.3-1.6-0.7-3.3-0.2-4.9c0,0,0.1,0,0,0c-0.4,1.6,0,3.2,0.3,4.9c0.5-0.4,1.1-0.7,1.7-1
					c-0.6-1-0.7-2.6-0.4-3.7c0-0.1,0.1,0,0.1,0c-0.2,0.9-0.1,1.7,0.1,2.5c0.1,0.3,0.3,0.8,0.3,1.1c0.4-0.3,0.9-0.5,1.4-0.8
					c0,0,0,0,0,0c0,0,0,0,0,0c-0.2-1-0.4-1.9-0.1-2.9c0-0.1,0.1,0,0.1,0c-0.2,0.9-0.1,1.9,0.1,2.8c0.4-0.2,0.7-0.4,1.1-0.6
					c0,0,0,0,0,0c0,0,0,0,0,0c-0.2-0.7,0-1.4,0-2c0,0,0,0,0,0c0,0.7-0.1,1.3,0.1,2c0,0,0,0,0,0c0.4-0.2,0.8-0.4,1.2-0.7
					c-0.1-0.6,0-1.1,0.1-1.6c0,0,0.1,0,0.1,0c-0.1,0.5-0.1,1,0,1.6c0,0,0.1,0,0.1,0c0,0,0,0,0,0c0.8-0.4,1.6-0.8,2.3-1.3
					c0,0,0,0,0,0c-0.7,0.4-1.5,0.9-2.2,1.3c0.6,0.4,1.1,0.7,1.9,0.7c0.1,0,0.1,0.1,0,0.1c-0.8,0-1.4-0.3-2-0.8c0,0-0.1,0-0.1,0.1
					c0,0,0,0,0,0.1c0,0.1-0.1,0.1-0.1,0c-0.4,0.2-0.7,0.4-1.1,0.6c0.9,0.5,1.6,1.2,2.7,1.2c0.1,0,0.1,0.1,0,0.1
					c-1.1,0-1.9-0.7-2.9-1.2c0,0,0,0,0,0c0,0.1-0.1,0.1-0.1,0c0,0,0,0,0,0c-0.4,0.2-0.7,0.4-1.1,0.6c0,0,0,0,0,0.1c0,0,0,0,0,0
					c1,0.9,2,1.7,3.5,1.7c0,0,0.1,0.1,0,0.1c-1.3,0.1-2.9-0.5-3.6-1.7c-0.4,0.3-0.9,0.5-1.3,0.8c1,1,2.1,2.6,3.7,2.6
					c0.1,0,0.1,0.1,0,0.1c-1.6,0-2.8-1.6-3.8-2.6c0,0-0.1,0.1-0.1,0c-0.5,0.3-1,0.6-1.5,1c1,2.3,3.9,2.9,6.1,3.6
					c0.1,0,0.1,0.2,0,0.2c-2.2-0.8-5.1-1.3-6.2-3.7c0,0,0,0,0,0c0,0,0,0.1-0.1,0c-0.3,0.2-0.7,0.5-1,0.7c0.8,1.1,2,2.1,3.1,2.9
					c1.3,0.9,2.8,1.5,4.4,1.5c0.1,0,0.1,0.1,0,0.1c-1.6,0.1-3-0.5-4.3-1.4c-1.2-0.8-2.5-1.8-3.3-3c-0.5,0.4-0.9,0.8-1.4,1.2
					c1.1,1.2,2.1,2.4,3.5,3.3c1.6,1,3.2,1.4,5,1.7c0.1,0,0.1,0.1,0,0.1c-1.9-0.3-3.4-0.6-5.1-1.7c-1.4-0.9-2.5-2.1-3.7-3.3
					c0,0,0,0-0.1,0.1c0,0,0,0-0.1,0.1c-0.4,0.4-0.8,0.8-1.2,1.2c1.1,1.4,2.4,2.7,3.9,3.8c1.7,1.3,3.7,1.5,5.7,1.8c0.1,0,0,0.1,0,0.1
					c-1.9-0.2-3.8-0.4-5.5-1.5c-1.5-1-3-2.4-4.2-3.9c0,0-0.1,0-0.1,0c-0.2,0.2-0.3,0.4-0.5,0.6c-0.1,0.2-0.3,0.4-0.4,0.6
					c0.9,1.6,2.3,3.1,3.7,4.2c1.5,1.2,3.2,1.4,5,2c0.1,0,0,0.1-0.1,0.1c-1.9-0.6-3.6-0.7-5.2-2c-0.8-0.6-1.4-1.3-2.1-2
					c-0.6-0.6-1.2-1.2-1.6-1.8c-0.4,0.6-0.7,1.2-1.1,1.8c2,2.4,4.5,6.5,8.1,5.7c0,0,0.1,0.1,0,0.1c-3.3,0.8-6.5-2.9-8.3-5.4
					c-0.3,0.5-0.5,1-0.7,1.5c1.3,2.2,3.8,4.1,6.2,4.8c0.1,0,0,0.1,0,0.1c-1.6-0.4-3-1.2-4.2-2.3c-0.7-0.6-1.6-1.4-2.2-2.3
					c-0.2,0.5-0.4,1-0.6,1.6c0.5,0.7,1,1.3,1.6,1.8c0.8,0.6,1.7,1.1,2.5,1.6c0.1,0,0,0.2-0.1,0.1c-0.9-0.5-1.8-0.9-2.6-1.6
					c-0.6-0.5-1.1-1.1-1.6-1.7c0,0.1-0.1,0.2-0.1,0.3c-0.5,1.2-3.2,7.1-3.6,8.3c-0.3,1-0.6,2.1-1.5,2.8
					C63.5,296.1,62.8,295.5,63,294.9z"/>
			</g>
			<g>
				
					<linearGradient id="SVGID_00000014594217703453584660000011096645319411599006_" gradientUnits="userSpaceOnUse" x1="58.3161" y1="251.2565" x2="58.3161" y2="288.0978">
					<stop  offset="0" style="stop-color:#BEE1F4"/>
					<stop  offset="1" style="stop-color:#606BF1"/>
				</linearGradient>
				<path style="fill:url(#SVGID_00000014594217703453584660000011096645319411599006_);" d="M56.8,286.6c2.7,2.6,7.6,1.5,10.2-0.6
					c4-3.2,6.1-8.5,5.3-13.5c-0.6-4.2-3.7-7.5-5.4-11.3c-1.2-2.6-2.5-7.6-0.7-9.9c-1.5,1-2.6,3.2-4.1,4.4c-2.8,2.3-5.8,4.2-8.8,6.3
					c-4.7,3.4-9.6,7.1-9.1,13.5c0.3,3.7,2.6,7.7,5.7,9.8c1.5,1,5.9,2.8,7,1.3"/>
				<path class="st7" d="M57.9,301.9c-0.4-1.5-0.6-3.1-0.9-4.6c-0.4-1.8-1.5-10.3-1.7-12.2c0-0.1,0-0.1,0-0.2
					c-3.7-1.5-7.4-3.5-9.3-7.2c-0.1-0.1,0.1-0.2,0.2-0.1c2.2,3.5,5.4,5.3,9.1,6.9c-0.1-0.8-0.1-1.5-0.2-2.3
					c-1.9-0.7-3.5-1.7-5.1-3.1c-1.4-1.3-3.4-2.6-4.3-4.3c0-0.1,0.1-0.1,0.1-0.1c0.9,1.8,3.1,3.3,4.7,4.6c0.8,0.7,1.7,1.3,2.7,1.8
					c0.6,0.3,1.2,0.5,1.8,0.7c0-0.6,0-1.2,0-1.8c-0.3-0.1-0.6-0.3-0.8-0.5c-1.1-0.7-2.2-1.4-3.3-2.2c-1.9-1.5-3.7-3.3-5-5.3
					c0-0.1,0-0.1,0.1-0.1c1.3,1.9,2.9,3.4,4.7,4.8c0.8,0.6,1.5,1.1,2.3,1.6c0.5,0.3,1.3,0.9,2,1.2c0-0.8,0.1-1.6,0.1-2.4
					c-1.7-0.9-3.2-2.1-4.7-3.3c-1.3-1.1-2.7-2.3-3.3-4c0,0,0.1-0.1,0.1,0c0.6,1.8,2.2,3,3.7,4.1c1.4,1,2.8,2,4.3,2.8
					c0.1-0.4,0.1-0.8,0.2-1.2c0.1-0.3,0.1-0.6,0.2-0.8c-1.3-1-2.7-1.9-4-3c-1.4-1.3-2.2-2.8-3.1-4.4c-0.1-0.1,0.1-0.2,0.2-0.1
					c1.1,1.7,2,3.3,3.6,4.6c1.1,0.9,2.3,1.7,3.4,2.5c0.2-0.7,0.3-1.3,0.5-2c-2.5-1.7-4.4-3.7-6.2-6.3c-0.1-0.1,0.1-0.3,0.2-0.2
					c0.9,1.4,1.9,2.7,3.1,3.9c0.9,0.9,2,1.5,3,2.2c0,0,0,0,0,0c0,0,0-0.1,0-0.1c0.2-0.8,0.5-1.5,0.8-2.3c-2.1-1.2-3.4-3.7-4.6-5.7
					c0-0.1,0.1-0.1,0.1,0c1.2,2,2.5,4.2,4.6,5.5c0.2-0.6,0.5-1.1,0.7-1.7c-1.5-1.6-3.1-3.1-3.8-5.2c0,0,0-0.1,0.1,0
					c0.7,2,2.3,3.5,3.8,5.1c0.3-0.8,0.7-1.5,1.1-2.3c-1.4-0.6-2.7-2.3-3.1-3.7c0-0.1,0.1-0.1,0.1,0c0.4,1.1,1,1.9,1.9,2.7
					c0.3,0.3,0.9,0.6,1.2,1c0.3-0.6,0.6-1.2,0.9-1.8c0,0,0,0,0,0c0,0,0,0,0,0c-0.9-0.9-1.8-1.8-2.2-3c0-0.1,0.1-0.1,0.1,0
					c0.4,1.1,1.2,2.1,2.1,2.9c0.2-0.5,0.5-1,0.8-1.4c0,0,0,0,0,0c0,0,0,0,0,0c-0.6-0.6-1-1.5-1.4-2.2c0,0,0,0,0,0
					c0.5,0.7,0.9,1.5,1.5,2.1c0,0,0,0,0,0c0.3-0.5,0.6-1.1,0.9-1.6c-0.5-0.6-0.8-1.2-1.1-1.8c0-0.1,0.1-0.1,0.1,0
					c0.3,0.6,0.6,1.2,1.1,1.7c0,0,0-0.1,0.1-0.1c0,0,0,0,0-0.1c0.5-1,1.1-2,1.6-3c0,0,0,0,0,0c-0.5,1-1,2-1.5,3
					c0.9,0.1,1.7-0.1,2.5-0.6c0.1-0.1,0.2,0.1,0.1,0.1c-0.9,0.5-1.7,0.7-2.7,0.6c0,0,0,0.1-0.1,0.1c0,0,0,0,0,0.1
					c0.1,0.1-0.1,0.2-0.1,0.1c-0.3,0.5-0.5,1-0.8,1.5c1.3-0.2,2.6,0.1,3.8-0.6c0.1,0,0.2,0.1,0.1,0.1c-1.2,0.8-2.6,0.6-4,0.7
					c0,0,0,0,0,0c0.1,0.1,0,0.2-0.1,0.1c0,0,0,0,0,0c-0.2,0.5-0.5,1-0.7,1.5c0,0,0,0,0.1,0.1c0,0,0,0,0,0c1.8,0.3,3.3,0.4,4.9-0.7
					c0,0,0.1,0,0.1,0.1c-1.3,1-3.6,1.6-5.1,0.7c-0.3,0.6-0.6,1.2-0.8,1.7c1.8,0.4,4.2,1.3,5.8,0.1c0.1-0.1,0.2,0.1,0.1,0.1
					c-1.7,1.2-4.1,0.3-6-0.1c0,0,0,0.1-0.1,0.1c-0.3,0.7-0.6,1.4-0.9,2.1c2.8,1.8,6.3,0.4,9.2-0.4c0.1,0,0.2,0.2,0.1,0.2
					c-3,0.8-6.5,2.3-9.3,0.4c0,0,0,0,0,0c0,0,0,0.1,0,0.1c-0.2,0.5-0.4,1-0.6,1.5c1.6,0.6,3.7,0.9,5.4,0.9c2.1,0,4.1-0.4,5.8-1.5
					c0.1,0,0.1,0,0.1,0.1c-1.6,1.2-3.7,1.6-5.7,1.6c-1.9,0-4-0.2-5.8-0.9c-0.3,0.7-0.5,1.5-0.7,2.2c2.1,0.5,4,1.1,6.2,1.1
					c2.4,0,4.4-0.8,6.6-1.7c0.1,0,0.2,0.1,0.1,0.2c-2.3,1-4.2,1.8-6.7,1.8c-2.2,0-4.2-0.5-6.3-1c0,0,0,0.1,0,0.1c0,0,0,0.1,0,0.1
					c-0.2,0.7-0.3,1.4-0.4,2.1c2.2,0.8,4.6,1.2,6.9,1.4c2.7,0.2,5-1,7.4-2.1c0.1,0,0.1,0.1,0,0.1c-2.2,1.2-4.4,2.3-7,2.3
					c-2.4-0.1-5-0.5-7.3-1.2c0,0.1-0.1,0.1-0.1,0.1c0,0.3-0.1,0.7-0.1,1c0,0.3,0,0.6,0,0.9c2.1,1.1,4.7,1.7,7,1.9
					c2.5,0.2,4.5-0.8,6.8-1.4c0.1,0,0.1,0.1,0,0.2c-2.5,0.7-4.4,1.8-7.1,1.5c-1.2-0.1-2.5-0.5-3.7-0.7c-1-0.2-2.1-0.4-3-0.8
					c0,0.9,0,1.8,0.1,2.7c3.9,1.2,9.5,3.8,12.8,0.4c0,0,0.1,0,0.1,0.1c-3,3.3-9,1.5-12.9,0.2c0.1,0.7,0.2,1.4,0.3,2.1
					c3,1.4,7.1,1.7,10.1,0.8c0.1,0,0.1,0.1,0,0.1c-2,0.7-4.1,0.9-6.1,0.5c-1.2-0.2-2.7-0.4-4-0.9c0.1,0.7,0.3,1.4,0.4,2.2
					c1,0.4,2,0.7,3,0.9c1.3,0.2,2.6,0,3.9-0.1c0.1,0,0.1,0.2,0,0.2c-1.3,0.1-2.6,0.3-3.9,0.2c-1-0.1-2-0.4-3-0.8
					c0,0.1,0.1,0.3,0.1,0.4c0.4,1.6,1.6,9.9,2,11.5c0.4,1.3,0.8,2.8,0.3,4.1C59.3,302.7,58.1,302.6,57.9,301.9z"/>
			</g>
			
				<linearGradient id="SVGID_00000119802020824798430800000016215109480076866988_" gradientUnits="userSpaceOnUse" x1="60.1298" y1="303.3141" x2="60.1298" y2="337.3409">
				<stop  offset="0" style="stop-color:#BEE1F4"/>
				<stop  offset="1" style="stop-color:#606BF1"/>
			</linearGradient>
			<path style="fill:url(#SVGID_00000119802020824798430800000016215109480076866988_);" d="M72.9,316.3H47.3
				c-1.5,0-2.7-1.1-2.9-2.6l-1.5-17.2h34.4l-1.5,17.2C75.7,315.2,74.4,316.3,72.9,316.3z"/>
			<polygon class="st42" points="43.3,300.7 77,300.7 77.3,296.5 42.9,296.5 			"/>
			<polygon class="st43" points="41.9,299.2 78.4,299.2 79.3,292.7 41,292.7 			"/>
		</g>
		<g>
			<g>
				<path class="st13" d="M100.8,269.5c3.8-0.3,4-21.3,3.4-30.2c-0.6-8.9-2.7-15.8-7.3-15.5c-4.6,0.4-5.5,7.6-4.6,16.5
					C93.3,249.2,97.1,269.8,100.8,269.5z"/>
				<g>
					<path class="st13" d="M99.4,313.4c3.3,0.1,4.4-29.4,4.6-36c0.2-6.6-0.2-13.6-3.9-13.7c-3.7-0.1-4.4,6.9-4.6,13.5
						C95.3,283.8,96.1,313.4,99.4,313.4z"/>
					<path class="st13" d="M98.7,317.2c2.4,0.6,6.6,0,6.8-0.8c0.1-0.8-1.2-2.4-2.3-3.6l0,0c-0.3-0.3-0.6-0.6-0.8-0.9
						c-0.3-0.3-0.4-0.4-0.4-0.4s-3.1-27.3-4.3-27.1c-1.4,0.1-0.5,28-0.5,28s0,0.2,0,0.4l0,0.4l0.2,2.4
						C97.3,315.8,97,316.8,98.7,317.2z"/>
					<path class="st44" d="M98.7,317.2c2.4,0.6,6.6,0,6.8-0.8c0.1-0.8-1.2-2.4-2.3-3.6l0,0c-0.3-0.3-0.6-0.6-0.8-0.9
						c0,0.3-0.1,0.7-0.1,1.1c0,0.7-0.4,0.8-1.8,0.5c-1-0.2-2.5-0.3-3.4-0.4c0,0-0.2,1.9-0.2,2.5C97,315.9,97,316.8,98.7,317.2z"/>
				</g>
				<g>
					<path class="st13" d="M82.8,212.1c2.5,1,9.9-13,12.6-19.1c2.7-6.2,3.7-11.5,0.7-12.8c-3.1-1.3-6.1,3.2-8.6,9.5
						C85,196,80.3,211.1,82.8,212.1z"/>
					
						<linearGradient id="SVGID_00000062881853701820471900000012977847903654132918_" gradientUnits="userSpaceOnUse" x1="86.187" y1="184.1837" x2="95.2439" y2="199.8706">
						<stop  offset="0" style="stop-color:#FFAB78"/>
						<stop  offset="1" style="stop-color:#FF72A8"/>
					</linearGradient>
					<path style="fill:url(#SVGID_00000062881853701820471900000012977847903654132918_);" d="M92.9,180.7c3.2-0.2,4.8,3,3.8,7.2
						c-1.2,4.9-5.2,14.1-5.2,14.1c-0.3,0-0.5-0.1-0.8-0.1c-6.3-1.1-7.2-3-7.2-3C85.2,191.5,88.7,180.9,92.9,180.7z"/>
					<g>
						<path class="st13" d="M97,238c2.2-1-4.6-17.4-6.7-21.9c-2.1-4.5-4.6-9.2-7.1-8.1c-2.5,1.1-0.6,6.1,1.5,10.6
							C86.8,223.1,94.8,239,97,238z"/>
						<path class="st13" d="M95.1,233.8c-2.7,1-0.4,5.5,0.4,7c1.4,2.5,5.2,3.7,6.1,3.2c1-0.5-2.5-5.8-2.4-6.1
							c0.1-0.3,1.7,2.7,2.6,2.2c0.9-0.6-1.3-4.2-2.6-5.3C97.8,233.5,96.8,233.1,95.1,233.8z"/>
					</g>
				</g>
				<path class="st13" d="M118.7,270.6c3.7-0.8,1.2-21.7-0.5-30.4c-1.7-8.8-4.7-15.4-9.2-14.4c-4.5,1-4.5,8.2-2.4,16.9
					C108.6,251.4,115,271.5,118.7,270.6z"/>
				<g>
					<path class="st13" d="M114.3,312.8l-0.1,3.3c0,0.5,0.4,0.9,0.9,0.9l9,0c0.8,0,1.2-1,0.5-1.5c-1.4-1-3.3-2.2-5-2.5
						c-0.2,0-1.5-28.3-2.9-28.3C115.3,284.7,114.3,312.8,114.3,312.8z"/>
					<path class="st13" d="M116.9,312.8c3.3,0,4.5-29.5,4.6-36.1c0.1-6.6-0.4-13.6-4.1-13.7c-3.7,0-4.3,7-4.4,13.6
						C112.9,283.2,113.5,312.7,116.9,312.8z"/>
					<path class="st44" d="M114.1,313.4l0,3.1c0,0.3,0.3,0.6,0.6,0.6l10.1,0c0.9,0,1.3-1.1,0.5-1.7c-1.5-1.1-3.8-2.2-5.6-3
						c-0.4,0.4-1,1.5-1.8,1.6C117.3,314.2,114.1,313.4,114.1,313.4z"/>
				</g>
				<path class="st13" d="M145.1,192.1c-1.6-1.8-15.2,9.3-18.9,12.6c-3.7,3.3-7.4,7-5.7,9c1.8,2,5.9-1.2,9.7-4.4
					C133.9,205.9,146.7,193.8,145.1,192.1z"/>
				<path class="st13" d="M92.3,232.2l23.4-1l1-40l-1.6-10l-10.8-4l-7,1.3c-4,0.8-6.8,4.3-6.6,8.3l2.5,28.3L92.3,232.2z"/>
				<path class="st13" d="M101.7,172.3v8c0,0,1.7,1,5.7,1c2.1,0,2.6-1,2.6-1v-3L101.7,172.3z"/>
				<path class="st13" d="M100.7,166.3c0,0.3,0,0.6,0,0.8c0,0.1,0,0.2,0,0.3c-0.2,4.8,2.9,9.9,7.5,10.6c0,0,0,0,0.1,0
					c0,0,0.1,0,0.2,0c1,0.1,4.6,0.4,5.9-1c1.5-1.7,2.9-4.8,2.9-6.9s-0.4-2.6-0.4-3.5c0-0.7,0.4-2.8,0.4-3.7c0-4.3-2.8-8.5-7.9-8.5
					C101.7,154.5,100.5,161.2,100.7,166.3z"/>
				<path class="st46" d="M109.9,180.1"/>
				
					<linearGradient id="SVGID_00000090991627737645205560000018293137052051054263_" gradientUnits="userSpaceOnUse" x1="92.1993" y1="180.381" x2="115.9604" y2="221.5364">
					<stop  offset="0" style="stop-color:#FFAB78"/>
					<stop  offset="1" style="stop-color:#FF72A8"/>
				</linearGradient>
				<path style="fill:url(#SVGID_00000090991627737645205560000018293137052051054263_);" d="M115.8,180.9c1.6,1.5,2.9,4.1,3.2,9.5
					c0.1,1.5,1.2,5.6-0.8,10.7c-3.6,8.9-1.4,19.9-1.4,19.9L92.6,222c0,0-0.5-16.2-1.3-21.4c-2.5-15.6,0-20.7,4.4-21.9
					C102.1,176.8,114.2,179.4,115.8,180.9z"/>
				<path class="st13" d="M121.8,214.2c2.6-0.7,0.1-16.2-1.4-22.7c-1.6-6.5-3.9-11.3-7.1-10.5c-3.2,0.8-2.9,6.2-1.1,12.7
					C113.9,200.1,119.2,214.9,121.8,214.2z"/>
				
					<linearGradient id="SVGID_00000139260785226739094260000013578659513966779035_" gradientUnits="userSpaceOnUse" x1="110.1015" y1="182.5983" x2="120.7142" y2="200.98">
					<stop  offset="0" style="stop-color:#FFAB78"/>
					<stop  offset="1" style="stop-color:#FF72A8"/>
				</linearGradient>
				<path style="fill:url(#SVGID_00000139260785226739094260000013578659513966779035_);" d="M114.9,180.8c-3.1-0.5-5.1,2.5-4.6,6.8
					c0.7,5,3.7,14.5,3.7,14.5c0.3,0,0.5,0,0.8-0.1c6.4-0.5,7.5-2.3,7.5-2.3C121.4,192.4,119.1,181.5,114.9,180.8z"/>
				<path class="st13" d="M150,186.6c-0.6-0.7-4,2.6-5.1,3.5c-0.2,0.1-0.3,0.2-0.3,0.2c0,0,0-0.1,0-0.1c0.2-0.5,1.5-2.4,0.9-3
					c-0.7-0.6-3.4,1.9-4.3,3.5c-0.1,0.1-0.1,0.2-0.2,0.3c-0.7,1.6-0.9,2.7,0.1,4.1c1.6,2.3,5.4-0.9,6.6-2.1c1.1-1,1.8-2.4,2.2-3.7
					C150.3,188.1,150.3,187,150,186.6z"/>
				<path class="st44" d="M118.7,160.3c0,0.2-0.1,0.5-0.1,0.8c-0.5,2.1-2.2,3.4-2,5.7c0.2,2.2-0.2,4.1-1.3,6
					c-2.6,4.4,1,3.4,0.3,10.1c-0.4,3.3-3.5,4.6-9.6,4.6s-13-0.2-12.8-4.8c0.1-1.8,0.7-3.1,1.7-4.6c1.2-1.8,2.2-3.3,1.6-5.5
					c-0.3-0.9-0.7-1.8-0.7-2.8c-0.1-2.3,1.5-3.1,2.8-4.6c1.4-1.6,0.6-4.4,1-6.3c1.5-6.4,8.1-7.1,13.5-5.4
					C116.2,154.5,119.2,156.6,118.7,160.3z"/>
				
					<linearGradient id="SVGID_00000035501023938671660040000011907016977330689442_" gradientUnits="userSpaceOnUse" x1="105.361" y1="215.6189" x2="105.361" y2="274.3667">
					<stop  offset="0" style="stop-color:#606BF1"/>
					<stop  offset="1" style="stop-color:#8741FF"/>
				</linearGradient>
				<path style="fill:url(#SVGID_00000035501023938671660040000011907016977330689442_);" d="M121.2,244.7c-2-16.2-5-28.3-5-28.3
					H103l0,0l-10.7-0.8c0.2,5.1-3.6,11.7-4.2,16.8c-0.6,5.5,1.1,13.4,2.9,19.5c1.8,6.2,2.7,18.3,2.9,21.6c0,0.5,0.4,0.8,0.9,0.8
					l26.2-0.7c0.9,0,1.7-0.8,1.7-1.7C122.8,267.9,122.8,256.9,121.2,244.7z"/>
			</g>
			<g>
				<g>
					<g>
						<path class="st1" d="M116,165.1c0.1,0-0.2-2.6-0.2-2.8c-0.2-1.1-0.5-2.2-0.9-3.2c-0.4-1.1-1-2.2-1.7-3.1
							c-0.7-1-1.6-1.9-2.7-2.5c-0.6-0.4-1.2-0.7-1.8-0.9c-0.3-0.1-0.7-0.2-1-0.3c-0.5-0.1-1.1-0.2-1.6,0c-0.3,0.1-0.5,0.1-0.8,0.3
							c-0.1,0.1-0.5,0.3-0.4,0.4c0.1,0.1,0.3,0.1,0.4,0.2c0.4,0.1,0.9,0,1.3,0.1c1,0.2,2,0.6,2.9,1.2c0.9,0.6,1.6,1.4,2.2,2.3
							c0.6,0.9,1,1.8,1.3,2.8c0.3,0.9,0.5,1.8,0.6,2.7c0.1,0.7,0.2,1.4,0.2,2c0,0.3,0,0.5,0,0.8C113.8,165.1,116,165.1,116,165.1z"
							/>
					</g>
				</g>
				<path class="st1" d="M118.3,168.1c0,2.3-1.6,4.1-3.5,4.1s-3.5-1.8-3.5-4.1c0-2.3,1.6-4.1,3.5-4.1S118.3,165.9,118.3,168.1z"/>
				<path class="st11" d="M117.1,168.1c0,1.5-1,2.7-2.3,2.7c-1.2,0-2.3-1.2-2.3-2.7c0-1.5,1-2.7,2.3-2.7
					C116.1,165.5,117.1,166.7,117.1,168.1z"/>
			</g>
		</g>
		<g>
			
				<linearGradient id="SVGID_00000021089836033567686460000001066106387541986466_" gradientUnits="userSpaceOnUse" x1="379.2933" y1="258.0299" x2="379.2933" y2="292.9536">
				<stop  offset="0" style="stop-color:#BEE1F4"/>
				<stop  offset="1" style="stop-color:#606BF1"/>
			</linearGradient>
			<path style="fill:url(#SVGID_00000021089836033567686460000001066106387541986466_);" d="M384.3,259.3c-0.9,1.1-0.8,3.2-0.9,4.6
				c-0.1,0.7-0.1,1.3,0,1.9c-0.2,1-0.2,2-0.5,3c-1-1.4-2.1-2.7-3.2-3.9c0,0,0-0.1,0-0.1c0.2-0.4,0.4-0.7,0.6-1.1
				c0.4-0.5,0.9-0.9,1.3-1.3c0.6-0.7,1-1.3,1-2.2c0.1-2-0.4-4-1.6-5.6c-0.1-0.1-0.4-0.1-0.4,0.1c-0.1,1.8,0.1,3.6,0.1,5.4
				c0,0.4,0,0.9,0,1.3c-0.4,1.1-0.8,2.1-1.4,3.1c-0.9-1-1.8-1.9-2.7-2.8c0-0.1,0-0.1-0.1-0.2c0,0,0,0-0.1,0
				c-0.1-0.1-0.1-0.1-0.2-0.2c0-0.1,0.1-0.2,0.1-0.3c0-0.1,0.1-0.1,0.1-0.2c0.4-0.7,1-1.2,1.5-1.9c0.6-0.7,0.7-1.6,0.7-2.5
				c0-1.7-0.5-4-1.7-5.3c-0.1-0.1-0.3-0.1-0.4,0.1c-0.7,1.5,0,3.3,0.1,4.8c0.1,0.8-0.1,1.6,0,2.4c0,0.5-0.1,1-0.3,1.5
				c-0.2,0.3-0.4,0.6-0.6,0.9c-0.3-0.3-0.7-0.6-1-1c-1-1-2-2-3.1-3c0.2-0.3,0.3-0.7,0.3-1.1c0.4-1.1,0.9-2.2,0.7-3.5
				c-0.2-1.4-1-3.1-1.9-4.1c-0.1-0.1-0.4-0.1-0.4,0.1c-0.2,1.4,0.3,2.9,0.6,4.2c0.1,0.7,0.3,1.5,0.4,2.2c0,0.6,0,1.1,0,1.7
				c-0.5-0.4-0.9-0.9-1.4-1.3c0,0,0,0,0,0c-0.3-0.6-0.9-1.1-1.3-1.7c-0.5-0.7-0.9-1.2-1.5-1.8c-1-0.9-2.4-2-3.8-1.8
				c-0.1,0-0.2,0.1-0.1,0.2c0.6,1.2,1.9,2,2.9,2.7c0.5,0.3,1,0.6,1.6,0.9c0.2,0.1,0.3,0.2,0.4,0.3c0.9,0.8,1.9,1.7,2.8,2.6
				c0,0,0.1,0.1,0.1,0.1c-1.3-0.2-2.6-0.5-3.9-0.8c-1.5-0.3-3.2-0.7-4.8-0.6c-0.2,0-0.5,0.3-0.2,0.5c1.2,1,2.9,1.3,4.4,1.5
				c0.8,0.1,1.6,0.1,2.4,0c0.6-0.1,1.1-0.2,1.7-0.3c0.3,0.1,0.6,0.1,0.9,0.2c0,0,0.1,0,0.1,0c0.1,0,0.1,0,0.2,0.1c0,0,0,0,0,0
				c1.3,1.3,2.6,2.6,3.9,3.9c0,0,0,0.1,0,0.1c-0.1,0-0.1,0-0.2,0c-0.4-0.1-0.8-0.1-1.2-0.2c-0.3-0.1-0.5-0.1-0.8-0.2
				c-1-0.3-1.9-0.6-3-0.7c-2.2-0.3-4.4-0.6-6.6-0.6c-0.3,0-0.3,0.4-0.1,0.5c2.2,0.9,4.4,1.6,6.8,1.8c1.1,0.1,2.1-0.2,3.2-0.3
				c0.6-0.1,1.2,0.1,1.8,0.1c0.1,0,0.2,0,0.4,0.1c0.4,0.4,0.8,0.8,1.3,1.3c0.5,0.6,1.1,1.2,1.6,1.7c-2.2,0-4.3-0.8-6.5-1
				c-2.2-0.2-4.6-0.6-6.8-0.1c-0.2,0.1-0.3,0.5,0,0.5c2.4,0.4,4.7,1.1,7.2,1.5c0.5,0.1,1.1,0.1,1.6,0.1c0.6-0.1,1.2-0.3,1.8-0.4
				c0.4-0.1,0.8-0.1,1.2-0.1c0.7,0.1,1.3,0.2,2,0.2c1,1.3,2,2.6,2.9,4c-1,0.2-2-0.1-3-0.3c-1.3-0.3-2.6-0.4-3.8-0.5
				c-2.7-0.4-5.5-1.1-8.3-0.8c-0.3,0-0.3,0.5,0,0.6c2.9,0.7,5.8,1.5,8.8,2.1c2,0.4,4,0.2,5.9-0.4c0.2,0,0.5,0,0.7-0.1
				c0,0.1,0.1,0.3,0.3,0.2c0.2,0.4,0.5,0.8,0.7,1.2c0.3,0.5,0.5,1,0.8,1.5c-1.5-0.3-3-0.1-4.5-0.1c-0.5,0-1,0-1.6,0
				c-0.5-0.1-1-0.1-1.5-0.2c-1.4-0.2-2.7-0.4-4-0.6c-1.1-0.1-2.5-0.3-3.5,0.3c-0.3,0.1-0.2,0.5,0.1,0.7c2.3,1,5.1,1.3,7.6,1.5
				c1.3,0.1,2.7,0.2,4,0c1.2-0.2,2.4-1,3.6-1.1c0,0.1,0.1,0.1,0.1,0.2c0,0,0,0,0,0c-0.2,0.2,0,0.6,0.3,0.5c0.5,1,0.9,2,1.3,3
				c-0.6,0-1.2,0-1.8,0.1c-1.6-0.1-3.3-0.2-4.9-0.4c-2.5-0.3-5.4-0.5-7.9,0.3c-0.3,0.1-0.4,0.6,0,0.7c2.4,0.7,5.3,0.9,7.8,0.7
				c1.1-0.1,2.3-0.2,3.4-0.4c0.9-0.2,1.9-0.4,2.9-0.5c0.2,0,0.4,0,0.6,0c0.5,1.2,0.9,2.4,1.3,3.6c-0.9-0.1-1.8-0.4-2.8-0.5
				c-1.1-0.2-2.3-0.2-3.4-0.2c-2.3,0-4.3,0.4-6.5,0.9c-0.3,0.1-0.2,0.5,0,0.5c2.2,0.4,4.3,0.7,6.6,0.6c1,0,2.1-0.1,3.1-0.3
				c0.6-0.1,1.1-0.3,1.7-0.4c0.5,0,1,0.1,1.4,0c0.3,1.1,0.6,2.2,0.8,3.3c-0.1,0-0.2,0-0.3,0c-1.4-0.3-2.7-0.8-4.1-0.8
				c-1.7,0-3.7,0.1-5.3,0.6c-0.3,0.1-0.4,0.6,0,0.7c1.7,0.4,3.7,0.5,5.4,0.6c1.5,0,2.9-0.4,4.3-0.7c0.4,2.2,0.8,4.4,1.2,6.6
				c0.2,0.8,1.5,0.8,1.5-0.1c0-2.3-0.3-4.5-0.9-6.8c0.4-0.3,0.8-0.6,1.2-0.9c1.1-0.7,2.2-1.5,3.2-2.3c1.2-1,2.1-2.5,1.4-4
				c-0.1-0.2-0.5-0.1-0.5,0.1c-0.1,0.5-0.8,1-1.1,1.3c-0.5,0.5-1,1.1-1.4,1.7c-0.9,1.3-1.5,2.9-2.9,3.7c-0.3-1.3-0.7-2.7-1.2-4
				c0.2-0.3,0.5-0.5,0.8-0.7c0.9-0.7,1.9-1.3,2.7-2.2c1-1.2,1.7-2.5,1.1-4.1c-0.1-0.4-0.8-0.4-1,0c-0.6,1.2-1,2.4-1.6,3.6
				c-0.5,1-1.2,1.8-1.8,2.7c-0.1,0.1-0.2,0.2-0.4,0.3c-0.4-1.1-0.9-2.2-1.4-3.3c0.1-0.1,0.2-0.2,0.3-0.3c1.2-0.6,2.1-1.4,2.7-2.8
				c0.6-1.7,0.7-3.5,0.4-5.3c0-0.2-0.4-0.3-0.5-0.2c-1,1.1-1.3,2.6-1.6,3.9c-0.2,0.8-0.2,2.1-0.5,3c-0.3,0.4-0.6,0.7-1,1
				c-0.5-1.1-1.1-2.2-1.7-3.2c0,0,0.1-0.1,0.1-0.1c0.3-0.1,0.6-0.3,0.9-0.7c0.5-0.6,1.2-1.1,1.5-1.9c0.6-1.4,0.6-3.3,0.1-4.7
				c-0.1-0.3-0.6-0.3-0.7,0c-0.5,1.1-0.9,2.4-1.1,3.6c-0.1,0.5-0.1,1.1-0.2,1.6c-0.3,0.6-0.6,1.1-1,1.6c-0.3-0.5-0.6-1-0.9-1.5
				c-0.4-0.6-0.7-1.2-1.1-1.7c0.1-0.2,0.1-0.4,0.2-0.6c0.9-1.2,1.8-2.6,2-4.1c0.1-0.9,0.1-1.9,0-2.8c-0.1-0.8-0.2-1.9-0.8-2.5
				C384.6,259.2,384.4,259.2,384.3,259.3z"/>
			
				<linearGradient id="SVGID_00000156580283851935685080000012426038415259267466_" gradientUnits="userSpaceOnUse" x1="408.3767" y1="258.0299" x2="408.3767" y2="292.9536">
				<stop  offset="0" style="stop-color:#BEE1F4"/>
				<stop  offset="1" style="stop-color:#606BF1"/>
			</linearGradient>
			<path style="fill:url(#SVGID_00000156580283851935685080000012426038415259267466_);" d="M401,251.2c1.3,1.1,1.4,3.8,1.8,5.4
				c0.2,0.8,0.3,1.6,0.3,2.4c0.4,1.2,0.5,2.4,1,3.5c1-1.9,2.1-3.7,3.3-5.4c0,0-0.1-0.1,0-0.2c-0.3-0.4-0.6-0.8-0.9-1.2
				c-0.6-0.5-1.3-0.9-1.8-1.3c-0.8-0.7-1.4-1.4-1.5-2.5c-0.4-2.4-0.1-5,1.1-7.2c0.1-0.2,0.4-0.2,0.5,0.1c0.4,2.2,0.4,4.5,0.7,6.7
				c0.1,0.5,0.1,1.1,0.2,1.5c0.6,1.3,1.3,2.4,2.2,3.6c0.9-1.4,1.9-2.7,2.9-4c0-0.1,0-0.2,0.1-0.2c0,0,0.1,0,0.1,0
				c0.1-0.1,0.1-0.2,0.2-0.2c-0.1-0.1-0.1-0.2-0.2-0.3c-0.1-0.1-0.1-0.2-0.2-0.2c-0.6-0.7-1.4-1.3-2.2-2c-0.8-0.7-1.1-1.9-1.2-2.9
				c-0.3-2.1,0-5,1.4-6.8c0.1-0.2,0.3-0.1,0.4,0c1,1.6,0.5,4,0.6,5.9c0,1,0.3,2,0.4,3c0.1,0.7,0.3,1.3,0.5,1.8
				c0.2,0.3,0.5,0.7,0.8,1c0.4-0.5,0.7-0.9,1.1-1.4c1.1-1.4,2.2-2.8,3.3-4.3c-0.2-0.4-0.4-0.8-0.5-1.3c-0.7-1.3-1.4-2.6-1.3-4.1
				c0.1-1.7,0.7-3.9,1.8-5.4c0.1-0.2,0.5-0.2,0.5,0.1c0.5,1.6,0,3.6-0.1,5.3c-0.1,0.9-0.2,1.9-0.1,2.8c0.1,0.7,0.2,1.4,0.3,2
				c0.5-0.6,1-1.3,1.5-1.9c0,0,0,0,0-0.1c0.3-0.8,0.9-1.5,1.4-2.3c0.5-1,0.9-1.7,1.6-2.5c1.1-1.3,2.6-2.9,4.3-3
				c0.1,0,0.2,0.1,0.2,0.3c-0.5,1.6-2,2.8-3.2,3.9c-0.6,0.5-1.2,1-1.8,1.4c-0.2,0.1-0.3,0.3-0.5,0.4c-1,1.2-2,2.5-3,3.7
				c0,0-0.1,0.1-0.1,0.1c1.6-0.5,3.1-1.2,4.6-1.7c1.8-0.6,3.9-1.5,5.7-1.7c0.3,0,0.6,0.3,0.4,0.6c-1.3,1.5-3.3,2.2-5.1,2.8
				c-1,0.3-1.9,0.4-2.9,0.5c-0.7,0-1.4,0-2.1,0c-0.3,0.1-0.7,0.3-1,0.4c0,0-0.1,0.1-0.1,0.1c-0.1,0-0.2,0.1-0.2,0.1c0,0,0,0,0,0
				c-1.4,1.8-2.8,3.7-4.2,5.5c0,0,0,0.1,0,0.1c0.1,0,0.1,0,0.2,0c0.5-0.2,0.9-0.3,1.4-0.5c0.3-0.1,0.6-0.3,0.9-0.4
				c1.2-0.6,2.3-1.1,3.5-1.5c2.6-0.8,5.2-1.7,7.9-2.1c0.3-0.1,0.5,0.4,0.2,0.6c-2.5,1.5-5.2,2.9-8,3.6c-1.4,0.4-2.6,0.2-4,0.3
				c-0.7,0-1.5,0.3-2.2,0.4c-0.1,0-0.3,0.1-0.4,0.1c-0.5,0.6-0.9,1.2-1.4,1.8c-0.6,0.8-1.1,1.6-1.6,2.5c2.7-0.4,5.1-1.9,7.8-2.6
				c2.7-0.7,5.5-1.7,8.3-1.5c0.3,0,0.4,0.5,0.1,0.6c-2.9,0.9-5.6,2.4-8.5,3.3c-0.7,0.2-1.3,0.4-2,0.4c-0.8,0-1.5-0.2-2.2-0.1
				c-0.5,0-1,0.1-1.5,0.1c-0.8,0.3-1.6,0.5-2.4,0.6c-1.1,1.8-2.1,3.6-2.9,5.5c1.3,0,2.4-0.5,3.7-1c1.5-0.6,3.1-1,4.6-1.5
				c3.3-1,6.5-2.5,10-2.7c0.4,0,0.5,0.6,0.1,0.7c-3.4,1.5-6.9,3.1-10.4,4.4c-2.4,0.9-4.8,1.1-7.2,0.7c-0.3,0-0.6,0.1-0.9,0.1
				c0,0.2-0.1,0.4-0.3,0.3c-0.2,0.6-0.5,1.1-0.7,1.7c-0.3,0.7-0.5,1.3-0.7,2c1.7-0.6,3.7-0.7,5.4-1c0.6-0.1,1.3-0.2,1.9-0.3
				c0.6-0.2,1.2-0.4,1.9-0.6c1.6-0.5,3.2-1.1,4.8-1.6c1.4-0.4,2.9-0.8,4.3-0.4c0.4,0.1,0.3,0.6,0,0.8c-2.7,1.7-6.1,2.7-9.1,3.4
				c-1.5,0.4-3.3,0.8-4.8,0.8c-1.5,0-3.1-0.7-4.6-0.6c0,0.1-0.1,0.2-0.1,0.3c0,0,0,0,0,0c0.3,0.2,0.1,0.7-0.3,0.7
				c-0.4,1.3-0.8,2.6-1.1,3.9c0.7-0.1,1.5-0.2,2.2-0.3c2-0.5,3.9-0.9,5.9-1.5c3-0.9,6.5-1.7,9.6-1.2c0.4,0.1,0.5,0.6,0.1,0.8
				c-2.9,1.4-6.4,2.1-9.5,2.4c-1.4,0.1-2.8,0.2-4.2,0.2c-1.2,0-2.4-0.1-3.6,0c-0.2,0-0.5,0.1-0.7,0.1c-0.4,1.6-0.7,3.1-1,4.7
				c1.1-0.4,2.2-0.9,3.3-1.2c1.3-0.4,2.7-0.7,4.1-0.9c2.7-0.5,5.3-0.4,8.1-0.2c0.4,0,0.3,0.6,0,0.7c-2.6,0.9-5.2,1.7-7.9,2.1
				c-1.3,0.2-2.6,0.4-3.9,0.3c-0.7,0-1.4-0.1-2.1-0.2c-0.6,0.2-1.2,0.3-1.7,0.3c-0.2,1.4-0.4,2.8-0.5,4.2c0.1,0,0.2-0.1,0.3-0.1
				c1.6-0.6,3.1-1.5,4.9-1.8c2-0.4,4.5-0.6,6.5-0.3c0.4,0.1,0.6,0.7,0.1,0.9c-2.1,0.8-4.4,1.4-6.5,1.9c-1.8,0.4-3.6,0.1-5.3,0.1
				c-0.2,2.8-0.3,5.6-0.5,8.4c-0.1,1-1.7,1.3-1.8,0.2c-0.3-2.8-0.3-5.6,0.1-8.5c-0.5-0.2-1-0.5-1.5-0.8c-1.5-0.6-2.9-1.4-4.3-2.2
				c-1.7-1-2.9-2.6-2.3-4.6c0.1-0.3,0.5-0.3,0.7,0c0.2,0.5,1.1,1,1.5,1.4c0.7,0.6,1.3,1.1,1.9,1.8c1.3,1.5,2.2,3.2,4,3.9
				c0.2-1.7,0.5-3.4,0.9-5.1c-0.3-0.3-0.7-0.5-1-0.7c-1.3-0.6-2.5-1.1-3.6-2.2c-1.4-1.3-2.5-2.7-2-4.7c0.1-0.5,1-0.7,1.2-0.3
				c0.9,1.3,1.6,2.8,2.4,4.1c0.7,1.1,1.7,1.9,2.5,2.9c0.2,0.1,0.3,0.2,0.5,0.3c0.3-1.4,0.7-2.9,1.2-4.3c-0.1-0.1-0.3-0.2-0.4-0.4
				c-1.6-0.5-2.8-1.3-3.7-2.9c-1-1.9-1.4-4.2-1.2-6.4c0-0.3,0.4-0.5,0.6-0.3c1.3,1.1,2,2.9,2.5,4.5c0.3,1,0.6,2.5,1.1,3.6
				c0.4,0.4,0.8,0.7,1.3,1.1c0.5-1.5,1-2.9,1.6-4.3c0,0-0.1-0.1-0.1-0.1c-0.4-0.1-0.8-0.3-1.2-0.7c-0.7-0.6-1.6-1.2-2.1-2
				c-1-1.5-1.2-3.9-0.8-5.8c0.1-0.5,0.6-0.5,0.8-0.1c0.7,1.3,1.4,2.7,1.9,4.1c0.2,0.6,0.3,1.3,0.5,2c0.4,0.6,0.9,1.2,1.4,1.7
				c0.3-0.7,0.6-1.4,0.9-2c0.4-0.8,0.7-1.6,1.1-2.4c-0.1-0.2-0.2-0.4-0.3-0.6c-1.3-1.3-2.6-2.8-3.1-4.5c-0.3-1.1-0.4-2.3-0.4-3.4
				c0-1-0.1-2.4,0.6-3.2C400.7,251.1,400.9,251,401,251.2z"/>
			
				<linearGradient id="SVGID_00000008841520814571835100000017564534213467011200_" gradientUnits="userSpaceOnUse" x1="394.8787" y1="301.5309" x2="394.8787" y2="324.3442">
				<stop  offset="0" style="stop-color:#BEE1F4"/>
				<stop  offset="1" style="stop-color:#606BF1"/>
			</linearGradient>
			<polygon style="fill:url(#SVGID_00000008841520814571835100000017564534213467011200_);" points="407.8,290.2 407.3,294.5 
				407.2,295.7 404.8,316.1 385,316.1 382.6,295.7 382.4,294.5 381.9,290.2 			"/>
		</g>
		<g>
			<g>
				<path class="st13" d="M338.6,213.8c-2.6-0.7-0.1-15.9,1.4-22.3c1.5-6.4,3.9-11.1,7-10.3c3.1,0.8,2.9,6.1,1.1,12.4
					C346.4,200,341.2,214.5,338.6,213.8z"/>
				<path class="st13" d="M315.7,192.1c1.5-1.8,14.9,9.1,18.6,12.3c3.7,3.2,7.3,6.9,5.6,8.8c-1.7,2-5.8-1.1-9.5-4.4
					C326.7,205.7,314.1,193.8,315.7,192.1z"/>
				<path class="st13" d="M319,194.2c0.2-2.8-4.7-2.5-6.4-2.4c-2.7,0.2-5.7,2.5-5.6,3.6c0.1,1.1,6.2,0.2,6.5,0.4
					c0.2,0.2-2.7,0.9-2.6,1.9c0.2,1,4.2,0.5,5.7-0.3C318.2,196.7,318.9,195.9,319,194.2z"/>
				<path class="st13" d="M353.1,312.2l0.2,3.3c0,0.5-0.4,0.8-0.8,0.8h-8.8c-0.8,0-1.1-1-0.5-1.5c1.3-1,3.2-2.2,4.9-2.5
					c0.2,0,1.4-27.7,2.7-27.8C352,284.6,353.1,312.2,353.1,312.2z"/>
				<path class="st13" d="M372.4,312c0,0,0,0.2,0,0.4v2.7c0,0.3-0.7,1.5-1.3,1.8c-2.2,0.9-6.5,0.4-6.7-0.4c-0.2-0.8,1-2.5,2-3.7
					c0,0,0,0,0,0c0.6-0.8,1.1-1.3,1.1-1.3s1.2-26.9,2.5-26.9C371.4,284.6,372.4,312,372.4,312z"/>
				<path class="st13" d="M350.9,269.7c-3.7,0-5.7-20.5-5.9-29.3c-0.2-8.8,1.3-15.7,5.9-15.7c4.5,0,6,6.9,5.9,15.7
					C356.6,249.2,354.6,269.7,350.9,269.7z"/>
				<path class="st13" d="M350.9,313.4c-3.3,0-4.2-29-4.2-35.5c0-6.5,0.5-13.4,4.2-13.4c3.7,0,4.2,6.9,4.2,13.4
					C355.1,284.4,354.2,313.4,350.9,313.4z"/>
				<path class="st13" d="M366.8,269.7c-3.7,0.3-7.5-19.9-8.5-28.7c-1-8.7-0.1-15.8,4.4-16.2c4.5-0.4,6.6,6.4,7.3,15.1
					C370.6,248.8,370.5,269.4,366.8,269.7z"/>
				<path class="st13" d="M370.2,313.2c-3.3,0.3-6.3-28.5-6.9-35c-0.6-6.5-0.7-13.4,2.9-13.7c3.7-0.3,4.8,6.5,5.4,13
					C372.3,283.9,373.5,312.9,370.2,313.2z"/>
				<path class="st13" d="M369.7,231.5h-24.4l-1-39.3l1.8-11.1l11.8-3.6l6.8,1.3c3.9,0.7,6.6,4.2,6.5,8.1l-2.5,27.8L369.7,231.5z"/>
				<path class="st13" d="M376.6,212.2c-2.5,0.8-8.6-13.5-10.7-19.8c-2.1-6.3-2.7-11.6,0.4-12.6c3.1-1,5.7,3.7,7.6,10
					C375.8,196.2,379.1,211.4,376.6,212.2z"/>
				<path class="st13" d="M360.5,172.2v7.9c0,0-1.7,1-5.6,1c-2.1,0-2.6-1-2.6-1v-2.9L360.5,172.2z"/>
				<path class="st13" d="M361.4,166.3c0,0.3,0,0.6,0,0.8c0,0.1,0,0.2,0,0.3c0.2,4.7-2.8,9.7-7.3,10.4c0,0,0,0-0.1,0
					c0,0-0.1,0-0.2,0c-1,0.1-4.5,0.4-5.8-1c-1.5-1.7-2.8-4.7-2.8-6.8c0-2.1,0.4-2.6,0.4-3.4c0-0.7-0.4-2.7-0.4-3.6
					c0-4.2,2.8-8.3,7.8-8.3C360.4,154.7,361.6,161.3,361.4,166.3z"/>
				<g>
					<path class="st13" d="M359.2,166.4c0.6-0.1,2-0.6,1.7,1.5c-0.4,3.6-2.6,3.4-2.6,3.4c0.1-0.5,0.3-1.2,0.5-2.1
						c-0.6-0.3,0.2-0.8,0.2-1.2c0-0.1,0-0.2,0-0.3C359.1,167.3,359.2,166.9,359.2,166.4z"/>
					<path class="st16" d="M359.1,167.7c0,0,0.7-0.6,1.2-0.4c0.5,0.3,0.1,1.4-0.2,2.1c-0.4,0.7-0.8,0.7-0.9,0.6
						c-0.1-0.2,0.8-0.6,0.5-0.9c-0.3-0.3-0.6-0.4-0.6-0.6C359,168.3,359.1,167.7,359.1,167.7z"/>
				</g>
				<path class="st16" d="M351.2,177.9c2.3,0.1,5.3-2.1,6.1-3.1c0.8-1,1.3-3.6,1.3-3.6s0.7,0.1,1.2-0.6c0,0-0.1,1.1-0.5,1.5
					c-0.4,0.4-0.7,0.5-0.8,0.7c-0.1,0.3-0.6,3.8-2.5,4.8C354.1,178.7,351.2,177.9,351.2,177.9z"/>
				<path class="st44" d="M353.3,312.8v3.1c0,0.3-0.3,0.6-0.6,0.6h-9.9c-0.9,0-1.2-1.1-0.5-1.6c1.4-1.1,3.8-2.1,5.5-3
					c0.4,0.4,1,1.5,1.7,1.6C350.1,313.6,353.3,312.8,353.3,312.8z"/>
				<path class="st44" d="M372.4,312.4v2.7c0,0.3-0.7,1.5-1.3,1.8c-2.2,0.9-6.5,0.4-6.7-0.4c-0.2-0.8,1-2.5,2-3.7c0,0,0,0,0,0
					c0.5-0.4,2.8-0.2,3.2,0c0.4,0.2,1.3,0.8,1.5,0.7C371.4,313.5,372.4,312.4,372.4,312.4z"/>
				<polygon class="st44" points="357.4,236.1 357.4,238 366.4,310.1 373.4,310.1 370.3,236.1 				"/>
				<polygon class="st44" points="344.7,236.1 347.6,310.1 354.5,310.1 357.4,238 357.4,236.1 				"/>
				
					<linearGradient id="SVGID_00000024681910154517335720000005746074356612766909_" gradientUnits="userSpaceOnUse" x1="341.898" y1="180.9516" x2="341.898" y2="201.55">
					<stop  offset="0" style="stop-color:#E27598"/>
					<stop  offset="1" style="stop-color:#A854DA"/>
				</linearGradient>
				<path style="fill:url(#SVGID_00000024681910154517335720000005746074356612766909_);" d="M340.4,189c-1.4,4.7-2.3,10.1-2.3,10.1
					s1,1.7,5.3,2.5h0c-0.1-5.3-0.1-9.6,0-11.1c0.3-5.3,2.3-9.5,2.3-9.5C343.6,181.8,341.8,184.2,340.4,189z"/>
				
					<linearGradient id="SVGID_00000135676902733944955220000015873387621530411653_" gradientUnits="userSpaceOnUse" x1="369.7836" y1="179.1476" x2="369.7836" y2="201.55">
					<stop  offset="0" style="stop-color:#E27598"/>
					<stop  offset="1" style="stop-color:#A854DA"/>
				</linearGradient>
				<path style="fill:url(#SVGID_00000135676902733944955220000015873387621530411653_);" d="M367,179.1c-3.1,0.3-4.8,3.2-3.7,7.7
					c1.2,5.2,5.4,14.7,5.4,14.7c0.3,0,0.5-0.1,0.8-0.2c6.3-1.3,7.2-3.3,7.2-3.3c-1.8-7.7-4.8-16-7.2-17.8
					C368.7,179.8,367.9,179.4,367,179.1z"/>
				<path class="st46" d="M352.3,180.3"/>
				
					<linearGradient id="SVGID_00000010991639661077495200000011336139488067131555_" gradientUnits="userSpaceOnUse" x1="357.0992" y1="178.2226" x2="357.0992" y2="236.1322">
					<stop  offset="0" style="stop-color:#E27598"/>
					<stop  offset="1" style="stop-color:#A854DA"/>
				</linearGradient>
				<path style="fill:url(#SVGID_00000010991639661077495200000011336139488067131555_);" d="M352.3,179.1l-6.6,1.8
					c0,0-2,4.2-2.3,9.5c-0.1,1.5-0.1,5.7,0,11.1c0.1,13.7,0.6,34.6,0.6,34.6h0.6h12.7h12.9h0.5c0,0-1.2-15.6-1.4-20.3
					c-0.2-4.7,0.8-12.6,0.8-12.6l-0.8-1.9c-0.2,0.1-0.5,0.1-0.8,0.2c0,0-4.1-9.6-5.4-14.7c-1.1-4.5,0.6-7.3,3.7-7.7
					c-2.5-0.8-5.3-0.9-5.3-0.9s-1.1,3.6-6.2,3.7C350.4,181.9,352.3,179.1,352.3,179.1z"/>
				<path class="st44" d="M360.5,172.4c0.4,0.3,0.9,0.3,1.1,0.1c0.4-0.3,0.5-1.1-0.1-1.7c0.1,0,1-0.2,1.4-1c0.4-0.8,0.2-1.8-0.6-2.5
					c0.3-0.1,0.8-0.4,1.1-1c0.5-0.9,0.4-2.2-0.3-3.2c0.1-0.1,0.4-0.4,0.5-0.9c0-0.5-0.3-1.1-0.9-1.3c0.1-0.1,0.7-0.7,0.6-1.5
					c0-0.9-0.7-1.7-1.7-1.9c0.4-0.7,0.4-1.6-0.1-2.2c-0.6-0.9-2-1.1-3.1-0.4c0-0.7-0.4-1.3-1-1.6c-0.5-0.2-1-0.2-1.5,0
					c-0.4,0.2-0.9,0.2-1.4,0.2c-1.1,0.2-2.2,0.6-3.3,0.6c-0.5,0-1,0-1.5-0.2c-0.4-0.2-0.8-0.5-1.2-0.5c-0.4,0-0.9,0.2-1.1,0.6
					c-0.7-0.4-1.5-0.5-2.2,0.1c-0.5,0.4-0.8,1.2-0.6,1.9c-0.6,0.1-1.1,0.5-1.3,1.1c-0.2,0.6,0.1,1.2,0.6,1.6
					c-0.1,0.6,0.2,1.3,0.7,1.6c0.6,0.4,1.5,0.2,2-0.4c0,0,0.3,0.5,0.7,0.6c0.4,0.1,0.9-0.2,1.1-0.6c0.1,0.2,0.6,0.8,1.3,1
					c1,0.2,2.1-0.3,2.7-1.4c0.1,0.2,0.3,0.7,0.9,1c0.8,0.4,1.6,0.1,1.7,0c-0.1,0.2-0.2,0.7-0.1,1.2c0.3,1,1.2,1.4,1.3,1.4
					c-0.3,0.6-0.3,1.3,0.1,1.8c0.5,0.5,1.1,0.5,1.2,0.5c0,0,0.2,3.2,0.6,3.3c0.4,0,1.2-2.3,1.2-2.3s1.2-0.4,1.5,0.4
					c0.3,0.7,0,2.2-0.4,2.9c-0.4,0.7-0.7,1-0.7,1L360.5,172.4z"/>
				<path class="st13" d="M373,239.2c-2.4-0.2-1.6-17.6-1.2-22.5c0.4-4.9,1.2-10,3.8-9.8c2.6,0.2,2.6,5.4,2.2,10.3
					C377.5,222.1,375.4,239.4,373,239.2z"/>
				<path class="st13" d="M373.3,234.7c2.8,0,2.2,4.9,1.9,6.6c-0.4,2.7-3.5,5.1-4.6,5c-1.1-0.2,0.4-6.2,0.2-6.5
					c-0.2-0.2-0.7,3.1-1.6,2.8c-1-0.2-0.2-4.3,0.7-5.8C370.8,235.4,371.6,234.7,373.3,234.7z"/>
			</g>
			<g>
				<g>
					<path class="st1" d="M359.9,165c0.1,0-0.2-2.3-0.2-2.5c-0.2-1-0.4-2-0.8-2.9c-0.4-1-0.9-2-1.5-2.9c-0.7-0.9-1.5-1.7-2.4-2.3
						c-0.5-0.3-1-0.6-1.6-0.8c-0.3-0.1-0.6-0.2-0.9-0.3c-0.5-0.1-1-0.1-1.5,0c-0.2,0.1-0.5,0.1-0.7,0.2c-0.1,0.1-0.5,0.2-0.4,0.4
						c0,0.1,0.3,0.1,0.4,0.2c0.4,0.1,0.8,0,1.1,0.1c0.9,0.2,1.8,0.6,2.6,1.1c0.8,0.6,1.5,1.3,2,2.1c0.5,0.8,0.9,1.7,1.2,2.6
						c0.3,0.8,0.4,1.6,0.6,2.5c0.1,0.6,0.2,1.2,0.2,1.9c0,0.2,0,0.5,0,0.7C357.9,165,359.9,165,359.9,165z"/>
				</g>
			</g>
			<path class="st1" d="M361.9,167.7c0,2-1.4,3.7-3.1,3.7c-1.7,0-3.1-1.7-3.1-3.7c0-2,1.4-3.7,3.1-3.7
				C360.5,164,361.9,165.7,361.9,167.7z"/>
			<path class="st11" d="M360.8,167.7c0,1.3-0.9,2.4-2,2.4c-1.1,0-2-1.1-2-2.4c0-1.3,0.9-2.4,2-2.4
				C359.9,165.3,360.8,166.4,360.8,167.7z"/>
		</g>
		
			<linearGradient id="SVGID_00000093881992778991784580000017022344514375847560_" gradientUnits="userSpaceOnUse" x1="395.3819" y1="51.5892" x2="395.3819" y2="84.5251">
			<stop  offset="0" style="stop-color:#BEE1F4"/>
			<stop  offset="1" style="stop-color:#E6E7E8"/>
		</linearGradient>
		<path style="fill:url(#SVGID_00000093881992778991784580000017022344514375847560_);" d="M395.4,51.6c-9.1,0-16.5,7.4-16.5,16.5
			c0,9.1,7.4,16.5,16.5,16.5c9.1,0,16.5-7.4,16.5-16.5C411.8,59,404.5,51.6,395.4,51.6z M390.9,56.2c-0.7,1.2-1.5,3.1-2,5.8h-4.7
			C385.7,59.3,388.1,57.3,390.9,56.2z M383.8,62.9h5c-0.2,1.4-0.4,2.9-0.4,4.7h-5.7C382.8,65.9,383.1,64.3,383.8,62.9z M382.7,68.5
			h5.7c0,1.8,0.2,3.3,0.4,4.7h-5C383.2,71.8,382.8,70.2,382.7,68.5z M384.3,74.2h4.7c0.5,2.7,1.3,4.6,2,5.8
			C388.1,78.9,385.7,76.8,384.3,74.2z M395,80.7c-1,0-1.9-0.2-2.9-0.4c-0.7-1.2-1.6-3.2-2.2-6.1h5.1V80.7z M395,73.2h-5.2
			c-0.2-1.4-0.4-2.9-0.4-4.7h5.6V73.2z M395,67.6h-5.6c0-1.8,0.2-3.3,0.4-4.7h5.2V67.6z M395,61.9h-5.1c0.6-3,1.5-4.9,2.2-6.1
			c0.9-0.3,1.9-0.4,2.9-0.4V61.9z M408.1,67.6h-5.6c0-1.8-0.2-3.3-0.4-4.7h4.9C407.6,64.3,408,65.9,408.1,67.6z M406.5,61.9h-4.5
			c-0.5-2.6-1.3-4.5-2-5.7C402.8,57.3,405.1,59.4,406.5,61.9z M395.9,55.4c1,0,2,0.2,2.9,0.5c0.7,1.2,1.6,3.2,2.2,6.1h-5.1V55.4z
			 M395.9,62.9h5.2c0.2,1.4,0.4,2.9,0.4,4.7h-5.6V62.9z M395.9,68.5h5.6c0,1.8-0.2,3.3-0.4,4.7h-5.2V68.5z M395.9,80.7v-6.6h5.1
			c-0.6,3-1.5,5-2.2,6.1C397.9,80.5,396.9,80.7,395.9,80.7z M400,79.9c0.7-1.2,1.5-3.1,2-5.7h4.5C405.1,76.8,402.8,78.8,400,79.9z
			 M406.9,73.2h-4.8c0.2-1.4,0.4-2.9,0.4-4.7h5.6C408,70.2,407.6,71.8,406.9,73.2z"/>
		
			<linearGradient id="SVGID_00000169548430435938869770000002271648097690386308_" gradientUnits="userSpaceOnUse" x1="168.6653" y1="42.984" x2="168.6653" y2="75.9199">
			<stop  offset="0" style="stop-color:#BEE1F4"/>
			<stop  offset="1" style="stop-color:#E6E7E8"/>
		</linearGradient>
		<path style="fill:url(#SVGID_00000169548430435938869770000002271648097690386308_);" d="M168.7,43c-9.1,0-16.5,7.4-16.5,16.5
			c0,9.1,7.4,16.5,16.5,16.5c9.1,0,16.5-7.4,16.5-16.5C185.1,50.4,177.7,43,168.7,43z M168.7,47.5l10.2,7.2l-7.2,7.3l-6,0l-7.2-7.3
			L168.7,47.5z M158.4,55.4l6.8,7.2l-6.8,6.7V55.4z M159.2,69.3l6.8-6.6l5.3,0l6.8,6.5H159.2z M178.9,69.3l-6.8-6.7l6.8-7.2V69.3z"
			/>
		
			<linearGradient id="SVGID_00000021096635038975766370000015114816988764332677_" gradientUnits="userSpaceOnUse" x1="217.7012" y1="10.9929" x2="217.7012" y2="43.9288">
			<stop  offset="0" style="stop-color:#BEE1F4"/>
			<stop  offset="1" style="stop-color:#E6E7E8"/>
		</linearGradient>
		<path style="fill:url(#SVGID_00000021096635038975766370000015114816988764332677_);" d="M217.7,11c-9.1,0-16.5,7.4-16.5,16.5
			c0,9.1,7.4,16.5,16.5,16.5c9.1,0,16.5-7.4,16.5-16.5C234.2,18.4,226.8,11,217.7,11z M227.3,34.9l-1.4,1.3l-0.4,0.4
			c0,0-1.9,2.5-8.3-1.3c0,0-7.6-5-9.3-11.6c0,0-0.5-2.6,0.6-4.1l0.4-0.4l1.3-1.4c0.6-0.4,1.2,0.2,1.2,0.2l2.4,2.5
			c2.1,1.8,1.3,2.3,1.3,2.3l-1.4,1.4l-0.4,0.4c0,0-0.8,0.7,0.6,2.4c0,0,3,3.5,4.4,4.2c0,0,1.8,1.6,2.4,0.8l0.4-0.4l1.3-1.4
			c0.6-0.4,1.2,0.2,1.2,0.2l2.3,2.4C228.1,34.4,227.3,34.9,227.3,34.9z"/>
		<g>
			<g>
				<g>
					<path class="st1" d="M333.1,56.5c0.1,0-0.2-2.3-0.2-2.5c-0.2-1-0.4-2-0.8-2.9c-0.4-1-0.9-2-1.5-2.9c-0.7-0.9-1.5-1.7-2.4-2.3
						c-0.5-0.3-1-0.6-1.6-0.8c-0.3-0.1-0.6-0.2-0.9-0.3c-0.5-0.1-1-0.1-1.5,0c-0.2,0.1-0.5,0.1-0.7,0.2c-0.1,0.1-0.5,0.2-0.4,0.4
						c0,0.1,0.3,0.1,0.4,0.2c0.4,0.1,0.8,0,1.1,0.1c0.9,0.2,1.8,0.6,2.6,1.1c0.8,0.6,1.5,1.3,2,2.1c0.5,0.8,0.9,1.7,1.2,2.6
						c0.3,0.8,0.4,1.6,0.6,2.5c0.1,0.6,0.2,1.2,0.2,1.9c0,0.2,0,0.5,0,0.7C331.1,56.5,333.1,56.5,333.1,56.5z"/>
				</g>
			</g>
			<path class="st1" d="M335.1,59.2c0,2-1.4,3.7-3.1,3.7s-3.1-1.7-3.1-3.7s1.4-3.7,3.1-3.7S335.1,57.2,335.1,59.2z"/>
			<path class="st11" d="M334,59.2c0,1.3-0.9,2.4-2,2.4c-1.1,0-2-1.1-2-2.4s0.9-2.4,2-2.4C333.1,56.8,334,57.9,334,59.2z"/>
		</g>
		<g>
			<path class="st43" d="M386.2,161.2h-0.4c-0.3,0-0.5-0.2-0.5-0.5c0-0.3,0.2-0.5,0.5-0.5h0.4c0.5,0,1,0,1.5-0.1
				c0.3,0,0.5,0.1,0.6,0.4c0,0.3-0.1,0.5-0.4,0.6C387.3,161.2,386.7,161.2,386.2,161.2z M383.8,161.2h-2c-0.3,0-0.5-0.2-0.5-0.5
				c0-0.3,0.2-0.5,0.5-0.5h2c0.3,0,0.5,0.2,0.5,0.5C384.3,161,384.1,161.2,383.8,161.2z M379.8,161.2h-2c-0.3,0-0.5-0.2-0.5-0.5
				c0-0.3,0.2-0.5,0.5-0.5h2c0.3,0,0.5,0.2,0.5,0.5C380.3,161,380.1,161.2,379.8,161.2z M375.8,161.2h-2c-0.3,0-0.5-0.2-0.5-0.5
				c0-0.3,0.2-0.5,0.5-0.5h2c0.3,0,0.5,0.2,0.5,0.5C376.3,161,376.1,161.2,375.8,161.2z M371.8,161.2h-2c-0.3,0-0.5-0.2-0.5-0.5
				c0-0.3,0.2-0.5,0.5-0.5h2c0.3,0,0.5,0.2,0.5,0.5C372.3,161,372.1,161.2,371.8,161.2z M367.8,161.2h-2c-0.3,0-0.5-0.2-0.5-0.5
				c0-0.3,0.2-0.5,0.5-0.5h2c0.3,0,0.5,0.2,0.5,0.5C368.3,161,368.1,161.2,367.8,161.2z M389.7,160.6c-0.2,0-0.4-0.1-0.5-0.3
				c-0.1-0.3,0-0.5,0.3-0.6c0.6-0.2,1.2-0.5,1.7-0.9c0.2-0.1,0.5-0.1,0.7,0.2c0.1,0.2,0.1,0.5-0.2,0.7c-0.6,0.4-1.2,0.7-1.9,0.9
				C389.8,160.6,389.8,160.6,389.7,160.6z M393,158.4c-0.1,0-0.3-0.1-0.4-0.2c-0.2-0.2-0.2-0.5,0-0.7c0.5-0.4,0.9-0.9,1.2-1.5
				c0.2-0.2,0.5-0.3,0.7-0.1c0.2,0.2,0.3,0.5,0.1,0.7c-0.4,0.6-0.8,1.1-1.3,1.6C393.3,158.4,393.2,158.4,393,158.4z M395.3,155.1
				c-0.1,0-0.1,0-0.2,0c-0.3-0.1-0.4-0.4-0.3-0.7c0.2-0.6,0.4-1.2,0.5-1.8c0.1-0.3,0.3-0.5,0.6-0.4c0.3,0.1,0.4,0.3,0.4,0.6
				c-0.1,0.7-0.3,1.4-0.6,2C395.7,155,395.5,155.1,395.3,155.1z M396,151.2c-0.3,0-0.5-0.2-0.5-0.5v-2c0-0.3,0.2-0.5,0.5-0.5
				c0.3,0,0.5,0.2,0.5,0.5v2C396.5,151,396.3,151.2,396,151.2z M396,147.2c-0.3,0-0.5-0.2-0.5-0.5v-2c0-0.3,0.2-0.5,0.5-0.5
				c0.3,0,0.5,0.2,0.5,0.5v2C396.5,147,396.3,147.2,396,147.2z M396,143.2c-0.3,0-0.5-0.2-0.5-0.5v-2c0-0.3,0.2-0.5,0.5-0.5
				c0.3,0,0.5,0.2,0.5,0.5v2C396.5,143,396.3,143.2,396,143.2z M396,139.2c-0.3,0-0.5-0.2-0.5-0.5v-2c0-0.3,0.2-0.5,0.5-0.5
				c0.3,0,0.5,0.2,0.5,0.5v2C396.5,139,396.3,139.2,396,139.2z M396,135.2c-0.3,0-0.5-0.2-0.5-0.5v-2c0-0.3,0.2-0.5,0.5-0.5
				c0.3,0,0.5,0.2,0.5,0.5v2C396.5,135,396.3,135.2,396,135.2z M396,131.2c-0.3,0-0.5-0.2-0.5-0.5v-2c0-0.3,0.2-0.5,0.5-0.5
				c0.3,0,0.5,0.2,0.5,0.5v2C396.5,131,396.3,131.2,396,131.2z M396,127.2c-0.3,0-0.5-0.2-0.5-0.5v-2c0-0.3,0.2-0.5,0.5-0.5
				c0.3,0,0.5,0.2,0.5,0.5v2C396.5,127,396.3,127.2,396,127.2z M396,123.2c-0.3,0-0.5-0.2-0.5-0.5v-2c0-0.3,0.2-0.5,0.5-0.5
				c0.3,0,0.5,0.2,0.5,0.5v2C396.5,123,396.3,123.2,396,123.2z M396,119.2c-0.3,0-0.5-0.2-0.5-0.5v-2c0-0.3,0.2-0.5,0.5-0.5
				c0.3,0,0.5,0.2,0.5,0.5v2C396.5,119,396.3,119.2,396,119.2z M396,115.2c-0.3,0-0.5-0.2-0.5-0.5v-2c0-0.3,0.2-0.5,0.5-0.5
				c0.3,0,0.5,0.2,0.5,0.5v2C396.5,115,396.3,115.2,396,115.2z M396,111.2c-0.3,0-0.5-0.2-0.5-0.5v-2c0-0.3,0.2-0.5,0.5-0.5
				c0.3,0,0.5,0.2,0.5,0.5v2C396.5,111,396.3,111.2,396,111.2z M396,107.2c-0.3,0-0.5-0.2-0.5-0.5v-2c0-0.3,0.2-0.5,0.5-0.5
				c0.3,0,0.5,0.2,0.5,0.5v2C396.5,107,396.3,107.2,396,107.2z M396,103.2c-0.3,0-0.5-0.2-0.5-0.5v-2c0-0.3,0.2-0.5,0.5-0.5
				c0.3,0,0.5,0.2,0.5,0.5v2C396.5,103,396.3,103.2,396,103.2z M396,99.2c-0.3,0-0.5-0.2-0.5-0.5v-2c0-0.3,0.2-0.5,0.5-0.5
				c0.3,0,0.5,0.2,0.5,0.5v2C396.5,99,396.3,99.2,396,99.2z M396,95.2c-0.3,0-0.5-0.2-0.5-0.5v-2c0-0.3,0.2-0.5,0.5-0.5
				c0.3,0,0.5,0.2,0.5,0.5v2C396.5,95,396.3,95.2,396,95.2z M396,91.2c-0.3,0-0.5-0.2-0.5-0.5v-0.8c0-0.3,0.2-0.5,0.5-0.5
				c0.3,0,0.5,0.2,0.5,0.5v0.8C396.5,91,396.3,91.2,396,91.2z"/>
		</g>
		<g>
			<path class="st43" d="M312.1,63.1h-2c-0.3,0-0.5-0.2-0.5-0.5c0-0.3,0.2-0.5,0.5-0.5h2c0.3,0,0.5,0.2,0.5,0.5
				C312.6,62.9,312.4,63.1,312.1,63.1z M308.1,63.1h-2c-0.3,0-0.5-0.2-0.5-0.5c0-0.3,0.2-0.5,0.5-0.5h2c0.3,0,0.5,0.2,0.5,0.5
				C308.6,62.9,308.4,63.1,308.1,63.1z M304.1,63.1h-2c-0.3,0-0.5-0.2-0.5-0.5c0-0.3,0.2-0.5,0.5-0.5h2c0.3,0,0.5,0.2,0.5,0.5
				C304.6,62.9,304.4,63.1,304.1,63.1z M300.1,63.1h-2c-0.3,0-0.5-0.2-0.5-0.5c0-0.3,0.2-0.5,0.5-0.5h2c0.3,0,0.5,0.2,0.5,0.5
				C300.6,62.9,300.4,63.1,300.1,63.1z M296.1,63.1h-2c-0.3,0-0.5-0.2-0.5-0.5c0-0.3,0.2-0.5,0.5-0.5h2c0.3,0,0.5,0.2,0.5,0.5
				C296.6,62.9,296.4,63.1,296.1,63.1z M292.1,63.1h-2c-0.3,0-0.5-0.2-0.5-0.5c0-0.3,0.2-0.5,0.5-0.5h2c0.3,0,0.5,0.2,0.5,0.5
				C292.6,62.9,292.4,63.1,292.1,63.1z M288.1,63.1h-2c-0.3,0-0.5-0.2-0.5-0.5c0-0.3,0.2-0.5,0.5-0.5h2c0.3,0,0.5,0.2,0.5,0.5
				C288.6,62.9,288.4,63.1,288.1,63.1z M284.1,63.1h-2c-0.3,0-0.5-0.2-0.5-0.5c0-0.3,0.2-0.5,0.5-0.5h2c0.3,0,0.5,0.2,0.5,0.5
				C284.6,62.9,284.4,63.1,284.1,63.1z M280.1,63.1h-2c-0.3,0-0.5-0.2-0.5-0.5c0-0.3,0.2-0.5,0.5-0.5h2c0.3,0,0.5,0.2,0.5,0.5
				C280.6,62.9,280.4,63.1,280.1,63.1z M276.1,63.1h-2c-0.3,0-0.5-0.2-0.5-0.5c0-0.3,0.2-0.5,0.5-0.5h2c0.3,0,0.5,0.2,0.5,0.5
				C276.6,62.9,276.4,63.1,276.1,63.1z M272.1,63.1h-2c-0.3,0-0.5-0.2-0.5-0.5c0-0.3,0.2-0.5,0.5-0.5h2c0.3,0,0.5,0.2,0.5,0.5
				C272.6,62.9,272.4,63.1,272.1,63.1z M268.1,63.1h-2c-0.3,0-0.5-0.2-0.5-0.5c0-0.3,0.2-0.5,0.5-0.5h2c0.3,0,0.5,0.2,0.5,0.5
				C268.6,62.9,268.4,63.1,268.1,63.1z M264.1,63.1h-2c-0.3,0-0.5-0.2-0.5-0.5c0-0.3,0.2-0.5,0.5-0.5h2c0.3,0,0.5,0.2,0.5,0.5
				C264.6,62.9,264.4,63.1,264.1,63.1z M260.1,63.1h-2c-0.3,0-0.5-0.2-0.5-0.5c0-0.3,0.2-0.5,0.5-0.5h2c0.3,0,0.5,0.2,0.5,0.5
				C260.6,62.9,260.4,63.1,260.1,63.1z M256.1,63.1h-2c-0.3,0-0.5-0.2-0.5-0.5c0-0.3,0.2-0.5,0.5-0.5h2c0.3,0,0.5,0.2,0.5,0.5
				C256.6,62.9,256.4,63.1,256.1,63.1z M252.1,63.1h-2c-0.3,0-0.5-0.2-0.5-0.5c0-0.3,0.2-0.5,0.5-0.5h2c0.3,0,0.5,0.2,0.5,0.5
				C252.6,62.9,252.4,63.1,252.1,63.1z M248.1,63.1h-2c-0.3,0-0.5-0.2-0.5-0.5c0-0.3,0.2-0.5,0.5-0.5h2c0.3,0,0.5,0.2,0.5,0.5
				C248.6,62.9,248.4,63.1,248.1,63.1z M244.1,63.1h-2c-0.3,0-0.5-0.2-0.5-0.5c0-0.3,0.2-0.5,0.5-0.5h2c0.3,0,0.5,0.2,0.5,0.5
				C244.6,62.9,244.4,63.1,244.1,63.1z M240.1,63.1h-2c-0.3,0-0.5-0.2-0.5-0.5c0-0.3,0.2-0.5,0.5-0.5h2c0.3,0,0.5,0.2,0.5,0.5
				C240.6,62.9,240.4,63.1,240.1,63.1z M236.1,63.1h-2c-0.3,0-0.5-0.2-0.5-0.5c0-0.3,0.2-0.5,0.5-0.5h2c0.3,0,0.5,0.2,0.5,0.5
				C236.6,62.9,236.4,63.1,236.1,63.1z M232.1,63.1h-2c-0.3,0-0.5-0.2-0.5-0.5c0-0.3,0.2-0.5,0.5-0.5h2c0.3,0,0.5,0.2,0.5,0.5
				C232.6,62.9,232.4,63.1,232.1,63.1z M228.1,63.1h-1.2c-0.3,0-0.6,0-0.9,0c-0.3,0-0.5-0.3-0.5-0.5c0-0.3,0.3-0.5,0.5-0.5
				c0.3,0,0.5,0,0.8,0h1.2c0.3,0,0.5,0.2,0.5,0.5C228.6,62.9,228.4,63.1,228.1,63.1z M224.2,62.7c0,0-0.1,0-0.2,0
				c-0.7-0.2-1.3-0.5-1.9-0.9c-0.2-0.1-0.3-0.4-0.2-0.7c0.1-0.2,0.4-0.3,0.7-0.2c0.5,0.3,1.1,0.6,1.7,0.8c0.3,0.1,0.4,0.4,0.3,0.6
				C224.6,62.5,224.4,62.7,224.2,62.7z M220.7,60.7c-0.1,0-0.2,0-0.3-0.1c-0.5-0.5-1-1-1.4-1.6c-0.2-0.2-0.1-0.5,0.1-0.7
				c0.2-0.2,0.5-0.1,0.7,0.1c0.4,0.5,0.8,1,1.2,1.4c0.2,0.2,0.2,0.5,0,0.7C221,60.6,220.9,60.7,220.7,60.7z M218.5,57.4
				c-0.2,0-0.4-0.1-0.5-0.3c-0.3-0.7-0.5-1.3-0.6-2c0-0.3,0.1-0.5,0.4-0.6c0.3,0,0.5,0.1,0.6,0.4c0.1,0.6,0.3,1.2,0.5,1.8
				c0.1,0.3,0,0.5-0.3,0.7C218.6,57.4,218.5,57.4,218.5,57.4z M217.8,53.5c-0.3,0-0.5-0.2-0.5-0.5v-2c0-0.3,0.2-0.5,0.5-0.5
				s0.5,0.2,0.5,0.5v2C218.3,53.3,218.1,53.5,217.8,53.5z"/>
		</g>
		<g>
			<path class="st43" d="M93.7,165h-2c-0.3,0-0.5-0.2-0.5-0.5c0-0.3,0.2-0.5,0.5-0.5h2c0.3,0,0.5,0.2,0.5,0.5
				C94.2,164.8,93.9,165,93.7,165z M89.7,165h-2c-0.3,0-0.5-0.2-0.5-0.5c0-0.3,0.2-0.5,0.5-0.5h2c0.3,0,0.5,0.2,0.5,0.5
				C90.2,164.8,89.9,165,89.7,165z M85.7,164.7c0,0-0.1,0-0.1,0c-0.7-0.2-1.3-0.5-1.9-0.9c-0.2-0.2-0.3-0.5-0.1-0.7
				c0.2-0.2,0.5-0.3,0.7-0.1c0.5,0.3,1.1,0.6,1.7,0.8c0.3,0.1,0.4,0.4,0.3,0.6C86.1,164.5,85.9,164.7,85.7,164.7z M82.4,162.5
				c-0.1,0-0.3-0.1-0.4-0.2c-0.5-0.5-0.9-1.2-1.1-1.8c-0.1-0.3,0-0.5,0.3-0.7c0.3-0.1,0.5,0,0.7,0.3c0.3,0.6,0.6,1.1,1,1.6
				c0.2,0.2,0.2,0.5-0.1,0.7C82.6,162.5,82.5,162.5,82.4,162.5z M80.8,158.9c-0.2,0-0.5-0.2-0.5-0.4c0-0.3-0.1-0.7-0.1-1v-1.1
				c0-0.3,0.2-0.5,0.5-0.5c0.3,0,0.5,0.2,0.5,0.5v1.1c0,0.3,0,0.6,0.1,0.9C81.3,158.6,81.1,158.9,80.8,158.9
				C80.8,158.9,80.8,158.9,80.8,158.9z M80.7,154.9c-0.3,0-0.5-0.2-0.5-0.5v-2c0-0.3,0.2-0.5,0.5-0.5c0.3,0,0.5,0.2,0.5,0.5v2
				C81.2,154.7,81,154.9,80.7,154.9z M80.7,150.9c-0.3,0-0.5-0.2-0.5-0.5v-2c0-0.3,0.2-0.5,0.5-0.5c0.3,0,0.5,0.2,0.5,0.5v2
				C81.2,150.7,81,150.9,80.7,150.9z M80.7,146.9c-0.3,0-0.5-0.2-0.5-0.5v-2c0-0.3,0.2-0.5,0.5-0.5c0.3,0,0.5,0.2,0.5,0.5v2
				C81.2,146.7,81,146.9,80.7,146.9z M80.7,142.9c-0.3,0-0.5-0.2-0.5-0.5v-2c0-0.3,0.2-0.5,0.5-0.5c0.3,0,0.5,0.2,0.5,0.5v2
				C81.2,142.7,81,142.9,80.7,142.9z M80.7,138.9c-0.3,0-0.5-0.2-0.5-0.5v-2c0-0.3,0.2-0.5,0.5-0.5c0.3,0,0.5,0.2,0.5,0.5v2
				C81.2,138.7,81,138.9,80.7,138.9z M80.7,134.9c-0.3,0-0.5-0.2-0.5-0.5v-2c0-0.3,0.2-0.5,0.5-0.5c0.3,0,0.5,0.2,0.5,0.5v2
				C81.2,134.7,81,134.9,80.7,134.9z M80.7,130.9c-0.3,0-0.5-0.2-0.5-0.5v-2c0-0.3,0.2-0.5,0.5-0.5c0.3,0,0.5,0.2,0.5,0.5v2
				C81.2,130.7,81,130.9,80.7,130.9z M80.7,126.9c-0.3,0-0.5-0.2-0.5-0.5v-2c0-0.3,0.2-0.5,0.5-0.5c0.3,0,0.5,0.2,0.5,0.5v2
				C81.2,126.7,81,126.9,80.7,126.9z M80.7,122.9c-0.3,0-0.5-0.2-0.5-0.5v-2c0-0.3,0.2-0.5,0.5-0.5c0.3,0,0.5,0.2,0.5,0.5v2
				C81.2,122.7,81,122.9,80.7,122.9z M80.7,118.9c-0.3,0-0.5-0.2-0.5-0.5v-2c0-0.3,0.2-0.5,0.5-0.5c0.3,0,0.5,0.2,0.5,0.5v2
				C81.2,118.7,81,118.9,80.7,118.9z M80.7,114.9c-0.3,0-0.5-0.2-0.5-0.5v-2c0-0.3,0.2-0.5,0.5-0.5c0.3,0,0.5,0.2,0.5,0.5v2
				C81.2,114.7,81,114.9,80.7,114.9z M80.7,110.9c-0.3,0-0.5-0.2-0.5-0.5v-2c0-0.3,0.2-0.5,0.5-0.5c0.3,0,0.5,0.2,0.5,0.5v2
				C81.2,110.7,81,110.9,80.7,110.9z M80.7,106.9c-0.3,0-0.5-0.2-0.5-0.5v-2c0-0.3,0.2-0.5,0.5-0.5c0.3,0,0.5,0.2,0.5,0.5v2
				C81.2,106.7,81,106.9,80.7,106.9z M80.7,102.9c-0.3,0-0.5-0.2-0.5-0.5v-2c0-0.3,0.2-0.5,0.5-0.5c0.3,0,0.5,0.2,0.5,0.5v2
				C81.2,102.7,81,102.9,80.7,102.9z M80.7,98.9c-0.3,0-0.5-0.2-0.5-0.5v-2c0-0.3,0.2-0.5,0.5-0.5c0.3,0,0.5,0.2,0.5,0.5v2
				C81.2,98.7,81,98.9,80.7,98.9z M80.7,94.9c-0.3,0-0.5-0.2-0.5-0.5v-2c0-0.3,0.2-0.5,0.5-0.5c0.3,0,0.5,0.2,0.5,0.5v2
				C81.2,94.7,81,94.9,80.7,94.9z M80.7,90.9c-0.3,0-0.5-0.2-0.5-0.5v-2c0-0.3,0.2-0.5,0.5-0.5c0.3,0,0.5,0.2,0.5,0.5v2
				C81.2,90.7,81,90.9,80.7,90.9z M80.7,86.9c-0.3,0-0.5-0.2-0.5-0.5v-2c0-0.3,0.2-0.5,0.5-0.5c0.3,0,0.5,0.2,0.5,0.5v2
				C81.2,86.7,81,86.9,80.7,86.9z M80.7,82.9c-0.3,0-0.5-0.2-0.5-0.5v-2c0-0.3,0.2-0.5,0.5-0.5c0.3,0,0.5,0.2,0.5,0.5v2
				C81.2,82.7,81,82.9,80.7,82.9z M80.7,78.9c-0.3,0-0.5-0.2-0.5-0.5v-2c0-0.3,0.2-0.5,0.5-0.5c0.3,0,0.5,0.2,0.5,0.5v2
				C81.2,78.7,81,78.9,80.7,78.9z M80.7,74.9c-0.3,0-0.5-0.2-0.5-0.5v-2c0-0.3,0.2-0.5,0.5-0.5c0.3,0,0.5,0.2,0.5,0.5v2
				C81.2,74.7,81,74.9,80.7,74.9z M80.7,70.9c-0.3,0-0.5-0.2-0.5-0.5v-2c0-0.3,0.2-0.5,0.5-0.5c0.3,0,0.5,0.2,0.5,0.5v2
				C81.2,70.7,81,70.9,80.7,70.9z M80.7,66.9C80.7,66.9,80.7,66.9,80.7,66.9c-0.3,0-0.5-0.3-0.5-0.5c0.1-0.7,0.2-1.4,0.5-2.1
				c0.1-0.3,0.4-0.4,0.6-0.3c0.3,0.1,0.4,0.4,0.3,0.6c-0.2,0.6-0.4,1.2-0.4,1.8C81.2,66.7,81,66.9,80.7,66.9z M82.1,63.3
				c-0.1,0-0.2,0-0.3-0.1c-0.2-0.2-0.3-0.5-0.1-0.7c0.4-0.6,0.9-1.1,1.5-1.5c0.2-0.2,0.5-0.1,0.7,0.1c0.2,0.2,0.1,0.5-0.1,0.7
				c-0.5,0.4-0.9,0.8-1.3,1.3C82.4,63.2,82.3,63.3,82.1,63.3z M85.3,60.9c-0.2,0-0.4-0.1-0.5-0.3c-0.1-0.3,0-0.5,0.3-0.6
				c0.7-0.2,1.4-0.4,2.1-0.4c0.3,0,0.5,0.2,0.5,0.5c0,0.3-0.2,0.5-0.5,0.5c-0.6,0-1.2,0.2-1.8,0.4C85.4,60.9,85.3,60.9,85.3,60.9z
				 M147.2,60.5h-2c-0.3,0-0.5-0.2-0.5-0.5c0-0.3,0.2-0.5,0.5-0.5h2c0.3,0,0.5,0.2,0.5,0.5C147.7,60.3,147.5,60.5,147.2,60.5z
				 M143.2,60.5h-2c-0.3,0-0.5-0.2-0.5-0.5c0-0.3,0.2-0.5,0.5-0.5h2c0.3,0,0.5,0.2,0.5,0.5C143.7,60.3,143.5,60.5,143.2,60.5z
				 M139.2,60.5h-2c-0.3,0-0.5-0.2-0.5-0.5c0-0.3,0.2-0.5,0.5-0.5h2c0.3,0,0.5,0.2,0.5,0.5C139.7,60.3,139.5,60.5,139.2,60.5z
				 M135.2,60.5h-2c-0.3,0-0.5-0.2-0.5-0.5c0-0.3,0.2-0.5,0.5-0.5h2c0.3,0,0.5,0.2,0.5,0.5C135.7,60.3,135.5,60.5,135.2,60.5z
				 M131.2,60.5h-2c-0.3,0-0.5-0.2-0.5-0.5c0-0.3,0.2-0.5,0.5-0.5h2c0.3,0,0.5,0.2,0.5,0.5C131.7,60.3,131.5,60.5,131.2,60.5z
				 M127.2,60.5h-2c-0.3,0-0.5-0.2-0.5-0.5c0-0.3,0.2-0.5,0.5-0.5h2c0.3,0,0.5,0.2,0.5,0.5C127.7,60.3,127.5,60.5,127.2,60.5z
				 M123.2,60.5h-2c-0.3,0-0.5-0.2-0.5-0.5c0-0.3,0.2-0.5,0.5-0.5h2c0.3,0,0.5,0.2,0.5,0.5C123.7,60.3,123.5,60.5,123.2,60.5z
				 M119.2,60.5h-2c-0.3,0-0.5-0.2-0.5-0.5c0-0.3,0.2-0.5,0.5-0.5h2c0.3,0,0.5,0.2,0.5,0.5C119.7,60.3,119.5,60.5,119.2,60.5z
				 M115.2,60.5h-2c-0.3,0-0.5-0.2-0.5-0.5c0-0.3,0.2-0.5,0.5-0.5h2c0.3,0,0.5,0.2,0.5,0.5C115.7,60.3,115.5,60.5,115.2,60.5z
				 M111.2,60.5h-2c-0.3,0-0.5-0.2-0.5-0.5c0-0.3,0.2-0.5,0.5-0.5h2c0.3,0,0.5,0.2,0.5,0.5C111.7,60.3,111.5,60.5,111.2,60.5z
				 M107.2,60.5h-2c-0.3,0-0.5-0.2-0.5-0.5c0-0.3,0.2-0.5,0.5-0.5h2c0.3,0,0.5,0.2,0.5,0.5C107.7,60.3,107.5,60.5,107.2,60.5z
				 M103.2,60.5h-2c-0.3,0-0.5-0.2-0.5-0.5c0-0.3,0.2-0.5,0.5-0.5h2c0.3,0,0.5,0.2,0.5,0.5C103.7,60.3,103.5,60.5,103.2,60.5z
				 M99.2,60.5h-2c-0.3,0-0.5-0.2-0.5-0.5c0-0.3,0.2-0.5,0.5-0.5h2c0.3,0,0.5,0.2,0.5,0.5C99.7,60.3,99.5,60.5,99.2,60.5z
				 M95.2,60.5h-2c-0.3,0-0.5-0.2-0.5-0.5c0-0.3,0.2-0.5,0.5-0.5h2c0.3,0,0.5,0.2,0.5,0.5C95.7,60.3,95.5,60.5,95.2,60.5z
				 M91.2,60.5h-2c-0.3,0-0.5-0.2-0.5-0.5c0-0.3,0.2-0.5,0.5-0.5h2c0.3,0,0.5,0.2,0.5,0.5C91.7,60.3,91.5,60.5,91.2,60.5z"/>
		</g>
		
			<linearGradient id="SVGID_00000148629653203740616520000014170599380204685984_" gradientUnits="userSpaceOnUse" x1="96.8362" y1="56.2924" x2="96.8362" y2="-6.3963">
			<stop  offset="0" style="stop-color:#F9FBFC"/>
			<stop  offset="1" style="stop-color:#BEE1F4"/>
		</linearGradient>
		<path style="fill:url(#SVGID_00000148629653203740616520000014170599380204685984_);" d="M121.7,28.5h-1.3c0-0.2,0-0.3,0-0.5
			c0-4.1-3.3-7.4-7.4-7.4h-5.8c0-0.1,0-0.2,0-0.3c0-4.2-3.5-7.7-7.7-7.7H98c-4.2,0-7.7,3.5-7.7,7.7c0,0.1,0,0.2,0,0.3h-7.3
			c-4.1,0-7.4,3.3-7.4,7.4c0,0.2,0,0.3,0,0.5H72c-3.8,0-6.9,3.1-6.9,6.9c0,3.8,3.1,6.9,6.9,6.9h49.7c3.8,0,6.9-3.1,6.9-6.9
			C128.6,31.6,125.5,28.5,121.7,28.5z"/>
		
			<linearGradient id="SVGID_00000127030505061528771700000016672208898938643862_" gradientUnits="userSpaceOnUse" x1="308.4679" y1="44.9861" x2="308.4679" y2="-17.7811">
			<stop  offset="0" style="stop-color:#F9FBFC"/>
			<stop  offset="1" style="stop-color:#BEE1F4"/>
		</linearGradient>
		<path style="fill:url(#SVGID_00000127030505061528771700000016672208898938643862_);" d="M354.6,24.4h-10.8
			c-0.3-3.2-3-5.7-6.2-5.7H324c-0.3-3.8-3.5-6.8-7.4-6.8h-27.2c-3.9,0-7.1,3-7.4,6.8H276c-3.3,0-6,2.5-6.2,5.7h-7.4
			c-3.5,0-6.4,2.9-6.4,6.4s2.9,6.4,6.4,6.4h92.3c3.5,0,6.4-2.9,6.4-6.4S358.1,24.4,354.6,24.4z"/>
		
			<linearGradient id="SVGID_00000023279811225714779650000000393690913970141077_" gradientUnits="userSpaceOnUse" x1="374.2416" y1="100.2124" x2="374.2416" y2="102.8832">
			<stop  offset="0" style="stop-color:#BEE1F4"/>
			<stop  offset="1" style="stop-color:#E6E7E8"/>
		</linearGradient>
		<circle style="fill:url(#SVGID_00000023279811225714779650000000393690913970141077_);" cx="374.2" cy="101.5" r="1.3"/>
		
			<linearGradient id="SVGID_00000031920571301472752110000002367431101274696345_" gradientUnits="userSpaceOnUse" x1="411.9842" y1="221.7383" x2="411.9842" y2="224.4091">
			<stop  offset="0" style="stop-color:#BEE1F4"/>
			<stop  offset="1" style="stop-color:#E6E7E8"/>
		</linearGradient>
		<path style="fill:url(#SVGID_00000031920571301472752110000002367431101274696345_);" d="M413.3,223.1c0,0.7-0.6,1.3-1.3,1.3
			s-1.3-0.6-1.3-1.3s0.6-1.3,1.3-1.3S413.3,222.3,413.3,223.1z"/>
		
			<linearGradient id="SVGID_00000054969615044123217290000016274624610785483910_" gradientUnits="userSpaceOnUse" x1="288.3528" y1="94.5719" x2="288.3528" y2="97.2427">
			<stop  offset="0" style="stop-color:#BEE1F4"/>
			<stop  offset="1" style="stop-color:#E6E7E8"/>
		</linearGradient>
		<circle style="fill:url(#SVGID_00000054969615044123217290000016274624610785483910_);" cx="288.4" cy="95.9" r="1.3"/>
		
			<linearGradient id="SVGID_00000096739565255821930490000003824933414103856056_" gradientUnits="userSpaceOnUse" x1="70.1441" y1="63.8987" x2="70.1441" y2="66.5695">
			<stop  offset="0" style="stop-color:#BEE1F4"/>
			<stop  offset="1" style="stop-color:#E6E7E8"/>
		</linearGradient>
		<path style="fill:url(#SVGID_00000096739565255821930490000003824933414103856056_);" d="M71.5,65.2c0,0.7-0.6,1.3-1.3,1.3
			c-0.7,0-1.3-0.6-1.3-1.3c0-0.7,0.6-1.3,1.3-1.3C70.9,63.9,71.5,64.5,71.5,65.2z"/>
		
			<linearGradient id="SVGID_00000083776024515837231740000008482009959149640350_" gradientUnits="userSpaceOnUse" x1="201.2332" y1="90.2277" x2="201.2332" y2="92.8985">
			<stop  offset="0" style="stop-color:#BEE1F4"/>
			<stop  offset="1" style="stop-color:#E6E7E8"/>
		</linearGradient>
		<circle style="fill:url(#SVGID_00000083776024515837231740000008482009959149640350_);" cx="201.2" cy="91.6" r="1.3"/>
		
			<linearGradient id="SVGID_00000106147235250746444620000012634249479878896777_" gradientUnits="userSpaceOnUse" x1="68.8087" y1="139.9942" x2="68.8087" y2="142.6651">
			<stop  offset="0" style="stop-color:#BEE1F4"/>
			<stop  offset="1" style="stop-color:#E6E7E8"/>
		</linearGradient>
		<path style="fill:url(#SVGID_00000106147235250746444620000012634249479878896777_);" d="M70.1,141.3c0,0.7-0.6,1.3-1.3,1.3
			c-0.7,0-1.3-0.6-1.3-1.3s0.6-1.3,1.3-1.3C69.5,140,70.1,140.6,70.1,141.3z"/>
		
			<linearGradient id="SVGID_00000025415066667540037590000001483404581835683973_" gradientUnits="userSpaceOnUse" x1="361.404" y1="77.3163" x2="361.404" y2="82.4937">
			<stop  offset="0" style="stop-color:#BEE1F4"/>
			<stop  offset="1" style="stop-color:#E6E7E8"/>
		</linearGradient>
		<circle style="fill:url(#SVGID_00000025415066667540037590000001483404581835683973_);" cx="361.4" cy="79.9" r="2.6"/>
		
			<linearGradient id="SVGID_00000147900208462942024220000013274039638648925375_" gradientUnits="userSpaceOnUse" x1="402.1067" y1="148.6814" x2="402.1067" y2="153.8588">
			<stop  offset="0" style="stop-color:#BEE1F4"/>
			<stop  offset="1" style="stop-color:#E6E7E8"/>
		</linearGradient>
		<circle style="fill:url(#SVGID_00000147900208462942024220000013274039638648925375_);" cx="402.1" cy="151.3" r="2.6"/>
		
			<linearGradient id="SVGID_00000158750521359475585860000012181363864659551902_" gradientUnits="userSpaceOnUse" x1="164.935" y1="95.8163" x2="164.935" y2="100.9937">
			<stop  offset="0" style="stop-color:#BEE1F4"/>
			<stop  offset="1" style="stop-color:#E6E7E8"/>
		</linearGradient>
		<circle style="fill:url(#SVGID_00000158750521359475585860000012181363864659551902_);" cx="164.9" cy="98.4" r="2.6"/>
		
			<linearGradient id="SVGID_00000183249469138436130110000001697024202160449689_" gradientUnits="userSpaceOnUse" x1="42.9754" y1="209.28" x2="42.9754" y2="214.4574">
			<stop  offset="0" style="stop-color:#BEE1F4"/>
			<stop  offset="1" style="stop-color:#E6E7E8"/>
		</linearGradient>
		<circle style="fill:url(#SVGID_00000183249469138436130110000001697024202160449689_);" cx="43" cy="211.9" r="2.6"/>
		
			<linearGradient id="SVGID_00000029025221212278758880000009119792087762976695_" gradientUnits="userSpaceOnUse" x1="239.7625" y1="46.4118" x2="239.7625" y2="51.5892">
			<stop  offset="0" style="stop-color:#BEE1F4"/>
			<stop  offset="1" style="stop-color:#E6E7E8"/>
		</linearGradient>
		<circle style="fill:url(#SVGID_00000029025221212278758880000009119792087762976695_);" cx="239.8" cy="49" r="2.6"/>
		
			<linearGradient id="SVGID_00000167392476028025667080000016423693521562812804_" gradientUnits="userSpaceOnUse" x1="57.8155" y1="131.1908" x2="57.8155" y2="136.3682">
			<stop  offset="0" style="stop-color:#BEE1F4"/>
			<stop  offset="1" style="stop-color:#E6E7E8"/>
		</linearGradient>
		<circle style="fill:url(#SVGID_00000167392476028025667080000016423693521562812804_);" cx="57.8" cy="133.8" r="2.6"/>
	</g>
</g>
<g id="Designed_By_Freepik">
</g>
</svg>
