<svg width="154" height="39" viewBox="0 0 154 39" fill="none" xmlns="http://www.w3.org/2000/svg">
<path d="M43.18 25H41.14V13.74H45.66C46.9133 13.74 47.8867 14.0534 48.58 14.68C49.2733 15.3067 49.62 16.2534 49.62 17.52C49.62 18.6267 49.26 19.4934 48.54 20.12C47.8333 20.7467 46.8733 21.06 45.66 21.06H43.18V25ZM45.38 15.4H43.18V19.56H45.38C46.1 19.56 46.68 19.3867 47.12 19.04C47.56 18.6934 47.78 18.1734 47.78 17.48C47.78 16.7734 47.56 16.2534 47.12 15.92C46.6933 15.5734 46.1133 15.4 45.38 15.4Z" fill="black"/>
<path d="M53.921 25.2C52.7876 25.2 51.981 24.8134 51.501 24.04C51.021 23.2667 50.781 22.2534 50.781 21C50.781 19.7334 51.021 18.7134 51.501 17.94C51.9943 17.1534 52.801 16.76 53.921 16.76C54.561 16.76 55.0676 16.8734 55.441 17.1C55.8143 17.3134 56.0943 17.5534 56.281 17.82C56.4676 18.0867 56.581 18.2867 56.621 18.42H56.661V16.78H58.761V25H57.001L56.661 23.66H56.621C56.581 23.78 56.461 23.9667 56.261 24.22C56.0743 24.46 55.7876 24.6867 55.401 24.9C55.0276 25.1 54.5343 25.2 53.921 25.2ZM54.761 23.48C55.5076 23.48 56.0076 23.2467 56.261 22.78C56.5276 22.3 56.661 21.7134 56.661 21.02C56.661 20.2867 56.5276 19.6934 56.261 19.24C55.9943 18.7867 55.4943 18.56 54.761 18.56C54.241 18.56 53.8343 18.6734 53.541 18.9C53.261 19.1267 53.061 19.4267 52.941 19.8C52.8343 20.16 52.781 20.5667 52.781 21.02C52.781 21.4734 52.8343 21.8867 52.941 22.26C53.061 22.6334 53.261 22.9334 53.541 23.16C53.8343 23.3734 54.241 23.48 54.761 23.48Z" fill="black"/>
<path d="M64.0235 25.2C63.6768 25.2 63.2901 25.14 62.8635 25.02C62.4501 24.9 62.0501 24.72 61.6635 24.48C61.2901 24.24 60.9768 23.9334 60.7235 23.56C60.4835 23.1734 60.3635 22.72 60.3635 22.2H62.2435C62.2435 22.2267 62.2501 22.32 62.2635 22.48C62.2768 22.6267 62.3301 22.8 62.4235 23C62.5301 23.1867 62.7035 23.3534 62.9435 23.5C63.1835 23.6467 63.5301 23.72 63.9835 23.72C64.5168 23.72 64.9168 23.6267 65.1835 23.44C65.4501 23.24 65.5835 23.0134 65.5835 22.76C65.5835 22.4667 65.4568 22.24 65.2035 22.08C64.9635 21.9067 64.6501 21.7667 64.2635 21.66C63.8768 21.5534 63.4635 21.4467 63.0235 21.34C62.5968 21.22 62.1901 21.0667 61.8035 20.88C61.4301 20.6934 61.1235 20.44 60.8835 20.12C60.6435 19.7867 60.5235 19.36 60.5235 18.84C60.5235 18.08 60.8301 17.5067 61.4435 17.12C62.0568 16.72 62.8368 16.52 63.7835 16.52C64.4501 16.52 65.0701 16.6267 65.6435 16.84C66.2168 17.04 66.6768 17.3667 67.0235 17.82C67.3701 18.26 67.5435 18.84 67.5435 19.56H65.6635C65.6768 19.1467 65.5835 18.84 65.3835 18.64C65.1968 18.4267 64.9568 18.28 64.6635 18.2C64.3835 18.12 64.1101 18.08 63.8435 18.08C63.3635 18.08 62.9968 18.1667 62.7435 18.34C62.5035 18.5 62.3835 18.7134 62.3835 18.98C62.3835 19.2867 62.5035 19.5267 62.7435 19.7C62.9968 19.86 63.3168 19.9934 63.7035 20.1C64.1035 20.2067 64.5168 20.32 64.9435 20.44C65.3835 20.5467 65.7968 20.6934 66.1835 20.88C66.5835 21.0667 66.9035 21.32 67.1435 21.64C67.3968 21.9467 67.5235 22.36 67.5235 22.88C67.5235 23.6667 67.1968 24.2534 66.5435 24.64C65.9035 25.0134 65.0635 25.2 64.0235 25.2Z" fill="black"/>
<path d="M71.9642 25C71.3109 25 70.8176 24.84 70.4842 24.52C70.1642 24.2 70.0042 23.68 70.0042 22.96V18.22H68.7642V16.78C69.1509 16.78 69.4509 16.74 69.6642 16.66C69.8776 16.58 70.0309 16.3934 70.1242 16.1C70.2176 15.8067 70.2642 15.3334 70.2642 14.68H71.9042V16.78H73.7842V18.22H71.9042V23.4H73.8242V25H71.9642Z" fill="black"/>
<path d="M79.4613 25.2C78.5146 25.2 77.7413 25 77.1413 24.6C76.5546 24.1867 76.1146 23.6667 75.8213 23.04C75.5413 22.4 75.3946 21.7267 75.3813 21.02C75.3679 20.1934 75.5213 19.46 75.8413 18.82C76.1746 18.1667 76.6413 17.66 77.2413 17.3C77.8546 16.9267 78.5746 16.74 79.4013 16.74C80.1346 16.74 80.7879 16.9 81.3613 17.22C81.9479 17.54 82.4146 17.9934 82.7613 18.58C83.1079 19.1534 83.2879 19.8334 83.3013 20.62C83.3013 20.6467 83.3013 20.72 83.3013 20.84C83.3013 20.96 83.3013 21.06 83.3013 21.14H77.3213C77.3213 21.9 77.5079 22.4867 77.8813 22.9C78.2546 23.3 78.7679 23.5 79.4213 23.5C79.9279 23.5 80.3479 23.3734 80.6813 23.12C81.0279 22.8667 81.2346 22.5334 81.3013 22.12H83.2813C83.1879 22.9867 82.8146 23.72 82.1613 24.32C81.5079 24.9067 80.6079 25.2 79.4613 25.2ZM77.3813 20.22H81.2613C81.2479 20.1267 81.2146 19.98 81.1613 19.78C81.1213 19.58 81.0346 19.3734 80.9013 19.16C80.7813 18.9467 80.5946 18.7667 80.3413 18.62C80.0879 18.4734 79.7613 18.4 79.3613 18.4C78.8279 18.4 78.4213 18.5134 78.1413 18.74C77.8746 18.9534 77.6813 19.2067 77.5613 19.5C77.4546 19.78 77.3946 20.02 77.3813 20.22Z" fill="black"/>
<path d="M85.4795 25V13.74H87.4795V25H85.4795Z" fill="black"/>
<path d="M105.461 25.04C104.527 24.6534 103.621 24.18 102.741 23.62C102.167 24.14 101.521 24.5334 100.801 24.8C100.094 25.0534 99.3741 25.18 98.6408 25.18C97.9075 25.18 97.2341 25.0534 96.6208 24.8C96.0075 24.5467 95.5075 24.1734 95.1208 23.68C94.7475 23.1867 94.5608 22.5667 94.5608 21.82C94.5608 21.2734 94.6675 20.82 94.8808 20.46C95.1075 20.0867 95.3675 19.7867 95.6608 19.56C95.9675 19.32 96.2541 19.14 96.5208 19.02C96.8008 18.8867 97.0008 18.7934 97.1208 18.74C97.0541 18.6334 96.9208 18.4667 96.7208 18.24C96.5208 18 96.3341 17.7 96.1608 17.34C95.9875 16.98 95.9008 16.5734 95.9008 16.12C95.9008 15.56 96.0475 15.0934 96.3408 14.72C96.6475 14.3467 97.0341 14.0667 97.5008 13.88C97.9808 13.68 98.4808 13.58 99.0008 13.58C99.5341 13.5667 100.034 13.6467 100.501 13.82C100.981 13.9934 101.367 14.2667 101.661 14.64C101.967 15.0134 102.121 15.48 102.121 16.04C102.121 16.5067 102.007 16.92 101.781 17.28C101.554 17.64 101.287 17.9467 100.981 18.2C100.674 18.44 100.394 18.6267 100.141 18.76C99.8875 18.8934 99.7341 18.9734 99.6808 19C99.8275 19.1867 100.114 19.4867 100.541 19.9C100.981 20.3134 101.481 20.7467 102.041 21.2C102.147 21.0534 102.261 20.8334 102.381 20.54C102.514 20.2334 102.581 19.9134 102.581 19.58C102.581 19.2467 102.447 18.9534 102.181 18.7L103.881 17.58C103.961 17.6734 104.067 17.88 104.201 18.2C104.347 18.5067 104.461 18.8867 104.541 19.34C104.621 19.78 104.614 20.26 104.521 20.78C104.441 21.3 104.221 21.8134 103.861 22.32C104.194 22.5334 104.534 22.74 104.881 22.94C105.241 23.1267 105.681 23.3267 106.201 23.54L105.461 25.04ZM98.5608 18.06C98.7341 17.9667 98.9608 17.84 99.2408 17.68C99.5208 17.5067 99.7741 17.3067 100.001 17.08C100.227 16.8534 100.354 16.6067 100.381 16.34C100.407 16.0334 100.334 15.7867 100.161 15.6C99.9875 15.4 99.7675 15.2667 99.5008 15.2C99.2341 15.12 98.9608 15.1134 98.6808 15.18C98.4141 15.2334 98.1875 15.3534 98.0008 15.54C97.8141 15.7267 97.7275 15.9867 97.7408 16.32C97.7541 16.84 98.0275 17.42 98.5608 18.06ZM101.161 22.48C100.601 22.0534 100.074 21.6067 99.5808 21.14C99.0875 20.66 98.6341 20.1734 98.2208 19.68C97.8075 19.8934 97.4275 20.14 97.0808 20.42C96.7475 20.6867 96.5808 21.0734 96.5808 21.58C96.5808 22.0734 96.7408 22.4734 97.0608 22.78C97.3941 23.0867 97.8075 23.2867 98.3008 23.38C98.7941 23.46 99.3008 23.4267 99.8208 23.28C100.341 23.1334 100.787 22.8667 101.161 22.48Z" fill="black"/>
<path d="M117.725 25.2C116.672 25.2 115.719 24.9867 114.865 24.56C114.012 24.12 113.332 23.4734 112.825 22.62C112.332 21.7667 112.085 20.7 112.085 19.42C112.099 18.1667 112.352 17.1 112.845 16.22C113.339 15.34 114.012 14.6734 114.865 14.22C115.719 13.7667 116.692 13.54 117.785 13.54C118.825 13.54 119.712 13.7267 120.445 14.1C121.179 14.4734 121.765 14.98 122.205 15.62C122.659 16.26 122.952 16.98 123.085 17.78H120.985C120.892 17.1934 120.672 16.7334 120.325 16.4C119.992 16.0534 119.599 15.8134 119.145 15.68C118.692 15.5334 118.239 15.46 117.785 15.46C116.599 15.46 115.685 15.7934 115.045 16.46C114.419 17.1267 114.105 18.0667 114.105 19.28C114.105 20.5734 114.412 21.5667 115.025 22.26C115.652 22.9534 116.559 23.3 117.745 23.3C118.239 23.3 118.719 23.2267 119.185 23.08C119.652 22.92 120.052 22.6667 120.385 22.32C120.719 21.96 120.932 21.48 121.025 20.88H123.145C122.999 21.7067 122.699 22.4467 122.245 23.1C121.805 23.74 121.205 24.2534 120.445 24.64C119.699 25.0134 118.792 25.2 117.725 25.2Z" fill="black"/>
<path d="M128.757 25.2C127.823 25.2 127.05 25.02 126.437 24.66C125.823 24.3 125.363 23.8067 125.057 23.18C124.75 22.54 124.597 21.8134 124.597 21C124.583 19.7734 124.923 18.7667 125.617 17.98C126.323 17.18 127.37 16.78 128.757 16.78C130.103 16.78 131.123 17.1667 131.817 17.94C132.523 18.7134 132.877 19.7334 132.877 21C132.877 21.7867 132.73 22.5 132.437 23.14C132.143 23.78 131.69 24.2867 131.077 24.66C130.463 25.02 129.69 25.2 128.757 25.2ZM128.757 23.48C129.343 23.48 129.79 23.3534 130.097 23.1C130.417 22.8467 130.63 22.5267 130.737 22.14C130.843 21.74 130.897 21.34 130.897 20.94C130.897 20.5267 130.843 20.12 130.737 19.72C130.63 19.32 130.417 18.9934 130.097 18.74C129.79 18.4867 129.343 18.36 128.757 18.36C128.157 18.36 127.697 18.4934 127.377 18.76C127.07 19.0134 126.857 19.34 126.737 19.74C126.63 20.1267 126.577 20.5267 126.577 20.94C126.577 21.34 126.63 21.74 126.737 22.14C126.857 22.5267 127.07 22.8467 127.377 23.1C127.697 23.3534 128.157 23.48 128.757 23.48Z" fill="black"/>
<path d="M135.89 25C135.397 25 135.07 24.88 134.91 24.64C134.75 24.4 134.67 24.1067 134.67 23.76C134.67 23.44 134.75 23.16 134.91 22.92C135.084 22.68 135.41 22.56 135.89 22.56C136.344 22.56 136.65 22.68 136.81 22.92C136.984 23.16 137.07 23.44 137.07 23.76C137.07 24.1067 136.984 24.4 136.81 24.64C136.65 24.88 136.344 25 135.89 25Z" fill="black"/>
<rect x="16.4074" y="8.40741" width="12.2222" height="21.1852" fill="#2DC846" stroke="black" stroke-width="0.814815"/>
<rect x="20.4815" y="8.40741" width="12.2222" height="16.2963" fill="#5AA6FF" stroke="black" stroke-width="0.814815"/>
<rect x="20.4815" y="16.5555" width="8.14815" height="8.14815" fill="#FF767E" stroke="black" stroke-width="0.814815"/>
</svg>
