<svg width="213" height="33" viewBox="0 0 213 33" fill="none" xmlns="http://www.w3.org/2000/svg">
<path d="M43.8555 14.9406C43.8409 14.7071 43.8336 14.3568 43.8336 13.8897V13.0577C43.8336 12.503 43.819 12.087 43.7898 11.8097C43.7607 11.5761 43.7461 10.9704 43.7461 9.99242C43.7461 9.6421 43.8482 9.37207 44.0526 9.18231C44.2715 8.97796 44.5635 8.87579 44.9284 8.87579C45.3955 8.87579 45.7093 8.97796 45.8698 9.18231C46.0304 9.38667 46.1107 9.72238 46.1107 10.1895V11.0215L46.0888 13.4299C46.0742 13.897 46.0669 14.5976 46.0669 15.5318L46.0888 17.3272C46.1034 17.6045 46.1107 17.9913 46.1107 18.4876C46.1107 18.8817 46.1253 19.4436 46.1545 20.1735C46.1837 20.8449 46.1983 21.3485 46.1983 21.6842C46.1983 21.9615 46.118 22.217 45.9574 22.4505C45.8115 22.6841 45.6071 22.8008 45.3444 22.8008C44.3226 22.8008 43.8117 22.4578 43.8117 21.7718C43.8117 21.3923 43.8263 20.969 43.8555 20.5019C43.8847 20.1662 43.8993 19.6553 43.8993 18.9693C43.8993 18.4876 43.8847 17.7942 43.8555 16.8893C43.1695 16.9476 41.9872 16.9768 40.3086 16.9768C39.2576 16.9768 38.4402 16.9768 37.8564 16.9768C37.2725 16.9622 36.8492 16.9258 36.5865 16.8674L36.5646 19.3853C36.5646 19.5458 36.6011 19.9764 36.6741 20.6771C36.747 21.1441 36.7835 21.5528 36.7835 21.9032C36.7835 22.1221 36.6522 22.3338 36.3894 22.5381C36.1413 22.7279 35.9077 22.8227 35.6888 22.8227C35.1633 22.8227 34.8057 22.6987 34.616 22.4505C34.4262 22.1878 34.3313 21.7937 34.3313 21.2682L34.3094 19.5385C34.2948 19.3342 34.2875 19.0495 34.2875 18.6846C34.2875 18.1446 34.2729 17.4074 34.2437 16.4733C34.2145 15.6267 34.2 15.0136 34.2 14.6341C34.2 14.0648 34.2145 13.2693 34.2437 12.2476C34.2729 11.2842 34.2875 10.569 34.2875 10.1019C34.2875 9.63481 34.4043 9.32098 34.6378 9.16042C34.8714 8.99986 35.1341 8.91958 35.4261 8.91958C36.2435 8.91958 36.6522 9.18961 36.6522 9.72968C36.6522 10.6931 36.6303 11.6126 36.5865 12.4884C36.5573 13.5978 36.5427 14.4079 36.5427 14.9187C36.966 15.0209 37.4112 15.0866 37.8783 15.1158C38.3454 15.145 39.0022 15.1596 39.8488 15.1596C41.5712 15.1596 42.9068 15.0866 43.8555 14.9406Z" fill="#097314"/>
<path d="M50.0601 8.72253C50.571 8.76631 51.0162 8.90498 51.3957 9.13853C51.7752 9.35747 51.965 9.69319 51.965 10.1457C51.965 10.4814 51.8044 10.7514 51.4833 10.9558C51.1768 11.1455 50.8045 11.2404 50.3666 11.2404C49.9433 11.2404 49.6514 11.1309 49.4909 10.912C49.3303 10.6931 49.25 10.4668 49.25 10.2333C49.25 9.79537 49.2938 9.43046 49.3814 9.13853C49.4836 8.8466 49.7098 8.70793 50.0601 8.72253ZM51.8117 19.0568C51.8117 19.6261 51.8263 20.1662 51.8555 20.6771C51.8993 21.1733 51.9504 21.6769 52.0088 22.1878C51.9942 22.3338 51.8847 22.487 51.6803 22.6476C51.476 22.7935 51.2935 22.8665 51.133 22.8665C50.8556 22.8665 50.571 22.8154 50.2791 22.7133C50.0017 22.5965 49.8339 22.4578 49.7755 22.2973C49.6879 21.8302 49.6441 21.4142 49.6441 21.0493C49.6441 19.8524 49.6076 18.5095 49.5346 17.0206C49.4763 15.7069 49.4471 14.7874 49.4471 14.2619C49.4471 13.9992 49.5784 13.7729 49.8412 13.5832C50.1039 13.3934 50.3812 13.2985 50.6732 13.2985C51.0965 13.2985 51.3884 13.3934 51.549 13.5832C51.7241 13.7729 51.8117 14.0721 51.8117 14.4808V19.0568Z" fill="#097314"/>
<path d="M62.4495 22.7352C62.8436 23.0125 63.1063 23.319 63.2377 23.6547C63.3836 23.9905 63.4566 24.4575 63.4566 25.056C63.4566 25.3479 63.369 25.6399 63.1939 25.9318C63.0333 26.2237 62.8655 26.4354 62.6903 26.5667C61.3036 27.3258 59.917 27.7053 58.5303 27.7053C57.8443 27.7053 57.2531 27.6177 56.7568 27.4425C56.2606 27.2674 55.7935 27.0338 55.3556 26.7419C55.0636 26.5229 54.8228 26.2164 54.633 25.8223C54.4579 25.4428 54.3703 25.0633 54.3703 24.6838C54.3703 24.1583 54.5309 23.6985 54.852 23.3044C55.1877 22.9103 55.6329 22.6257 56.1876 22.4505C56.0854 22.2316 56.0343 21.9761 56.0343 21.6842C56.0343 21.4069 56.2387 20.9909 56.6474 20.4362C55.9467 20.2027 55.3921 19.7867 54.9834 19.1882C54.5893 18.5898 54.3922 17.8891 54.3922 17.0863C54.3922 16.59 54.509 16.1521 54.7425 15.7726C54.9761 15.3785 55.3264 14.926 55.7935 14.4152C56.1146 14.0648 56.5233 13.8094 57.0196 13.6488C57.5159 13.4883 58.1362 13.408 58.8806 13.408C59.4061 13.408 60.0556 13.5248 60.8293 13.7583C61.7488 13.1161 62.5589 12.7949 63.2596 12.7949C63.4347 12.7949 63.6318 12.8387 63.8507 12.9263C64.0843 13.0139 64.2594 13.1015 64.3762 13.1891C64.4638 13.3496 64.5076 13.6196 64.5076 13.9992C64.5076 14.1451 64.4419 14.2911 64.3105 14.4371C64.1937 14.5684 64.0405 14.6341 63.8507 14.6341L63.3253 14.6122C63.0625 14.583 62.8582 14.5684 62.7122 14.5684C62.5516 14.5684 62.3108 14.583 61.9897 14.6122C62.2962 14.9771 62.5297 15.3639 62.6903 15.7726C62.8655 16.1813 62.953 16.7141 62.953 17.3709C62.953 17.8672 62.7706 18.3854 62.4057 18.9255C62.0408 19.4655 61.6102 19.8888 61.1139 20.1954C60.3549 20.6041 59.4718 20.8157 58.4646 20.8303C58.3479 20.9471 58.2457 21.0566 58.1581 21.1587C58.0851 21.2463 58.0486 21.3193 58.0486 21.3777C58.0486 21.5382 58.1873 21.6623 58.4646 21.7499C58.742 21.8375 59.1653 21.9032 59.7345 21.9469C60.1724 21.9761 60.6541 22.071 61.1796 22.2316C61.7196 22.3775 62.1429 22.5454 62.4495 22.7352ZM58.596 19.0349C59.2674 19.0349 59.8075 18.8525 60.2162 18.4876C60.6249 18.1227 60.8293 17.6045 60.8293 16.9331C60.8293 16.4222 60.6468 16.0062 60.2819 15.6851C59.917 15.3639 59.4499 15.2034 58.8806 15.2034C58.5157 15.2034 58.1216 15.2691 57.6983 15.4004C57.2896 15.5172 56.9977 15.7069 56.8225 15.9697C56.7349 16.0865 56.6474 16.3127 56.5598 16.6484C56.4722 16.9695 56.4284 17.2177 56.4284 17.3928C56.4284 17.641 56.5306 17.8964 56.7349 18.1592C56.9539 18.4073 57.2312 18.6189 57.5669 18.7941C57.9173 18.9547 58.2603 19.0349 58.596 19.0349ZM59.9754 23.7861C59.1726 23.7131 58.6033 23.6401 58.2676 23.5672C57.9464 23.5088 57.6837 23.4358 57.4794 23.3482C56.7349 23.7423 56.3627 24.1729 56.3627 24.64C56.3627 25.0779 56.589 25.4063 57.0415 25.6253C57.494 25.8588 58.0121 25.9756 58.596 25.9756C58.8587 25.9756 59.2163 25.9464 59.6688 25.888C60.1213 25.8296 60.5008 25.7274 60.8074 25.5815C61.0117 25.4793 61.165 25.3771 61.2671 25.2749C61.3693 25.1874 61.4204 25.0195 61.4204 24.7714C61.4204 24.4648 61.2598 24.2313 60.9387 24.0707C60.6176 23.9102 60.2965 23.8153 59.9754 23.7861Z" fill="#097314"/>
<path d="M74.7038 22.8446C73.6091 22.8446 72.872 22.4213 72.4925 21.5747C72.3027 21.1514 72.1786 20.6041 72.1203 19.9326C72.0619 19.2466 72.0327 18.4438 72.0327 17.5242V16.8455C72.0327 15.7945 71.6824 15.2691 70.9817 15.2691C70.573 15.2691 70.1643 15.4807 69.7556 15.904C69.3469 16.3127 69.0039 16.8601 68.7266 17.5461C68.4638 18.2175 68.3325 18.9182 68.3325 19.648C68.3325 20.1297 68.3544 20.5676 68.3982 20.9617C68.4274 21.458 68.4419 21.8375 68.4419 22.1002C68.4419 22.5965 68.0989 22.8446 67.4129 22.8446C67.0772 22.8446 66.778 22.7716 66.5152 22.6257C66.2671 22.4797 66.143 22.29 66.143 22.0564C66.2014 21.312 66.2306 20.3924 66.2306 19.2977L66.2087 16.4076C66.2087 15.9405 66.1722 14.2108 66.0992 11.2185L66.0335 9.20421C66.0335 8.88309 66.1795 8.60575 66.4714 8.37221C66.7634 8.12407 67.0918 8 67.4567 8C67.7778 8 68.0114 8.07298 68.1573 8.21895C68.3033 8.36491 68.3763 8.59116 68.3763 8.89768C68.3763 9.27719 68.369 9.72239 68.3544 10.2333C68.3398 10.7295 68.3252 11.1091 68.3106 11.3718C68.2668 12.1162 68.2449 12.8606 68.2449 13.6051C68.2449 14.3349 68.2303 14.9114 68.2011 15.3347C68.639 14.6925 69.1353 14.2181 69.6899 13.9116C70.2592 13.5905 70.9234 13.4299 71.6824 13.4299C72.237 13.4299 72.7479 13.678 73.215 14.1743C73.6967 14.656 73.9886 15.2107 74.0908 15.8383C74.12 16.1594 74.1346 16.6338 74.1346 17.2615L74.1127 18.8598C74.1127 19.1079 74.1273 19.4947 74.1565 20.0202C74.1711 20.2684 74.2514 20.5311 74.3973 20.8084C74.5579 21.0858 74.7403 21.2901 74.9447 21.4215C75.1344 21.5382 75.2585 21.655 75.3169 21.7718C75.3753 21.8886 75.4045 22.0199 75.4045 22.1659C75.4045 22.3119 75.3388 22.4651 75.2074 22.6257C75.0761 22.7716 74.9082 22.8446 74.7038 22.8446Z" fill="#097314"/>
<path d="M92.9717 11.0215C93.1907 11.2842 93.344 11.4959 93.4315 11.6564C93.5191 11.817 93.5629 11.9702 93.5629 12.1162C93.5629 12.2914 93.4461 12.4957 93.2126 12.7293C92.9936 12.9628 92.7747 13.0796 92.5557 13.0796C92.2638 13.0796 92.0303 13.0358 91.8551 12.9482C91.68 12.8606 91.534 12.722 91.4172 12.5322C91.1399 12.0943 90.8188 11.7075 90.4539 11.3718C90.0889 11.0215 89.6 10.8463 88.9869 10.8463C88.3885 10.8463 87.717 10.985 86.9726 11.2623C86.2282 11.5396 85.6808 11.8827 85.3305 12.2914C84.5423 13.2547 84.1482 14.5319 84.1482 16.1229C84.1482 17.3928 84.5423 18.4803 85.3305 19.3853C86.1625 20.3194 87.2134 20.7865 88.4833 20.7865C89.0672 20.7865 89.7021 20.6844 90.3882 20.48C91.0888 20.2611 91.6435 19.9107 92.0522 19.4291H92.0303C92.293 19.1517 92.6214 19.0131 93.0155 19.0131C93.2491 19.0131 93.468 19.1152 93.6724 19.3196C93.8913 19.5239 94.0008 19.7283 94.0008 19.9326C94.0008 20.1516 93.9643 20.3486 93.8913 20.5238C93.8329 20.6844 93.7162 20.8668 93.541 21.0712C92.9426 21.728 92.1762 22.1878 91.2421 22.4505C90.3225 22.6987 89.2715 22.8227 88.0892 22.8227C87.1113 22.8227 86.1698 22.5892 85.2648 22.1221C84.3744 21.655 83.6373 21.0639 83.0534 20.3486C82.7615 19.9253 82.4769 19.3196 82.1995 18.5314C81.9368 17.7286 81.8054 17.079 81.8054 16.5827C81.8054 15.3128 81.9952 14.1086 82.3747 12.9701C82.7688 11.817 83.3527 10.8974 84.1263 10.2114C84.6371 9.74428 85.3743 9.39396 86.3376 9.16042C87.301 8.92688 88.1841 8.81011 88.9869 8.81011C89.6292 8.81011 90.1765 8.90498 90.629 9.09474C91.0961 9.26989 91.4975 9.51074 91.8332 9.81726C92.1689 10.1092 92.5485 10.5106 92.9717 11.0215Z" fill="#097314"/>
<path d="M104.567 15.7507C104.684 15.9551 104.778 16.2543 104.851 16.6484C104.924 17.0279 104.961 17.3709 104.961 17.6775C104.961 18.0716 104.917 18.5095 104.829 18.9912C104.742 19.4728 104.662 19.8451 104.589 20.1078C103.581 21.9469 102.093 22.8665 100.122 22.8665C99.3923 22.8665 98.6478 22.6257 97.8888 22.144C97.1298 21.6623 96.6043 21.1076 96.3124 20.48C95.9183 19.2393 95.7212 18.4438 95.7212 18.0935C95.7212 17.5096 95.8453 16.8893 96.0935 16.2324C96.3562 15.5756 96.6846 15.0063 97.0787 14.5246C97.3415 14.1889 97.7939 13.9043 98.4362 13.6707C99.0784 13.4226 99.6623 13.2985 100.188 13.2985C101.21 13.2985 102.071 13.4956 102.771 13.8897C103.487 14.2692 104.085 14.8895 104.567 15.7507ZM102.662 19.2758C102.735 19.1298 102.771 18.6408 102.771 17.8088C102.771 17.3855 102.691 16.9695 102.531 16.5608C102.385 16.1521 102.166 15.8018 101.874 15.5099C101.844 15.4807 101.764 15.4369 101.633 15.3785C101.501 15.3055 101.319 15.2399 101.085 15.1815C100.867 15.1085 100.611 15.072 100.319 15.072C99.5017 15.072 98.9033 15.4004 98.5238 16.0573C98.1443 16.7141 97.9545 17.4585 97.9545 18.2905C97.9545 18.4219 97.9983 18.6919 98.0859 19.1006C98.1735 19.5093 98.2391 19.7721 98.2829 19.8888C98.3997 20.0932 98.6332 20.334 98.9836 20.6114C99.3485 20.8741 99.7426 21.0055 100.166 21.0055C100.823 21.0055 101.341 20.8522 101.72 20.5457C102.115 20.2246 102.428 19.8013 102.662 19.2758Z" fill="#097314"/>
<path d="M106.818 15.4004C106.701 15.4004 106.599 15.3566 106.511 15.2691C106.424 15.1669 106.38 15.0501 106.38 14.9187C106.38 14.4954 106.519 14.1743 106.796 13.9554C107.073 13.7218 107.416 13.6051 107.825 13.6051C108.394 13.6051 108.883 13.7583 109.292 14.0648C109.715 14.3568 109.927 14.7801 109.927 15.3347C109.927 15.4807 109.898 16.0354 109.839 16.9987C109.781 18.1081 109.752 18.8452 109.752 19.2101C109.752 19.721 109.847 20.137 110.036 20.4581C110.241 20.7646 110.554 20.9179 110.978 20.9179C111.795 20.9179 112.423 20.4654 112.861 19.5604C113.313 18.6408 113.612 17.5169 113.758 16.1886C113.817 15.6048 113.904 14.9917 114.021 14.3495C114.08 13.9992 114.16 13.7437 114.262 13.5832C114.364 13.4226 114.561 13.3423 114.853 13.3423C115.043 13.3423 115.262 13.3861 115.51 13.4737C115.773 13.5613 115.941 13.678 116.014 13.824C116.101 14.0429 116.145 14.2838 116.145 14.5465C116.145 14.9114 116.094 15.3858 115.992 15.9697C115.875 16.5535 115.795 17.1885 115.751 17.8745C115.722 18.4876 115.817 19.1298 116.035 19.8013C116.254 20.4727 116.568 20.9106 116.977 21.1149C117.444 21.3485 117.678 21.5601 117.678 21.7499C117.678 22.0564 117.568 22.2973 117.349 22.4724C117.13 22.6476 116.919 22.7352 116.714 22.7352C116.174 22.7352 115.685 22.5381 115.247 22.144C114.824 21.7499 114.517 21.2609 114.328 20.6771C114.021 21.1441 113.722 21.5309 113.43 21.8375C113.153 22.1294 112.795 22.3775 112.357 22.5819C111.919 22.7716 111.379 22.8665 110.737 22.8665C109.978 22.8665 109.285 22.5965 108.657 22.0564C108.044 21.5163 107.737 20.5895 107.737 19.2758C107.737 18.9109 107.745 18.5241 107.759 18.1154C107.788 17.7067 107.803 17.4147 107.803 17.2396C107.847 16.7141 107.869 16.2324 107.869 15.7945C107.869 15.6632 107.818 15.5537 107.715 15.4661C107.628 15.3785 107.526 15.3347 107.409 15.3347C107.321 15.3347 107.219 15.3493 107.102 15.3785C107 15.3931 106.905 15.4004 106.818 15.4004Z" fill="#097314"/>
<path d="M129.209 21.0931C129.282 21.1222 129.398 21.1587 129.559 21.2025C129.72 21.2463 129.836 21.2901 129.909 21.3339C129.982 21.3777 130.019 21.4434 130.019 21.5309C130.033 21.8813 129.902 22.1732 129.625 22.4067C129.362 22.6257 129.048 22.7352 128.683 22.7352C128.114 22.7352 127.669 22.5819 127.348 22.2754C127.027 21.9688 126.793 21.5018 126.647 20.8741C126.589 20.626 126.559 20.2829 126.559 19.8451C126.559 19.5969 126.574 19.1955 126.603 18.6408C126.632 18.057 126.647 17.5899 126.647 17.2396C126.647 16.6119 126.581 16.1375 126.45 15.8164C126.319 15.4807 126.005 15.3128 125.509 15.3128C124.998 15.3128 124.538 15.5172 124.129 15.9259C123.735 16.3346 123.399 16.9476 123.122 17.7651C122.742 18.9036 122.531 20.4143 122.487 22.2973C122.487 22.3994 122.378 22.5235 122.159 22.6695C121.954 22.8008 121.706 22.8665 121.414 22.8665C120.874 22.8665 120.538 22.5819 120.407 22.0126L120.385 21.6404C120.385 21.5091 120.4 21.3558 120.429 21.1806C120.604 20.1589 120.692 19.2685 120.692 18.5095C120.692 18.1738 120.684 17.911 120.67 17.7213L120.648 16.6922C120.648 16.3419 120.56 16.0062 120.385 15.6851C120.21 15.3493 120.006 15.1815 119.772 15.1815C119.699 15.1815 119.597 15.2107 119.466 15.2691C119.334 15.3128 119.225 15.3347 119.137 15.3347C118.991 15.3347 118.831 15.2618 118.655 15.1158C118.495 14.9698 118.415 14.8166 118.415 14.656C118.415 14.3495 118.517 14.1013 118.721 13.9116C118.94 13.7364 119.152 13.5978 119.356 13.4956C119.575 13.3934 119.823 13.3423 120.101 13.3423C120.334 13.3423 120.524 13.3642 120.67 13.408C120.816 13.4518 121.013 13.5467 121.261 13.6926C121.407 13.7656 121.575 13.97 121.765 14.3057C121.954 14.6414 122.1 15.1158 122.202 15.7288C122.494 15.1888 122.983 14.6195 123.669 14.0211C124.18 13.554 124.917 13.3204 125.881 13.3204C126.757 13.3204 127.45 13.6415 127.961 14.2838C128.472 14.9114 128.727 15.7799 128.727 16.8893C128.727 17.1082 128.712 17.4658 128.683 17.9621C128.639 18.3562 128.618 18.7722 128.618 19.2101C128.618 20.2319 128.815 20.8595 129.209 21.0931Z" fill="#097314"/>
<path d="M131.647 15.2034C131.443 15.1742 131.275 15.0866 131.144 14.9406C131.027 14.7947 130.969 14.6195 130.969 14.4152C130.969 14.313 130.991 14.2035 131.034 14.0867C131.093 13.97 131.173 13.8678 131.275 13.7802C131.465 13.5905 131.976 13.4956 132.808 13.4956C132.925 12.9263 132.983 12.3498 132.983 11.7659C132.983 11.5469 132.976 11.3572 132.961 11.1966C132.947 11.0361 132.939 10.912 132.939 10.8244C132.939 10.5033 133.056 10.2625 133.29 10.1019C133.538 9.94133 133.815 9.86105 134.122 9.86105C134.501 9.86105 134.756 9.95593 134.888 10.1457C135.034 10.3354 135.107 10.6858 135.107 11.1966C135.107 11.9556 135.041 12.7001 134.91 13.4299C135.143 13.4299 135.464 13.4153 135.873 13.3861C136.428 13.3569 136.829 13.3423 137.077 13.3423C137.325 13.3423 137.537 13.408 137.712 13.5394C137.902 13.6561 137.997 13.824 137.997 14.0429C137.997 14.6122 137.741 14.9479 137.231 15.0501C136.691 15.1815 135.851 15.2618 134.713 15.2909C134.669 15.8602 134.647 16.4806 134.647 17.152C134.647 18.2029 134.713 19.0641 134.844 19.7356C134.932 20.2027 135.078 20.5457 135.282 20.7646C135.501 20.969 135.822 21.0712 136.245 21.0712C136.493 21.0712 136.749 21.0055 137.012 20.8741C137.187 20.7719 137.347 20.7208 137.493 20.7208C137.698 20.7208 137.844 20.7865 137.931 20.9179C138.033 21.0493 138.084 21.2244 138.084 21.4434C138.084 21.8521 137.866 22.1951 137.428 22.4724C136.99 22.7352 136.428 22.8665 135.742 22.8665C135.318 22.8665 134.888 22.7643 134.45 22.56C134.027 22.3556 133.669 22.1002 133.377 21.7937C133.333 21.7499 133.253 21.582 133.136 21.2901C133.02 20.9982 132.917 20.6844 132.83 20.3486C132.684 19.6626 132.611 18.6992 132.611 17.4585C132.611 16.9185 132.64 16.1959 132.698 15.2909L131.647 15.2034Z" fill="#097314"/>
<path d="M139.967 15.0939C139.587 14.8312 139.398 14.5538 139.398 14.2619C139.398 14.0575 139.485 13.8678 139.66 13.6926C139.836 13.5175 140.098 13.4299 140.449 13.4299C140.857 13.4299 141.222 13.5394 141.543 13.7583C141.879 13.9627 142.113 14.2619 142.244 14.656C142.58 14.2619 142.959 13.9481 143.382 13.7145C143.82 13.481 144.266 13.3642 144.718 13.3642C145.258 13.3642 145.747 13.5102 146.185 13.8021C146.623 14.094 146.842 14.4881 146.842 14.9844C146.842 15.2618 146.718 15.5464 146.47 15.8383C146.236 16.1302 145.995 16.2762 145.747 16.2762C145.616 16.2762 145.499 16.247 145.397 16.1886C145.309 16.1156 145.2 16.0135 145.068 15.8821C144.922 15.7361 144.798 15.634 144.696 15.5756C144.594 15.5026 144.477 15.4661 144.346 15.4661C144.112 15.4661 143.893 15.5026 143.689 15.5756C143.485 15.6486 143.346 15.7361 143.273 15.8383C143.039 16.2032 142.864 16.5316 142.748 16.8236C142.645 17.1155 142.594 17.4293 142.594 17.7651C142.594 18.0132 142.587 18.2102 142.572 18.3562L142.55 19.6042C142.55 19.794 142.558 20.0056 142.572 20.2392C142.587 20.4727 142.602 20.6479 142.616 20.7646C142.66 21.1587 142.682 21.5382 142.682 21.9032C142.682 22.1513 142.587 22.3702 142.397 22.56C142.207 22.7498 141.974 22.8446 141.697 22.8446C141.259 22.8446 140.938 22.7643 140.733 22.6038C140.529 22.4286 140.427 22.1148 140.427 21.6623L140.405 20.2611C140.39 19.9837 140.383 19.5896 140.383 19.0787L140.405 17.6337C140.434 16.9331 140.449 16.3638 140.449 15.9259C140.449 15.7653 140.412 15.6194 140.339 15.488C140.281 15.3566 140.157 15.2253 139.967 15.0939Z" fill="#097314"/>
<path d="M150.607 27.2455C150.067 27.2455 149.607 27.1506 149.227 26.9608C148.848 26.7857 148.563 26.5667 148.373 26.304C148.198 26.0559 148.111 25.8369 148.111 25.6472C148.111 25.3844 148.206 25.1509 148.395 24.9465C148.585 24.7568 148.797 24.6619 149.03 24.6619C149.162 24.6619 149.286 24.7057 149.403 24.7933C149.534 24.8808 149.614 24.9319 149.643 24.9465C149.716 25.0049 149.811 25.0925 149.928 25.2093C150.045 25.3406 150.162 25.4063 150.278 25.4063C150.614 25.4063 150.884 25.1947 151.088 24.7714C151.293 24.3481 151.49 23.662 151.68 22.7133C150.716 21.1222 149.804 19.502 148.943 17.8526C148.082 16.2032 147.651 15.0866 147.651 14.5027C147.651 14.1378 147.782 13.8678 148.045 13.6926C148.308 13.5175 148.607 13.4299 148.943 13.4299C149.191 13.4299 149.388 13.481 149.534 13.5832C149.68 13.6707 149.797 13.8386 149.884 14.0867C150.293 15.3274 150.709 16.4368 151.132 17.4147C151.556 18.3781 152.044 19.3488 152.599 20.3267C152.862 19.7429 153.176 18.7868 153.541 17.4585C153.76 16.6849 153.949 16.0573 154.11 15.5756C154.27 15.0793 154.453 14.6268 154.657 14.2181C154.789 13.9554 154.949 13.7437 155.139 13.5832C155.343 13.4226 155.562 13.3423 155.796 13.3423C156.059 13.3423 156.329 13.4372 156.606 13.6269C156.898 13.8021 157.044 14.0138 157.044 14.2619C157.044 14.3349 156.993 14.51 156.891 14.7874C156.321 16.0573 155.818 17.2834 155.38 18.4657C154.942 19.6334 154.533 20.9179 154.154 22.3192C153.92 23.0636 153.672 23.7861 153.409 24.4867C153.147 25.202 152.964 25.6472 152.862 25.8223C152.555 26.231 152.227 26.5667 151.877 26.8295C151.526 27.1068 151.103 27.2455 150.607 27.2455Z" fill="#097314"/>
<path d="M174.5 10.6274C174.719 10.8901 174.872 11.1018 174.96 11.2623C175.047 11.4229 175.091 11.5761 175.091 11.7221C175.091 11.8973 174.974 12.1016 174.741 12.3352C174.522 12.5687 174.303 12.6855 174.084 12.6855C173.792 12.6855 173.558 12.6417 173.383 12.5541C173.208 12.4665 173.062 12.3279 172.945 12.1381C172.712 11.7878 172.427 11.4886 172.091 11.2404C171.756 10.9777 171.23 10.8463 170.515 10.8463C169.902 10.8463 169.201 10.985 168.413 11.2623C167.639 11.5396 167.085 11.8827 166.749 12.2914C166.457 12.6563 166.202 13.2109 165.983 13.9554C165.778 14.6998 165.676 15.4223 165.676 16.1229C165.676 16.9695 165.859 17.7505 166.223 18.4657C166.603 19.1663 167.143 19.7283 167.844 20.1516C168.559 20.5749 169.413 20.7865 170.405 20.7865C170.945 20.7865 171.5 20.6844 172.069 20.48C172.653 20.2611 173.157 19.9107 173.58 19.4291H173.558C173.821 19.1517 174.149 19.0131 174.544 19.0131C174.777 19.0131 174.996 19.1152 175.2 19.3196C175.419 19.5239 175.529 19.7283 175.529 19.9326C175.529 20.1516 175.492 20.3486 175.419 20.5238C175.361 20.6844 175.244 20.8668 175.069 21.0712C174.471 21.7426 173.763 22.2024 172.945 22.4505C172.128 22.6987 171.15 22.8227 170.011 22.8227C169.004 22.8227 167.982 22.5819 166.946 22.1002C165.924 21.6185 165.136 21.0347 164.581 20.3486C164.289 19.9253 164.005 19.3196 163.727 18.5314C163.465 17.7286 163.333 17.079 163.333 16.5827C163.333 15.3128 163.523 14.1086 163.903 12.9701C164.297 11.817 164.881 10.8974 165.654 10.2114C166.165 9.74428 166.902 9.39396 167.866 9.16042C168.829 8.92688 169.712 8.81011 170.515 8.81011C171.493 8.81011 172.259 8.94877 172.814 9.22611C173.383 9.48884 173.945 9.95593 174.5 10.6274Z" fill="#097314"/>
<path d="M179.92 19.3853C179.92 19.9399 180.001 20.3705 180.161 20.6771C180.336 20.969 180.555 21.1149 180.818 21.1149C180.964 21.1149 181.103 21.1076 181.234 21.0931C181.365 21.0639 181.497 21.0493 181.628 21.0493C181.774 21.0493 181.898 21.1222 182 21.2682C182.117 21.4142 182.176 21.5747 182.176 21.7499C182.176 22.1002 182.008 22.3775 181.672 22.5819C181.351 22.7716 180.913 22.8665 180.358 22.8665C179.964 22.8665 179.563 22.7498 179.154 22.5162C178.76 22.2681 178.432 21.8886 178.169 21.3777C177.906 20.8522 177.775 20.2027 177.775 19.4291C177.775 17.7651 177.804 16.3565 177.862 15.2034C177.935 13.8313 177.972 12.1016 177.972 10.0143C177.972 9.35747 178.008 8.89768 178.081 8.63495C178.169 8.4306 178.307 8.27733 178.497 8.17516C178.702 8.05839 178.913 8 179.132 8C179.351 8 179.541 8.03649 179.701 8.10947C179.877 8.18246 179.993 8.29923 180.052 8.45979C180.11 8.63495 180.147 8.8101 180.161 8.98526C180.19 9.14582 180.205 9.37937 180.205 9.68589C180.205 10.2843 180.183 10.8609 180.139 11.4156C180.11 12.087 180.096 12.576 180.096 12.8825C179.979 15.4515 179.92 17.6191 179.92 19.3853Z" fill="#097314"/>
<path d="M183.253 15.4004C183.136 15.4004 183.027 15.3566 182.924 15.2691C182.837 15.1669 182.793 15.0501 182.793 14.9187C182.793 14.583 182.939 14.2692 183.231 13.9773C183.318 13.9335 183.494 13.8605 183.756 13.7583C184.019 13.6561 184.253 13.6051 184.457 13.6051C185.012 13.6051 185.464 13.7583 185.814 14.0648C186.165 14.3568 186.34 14.7801 186.34 15.3347C186.34 15.4953 186.311 15.8383 186.252 16.3638C186.194 16.9768 186.165 17.4512 186.165 17.7869C186.165 18.8087 186.303 19.6334 186.581 20.2611C186.683 20.4654 186.844 20.626 187.062 20.7427C187.281 20.8595 187.479 20.9179 187.654 20.9179C188.077 20.9179 188.42 20.8449 188.683 20.6989C188.945 20.553 189.23 20.3194 189.537 19.9983C189.843 19.6772 190.04 19.3123 190.128 18.9036C190.23 18.4949 190.303 17.9329 190.347 17.2177C190.376 16.7506 190.405 16.4076 190.434 16.1886C190.507 15.488 190.544 14.8895 190.544 14.3933C190.544 14.0721 190.631 13.8094 190.806 13.6051C190.982 13.3861 191.222 13.2766 191.529 13.2766C191.704 13.2766 191.901 13.335 192.12 13.4518C192.354 13.554 192.507 13.678 192.58 13.824C192.668 13.97 192.711 14.2108 192.711 14.5465C192.711 14.7217 192.689 14.8895 192.646 15.0501C192.543 15.415 192.492 15.8529 192.492 16.3638L192.514 17.5023C192.514 18.5387 192.587 19.305 192.733 19.8013C192.806 20.0348 192.908 20.2756 193.04 20.5238C193.171 20.7573 193.295 20.9544 193.412 21.1149C193.704 21.4361 193.894 21.6623 193.981 21.7937C194.069 21.9105 194.113 22.0272 194.113 22.144C194.113 22.3192 194.025 22.487 193.85 22.6476C193.689 22.7935 193.514 22.8665 193.324 22.8665C192.784 22.8665 192.317 22.6841 191.923 22.3192C191.529 21.9542 191.237 21.4799 191.047 20.896C190.551 21.4653 190.091 21.9251 189.668 22.2754C189.376 22.4797 189.018 22.633 188.595 22.7352C188.172 22.8227 187.749 22.8665 187.325 22.8665C186.756 22.8665 186.179 22.633 185.596 22.1659C185.012 21.6988 184.618 21.1587 184.413 20.5457C184.399 20.5165 184.355 20.3997 184.282 20.1954C184.223 19.991 184.194 19.6845 184.194 19.2758C184.194 18.7357 184.223 18.057 184.282 17.2396C184.326 16.7141 184.348 16.2324 184.348 15.7945C184.348 15.6632 184.296 15.5537 184.194 15.4661C184.107 15.3785 184.005 15.3347 183.888 15.3347C183.8 15.3347 183.698 15.3493 183.581 15.3785C183.479 15.3931 183.37 15.4004 183.253 15.4004Z" fill="#097314"/>
<path d="M196.296 18.8379C196.296 18.0205 196.304 17.4001 196.318 16.9768L196.34 14.8968C196.34 14.0502 196.318 13.1234 196.274 12.1162C196.26 11.8097 196.209 11.3864 196.121 10.8463C196.004 10.0289 195.946 9.41586 195.946 9.00716C195.946 8.33572 196.282 8 196.953 8C197.376 8 197.676 8.11677 197.851 8.35032C198.041 8.56926 198.172 8.91958 198.245 9.40126C198.391 10.4084 198.464 11.5907 198.464 12.9482C198.464 13.3569 198.449 13.97 198.42 14.7874C198.697 14.3495 199.055 14.0065 199.493 13.7583C199.945 13.5102 200.391 13.3861 200.828 13.3861C202.098 13.3861 203.193 13.9116 204.113 14.9625C204.361 15.3274 204.58 15.7653 204.77 16.2762C204.974 16.7725 205.076 17.2031 205.076 17.568C205.076 18.2102 205.003 18.8014 204.857 19.3415C204.726 19.8815 204.485 20.407 204.135 20.9179C203.784 21.4288 203.339 21.8448 202.799 22.1659C202.274 22.487 201.66 22.6476 200.96 22.6476C200.347 22.6476 199.792 22.5235 199.296 22.2754C198.814 22.0272 198.427 21.6988 198.135 21.2901C198.062 21.655 197.902 22.0199 197.654 22.3848C197.406 22.7352 197.121 22.9103 196.8 22.9103C196.537 22.9103 196.318 22.8446 196.143 22.7133C195.968 22.5673 195.88 22.3556 195.88 22.0783C195.88 21.874 195.924 21.6185 196.012 21.312C196.099 20.8887 196.165 20.5019 196.209 20.1516C196.267 19.7867 196.296 19.3488 196.296 18.8379ZM200.412 20.8303C201.128 20.8303 201.726 20.5822 202.208 20.0859C202.69 19.575 202.93 18.889 202.93 18.0278C202.93 17.2396 202.719 16.5608 202.295 15.9916C202.149 15.8018 201.938 15.6486 201.66 15.5318C201.398 15.415 201.135 15.3566 200.872 15.3566C200.259 15.3566 199.741 15.5391 199.318 15.904C198.894 16.2543 198.654 16.7433 198.595 17.3709C198.537 18.2175 198.508 18.9474 198.508 19.5604C198.683 19.8961 198.946 20.1954 199.296 20.4581C199.661 20.7062 200.033 20.8303 200.412 20.8303Z" fill="#097314"/>
<path d="M12.6 6C12.6 6 6.99999 12.0948 6.99999 16C6.99999 19.9052 12.6 26 12.6 26" stroke="#097314" stroke-width="2.4" stroke-linecap="round"/>
<path d="M19.4 6C19.4 6 13.8 12.0948 13.8 16C13.8 19.9052 19.4 26 19.4 26" stroke="#097314" stroke-width="2.4" stroke-linecap="round"/>
<path d="M26.2 6C26.2 6 20.6 12.0948 20.6 16C20.6 19.9052 26.2 26 26.2 26" stroke="#097314" stroke-width="2.4" stroke-linecap="round"/>
<path d="M7 15.6H13.8" stroke="#097314" stroke-width="2.4"/>
</svg>
