<svg width="163" height="48" viewBox="0 0 163 48" fill="none" xmlns="http://www.w3.org/2000/svg">
<path d="M63.256 31.536C63.256 32.272 63.184 32.704 63.04 32.832C62.896 32.944 62.392 33 61.528 33H61V15.696L64.888 15.432C66.488 15.432 67.592 15.64 68.2 16.056C68.424 16.216 68.608 16.36 68.752 16.488C68.912 16.616 69.04 16.816 69.136 17.088C69.248 17.344 69.328 17.56 69.376 17.736C69.44 17.896 69.48 18.152 69.496 18.504C69.544 19.112 69.568 19.728 69.568 20.352C69.568 20.96 69.56 21.424 69.544 21.744C69.528 22.048 69.472 22.424 69.376 22.872C69.296 23.32 69.16 23.656 68.968 23.88C68.776 24.104 68.512 24.328 68.176 24.552C67.584 24.968 66.496 25.176 64.912 25.176H63.256V31.536ZM64.912 23.04C65.696 23.04 66.304 22.912 66.736 22.656C67.008 22.496 67.168 22.072 67.216 21.384C67.232 21.16 67.24 20.808 67.24 20.328C67.24 19.832 67.232 19.48 67.216 19.272C67.2 19.048 67.152 18.8 67.072 18.528C67.008 18.24 66.896 18.048 66.736 17.952C66.304 17.696 65.696 17.568 64.912 17.568H63.064L63.256 18.168V22.488L63.064 23.04H64.912Z" fill="url(#paint0_linear_6_102)"/>
<path d="M76.3791 23.088L76.4031 22.44C76.4031 22.216 76.3791 22.096 76.3311 22.08C76.2831 22.064 76.2271 22.032 76.1631 21.984C76.0991 21.92 76.0111 21.904 75.8991 21.936C75.8031 21.968 75.6831 21.976 75.5391 21.96L74.2431 22.128C73.9071 22.176 73.6191 22.2 73.3791 22.2C73.1391 22.2 72.9551 22.144 72.8271 22.032C72.6991 21.92 72.5711 21.408 72.4431 20.496L75.2271 19.944C76.3631 19.944 77.0751 20.032 77.3631 20.208C77.6511 20.368 77.8591 20.504 77.9871 20.616C78.1151 20.728 78.2031 20.952 78.2511 21.288C78.3311 21.704 78.3711 22.36 78.3711 23.256V33C77.4431 33 76.8591 32.952 76.6191 32.856C76.3791 32.76 76.2511 32.528 76.2351 32.16L74.2431 33.168C73.7951 33.168 73.4591 33.16 73.2351 33.144C73.0271 33.144 72.8111 33.08 72.5871 32.952C72.3791 32.824 72.2351 32.696 72.1551 32.568C72.0911 32.44 72.0271 32.168 71.9631 31.752C71.8831 31.256 71.8431 30.24 71.8431 28.704V27.048C71.8431 25.24 73.4191 24.304 76.5711 24.24L76.3791 23.664V23.088ZM74.0991 31.128C74.1151 31.128 74.9231 30.824 76.5231 30.216L76.2831 29.52V26.664L76.4751 26.112C75.8191 26.128 75.2431 26.192 74.7471 26.304C74.2511 26.416 74.0031 26.568 74.0031 26.76L73.9791 29.928C73.9791 30.728 74.0191 31.128 74.0991 31.128Z" fill="url(#paint1_linear_6_102)"/>
<path d="M82.6984 24.36C82.6824 24.776 82.6744 25.488 82.6744 26.496C82.6744 27.504 82.6824 28.224 82.6984 28.656C82.7144 29.072 82.7624 29.52 82.8424 30C82.9384 30.464 83.0824 30.768 83.2744 30.912C83.4824 31.056 83.7464 31.128 84.0664 31.128C84.4024 31.128 84.7064 31.104 84.9784 31.056C85.2664 30.992 85.5784 30.92 85.9144 30.84C86.2504 30.744 86.5304 30.68 86.7544 30.648V32.52C86.6104 32.552 86.2344 32.672 85.6264 32.88C85.0184 33.072 84.5144 33.168 84.1144 33.168C83.7304 33.168 83.3784 33.136 83.0584 33.072C82.7544 33.024 82.4744 32.968 82.2184 32.904C81.9784 32.824 81.7704 32.688 81.5944 32.496C81.4184 32.288 81.2664 32.112 81.1384 31.968C81.0264 31.824 80.9304 31.576 80.8504 31.224C80.7704 30.872 80.7064 30.584 80.6584 30.36C80.6264 30.136 80.5944 29.768 80.5624 29.256C80.5464 28.728 80.5384 28.312 80.5384 28.008V25.032C80.5384 23.944 80.5704 23.232 80.6344 22.896C80.6984 22.544 80.7704 22.192 80.8504 21.84C80.9304 21.488 81.0264 21.248 81.1384 21.12C81.2664 20.976 81.4184 20.808 81.5944 20.616C81.7704 20.424 81.9864 20.296 82.2424 20.232C82.8664 20.04 83.4984 19.944 84.1384 19.944L86.8504 20.52C86.7224 21.432 86.5944 21.944 86.4664 22.056C86.3384 22.168 86.1544 22.224 85.9144 22.224C85.6744 22.224 85.3864 22.2 85.0504 22.152L84.1384 21.984C83.7704 21.984 83.4824 22.048 83.2744 22.176C83.0824 22.304 82.9384 22.6 82.8424 23.064C82.7624 23.512 82.7144 23.944 82.6984 24.36Z" fill="url(#paint2_linear_6_102)"/>
<path d="M90.2341 18.888C89.8501 18.888 89.5141 18.744 89.2261 18.456C88.9381 18.152 88.7941 17.808 88.7941 17.424C88.7941 17.024 88.9381 16.688 89.2261 16.416C89.5141 16.144 89.8501 16.008 90.2341 16.008C90.6181 16.008 90.9541 16.144 91.2421 16.416C91.5301 16.688 91.6741 17.024 91.6741 17.424C91.6741 17.808 91.5301 18.152 91.2421 18.456C90.9541 18.744 90.6181 18.888 90.2341 18.888ZM89.1781 31.656V20.112C90.2501 20.112 90.8741 20.176 91.0501 20.304C91.2261 20.416 91.3141 20.832 91.3141 21.552V33.096C90.2421 33.096 89.6181 33.04 89.4421 32.928C89.2661 32.8 89.1781 32.376 89.1781 31.656Z" fill="url(#paint3_linear_6_102)"/>
<path d="M99.7253 20.112C100.797 20.112 101.421 20.176 101.597 20.304C101.773 20.416 101.861 20.832 101.861 21.552V33.096C100.789 33.096 100.165 33.04 99.9893 32.928C99.8133 32.8 99.7253 32.376 99.7253 31.656V22.128H96.4613L96.7013 22.824V35.808C96.6853 36.656 96.5893 37.144 96.4133 37.272C96.2533 37.416 95.6373 37.488 94.5653 37.488L94.5893 22.824L94.8053 22.128H93.4853V20.112H94.8053L94.5893 19.512V18.312C94.5893 18.072 94.6133 17.776 94.6613 17.424C94.7093 17.056 94.7573 16.824 94.8053 16.728C94.8533 16.616 94.9573 16.472 95.1173 16.296C95.2933 16.104 95.4613 15.992 95.6213 15.96C95.7813 15.928 96.0373 15.88 96.3893 15.816C96.7573 15.752 97.1173 15.72 97.4693 15.72H101.885V17.424H98.9093C97.8213 17.424 97.1813 17.512 96.9893 17.688C96.8133 17.864 96.7253 18.488 96.7253 19.56L96.4853 20.112H99.7253Z" fill="url(#paint4_linear_6_102)"/>
<path d="M106.37 24.36C106.354 24.776 106.346 25.488 106.346 26.496C106.346 27.504 106.354 28.224 106.37 28.656C106.386 29.072 106.434 29.52 106.514 30C106.61 30.464 106.754 30.768 106.946 30.912C107.154 31.056 107.418 31.128 107.738 31.128C108.074 31.128 108.378 31.104 108.65 31.056C108.938 30.992 109.25 30.92 109.586 30.84C109.922 30.744 110.202 30.68 110.426 30.648V32.52C110.282 32.552 109.906 32.672 109.298 32.88C108.69 33.072 108.186 33.168 107.786 33.168C107.402 33.168 107.05 33.136 106.73 33.072C106.426 33.024 106.146 32.968 105.89 32.904C105.65 32.824 105.442 32.688 105.266 32.496C105.09 32.288 104.938 32.112 104.81 31.968C104.698 31.824 104.602 31.576 104.522 31.224C104.442 30.872 104.378 30.584 104.33 30.36C104.298 30.136 104.266 29.768 104.234 29.256C104.218 28.728 104.21 28.312 104.21 28.008V25.032C104.21 23.944 104.242 23.232 104.306 22.896C104.37 22.544 104.442 22.192 104.522 21.84C104.602 21.488 104.698 21.248 104.81 21.12C104.938 20.976 105.09 20.808 105.266 20.616C105.442 20.424 105.658 20.296 105.914 20.232C106.538 20.04 107.17 19.944 107.81 19.944L110.522 20.52C110.394 21.432 110.266 21.944 110.138 22.056C110.01 22.168 109.826 22.224 109.586 22.224C109.346 22.224 109.058 22.2 108.722 22.152L107.81 21.984C107.442 21.984 107.154 22.048 106.946 22.176C106.754 22.304 106.61 22.6 106.514 23.064C106.434 23.512 106.386 23.944 106.37 24.36Z" fill="url(#paint5_linear_6_102)"/>
<path d="M123.948 17.76H121.02L121.236 18.36V31.536C121.236 32.272 121.156 32.704 120.996 32.832C120.852 32.944 120.348 33 119.484 33H118.908V18.36L119.076 17.76H116.196V15.72H123.948V17.76Z" fill="url(#paint6_linear_6_102)"/>
<path d="M127.915 33C126.843 33 126.211 32.944 126.019 32.832C125.843 32.704 125.755 32.28 125.755 31.56V20.112C126.811 20.112 127.427 20.144 127.603 20.208C127.779 20.272 127.867 20.488 127.867 20.856L129.403 19.944C129.867 19.944 130.291 19.992 130.675 20.088L131.059 20.112C131.059 21.024 130.995 21.568 130.867 21.744C130.739 21.904 130.331 21.984 129.643 21.984L127.675 22.656L127.915 23.328V33Z" fill="url(#paint7_linear_6_102)"/>
<path d="M134.297 18.888C133.913 18.888 133.577 18.744 133.289 18.456C133.001 18.152 132.857 17.808 132.857 17.424C132.857 17.024 133.001 16.688 133.289 16.416C133.577 16.144 133.913 16.008 134.297 16.008C134.681 16.008 135.017 16.144 135.305 16.416C135.593 16.688 135.737 17.024 135.737 17.424C135.737 17.808 135.593 18.152 135.305 18.456C135.017 18.744 134.681 18.888 134.297 18.888ZM133.241 31.656V20.112C134.313 20.112 134.937 20.176 135.113 20.304C135.289 20.416 135.377 20.832 135.377 21.552V33.096C134.305 33.096 133.681 33.04 133.505 32.928C133.329 32.8 133.241 32.376 133.241 31.656Z" fill="url(#paint8_linear_6_102)"/>
<path d="M145.564 33C144.492 33 143.868 32.944 143.692 32.832C143.516 32.704 143.428 32.28 143.428 31.56L143.404 25.68V24.744C143.404 24.376 143.404 24.096 143.404 23.904C143.42 23.712 143.42 23.496 143.404 23.256C143.388 23 143.356 22.816 143.308 22.704C143.276 22.576 143.228 22.448 143.164 22.32C143.052 22.096 142.812 21.984 142.444 21.984L140.308 22.608L140.524 23.304V33C139.452 33 138.828 32.944 138.652 32.832C138.476 32.704 138.388 32.28 138.388 31.56V20.112C139.268 20.112 139.828 20.136 140.068 20.184C140.308 20.232 140.452 20.376 140.5 20.616L142.3 19.944C143.004 19.944 143.54 20.008 143.908 20.136C144.276 20.248 144.604 20.472 144.892 20.808L147.1 19.944C148.044 19.944 148.676 20.016 148.996 20.16C149.332 20.288 149.572 20.4 149.716 20.496C149.876 20.592 150.012 20.792 150.124 21.096C150.252 21.4 150.34 21.672 150.388 21.912C150.452 22.152 150.5 22.552 150.532 23.112C150.58 23.944 150.604 25.112 150.604 26.616V33C149.516 33 148.884 32.944 148.708 32.832C148.532 32.704 148.444 32.28 148.444 31.56V26.592C148.444 24.384 148.42 23.152 148.372 22.896C148.292 22.432 148.068 22.152 147.7 22.056C147.572 22.024 147.412 22 147.22 21.984L145.348 22.536L145.564 23.208V33Z" fill="url(#paint9_linear_6_102)"/>
<path d="M49 24C49 19.2261 47.1036 14.6477 43.7279 11.2721C40.3523 7.89642 35.7739 6 31 6C26.2261 6 21.6477 7.89642 18.2721 11.2721C14.8964 14.6477 13 19.2261 13 24L31 24H49Z" fill="#FFA133"/>
<mask id="mask0_6_102" style="mask-type:alpha" maskUnits="userSpaceOnUse" x="13" y="24" width="36" height="18">
<path d="M49 24C49 28.7739 47.1036 33.3523 43.7279 36.7279C40.3523 40.1036 35.7739 42 31 42C26.2261 42 21.6477 40.1036 18.2721 36.7279C14.8964 33.3523 13 28.7739 13 24L31 24H49Z" fill="#D9D9D9"/>
</mask>
<g mask="url(#mask0_6_102)">
<rect x="10" y="25" width="43" height="1" fill="#5AA6FF"/>
<rect x="10" y="27" width="43" height="1" fill="#5AA6FF"/>
<rect x="10" y="29" width="43" height="1" fill="#5AA6FF"/>
<rect x="10" y="31" width="43" height="1" fill="#5AA6FF"/>
<rect x="10" y="33" width="43" height="1" fill="#5AA6FF"/>
<rect x="10" y="35" width="43" height="1" fill="#5AA6FF"/>
<rect x="10" y="37" width="43" height="1" fill="#5AA6FF"/>
<rect x="10" y="39" width="43" height="1" fill="#5AA6FF"/>
<rect x="10" y="41" width="43" height="1" fill="#5AA6FF"/>
</g>
<defs>
<linearGradient id="paint0_linear_6_102" x1="111.56" y1="20.5" x2="111.56" y2="38" gradientUnits="userSpaceOnUse">
<stop stop-color="#5AA6FF"/>
<stop offset="1" stop-color="#FFA133"/>
</linearGradient>
<linearGradient id="paint1_linear_6_102" x1="111.56" y1="20.5" x2="111.56" y2="38" gradientUnits="userSpaceOnUse">
<stop stop-color="#5AA6FF"/>
<stop offset="1" stop-color="#FFA133"/>
</linearGradient>
<linearGradient id="paint2_linear_6_102" x1="111.56" y1="20.5" x2="111.56" y2="38" gradientUnits="userSpaceOnUse">
<stop stop-color="#5AA6FF"/>
<stop offset="1" stop-color="#FFA133"/>
</linearGradient>
<linearGradient id="paint3_linear_6_102" x1="111.56" y1="20.5" x2="111.56" y2="38" gradientUnits="userSpaceOnUse">
<stop stop-color="#5AA6FF"/>
<stop offset="1" stop-color="#FFA133"/>
</linearGradient>
<linearGradient id="paint4_linear_6_102" x1="111.56" y1="20.5" x2="111.56" y2="38" gradientUnits="userSpaceOnUse">
<stop stop-color="#5AA6FF"/>
<stop offset="1" stop-color="#FFA133"/>
</linearGradient>
<linearGradient id="paint5_linear_6_102" x1="111.56" y1="20.5" x2="111.56" y2="38" gradientUnits="userSpaceOnUse">
<stop stop-color="#5AA6FF"/>
<stop offset="1" stop-color="#FFA133"/>
</linearGradient>
<linearGradient id="paint6_linear_6_102" x1="111.56" y1="20.5" x2="111.56" y2="38" gradientUnits="userSpaceOnUse">
<stop stop-color="#5AA6FF"/>
<stop offset="1" stop-color="#FFA133"/>
</linearGradient>
<linearGradient id="paint7_linear_6_102" x1="111.56" y1="20.5" x2="111.56" y2="38" gradientUnits="userSpaceOnUse">
<stop stop-color="#5AA6FF"/>
<stop offset="1" stop-color="#FFA133"/>
</linearGradient>
<linearGradient id="paint8_linear_6_102" x1="111.56" y1="20.5" x2="111.56" y2="38" gradientUnits="userSpaceOnUse">
<stop stop-color="#5AA6FF"/>
<stop offset="1" stop-color="#FFA133"/>
</linearGradient>
<linearGradient id="paint9_linear_6_102" x1="111.56" y1="20.5" x2="111.56" y2="38" gradientUnits="userSpaceOnUse">
<stop stop-color="#5AA6FF"/>
<stop offset="1" stop-color="#FFA133"/>
</linearGradient>
</defs>
</svg>
