<svg width="161" height="52" viewBox="0 0 161 52" fill="none" xmlns="http://www.w3.org/2000/svg">
<path d="M55.6147 18.0609C55.9492 18.0609 56.2372 18.3489 56.4787 18.9249C55.7355 20.9688 55.3638 22.8826 55.3638 24.6664V25.6141C55.3638 27.6951 55.8934 28.7357 56.9525 28.7357C58.3089 28.7357 59.238 26.3573 59.7397 21.6005C59.7397 19.3894 59.9348 18.2838 60.325 18.2838L60.7709 18.2281C61.1611 18.2281 61.3934 18.544 61.4677 19.1757V28.5685C61.4677 34.4215 60.4829 37.8497 58.5133 38.8531C58.1417 39.0575 57.5843 39.234 56.841 39.3826C55.2059 39.3826 53.3478 38.4257 51.2667 36.5119L51.1831 36.1774C51.1831 35.75 51.499 35.4806 52.1307 35.3691L54.3326 36.9299C55.1873 37.3945 55.8284 37.6267 56.2557 37.6267H57.0083C58.8664 37.6267 59.7954 34.756 59.7954 29.0144V28.6799H59.5446C58.8385 29.7762 57.9373 30.3244 56.841 30.3244C55.4846 30.3244 54.5277 29.4511 53.9703 27.7044C53.7845 27.0169 53.6916 26.3201 53.6916 25.6141V25.3632C53.9888 20.495 54.6299 18.0609 55.6147 18.0609Z" fill="#3C2B1F"/>
<path d="M65.5122 26.2272C66.2554 26.2458 67.5096 27.5465 69.2748 30.1293L69.3306 30.6031C69.3306 31.1234 68.0578 31.5228 65.5122 31.8016L65.4286 31.8852V31.9967C65.8188 33.669 66.2275 34.5051 66.6549 34.5051H66.9894C67.584 34.5051 68.4851 33.8641 69.6929 32.582H69.8601C70.2318 32.582 70.5198 32.8514 70.7242 33.3902C70.7242 33.8362 69.9438 34.6073 68.3829 35.7036C67.9742 35.9451 67.4818 36.1217 66.9057 36.2331C65.4007 36.2331 64.3508 34.821 63.7563 31.9967C62.9015 31.8666 62.4742 31.5136 62.4742 30.9375C62.4742 30.5288 62.79 30.2593 63.4218 30.1293V30.2408L63.7005 30.1293V29.4325C63.7005 27.2956 64.3044 26.2272 65.5122 26.2272ZM65.6794 28.234H65.4286L65.3171 29.2652V30.1293H65.4286C66.4691 30.0921 66.9894 29.9806 66.9894 29.7948C66.5063 29.0701 66.0696 28.5499 65.6794 28.234Z" fill="#3C2B1F"/>
<path d="M73.3839 20.8759C73.9042 21.0617 74.1643 21.3497 74.1643 21.7399L74.4431 32.359V35.7872C74.4431 36.419 74.1736 36.7348 73.6348 36.7348H73.2725C72.938 36.5119 72.7708 36.2517 72.7708 35.9544V32.7213L72.5199 21.6842C72.5199 21.2196 72.8079 20.9502 73.3839 20.8759Z" fill="#3C2B1F"/>
<path d="M78.0383 20.8759C78.5586 21.0617 78.8187 21.3497 78.8187 21.7399L79.0974 32.359V35.7872C79.0974 36.419 78.828 36.7348 78.2891 36.7348H77.9268C77.5923 36.5119 77.4251 36.2517 77.4251 35.9544V32.7213L77.1743 21.6842C77.1743 21.2196 77.4623 20.9502 78.0383 20.8759Z" fill="#3C2B1F"/>
<path d="M85.5634 25.7255C86.9384 25.7255 87.9789 26.7475 88.685 28.7914L88.7965 29.3767C88.7965 31.3649 87.8675 33.3995 86.0093 35.4806C85.2661 36.1681 84.5136 36.5119 83.7517 36.5119C82.6369 36.5119 81.8472 35.8708 81.3827 34.5887C81.2154 33.9941 81.1318 33.4739 81.1318 33.0279V32.6935C81.1318 29.7576 82.2002 27.5279 84.3371 26.0043C84.7087 25.8185 85.1175 25.7255 85.5634 25.7255ZM82.7762 32.9722C82.7762 34.2357 83.1014 34.8674 83.7517 34.8674C85.1082 34.8674 86.2323 33.1301 87.1242 29.6554V29.1259C86.8083 27.9739 86.223 27.3978 85.3683 27.3978C85.0338 27.3978 84.8666 27.6301 84.8666 28.0946C84.8666 28.4105 84.495 28.6614 83.7517 28.8472C83.1014 29.9435 82.7762 31.3185 82.7762 32.9722Z" fill="#3C2B1F"/>
<path d="M97.9192 27.4815C99.2013 28.3362 99.8424 29.6554 99.8424 31.4392C99.8424 33.8548 99.0341 35.4992 97.4176 36.3725L96.3584 36.5397C95.7267 36.5397 95.0578 36.2331 94.3517 35.62H94.1566C93.5806 36.3632 93.0417 36.7348 92.54 36.7348C91.2208 36.7348 90.4589 35.4899 90.2545 33V31.495C90.3846 29.1352 90.877 27.9553 91.7317 27.9553C92.1963 27.9553 92.4657 28.2433 92.54 28.8193C92.1127 29.5625 91.899 30.6031 91.899 31.9409V32.4705C91.9733 34.1428 92.1498 34.9789 92.4285 34.9789C92.7072 34.9789 92.9953 34.4958 93.2926 33.5296L93.2368 31.6065C93.2368 30.3244 93.5434 29.6833 94.1566 29.6833C94.8627 29.6833 95.2157 30.3801 95.2157 31.7737H95.3272L95.0485 33.5296C95.3643 34.4587 95.801 34.9232 96.3584 34.9232H96.5257C97.3432 34.9232 97.8728 34.0499 98.1143 32.3033V30.7424C98.1143 30.1478 97.7613 29.4139 97.0552 28.5406L96.9437 28.2897C96.9437 27.8995 97.2689 27.6301 97.9192 27.4815Z" fill="#3C2B1F"/>
<path d="M114.122 20.5693C114.884 19.696 115.702 19.2593 116.575 19.2593C117.448 19.2593 117.969 19.9283 118.136 21.2661V21.3497C118.136 22.0186 117.755 23.4772 116.993 25.7255L118.303 25.4468C119.901 25.4468 120.83 26.4688 121.09 28.5127V28.9308C121.09 31.3835 119.548 33.6225 116.463 35.6478C115.46 36.038 114.735 36.2331 114.289 36.2331C112.784 36.2331 111.744 35.3598 111.168 33.6132C111.205 33.4088 111.437 33.1208 111.865 32.7492C112.069 24.3505 112.246 20.1512 112.394 20.1512C112.71 19.8353 112.998 19.6774 113.258 19.6774C113.76 19.8632 114.011 20.1605 114.011 20.5693H114.122ZM113.844 28.234H113.955C115.479 25.3539 116.287 23.1242 116.38 21.5448V20.9038H116.101C115.711 20.9038 115.191 21.9536 114.54 24.0533C114.076 26.0414 113.844 27.435 113.844 28.234ZM114.903 29.962L114.485 30.1293L113.788 30.0735V30.1293L113.676 30.4916V33.3902L113.593 34.4215L114.206 34.5887C115.785 34.5887 117.346 33.3995 118.888 31.0212C119.316 29.962 119.529 29.0887 119.529 28.4012C119.529 27.5465 119.121 27.1191 118.303 27.1191H118.191C117.3 27.1191 116.203 28.0668 114.903 29.962Z" fill="#3C2B1F"/>
<path d="M126.663 25.7255C128.038 25.7255 129.079 26.7475 129.785 28.7914L129.896 29.3767C129.896 31.3649 128.967 33.3995 127.109 35.4806C126.366 36.1681 125.613 36.5119 124.852 36.5119C123.737 36.5119 122.947 35.8708 122.482 34.5887C122.315 33.9941 122.232 33.4739 122.232 33.0279V32.6935C122.232 29.7576 123.3 27.5279 125.437 26.0043C125.808 25.8185 126.217 25.7255 126.663 25.7255ZM123.876 32.9722C123.876 34.2357 124.201 34.8674 124.852 34.8674C126.208 34.8674 127.332 33.1301 128.224 29.6554V29.1259C127.908 27.9739 127.323 27.3978 126.468 27.3978C126.134 27.3978 125.966 27.6301 125.966 28.0946C125.966 28.4105 125.595 28.6614 124.852 28.8472C124.201 29.9435 123.876 31.3185 123.876 32.9722Z" fill="#3C2B1F"/>
<path d="M135.591 25.7255C136.966 25.7255 138.006 26.7475 138.712 28.7914L138.824 29.3767C138.824 31.3649 137.895 33.3995 136.037 35.4806C135.293 36.1681 134.541 36.5119 133.779 36.5119C132.664 36.5119 131.875 35.8708 131.41 34.5887C131.243 33.9941 131.159 33.4739 131.159 33.0279V32.6935C131.159 29.7576 132.228 27.5279 134.364 26.0043C134.736 25.8185 135.145 25.7255 135.591 25.7255ZM132.804 32.9722C132.804 34.2357 133.129 34.8674 133.779 34.8674C135.136 34.8674 136.26 33.1301 137.152 29.6554V29.1259C136.836 27.9739 136.25 27.3978 135.396 27.3978C135.061 27.3978 134.894 27.6301 134.894 28.0946C134.894 28.4105 134.522 28.6614 133.779 28.8472C133.129 29.9435 132.804 31.3185 132.804 32.9722Z" fill="#3C2B1F"/>
<path d="M141.48 21.4891H141.648C141.889 21.4891 142.121 21.6935 142.344 22.1022L142.233 23.9975V25.0566L142.344 29.9342L142.428 30.2129H142.512C143.311 29.4696 144.007 28.1597 144.602 26.283L145.215 26.0879C145.735 26.1622 145.996 26.3945 145.996 26.7847C145.996 27.9924 145.132 29.6183 143.404 31.6622V31.8573C145.689 34.5144 147.194 35.8429 147.919 35.8429H148.086L148.783 35.4249H149.034C149.424 35.4249 149.712 35.685 149.898 36.2053C149.898 36.7999 149.238 37.2087 147.919 37.4316C146.599 37.4316 144.881 36.0938 142.763 33.4181H142.512L142.595 34.9232V36.3725C142.484 36.9485 142.196 37.2365 141.731 37.2365C141.211 37.125 140.951 36.837 140.951 36.3725V36.2053L140.839 33C140.635 33 140.496 32.712 140.421 32.136L140.784 31.4392L140.616 25.1681V23.9418C140.616 22.3066 140.904 21.4891 141.48 21.4891Z" fill="#3C2B1F"/>
<g clip-path="url(#clip0_6_119)">
<mask id="mask0_6_119" style="mask-type:alpha" maskUnits="userSpaceOnUse" x="12" y="7" width="30" height="39">
<path d="M39.8442 9.75513H17.1405C17.1405 9.75513 14.4694 11.6132 14.4694 16.2585C14.4694 20.9038 17.1405 22.7619 17.1405 22.7619H39.8442C39.8442 22.7619 37.1732 20.9038 37.1732 16.2585C37.1732 11.6132 39.8442 9.75513 39.8442 9.75513ZM14.4694 30.1943H37.1732C37.1732 30.1943 39.8442 32.0524 39.8442 36.6977C39.8442 41.343 37.1732 43.2011 37.1732 43.2011H14.4694C14.4694 43.2011 17.1405 41.343 17.1405 36.6977C17.1405 32.0524 14.4694 30.1943 14.4694 30.1943Z" fill="white" stroke="white" stroke-width="3.71622" stroke-linecap="round" stroke-linejoin="round"/>
</mask>
<g mask="url(#mask0_6_119)">
<path d="M43.1831 4.18079H11.1307V48.7754H43.1831V4.18079Z" fill="#EFC01A"/>
</g>
</g>
<g clip-path="url(#clip1_6_119)">
<mask id="mask1_6_119" style="mask-type:alpha" maskUnits="userSpaceOnUse" x="12" y="-13" width="30" height="38">
<path d="M39.8442 -10.6841H17.1405C17.1405 -10.6841 14.4694 -8.82604 14.4694 -4.18077C14.4694 0.464505 17.1405 2.32261 17.1405 2.32261H39.8442C39.8442 2.32261 37.1732 0.464505 37.1732 -4.18077C37.1732 -8.82604 39.8442 -10.6841 39.8442 -10.6841ZM14.4694 9.75504H37.1732C37.1732 9.75504 39.8442 11.6132 39.8442 16.2584C39.8442 20.9037 37.1732 22.7618 37.1732 22.7618H14.4694C14.4694 22.7618 17.1405 20.9037 17.1405 16.2584C17.1405 11.6132 14.4694 9.75504 14.4694 9.75504Z" fill="white" stroke="white" stroke-width="3.71622" stroke-linecap="round" stroke-linejoin="round"/>
</mask>
<g mask="url(#mask1_6_119)">
<path d="M43.1831 -16.2585H11.1307V28.3361H43.1831V-16.2585Z" fill="#EFC01A"/>
</g>
</g>
<defs>
<clipPath id="clip0_6_119">
<rect width="32.0524" height="24.1554" fill="white" transform="matrix(-1 0 0 1 43.1831 24.62)"/>
</clipPath>
<clipPath id="clip1_6_119">
<rect width="32.0524" height="24.1554" fill="white" transform="matrix(-1 0 0 1 43.1831 4.18073)"/>
</clipPath>
</defs>
</svg>
