<svg width="169" height="64" viewBox="0 0 169 64" fill="none" xmlns="http://www.w3.org/2000/svg">
<rect x="16.443" y="5.02184" width="40.174" height="53.5654" rx="17.2971" stroke="black" stroke-width="1.11594"/>
<path d="M30.0458 15.7215C30.0696 15.7096 30.2303 15.7036 30.5279 15.7036C30.8017 15.7155 30.9743 15.7334 31.0457 15.7572C31.4028 15.8524 31.6349 16.031 31.742 16.2928C31.8254 16.4357 31.873 16.6142 31.8849 16.8285C31.8968 17.138 31.8134 17.5248 31.6349 17.9891C31.4087 18.6319 31.1528 19.1794 30.8671 19.6317C30.6291 20.0008 30.2541 20.2567 29.7423 20.3995C29.6113 20.4352 29.4863 20.4531 29.3673 20.4531C29.284 20.4531 29.2185 20.4352 29.1709 20.3995C29.0757 20.34 29.0281 20.2626 29.0281 20.1674C29.0281 20.1079 29.0935 19.9412 29.2245 19.6675C29.4506 19.227 29.6292 18.8461 29.7601 18.5247C29.8672 18.2033 29.9208 17.9474 29.9208 17.757C29.9208 17.5308 29.8851 17.376 29.8137 17.2927C29.778 17.2451 29.7184 17.2034 29.6351 17.1677C29.4804 17.1201 29.2542 17.1023 28.9566 17.1142C28.3019 17.1737 27.7603 17.3403 27.3318 17.6141C26.9628 17.876 26.6295 18.1914 26.3319 18.5604C25.6296 19.4413 25.1178 20.5483 24.7964 21.8815C24.3441 23.7146 24.4512 25.1549 25.1178 26.2024C25.2963 26.4881 25.5165 26.7202 25.7784 26.8988C26.1593 27.1964 26.6474 27.3452 27.2425 27.3452C27.314 27.3452 27.3794 27.3392 27.4389 27.3273C28.1889 27.244 28.8197 26.8274 29.3316 26.0774C29.4982 25.8394 29.6827 25.6489 29.8851 25.5061C30.2303 25.268 30.5755 25.149 30.9207 25.149C31.0516 25.149 31.1469 25.2025 31.2064 25.3097C31.254 25.3811 31.254 25.4882 31.2064 25.6311C31.1588 25.7263 31.01 25.9465 30.76 26.2917C29.891 27.363 28.7959 28.101 27.4747 28.5057C27.2128 28.5891 26.9509 28.6486 26.689 28.6843C26.2843 28.7557 25.9034 28.7676 25.5463 28.72C25.1892 28.6843 24.8261 28.5772 24.4571 28.3986C23.9334 28.1367 23.5227 27.7677 23.2251 27.2916C22.7728 26.5893 22.5585 25.6608 22.5824 24.5062C22.5943 23.8872 22.6895 23.2206 22.868 22.5064C23.368 20.5066 24.2548 18.9235 25.5284 17.757C26.3498 16.9594 27.308 16.3881 28.4031 16.0429C28.8793 15.8762 29.4268 15.7691 30.0458 15.7215Z" fill="black"/>
<path d="M41.1757 15.9536C41.2352 15.9179 41.3007 15.9 41.3721 15.9C41.4911 15.9238 41.5863 15.9893 41.6578 16.0964L41.6935 16.1679V28.0237L41.6578 28.0951C41.5863 28.2022 41.4911 28.2677 41.3721 28.2915C41.3007 28.2915 41.2352 28.2736 41.1757 28.2379C41.1042 28.2141 41.0566 28.1665 41.0328 28.0951L40.9793 28.0058V22.4529H33.0516L32.9623 22.3993C32.8909 22.3755 32.8433 22.3279 32.8195 22.2564C32.76 22.1493 32.76 22.0422 32.8195 21.9351C32.8433 21.8636 32.8909 21.816 32.9623 21.7922L33.0516 21.7386H40.9793V16.1857L41.0328 16.0964C41.0566 16.025 41.1042 15.9774 41.1757 15.9536Z" fill="black"/>
<path d="M47.038 14.5609C47.0737 14.5252 47.1154 14.5073 47.163 14.5073C47.2701 14.5073 47.3356 14.5668 47.3594 14.6859L47.413 14.9716C47.5796 15.7572 47.9129 16.4654 48.4129 17.0963C48.6152 17.382 48.8592 17.626 49.1449 17.8284C49.7163 18.2807 50.3293 18.5902 50.984 18.7568C51.1506 18.8045 51.2399 18.8342 51.2518 18.8461C51.2994 18.8937 51.3232 19.0009 51.3232 19.1675C51.3232 19.358 51.2756 19.471 51.1804 19.5068C51.1328 19.5187 51.0316 19.5068 50.8769 19.471C49.5318 19.102 48.4724 18.3581 47.6986 17.2392C47.6748 17.2154 47.657 17.1915 47.6451 17.1677L47.5201 16.9892V30.6662L47.6451 30.4877C48.1926 29.6544 48.9366 29.0116 49.877 28.5593C50.4959 28.2617 50.9304 28.1248 51.1804 28.1486C51.2756 28.1724 51.3232 28.2855 51.3232 28.4879C51.3232 28.6545 51.2994 28.7617 51.2518 28.8093C51.2399 28.8212 51.1506 28.8509 50.984 28.8986C50.3293 29.0652 49.7163 29.3747 49.1449 29.827C48.8592 30.0294 48.6152 30.2734 48.4129 30.5591C47.9129 31.19 47.5796 31.8982 47.413 32.6838L47.3594 32.9695C47.3356 33.0886 47.2701 33.1481 47.163 33.1481C47.1154 33.1481 47.0737 33.1302 47.038 33.0945C46.9904 33.0469 46.9487 32.91 46.913 32.6838C46.7702 31.922 46.4369 31.2138 45.9131 30.5591C45.7108 30.2734 45.4668 30.0294 45.1811 29.827C44.6097 29.3747 43.9967 29.0652 43.342 28.8986C43.1753 28.8509 43.0861 28.8212 43.0742 28.8093C43.0266 28.7617 43.0028 28.6545 43.0028 28.4879C43.0028 28.2974 43.0504 28.1843 43.1456 28.1486C43.1932 28.1367 43.2944 28.1486 43.4491 28.1843C44.7942 28.5534 45.8536 29.2973 46.6273 30.4162C46.6511 30.44 46.669 30.4639 46.6809 30.4877L46.8059 30.6662V16.9892L46.6809 17.1677C46.1333 18.001 45.3953 18.6438 44.4669 19.0961C43.8122 19.4056 43.3718 19.5425 43.1456 19.5068C43.0504 19.483 43.0028 19.3699 43.0028 19.1675C43.0028 19.0009 43.0266 18.8937 43.0742 18.8461C43.0861 18.8342 43.1753 18.8045 43.342 18.7568C43.9967 18.5902 44.6097 18.2807 45.1811 17.8284C45.4668 17.626 45.7108 17.382 45.9131 17.0963C46.4369 16.4416 46.7702 15.7274 46.913 14.9537C46.9487 14.7394 46.9904 14.6085 47.038 14.5609Z" fill="black"/>
<path d="M30.5906 32.4606C30.8048 32.4249 31.0013 32.4547 31.1798 32.5499C31.4655 32.6809 31.6083 32.9427 31.6083 33.3356C31.6083 33.6927 31.5369 34.3533 31.3941 35.3175C31.3464 35.6031 31.281 36.0793 31.1977 36.7459V36.9066L31.3048 36.8709C31.3524 36.8709 31.531 36.8232 31.8404 36.728C32.2571 36.5971 32.5904 36.5257 32.8403 36.5138C33.0665 36.5138 33.2391 36.5495 33.3581 36.6209C33.62 36.7518 33.7569 36.9899 33.7688 37.3351C33.7688 37.6565 33.6319 37.8946 33.3581 38.0493C33.2391 38.1207 33.0665 38.1564 32.8403 38.1564C32.5904 38.1445 32.2571 38.0731 31.8404 37.9422C31.531 37.8469 31.3524 37.7993 31.3048 37.7993L31.1977 37.7636L31.2155 37.8529C31.2393 38.0195 31.2929 38.3766 31.3762 38.9242C31.531 39.6622 31.6083 40.3586 31.6083 41.0133C31.6083 43.2392 31.5012 45.5782 31.2869 48.0303C31.2512 48.5303 31.2155 48.7981 31.1798 48.8338L31.1262 48.8874H30.4477L30.3942 48.8338C30.3585 48.7981 30.3228 48.5303 30.287 48.0303C30.0728 45.5782 29.9657 43.2392 29.9657 41.0133C29.9657 40.3586 30.043 39.6622 30.1978 38.9242C30.2811 38.3766 30.3347 38.0195 30.3585 37.8529L30.3763 37.7636L30.2692 37.7993C30.2216 37.7993 30.043 37.8469 29.7335 37.9422C29.3169 38.0731 28.9836 38.1445 28.7337 38.1564C28.5075 38.1564 28.3349 38.1207 28.2159 38.0493C27.954 37.9184 27.8171 37.6803 27.8052 37.3351C27.8052 37.0137 27.9421 36.7756 28.2159 36.6209C28.3349 36.5495 28.5075 36.5138 28.7337 36.5138C28.9836 36.5257 29.3169 36.5971 29.7335 36.728C30.043 36.8232 30.2216 36.8709 30.2692 36.8709L30.3763 36.9066V36.7459C30.293 36.0793 30.2275 35.6031 30.1799 35.3175C29.9776 34.0438 29.918 33.282 30.0014 33.032C30.0728 32.7463 30.2692 32.5559 30.5906 32.4606Z" fill="black"/>
<path d="M41.4882 32.2821C41.5596 32.2583 41.6549 32.2464 41.7739 32.2464C42.4524 32.2464 42.8928 32.6987 43.0952 33.6034C43.2261 34.1509 43.2142 34.5676 43.0595 34.8532C42.9047 35.1389 42.6309 35.2937 42.2381 35.3175C41.881 35.3175 41.6072 35.1627 41.4168 34.8532C41.3335 34.7104 41.2918 34.5497 41.2918 34.3711C41.2918 34.1926 41.3335 34.0319 41.4168 33.8891C41.5358 33.651 41.7501 33.5022 42.0596 33.4427C42.131 33.4308 42.1667 33.407 42.1667 33.3713L42.0953 33.2641L42.0774 33.2463C41.9465 33.0558 41.7739 33.0261 41.5596 33.157C41.512 33.1808 41.4703 33.2165 41.4346 33.2641C41.1966 33.5379 41.0061 34.27 40.8633 35.4603C40.8038 35.9245 40.7383 36.5495 40.6669 37.3351C40.4407 39.6325 40.0538 42.2631 39.5063 45.2271C39.423 45.6675 39.3456 46.0782 39.2742 46.4591C38.929 47.7922 38.3636 48.5838 37.5779 48.8338C37.328 48.8933 37.1018 48.9052 36.8994 48.8695C36.3519 48.7386 35.9948 48.2922 35.8281 47.5304C35.6972 46.9828 35.7091 46.5662 35.8638 46.2805C36.0186 45.9948 36.2924 45.8401 36.6852 45.8163C37.0423 45.8163 37.3161 45.971 37.5065 46.2805C37.5898 46.4234 37.6315 46.584 37.6315 46.7626C37.6315 46.9412 37.5898 47.1018 37.5065 47.2447C37.3875 47.4828 37.1732 47.6315 36.8637 47.6911C36.7923 47.703 36.7566 47.7268 36.7566 47.7625C36.8042 47.8815 36.8816 47.9648 36.9887 48.0125C37.0839 48.072 37.197 48.066 37.328 47.9946C37.4827 47.9232 37.6255 47.7387 37.7565 47.4411C37.9112 46.9888 38.0838 45.7687 38.2743 43.7808C38.5004 41.4239 38.8814 38.829 39.417 35.996C39.6194 34.8413 39.8277 34.0319 40.0419 33.5677C40.0538 33.5439 40.0657 33.5201 40.0777 33.4962C40.2562 33.1749 40.4169 32.9427 40.5597 32.7999C40.7978 32.5261 41.1073 32.3535 41.4882 32.2821Z" fill="black"/>
<path d="M43.4878 34.639C43.6426 34.6152 43.833 34.6211 44.0592 34.6568C44.7139 34.7521 45.2198 35.0675 45.5769 35.6031C46.053 36.3174 46.2435 37.1387 46.1483 38.0672C46.1363 38.1981 46.1185 38.3171 46.0947 38.4243C45.9757 38.9837 45.6602 39.7217 45.1484 40.6383C44.6603 41.5549 44.3627 42.2572 44.2556 42.7452C44.1723 43.2213 44.1782 43.7153 44.2735 44.2272C44.3806 44.8342 44.6008 45.3044 44.9341 45.6377C45.1722 45.8758 45.4221 46.0008 45.684 46.0127C45.8864 46.0246 46.0292 46.0663 46.1125 46.1377C46.2316 46.2805 46.178 46.3876 45.9518 46.4591C45.809 46.5186 45.5947 46.5305 45.3091 46.4948C44.6425 46.3876 44.1306 46.0663 43.7735 45.5306C43.2974 44.8164 43.1069 43.9832 43.2022 43.0309C43.2141 42.9118 43.2319 42.7988 43.2557 42.6916C43.3748 42.1441 43.6902 41.4061 44.202 40.4776C44.6901 39.5848 44.9877 38.8885 45.0948 38.3885C45.19 37.9124 45.1841 37.4184 45.0769 36.9066C44.9698 36.2995 44.7496 35.8293 44.4163 35.496C44.1782 35.2579 43.9342 35.133 43.6842 35.1211C43.4224 35.1092 43.2617 35.0437 43.2022 34.9247C43.1903 34.8889 43.1903 34.8532 43.2022 34.8175C43.2379 34.7342 43.3331 34.6747 43.4878 34.639Z" fill="black"/>
<path d="M68.513 32.7196C68.513 31.2555 68.8344 29.9789 69.4772 28.8897C70.1378 27.7827 70.9948 26.9167 72.0483 26.2918C73.1017 25.6668 74.2445 25.3544 75.4765 25.3544C76.3692 25.3544 77.1816 25.4704 77.9137 25.7026C78.6636 25.9347 79.3421 26.265 79.9492 26.6935C80.5563 27.1042 81.0741 27.5863 81.5026 28.1398V25.1401C80.717 24.4438 79.8599 23.926 78.9314 23.5867C78.003 23.2475 76.8513 23.0779 75.4765 23.0779C74.1731 23.0779 72.95 23.3189 71.8073 23.801C70.6824 24.2652 69.6914 24.9348 68.8344 25.8097C67.9773 26.6667 67.3078 27.6845 66.8257 28.8629C66.3436 30.0413 66.1025 31.3269 66.1025 32.7196C66.1025 34.1123 66.3436 35.3979 66.8257 36.5763C67.3078 37.7548 67.9773 38.7814 68.8344 39.6563C69.6914 40.5134 70.6824 41.1829 71.8073 41.665C72.95 42.1293 74.1731 42.3614 75.4765 42.3614C76.8513 42.3614 78.003 42.1918 78.9314 41.8525C79.8599 41.5133 80.717 40.9955 81.5026 40.2991V37.2995C81.0741 37.853 80.5563 38.344 79.9492 38.7725C79.3421 39.1832 78.6636 39.5046 77.9137 39.7367C77.1816 39.9688 76.3692 40.0849 75.4765 40.0849C74.2445 40.0849 73.1017 39.7724 72.0483 39.1475C70.9948 38.5225 70.1378 37.6566 69.4772 36.5495C68.8344 35.4425 68.513 34.1659 68.513 32.7196Z" fill="black"/>
<path d="M86.3387 38.2904C86.3387 37.844 86.4459 37.4602 86.6601 37.1388C86.8744 36.8174 87.1958 36.5674 87.6243 36.3888C88.0707 36.2103 88.642 36.121 89.3384 36.121C90.0883 36.121 90.7936 36.2192 91.4542 36.4156C92.1149 36.5942 92.7577 36.8977 93.3826 37.3262V36.0675C93.2576 35.9068 93.0166 35.7014 92.6594 35.4515C92.3023 35.1836 91.8203 34.9515 91.2132 34.7551C90.624 34.5408 89.883 34.4337 88.9902 34.4337C87.4725 34.4337 86.2852 34.7997 85.4281 35.5318C84.5889 36.246 84.1693 37.2013 84.1693 38.3975C84.1693 39.2367 84.3657 39.9509 84.7586 40.5402C85.1514 41.1294 85.6692 41.5847 86.312 41.9061C86.9726 42.2096 87.6779 42.3614 88.4278 42.3614C89.1063 42.3614 89.7848 42.2364 90.4633 41.9864C91.1596 41.7365 91.7399 41.3526 92.2041 40.8348C92.6862 40.317 92.9273 39.6653 92.9273 38.8796L92.4988 37.2727C92.4988 37.9155 92.3381 38.4868 92.0167 38.9868C91.7131 39.4689 91.2935 39.8438 90.7579 40.1116C90.2401 40.3795 89.6509 40.5134 88.9902 40.5134C88.4724 40.5134 88.0082 40.433 87.5975 40.2723C87.2047 40.0938 86.8922 39.8349 86.6601 39.4956C86.4459 39.1564 86.3387 38.7546 86.3387 38.2904ZM86.0173 32.6125C86.2138 32.4696 86.4816 32.3 86.8208 32.1036C87.1601 31.9072 87.5707 31.7376 88.0528 31.5947C88.5528 31.4519 89.1063 31.3805 89.7134 31.3805C90.0883 31.3805 90.4454 31.4162 90.7847 31.4876C91.1239 31.559 91.4185 31.6751 91.6685 31.8358C91.9363 31.9965 92.1417 32.2197 92.2845 32.5054C92.4273 32.7732 92.4988 33.1214 92.4988 33.5499V42.0936H94.6414V33.2553C94.6414 32.4518 94.436 31.7733 94.0254 31.2198C93.6326 30.6663 93.0701 30.2467 92.3381 29.961C91.6239 29.6575 90.7847 29.5057 89.8205 29.5057C88.6778 29.5057 87.6957 29.6753 86.8744 30.0146C86.0709 30.3538 85.4371 30.6931 84.9728 31.0323L86.0173 32.6125Z" fill="black"/>
<path d="M98.269 21.2031V42.0936H100.412V21.2031H98.269Z" fill="black"/>
<path d="M114.217 29.7735H111.807L108.004 39.3082L108.887 39.4153L104.977 29.7735H102.433L107.147 40.3527L103.772 47.9857H106.182L114.217 29.7735Z" fill="black"/>
<path d="M118.246 47.9857V29.7735H116.104V47.9857H118.246ZM128.557 35.9335C128.557 34.5944 128.281 33.4517 127.727 32.5054C127.174 31.5412 126.433 30.8002 125.504 30.2824C124.594 29.7646 123.576 29.5057 122.451 29.5057C121.433 29.5057 120.532 29.7646 119.746 30.2824C118.978 30.8002 118.371 31.5412 117.925 32.5054C117.496 33.4517 117.282 34.5944 117.282 35.9335C117.282 37.2548 117.496 38.3975 117.925 39.3617C118.371 40.3259 118.978 41.0669 119.746 41.5847C120.532 42.1025 121.433 42.3614 122.451 42.3614C123.576 42.3614 124.594 42.1025 125.504 41.5847C126.433 41.0669 127.174 40.3259 127.727 39.3617C128.281 38.3975 128.557 37.2548 128.557 35.9335ZM126.388 35.9335C126.388 36.8799 126.192 37.6833 125.799 38.344C125.424 39.0046 124.915 39.5046 124.272 39.8438C123.647 40.1831 122.951 40.3527 122.183 40.3527C121.558 40.3527 120.942 40.1831 120.335 39.8438C119.728 39.5046 119.228 39.0046 118.835 38.344C118.443 37.6833 118.246 36.8799 118.246 35.9335C118.246 34.9872 118.443 34.1837 118.835 33.5231C119.228 32.8625 119.728 32.3625 120.335 32.0233C120.942 31.684 121.558 31.5144 122.183 31.5144C122.951 31.5144 123.647 31.684 124.272 32.0233C124.915 32.3625 125.424 32.8625 125.799 33.5231C126.192 34.1837 126.388 34.9872 126.388 35.9335Z" fill="black"/>
<path d="M132.021 38.3172L130.333 39.3617C130.566 39.8438 130.905 40.317 131.351 40.7812C131.815 41.2454 132.378 41.6293 133.039 41.9329C133.699 42.2185 134.44 42.3614 135.261 42.3614C136.529 42.3614 137.547 42.0043 138.315 41.2901C139.1 40.5759 139.493 39.6831 139.493 38.6118C139.493 37.8797 139.315 37.2816 138.957 36.8174C138.618 36.3531 138.154 35.9603 137.565 35.6389C136.976 35.2997 136.324 34.9872 135.61 34.7015C135.181 34.523 134.77 34.3355 134.378 34.1391C133.985 33.9427 133.663 33.7195 133.413 33.4695C133.164 33.2196 133.039 32.9339 133.039 32.6125C133.039 32.2018 133.199 31.8983 133.521 31.7019C133.842 31.5055 134.226 31.4073 134.672 31.4073C135.315 31.4073 135.886 31.559 136.386 31.8626C136.904 32.1661 137.333 32.55 137.672 33.0142L139.386 31.9161C139.136 31.4519 138.788 31.0412 138.341 30.6841C137.895 30.327 137.377 30.0413 136.788 29.8271C136.217 29.6128 135.601 29.5057 134.94 29.5057C134.279 29.5057 133.637 29.6218 133.012 29.8539C132.405 30.086 131.905 30.4431 131.512 30.9252C131.137 31.4073 130.949 32.0143 130.949 32.7464C130.949 33.4606 131.128 34.0588 131.485 34.5408C131.86 35.0051 132.315 35.389 132.851 35.6925C133.405 35.9782 133.949 36.2281 134.485 36.4424C134.967 36.621 135.422 36.8174 135.851 37.0316C136.279 37.228 136.627 37.478 136.895 37.7815C137.181 38.0672 137.324 38.4243 137.324 38.8528C137.324 39.3349 137.145 39.7188 136.788 40.0045C136.449 40.2723 135.976 40.4062 135.369 40.4062C134.869 40.4062 134.404 40.317 133.976 40.1384C133.565 39.942 133.199 39.6831 132.878 39.3617C132.556 39.0403 132.271 38.6922 132.021 38.3172Z" fill="black"/>
<path d="M141.243 35.9335C141.243 37.1655 141.519 38.2726 142.073 39.2546C142.644 40.2188 143.412 40.9776 144.376 41.5311C145.34 42.0846 146.421 42.3614 147.617 42.3614C148.831 42.3614 149.911 42.0846 150.858 41.5311C151.822 40.9776 152.581 40.2188 153.134 39.2546C153.705 38.2726 153.991 37.1655 153.991 35.9335C153.991 34.6837 153.705 33.5767 153.134 32.6125C152.581 31.6483 151.822 30.8895 150.858 30.336C149.911 29.7824 148.831 29.5057 147.617 29.5057C146.421 29.5057 145.34 29.7824 144.376 30.336C143.412 30.8895 142.644 31.6483 142.073 32.6125C141.519 33.5767 141.243 34.6837 141.243 35.9335ZM143.412 35.9335C143.412 35.0765 143.591 34.3176 143.948 33.657C144.323 32.9785 144.823 32.4518 145.447 32.0768C146.09 31.7019 146.813 31.5144 147.617 31.5144C148.42 31.5144 149.135 31.7019 149.759 32.0768C150.402 32.4518 150.902 32.9785 151.259 33.657C151.634 34.3176 151.822 35.0765 151.822 35.9335C151.822 36.7906 151.634 37.5494 151.259 38.2101C150.902 38.8707 150.402 39.3974 149.759 39.7902C149.135 40.1652 148.42 40.3527 147.617 40.3527C146.813 40.3527 146.09 40.1652 145.447 39.7902C144.823 39.3974 144.323 38.8707 143.948 38.2101C143.591 37.5494 143.412 36.7906 143.412 35.9335Z" fill="black"/>
</svg>
