<svg width="136" height="37" viewBox="0 0 136 37" fill="none" xmlns="http://www.w3.org/2000/svg">
<path d="M43.5927 23.7409V10.8813H51.6942V12.6817H45.5768V16.3742H51.1798V18.1745H45.5768V21.9406H51.7861V23.7409H43.5927Z" fill="#5D3CBB"/>
<path d="M57.6573 23.9981C56.9102 23.9981 56.2182 23.8144 55.5814 23.447C54.9445 23.0795 54.4301 22.5529 54.0382 21.8671C53.6586 21.169 53.4687 20.3301 53.4687 19.3503V19.0747C53.4687 18.1072 53.6586 17.2744 54.0382 16.5763C54.4179 15.8782 54.9261 15.3454 55.563 14.978C56.1998 14.6106 56.8979 14.4269 57.6573 14.4269C58.2451 14.4269 58.735 14.5004 59.1269 14.6474C59.5311 14.7943 59.8618 14.9842 60.1189 15.2169C60.3761 15.4373 60.5721 15.67 60.7068 15.9149H61.0007V10.8813H62.8929V23.7409H61.0375V22.4549H60.7436C60.5109 22.8468 60.1557 23.202 59.678 23.5204C59.2127 23.8389 58.5391 23.9981 57.6573 23.9981ZM58.19 22.3447C59.0106 22.3447 59.6842 22.0814 60.2108 21.5548C60.7497 21.0281 61.0191 20.2749 61.0191 19.2952V19.1298C61.0191 18.1623 60.7558 17.4152 60.2292 16.8886C59.7025 16.362 59.0228 16.0986 58.19 16.0986C57.3817 16.0986 56.7081 16.362 56.1692 16.8886C55.6426 17.4152 55.3793 18.1623 55.3793 19.1298V19.2952C55.3793 20.2749 55.6426 21.0281 56.1692 21.5548C56.7081 22.0814 57.3817 22.3447 58.19 22.3447Z" fill="#5D3CBB"/>
<path d="M65.2375 19.2584V18.9829C65.2375 18.0276 65.4273 17.2131 65.807 16.5395C66.1989 15.866 66.7133 15.3454 67.3501 14.978C67.987 14.6106 68.6851 14.4269 69.4444 14.4269C70.3262 14.4269 70.9998 14.5922 71.4652 14.9229C71.9428 15.2536 72.2919 15.6088 72.5123 15.9884H72.8063V14.6841H74.6433V25.5963C74.6433 26.1475 74.478 26.5884 74.1473 26.919C73.8289 27.2497 73.388 27.415 72.8246 27.415H66.7255V25.7617H72.2368C72.5919 25.7617 72.7695 25.578 72.7695 25.2106V22.3263H72.4756C72.3409 22.5468 72.151 22.7734 71.9061 23.0061C71.6612 23.2388 71.3366 23.4286 70.9324 23.5756C70.5405 23.7225 70.0445 23.796 69.4444 23.796C68.6851 23.796 67.9809 23.6184 67.3318 23.2633C66.6949 22.8958 66.1867 22.3753 65.807 21.7017C65.4273 21.0159 65.2375 20.2015 65.2375 19.2584ZM69.9588 22.1426C70.7794 22.1426 71.453 21.8854 71.9796 21.3711C72.5185 20.8444 72.7879 20.1218 72.7879 19.2033V19.038C72.7879 18.0949 72.5246 17.3724 71.9979 16.8702C71.4713 16.3558 70.7916 16.0986 69.9588 16.0986C69.1505 16.0986 68.4769 16.3558 67.938 16.8702C67.4114 17.3724 67.1481 18.0949 67.1481 19.038V19.2033C67.1481 20.1218 67.4114 20.8444 67.938 21.3711C68.4769 21.8854 69.1505 22.1426 69.9588 22.1426Z" fill="#5D3CBB"/>
<path d="M81.581 23.9981C80.6625 23.9981 79.8603 23.8083 79.1745 23.4286C78.4886 23.0367 77.9497 22.4917 77.5578 21.7936C77.1782 21.0833 76.9883 20.2627 76.9883 19.3319V19.1115C76.9883 18.1684 77.1782 17.3479 77.5578 16.6498C77.9375 15.9394 78.4641 15.3944 79.1377 15.0148C79.8236 14.6229 80.6135 14.4269 81.5075 14.4269C82.3771 14.4269 83.1364 14.6229 83.7855 15.0148C84.4469 15.3944 84.9613 15.9272 85.3287 16.613C85.6961 17.2989 85.8798 18.1011 85.8798 19.0196V19.7361H78.9173C78.9418 20.5321 79.2051 21.169 79.7072 21.6466C80.2216 22.112 80.8585 22.3447 81.6178 22.3447C82.3281 22.3447 82.8609 22.1855 83.216 21.8671C83.5835 21.5486 83.8651 21.1812 84.0611 20.7648L85.6226 21.5731C85.4511 21.9161 85.2001 22.2774 84.8694 22.657C84.551 23.0367 84.1284 23.3551 83.6018 23.6123C83.0752 23.8695 82.4016 23.9981 81.581 23.9981ZM78.9356 18.2848H83.9509C83.9019 17.5989 83.6569 17.0662 83.216 16.6865C82.7751 16.2946 82.1995 16.0986 81.4892 16.0986C80.7788 16.0986 80.1971 16.2946 79.744 16.6865C79.3031 17.0662 79.0336 17.5989 78.9356 18.2848Z" fill="#5D3CBB"/>
<path d="M88.1024 23.7409V10.8813H90.0864V16.2272H90.3804L95.1751 10.8813H97.7654L91.9602 17.2193L97.9675 23.7409H95.3037L90.3804 18.2848H90.0864V23.7409H88.1024Z" fill="#5D3CBB"/>
<path d="M102.324 23.9981C101.675 23.9981 101.094 23.8879 100.579 23.6674C100.077 23.447 99.6729 23.1224 99.3667 22.6938C99.0727 22.2651 98.9258 21.7446 98.9258 21.1322C98.9258 20.5076 99.0727 19.9933 99.3667 19.5891C99.6729 19.1727 100.083 18.8604 100.598 18.6522C101.124 18.444 101.718 18.3399 102.379 18.3399H105.135V17.752C105.135 17.2254 104.976 16.8029 104.657 16.4844C104.339 16.166 103.849 16.0068 103.188 16.0068C102.539 16.0068 102.043 16.1599 101.7 16.4661C101.357 16.7722 101.13 17.1703 101.02 17.6602L99.2565 17.0907C99.4034 16.6008 99.6361 16.1599 99.9545 15.768C100.285 15.3638 100.72 15.0393 101.259 14.7943C101.798 14.5494 102.447 14.4269 103.206 14.4269C104.382 14.4269 105.307 14.727 105.98 15.3271C106.654 15.9272 106.991 16.7784 106.991 17.8806V21.6099C106.991 21.9773 107.162 22.161 107.505 22.161H108.276V23.7409H106.862C106.433 23.7409 106.084 23.6307 105.815 23.4102C105.545 23.1898 105.411 22.8897 105.411 22.51V22.4549H105.135C105.037 22.6386 104.89 22.853 104.694 23.0979C104.498 23.3429 104.21 23.5572 103.831 23.7409C103.451 23.9124 102.949 23.9981 102.324 23.9981ZM102.6 22.4366C103.359 22.4366 103.972 22.2222 104.437 21.7936C104.902 21.3527 105.135 20.7526 105.135 19.9933V19.8095H102.49C101.988 19.8095 101.583 19.9198 101.277 20.1402C100.971 20.3484 100.818 20.6607 100.818 21.0771C100.818 21.4935 100.977 21.8242 101.296 22.0691C101.614 22.3141 102.049 22.4366 102.6 22.4366Z" fill="#5D3CBB"/>
<path d="M110.116 23.7409V14.6841H111.972V15.7496H112.266C112.413 15.3699 112.645 15.0944 112.964 14.9229C113.294 14.7392 113.699 14.6474 114.176 14.6474H115.26V16.3558H114.103C113.49 16.3558 112.988 16.5273 112.596 16.8702C112.204 17.2009 112.008 17.7153 112.008 18.4134V23.7409H110.116Z" fill="#5D3CBB"/>
<path d="M120.619 23.7409C120.068 23.7409 119.627 23.5756 119.297 23.2449C118.978 22.9142 118.819 22.4733 118.819 21.9222V16.2824H116.32V14.6841H118.819V11.6897H120.711V14.6841H123.412V16.2824H120.711V21.5915C120.711 21.9589 120.883 22.1426 121.225 22.1426H123.118V23.7409H120.619Z" fill="#5D3CBB"/>
<rect x="16.8178" y="20.6" width="12.9856" height="12.9856" transform="rotate(-45 16.8178 20.6)" stroke="#5D3CBB" stroke-width="1.72226"/>
<rect x="16.8178" y="15.4" width="12.9856" height="12.9856" transform="rotate(-45 16.8178 15.4)" stroke="#5D3CBB" stroke-width="1.72226"/>
</svg>
