<svg width="190" height="54" viewBox="0 0 190 54" fill="none" xmlns="http://www.w3.org/2000/svg">
<path d="M64.48 34.964C64.204 35.36 63.802 35.558 63.274 35.558C62.794 35.558 62.296 35.402 61.78 35.09C61.312 34.814 61.048 34.544 60.988 34.28C60.964 34.184 60.952 34.094 60.952 34.01C60.952 33.818 61.03 33.602 61.186 33.362C61.354 33.122 61.432 32.912 61.42 32.732L60.88 26.684L57.784 33.668C57.748 33.764 57.73 33.878 57.73 34.01C57.73 34.106 57.742 34.256 57.766 34.46C57.802 34.664 57.82 34.82 57.82 34.928C57.82 35.204 57.712 35.414 57.496 35.558C57.184 35.774 56.818 35.882 56.398 35.882C55.978 35.882 55.594 35.768 55.246 35.54C54.91 35.324 54.7 35.036 54.616 34.676C54.592 34.568 54.58 34.472 54.58 34.388C54.58 34.304 54.592 34.202 54.616 34.082C54.64 33.962 54.652 33.872 54.652 33.812C54.652 33.74 54.64 33.668 54.616 33.596L52.024 26.684L52.276 33.2C52.288 33.368 52.33 33.608 52.402 33.92C52.474 34.22 52.51 34.442 52.51 34.586C52.51 35.03 52.18 35.378 51.52 35.63C51.436 35.654 51.334 35.666 51.214 35.666C50.842 35.666 50.458 35.54 50.062 35.288C49.606 35.012 49.312 34.652 49.18 34.208C49.156 34.136 49.144 34.07 49.144 34.01C49.144 33.89 49.216 33.758 49.36 33.614C49.504 33.458 49.576 33.32 49.576 33.2L49.36 22.94C49.36 22.772 49.3 22.562 49.18 22.31C49.06 22.046 49 21.848 49 21.716C49 21.512 49.108 21.296 49.324 21.068C49.54 20.828 49.918 20.708 50.458 20.708C51.25 20.708 51.88 20.9 52.348 21.284C52.612 21.5 52.744 21.728 52.744 21.968C52.744 22.004 52.738 22.058 52.726 22.13C52.726 22.202 52.726 22.256 52.726 22.292C52.726 22.4 52.744 22.496 52.78 22.58L56.344 31.22L60.34 22.04C60.388 21.932 60.412 21.806 60.412 21.662C60.412 21.614 60.406 21.542 60.394 21.446C60.394 21.35 60.394 21.278 60.394 21.23C60.394 20.954 60.52 20.72 60.772 20.528C60.976 20.372 61.246 20.294 61.582 20.294C62.098 20.294 62.596 20.45 63.076 20.762C63.568 21.074 63.808 21.428 63.796 21.824C63.784 22.016 63.694 22.178 63.526 22.31C63.358 22.43 63.28 22.544 63.292 22.652L64.048 33.272C64.06 33.392 64.156 33.602 64.336 33.902C64.516 34.19 64.606 34.424 64.606 34.604C64.606 34.724 64.564 34.844 64.48 34.964Z" fill="#910C94"/>
<path d="M73.7245 34.244C73.5445 34.832 73.1005 35.126 72.3925 35.126C72.1525 35.126 71.9605 35.084 71.8165 35C71.6245 34.868 71.4925 34.604 71.4205 34.208C71.2765 33.524 71.1325 32.99 70.9885 32.606C70.9525 33.266 70.5925 33.938 69.9085 34.622C69.2245 35.294 68.5345 35.63 67.8385 35.63C66.9625 35.63 66.3565 35.048 66.0205 33.884C65.9005 33.452 65.8405 33.044 65.8405 32.66C65.8405 31.544 66.4105 30.59 67.5505 29.798C68.4865 29.246 69.4285 28.7 70.3765 28.16C70.4245 27.956 70.4485 27.758 70.4485 27.566C70.4485 27.194 70.3465 26.978 70.1425 26.918C69.9385 26.846 69.7645 26.81 69.6205 26.81C69.3685 26.81 69.1585 26.894 68.9905 27.062C68.8345 27.218 68.6845 27.368 68.5405 27.512C68.3965 27.608 68.2105 27.83 67.9825 28.178C67.8025 28.454 67.6045 28.604 67.3885 28.628C67.0765 28.664 66.7945 28.556 66.5425 28.304C66.2905 28.052 66.1645 27.758 66.1645 27.422C66.1645 27.23 66.2125 27.056 66.3085 26.9C66.5845 26.444 66.9985 26.048 67.5505 25.712C68.3905 25.208 69.4405 24.956 70.7005 24.956C71.5045 24.956 72.0565 25.34 72.3565 26.108C72.5485 26.624 72.6925 27.59 72.7885 29.006C72.8965 30.722 73.0285 31.976 73.1845 32.768C73.2085 32.924 73.3105 33.122 73.4905 33.362C73.6705 33.602 73.7605 33.812 73.7605 33.992C73.7605 34.076 73.7485 34.16 73.7245 34.244ZM70.5925 29.816C70.2325 30.008 69.8725 30.206 69.5125 30.41C69.1645 30.614 68.8405 30.884 68.5405 31.22C68.1085 31.712 67.8925 32.132 67.8925 32.48C67.8925 32.768 68.0005 33.068 68.2165 33.38C68.3365 33.548 68.4685 33.632 68.6125 33.632C68.9245 33.632 69.2605 33.284 69.6205 32.588C69.9925 31.892 70.3165 30.968 70.5925 29.816Z" fill="#910C94"/>
<path d="M77.6678 24.2C77.5838 24.392 77.3498 24.488 76.9658 24.488C76.6898 24.488 76.4258 24.428 76.1738 24.308C75.8498 24.164 75.6878 23.972 75.6878 23.732C75.6878 23.66 75.7058 23.558 75.7418 23.426C75.7778 23.294 75.7958 23.204 75.7958 23.156C75.7958 23.084 75.7838 22.952 75.7598 22.76C75.7358 22.568 75.7238 22.424 75.7238 22.328C75.7238 22.052 75.7958 21.848 75.9398 21.716C76.1318 21.524 76.3838 21.428 76.6958 21.428C76.9478 21.428 77.1878 21.506 77.4158 21.662C77.6438 21.818 77.7578 22.022 77.7578 22.274C77.7578 22.382 77.7218 22.556 77.6498 22.796C77.5778 23.036 77.5478 23.216 77.5598 23.336C77.5598 23.444 77.5838 23.558 77.6318 23.678C77.6918 23.798 77.7218 23.894 77.7218 23.966C77.7218 24.038 77.7038 24.116 77.6678 24.2ZM77.6678 27.89C77.6678 31.622 77.6738 32.906 77.6858 31.742C77.6618 33.542 77.5058 34.934 77.2178 35.918C76.8338 37.25 76.2158 37.97 75.3638 38.078C74.9918 38.126 74.5838 38.042 74.1398 37.826C73.6958 37.622 73.4738 37.382 73.4738 37.106C73.4738 37.01 73.5098 36.914 73.5818 36.818C73.7138 36.65 73.9358 36.59 74.2478 36.638C74.5478 36.686 74.7518 36.674 74.8598 36.602C75.2438 36.338 75.4358 34.172 75.4358 30.104C75.4358 29.156 75.4238 28.016 75.3998 26.684C75.3998 26.576 75.3638 26.39 75.2918 26.126C75.2198 25.85 75.1838 25.646 75.1838 25.514C75.1838 25.094 75.5198 24.884 76.1918 24.884C76.7678 24.884 77.1878 25.016 77.4518 25.28C77.6678 25.496 77.7758 25.808 77.7758 26.216C77.7758 26.408 77.7578 26.69 77.7218 27.062C77.6858 27.422 77.6678 27.698 77.6678 27.89Z" fill="#910C94"/>
<path d="M85.8298 33.11C85.7338 33.566 85.4098 34.052 84.8578 34.568C84.7738 34.7 84.4438 34.874 83.8678 35.09C83.2078 35.342 82.6378 35.45 82.1578 35.414C81.2578 35.354 80.5498 34.838 80.0338 33.866C79.5658 32.966 79.3318 31.862 79.3318 30.554C79.3318 29.138 79.5958 27.896 80.1238 26.828C80.7118 25.652 81.4978 24.992 82.4818 24.848C82.6738 24.824 82.8598 24.812 83.0398 24.812C84.4678 24.812 85.2538 25.688 85.3978 27.44C85.4698 28.244 85.1518 29.12 84.4438 30.068C83.6758 31.112 82.6918 31.844 81.4918 32.264C81.6238 32.744 81.7258 33.056 81.7978 33.2C81.9658 33.5 82.1938 33.65 82.4818 33.65C82.7578 33.65 83.0518 33.542 83.3638 33.326C83.6278 33.146 83.8078 32.972 83.9038 32.804C83.9518 32.78 83.9998 32.648 84.0478 32.408C84.0958 32.156 84.2218 31.976 84.4258 31.868C84.4978 31.832 84.5818 31.814 84.6778 31.814C84.9658 31.814 85.2418 31.958 85.5058 32.246C85.7818 32.522 85.8898 32.81 85.8298 33.11ZM83.0038 26.774C82.5238 26.774 82.1338 27.116 81.8338 27.8C81.4378 28.712 81.2758 29.612 81.3478 30.5C81.9118 30.32 82.4338 29.9 82.9138 29.24C83.3938 28.58 83.6338 27.992 83.6338 27.476C83.6338 27.008 83.4238 26.774 83.0038 26.774Z" fill="#910C94"/>
<path d="M95.4479 33.848C95.4239 34.112 95.2499 34.34 94.9259 34.532C94.6019 34.712 94.2419 34.802 93.8459 34.802C93.2579 34.802 92.8559 34.616 92.6399 34.244C92.7359 30.548 92.6279 28.676 92.3159 28.628C92.0159 28.58 91.2839 30.236 90.1199 33.596C90.1199 33.956 90.1199 34.316 90.1199 34.676C90.1079 35.108 89.9879 35.414 89.7599 35.594C89.5439 35.774 89.3099 35.864 89.0579 35.864C88.6259 35.864 88.1639 35.63 87.6719 35.162C87.5279 35.042 87.4499 34.13 87.4379 32.426C87.4499 33.47 87.4559 31.532 87.4559 26.612C87.4559 26.504 87.4439 26.36 87.4199 26.18C87.3959 25.988 87.3839 25.85 87.3839 25.766C87.3839 25.538 87.4439 25.34 87.5639 25.172C87.7079 24.956 87.9359 24.848 88.2479 24.848C88.5719 24.848 88.9079 24.95 89.2559 25.154C89.6159 25.346 89.8319 25.532 89.9039 25.712C89.9519 25.832 89.9759 25.952 89.9759 26.072C89.9759 26.192 89.9279 26.36 89.8319 26.576C89.7359 26.792 89.6879 26.972 89.6879 27.116V29.6C90.4439 27.992 91.0139 26.93 91.3979 26.414C92.0819 25.526 92.8559 25.112 93.7199 25.172C94.2359 25.208 94.6019 25.688 94.8179 26.612C94.9859 27.308 95.0759 28.34 95.0879 29.708C95.0879 30.788 95.0879 31.868 95.0879 32.948C95.1119 33.032 95.1959 33.182 95.3399 33.398C95.4239 33.518 95.4599 33.668 95.4479 33.848Z" fill="#910C94"/>
<path d="M102.861 26.828C102.765 26.828 102.615 26.792 102.411 26.72C102.207 26.636 102.051 26.594 101.943 26.594C101.859 26.594 101.775 26.612 101.691 26.648L101.025 26.99V33.146C101.025 33.374 101.145 33.668 101.385 34.028C101.637 34.388 101.739 34.676 101.691 34.892C101.631 35.156 101.451 35.366 101.151 35.522C100.863 35.678 100.551 35.756 100.215 35.756C99.5792 35.756 99.1412 35.474 98.9012 34.91C98.8292 34.742 98.7872 34.208 98.7752 33.308C98.7632 32.708 98.7692 31.772 98.7932 30.5C98.8172 29.06 98.8292 28.148 98.8292 27.764C98.7572 27.788 98.6372 27.872 98.4692 28.016C98.3012 28.148 98.1332 28.214 97.9652 28.214C97.8332 28.214 97.6652 28.178 97.4612 28.106C96.6212 27.818 96.2012 27.524 96.2012 27.224C96.2012 27.152 96.2192 27.074 96.2552 26.99C96.3392 26.798 96.4952 26.69 96.7232 26.666C97.0712 26.618 97.2812 26.576 97.3532 26.54C97.6292 26.432 98.1332 26.174 98.8652 25.766V24.2C98.8652 24.08 98.8292 23.924 98.7572 23.732C98.6972 23.528 98.6672 23.378 98.6672 23.282C98.6672 23.174 98.6972 23.072 98.7572 22.976C99.0692 22.496 99.4892 22.256 100.017 22.256C100.629 22.256 101.061 22.496 101.313 22.976C101.409 23.168 101.457 23.324 101.457 23.444C101.457 23.588 101.385 23.738 101.241 23.894C101.097 24.05 101.025 24.194 101.025 24.326V25.208C101.241 25.112 101.481 24.95 101.745 24.722C101.949 24.554 102.123 24.47 102.267 24.47C102.327 24.47 102.393 24.482 102.465 24.506C103.221 24.71 103.599 25.166 103.599 25.874C103.599 26.102 103.527 26.318 103.383 26.522C103.251 26.726 103.077 26.828 102.861 26.828Z" fill="#910C94"/>
<path d="M112.115 34.244C111.935 34.832 111.491 35.126 110.783 35.126C110.543 35.126 110.351 35.084 110.207 35C110.015 34.868 109.883 34.604 109.811 34.208C109.667 33.524 109.523 32.99 109.379 32.606C109.343 33.266 108.983 33.938 108.299 34.622C107.615 35.294 106.925 35.63 106.229 35.63C105.353 35.63 104.747 35.048 104.411 33.884C104.291 33.452 104.231 33.044 104.231 32.66C104.231 31.544 104.801 30.59 105.941 29.798C106.877 29.246 107.819 28.7 108.767 28.16C108.815 27.956 108.839 27.758 108.839 27.566C108.839 27.194 108.737 26.978 108.533 26.918C108.329 26.846 108.155 26.81 108.011 26.81C107.759 26.81 107.549 26.894 107.381 27.062C107.225 27.218 107.075 27.368 106.931 27.512C106.787 27.608 106.601 27.83 106.373 28.178C106.193 28.454 105.995 28.604 105.779 28.628C105.467 28.664 105.185 28.556 104.933 28.304C104.681 28.052 104.555 27.758 104.555 27.422C104.555 27.23 104.603 27.056 104.699 26.9C104.975 26.444 105.389 26.048 105.941 25.712C106.781 25.208 107.831 24.956 109.091 24.956C109.895 24.956 110.447 25.34 110.747 26.108C110.939 26.624 111.083 27.59 111.179 29.006C111.287 30.722 111.419 31.976 111.575 32.768C111.599 32.924 111.701 33.122 111.881 33.362C112.061 33.602 112.151 33.812 112.151 33.992C112.151 34.076 112.139 34.16 112.115 34.244ZM108.983 29.816C108.623 30.008 108.263 30.206 107.903 30.41C107.555 30.614 107.231 30.884 106.931 31.22C106.499 31.712 106.283 32.132 106.283 32.48C106.283 32.768 106.391 33.068 106.607 33.38C106.727 33.548 106.859 33.632 107.003 33.632C107.315 33.632 107.651 33.284 108.011 32.588C108.383 31.892 108.707 30.968 108.983 29.816Z" fill="#910C94"/>
<path d="M133.21 34.964C132.934 35.36 132.532 35.558 132.004 35.558C131.524 35.558 131.026 35.402 130.51 35.09C130.042 34.814 129.778 34.544 129.718 34.28C129.694 34.184 129.682 34.094 129.682 34.01C129.682 33.818 129.76 33.602 129.916 33.362C130.084 33.122 130.162 32.912 130.15 32.732L129.61 26.684L126.514 33.668C126.478 33.764 126.46 33.878 126.46 34.01C126.46 34.106 126.472 34.256 126.496 34.46C126.532 34.664 126.55 34.82 126.55 34.928C126.55 35.204 126.442 35.414 126.226 35.558C125.914 35.774 125.548 35.882 125.128 35.882C124.708 35.882 124.324 35.768 123.976 35.54C123.64 35.324 123.43 35.036 123.346 34.676C123.322 34.568 123.31 34.472 123.31 34.388C123.31 34.304 123.322 34.202 123.346 34.082C123.37 33.962 123.382 33.872 123.382 33.812C123.382 33.74 123.37 33.668 123.346 33.596L120.754 26.684L121.006 33.2C121.018 33.368 121.06 33.608 121.132 33.92C121.204 34.22 121.24 34.442 121.24 34.586C121.24 35.03 120.91 35.378 120.25 35.63C120.166 35.654 120.064 35.666 119.944 35.666C119.572 35.666 119.188 35.54 118.792 35.288C118.336 35.012 118.042 34.652 117.91 34.208C117.886 34.136 117.874 34.07 117.874 34.01C117.874 33.89 117.946 33.758 118.09 33.614C118.234 33.458 118.306 33.32 118.306 33.2L118.09 22.94C118.09 22.772 118.03 22.562 117.91 22.31C117.79 22.046 117.73 21.848 117.73 21.716C117.73 21.512 117.838 21.296 118.054 21.068C118.27 20.828 118.648 20.708 119.188 20.708C119.98 20.708 120.61 20.9 121.078 21.284C121.342 21.5 121.474 21.728 121.474 21.968C121.474 22.004 121.468 22.058 121.456 22.13C121.456 22.202 121.456 22.256 121.456 22.292C121.456 22.4 121.474 22.496 121.51 22.58L125.074 31.22L129.07 22.04C129.118 21.932 129.142 21.806 129.142 21.662C129.142 21.614 129.136 21.542 129.124 21.446C129.124 21.35 129.124 21.278 129.124 21.23C129.124 20.954 129.25 20.72 129.502 20.528C129.706 20.372 129.976 20.294 130.312 20.294C130.828 20.294 131.326 20.45 131.806 20.762C132.298 21.074 132.538 21.428 132.526 21.824C132.514 22.016 132.424 22.178 132.256 22.31C132.088 22.43 132.01 22.544 132.022 22.652L132.778 33.272C132.79 33.392 132.886 33.602 133.066 33.902C133.246 34.19 133.336 34.424 133.336 34.604C133.336 34.724 133.294 34.844 133.21 34.964Z" fill="#910C94"/>
<path d="M142.455 34.244C142.275 34.832 141.831 35.126 141.123 35.126C140.883 35.126 140.691 35.084 140.547 35C140.355 34.868 140.223 34.604 140.151 34.208C140.007 33.524 139.863 32.99 139.719 32.606C139.683 33.266 139.323 33.938 138.639 34.622C137.955 35.294 137.265 35.63 136.569 35.63C135.693 35.63 135.087 35.048 134.751 33.884C134.631 33.452 134.571 33.044 134.571 32.66C134.571 31.544 135.141 30.59 136.281 29.798C137.217 29.246 138.159 28.7 139.107 28.16C139.155 27.956 139.179 27.758 139.179 27.566C139.179 27.194 139.077 26.978 138.873 26.918C138.669 26.846 138.495 26.81 138.351 26.81C138.099 26.81 137.889 26.894 137.721 27.062C137.565 27.218 137.415 27.368 137.271 27.512C137.127 27.608 136.941 27.83 136.713 28.178C136.533 28.454 136.335 28.604 136.119 28.628C135.807 28.664 135.525 28.556 135.273 28.304C135.021 28.052 134.895 27.758 134.895 27.422C134.895 27.23 134.943 27.056 135.039 26.9C135.315 26.444 135.729 26.048 136.281 25.712C137.121 25.208 138.171 24.956 139.431 24.956C140.235 24.956 140.787 25.34 141.087 26.108C141.279 26.624 141.423 27.59 141.519 29.006C141.627 30.722 141.759 31.976 141.915 32.768C141.939 32.924 142.041 33.122 142.221 33.362C142.401 33.602 142.491 33.812 142.491 33.992C142.491 34.076 142.479 34.16 142.455 34.244ZM139.323 29.816C138.963 30.008 138.603 30.206 138.243 30.41C137.895 30.614 137.571 30.884 137.271 31.22C136.839 31.712 136.623 32.132 136.623 32.48C136.623 32.768 136.731 33.068 136.947 33.38C137.067 33.548 137.199 33.632 137.343 33.632C137.655 33.632 137.991 33.284 138.351 32.588C138.723 31.892 139.047 30.968 139.323 29.816Z" fill="#910C94"/>
<path d="M152.049 33.848C152.025 34.112 151.851 34.34 151.527 34.532C151.203 34.712 150.843 34.802 150.447 34.802C149.859 34.802 149.457 34.616 149.241 34.244C149.337 30.548 149.229 28.676 148.917 28.628C148.617 28.58 147.885 30.236 146.721 33.596C146.721 33.956 146.721 34.316 146.721 34.676C146.709 35.108 146.589 35.414 146.361 35.594C146.145 35.774 145.911 35.864 145.659 35.864C145.227 35.864 144.765 35.63 144.273 35.162C144.129 35.042 144.051 34.13 144.039 32.426C144.051 33.47 144.057 31.532 144.057 26.612C144.057 26.504 144.045 26.36 144.021 26.18C143.997 25.988 143.985 25.85 143.985 25.766C143.985 25.538 144.045 25.34 144.165 25.172C144.309 24.956 144.537 24.848 144.849 24.848C145.173 24.848 145.509 24.95 145.857 25.154C146.217 25.346 146.433 25.532 146.505 25.712C146.553 25.832 146.577 25.952 146.577 26.072C146.577 26.192 146.529 26.36 146.433 26.576C146.337 26.792 146.289 26.972 146.289 27.116V29.6C147.045 27.992 147.615 26.93 147.999 26.414C148.683 25.526 149.457 25.112 150.321 25.172C150.837 25.208 151.203 25.688 151.419 26.612C151.587 27.308 151.677 28.34 151.689 29.708C151.689 30.788 151.689 31.868 151.689 32.948C151.713 33.032 151.797 33.182 151.941 33.398C152.025 33.518 152.061 33.668 152.049 33.848Z" fill="#910C94"/>
<path d="M159.463 26.828C159.367 26.828 159.217 26.792 159.013 26.72C158.809 26.636 158.653 26.594 158.545 26.594C158.461 26.594 158.377 26.612 158.293 26.648L157.627 26.99V33.146C157.627 33.374 157.747 33.668 157.987 34.028C158.239 34.388 158.341 34.676 158.293 34.892C158.233 35.156 158.053 35.366 157.753 35.522C157.465 35.678 157.153 35.756 156.817 35.756C156.181 35.756 155.743 35.474 155.503 34.91C155.431 34.742 155.389 34.208 155.377 33.308C155.365 32.708 155.371 31.772 155.395 30.5C155.419 29.06 155.431 28.148 155.431 27.764C155.359 27.788 155.239 27.872 155.071 28.016C154.903 28.148 154.735 28.214 154.567 28.214C154.435 28.214 154.267 28.178 154.063 28.106C153.223 27.818 152.803 27.524 152.803 27.224C152.803 27.152 152.821 27.074 152.857 26.99C152.941 26.798 153.097 26.69 153.325 26.666C153.673 26.618 153.883 26.576 153.955 26.54C154.231 26.432 154.735 26.174 155.467 25.766V24.2C155.467 24.08 155.431 23.924 155.359 23.732C155.299 23.528 155.269 23.378 155.269 23.282C155.269 23.174 155.299 23.072 155.359 22.976C155.671 22.496 156.091 22.256 156.619 22.256C157.231 22.256 157.663 22.496 157.915 22.976C158.011 23.168 158.059 23.324 158.059 23.444C158.059 23.588 157.987 23.738 157.843 23.894C157.699 24.05 157.627 24.194 157.627 24.326V25.208C157.843 25.112 158.083 24.95 158.347 24.722C158.551 24.554 158.725 24.47 158.869 24.47C158.929 24.47 158.995 24.482 159.067 24.506C159.823 24.71 160.201 25.166 160.201 25.874C160.201 26.102 160.129 26.318 159.985 26.522C159.853 26.726 159.679 26.828 159.463 26.828Z" fill="#910C94"/>
<path d="M164.137 21.5C164.173 21.536 164.191 21.596 164.191 21.68C164.191 21.788 164.155 21.974 164.083 22.238C163.999 22.562 163.945 22.784 163.921 22.904C163.897 23.024 163.909 23.288 163.957 23.696C163.957 23.948 163.879 24.116 163.723 24.2C163.579 24.272 163.393 24.308 163.165 24.308C162.841 24.308 162.511 24.242 162.175 24.11C161.767 23.942 161.563 23.72 161.563 23.444C161.563 23.36 161.599 23.246 161.671 23.102C161.743 22.946 161.785 22.82 161.797 22.724C161.821 22.628 161.821 22.388 161.797 22.004C161.773 21.704 161.833 21.5 161.977 21.392C162.169 21.248 162.511 21.176 163.003 21.176C163.543 21.176 163.921 21.284 164.137 21.5ZM164.371 25.892C164.371 26.06 164.275 26.324 164.083 26.684C163.903 27.032 163.813 27.32 163.813 27.548V32.84C163.813 33.08 163.879 33.422 164.011 33.866C164.143 34.298 164.209 34.598 164.209 34.766C164.209 35.006 164.113 35.186 163.921 35.306C163.621 35.498 163.297 35.594 162.949 35.594C162.493 35.594 162.169 35.438 161.977 35.126C161.725 34.742 161.599 33.596 161.599 31.688C161.599 31.232 161.605 30.524 161.617 29.564C161.641 28.592 161.653 27.884 161.653 27.44C161.653 27.272 161.635 27.056 161.599 26.792C161.563 26.516 161.545 26.318 161.545 26.198C161.545 25.802 161.689 25.46 161.977 25.172C162.097 25.052 162.319 24.992 162.643 24.992C162.967 24.992 163.291 25.046 163.615 25.154C163.939 25.25 164.143 25.364 164.227 25.496C164.323 25.628 164.371 25.76 164.371 25.892Z" fill="#910C94"/>
<path d="M171.596 32.588C171.596 33.428 171.296 34.148 170.696 34.748C170.096 35.336 169.388 35.63 168.572 35.63C168.056 35.63 167.522 35.384 166.97 34.892C166.538 34.496 166.148 34.01 165.8 33.434C165.5 32.93 165.368 32.612 165.404 32.48C165.536 32.18 165.95 32.03 166.646 32.03C166.934 32.03 167.162 32.072 167.33 32.156C167.618 32.312 167.78 32.51 167.816 32.75C167.852 33.026 167.912 33.2 167.996 33.272C168.248 33.656 168.476 33.848 168.68 33.848C168.836 33.848 168.98 33.746 169.112 33.542C169.256 33.326 169.328 33.074 169.328 32.786C169.328 32.606 169.298 32.426 169.238 32.246C169.178 32.066 168.854 31.79 168.266 31.418C167.558 30.974 167.054 30.584 166.754 30.248C166.238 29.672 165.98 29 165.98 28.232C165.98 27.332 166.244 26.546 166.772 25.874C167.3 25.19 167.972 24.848 168.788 24.848C169.628 24.848 170.27 25.166 170.714 25.802C171.074 26.318 171.224 26.84 171.164 27.368C171.296 27.512 171.362 27.752 171.362 28.088C171.362 28.448 171.23 28.754 170.966 29.006C170.702 29.258 170.432 29.384 170.156 29.384C169.748 29.384 169.394 29.114 169.094 28.574C169.01 28.43 168.968 28.238 168.968 27.998C168.968 27.89 168.974 27.74 168.986 27.548C169.01 27.344 169.022 27.2 169.022 27.116C169.022 26.804 168.908 26.648 168.68 26.648C168.332 26.648 168.158 26.99 168.158 27.674C168.158 28.37 168.386 28.928 168.842 29.348C169.022 29.516 169.412 29.756 170.012 30.068C170.528 30.332 170.894 30.602 171.11 30.878C171.434 31.298 171.596 31.868 171.596 32.588Z" fill="#910C94"/>
<circle cx="30" cy="21" r="11" fill="#C318C7"/>
<path d="M41 36C41 33.0826 39.8411 30.2847 37.7782 28.2218C35.7153 26.1589 32.9174 25 30 25C27.0826 25 24.2847 26.1589 22.2218 28.2218C20.1589 30.2847 19 33.0826 19 36L41 36Z" fill="#910C94"/>
<path d="M41 44C41 41.0826 39.8411 38.2847 37.7782 36.2218C35.7153 34.1589 32.9174 33 30 33C27.0826 33 24.2847 34.1589 22.2218 36.2218C20.1589 38.2847 19 41.0826 19 44L41 44Z" fill="#C318C7"/>
</svg>
