<svg width="204" height="50" viewBox="0 0 204 50" fill="none" xmlns="http://www.w3.org/2000/svg">
<path d="M45.9925 32.0851C44.3434 32.0851 42.8813 31.7333 41.6061 31.0297C40.3308 30.3151 39.3249 29.2762 38.5884 27.913C37.8628 26.5389 37.5 24.8624 37.5 22.8835C37.5 20.9047 37.8903 19.2117 38.6708 17.8046C39.4623 16.3974 40.5397 15.32 41.9029 14.5725C43.2661 13.8139 44.7997 13.4346 46.5036 13.4346C47.559 13.4346 48.5759 13.5446 49.5543 13.7645C50.5328 13.9733 51.5936 14.4405 52.7369 15.1661L51.6816 18.1014C50.8131 17.4967 49.9336 17.0625 49.0431 16.7986C48.1637 16.5348 47.2842 16.4029 46.4047 16.4029C44.7667 16.4029 43.4585 16.9636 42.48 18.0849C41.5126 19.2062 41.0289 20.7068 41.0289 22.5867C41.0289 24.5875 41.4741 26.1706 42.3646 27.3359C43.2551 28.4902 44.4314 29.0674 45.8935 29.0674C46.6081 29.0674 47.2512 29.0069 47.8229 28.886C48.4055 28.754 49.0541 28.5122 49.7687 28.1604V24.8624H45.877V22.092H52.9183V29.8754C51.5881 30.7658 50.3843 31.3595 49.307 31.6563C48.2406 31.9422 47.1358 32.0851 45.9925 32.0851Z" fill="#5D6A09"/>
<path d="M56.3813 31.7882V24.1863C56.3813 22.977 56.3098 21.9491 56.1669 21.1026C56.035 20.2451 55.9031 19.602 55.7711 19.1732H59.1681C59.2561 19.4371 59.3495 19.8328 59.4485 20.3605C59.5474 20.8882 59.6189 21.3005 59.6628 21.5973C60.2675 20.7288 60.9271 20.0692 61.6417 19.6185C62.3562 19.1567 62.9939 18.9259 63.5545 18.9259C64.7198 18.9259 65.5443 19.3876 66.028 20.3111C66.5228 21.2235 66.7701 22.3119 66.7701 23.5761L64.0162 24.0049C63.9723 23.4442 63.8349 22.9935 63.604 22.6527C63.3731 22.3119 62.9938 22.1415 62.4662 22.1415C62.1913 22.1415 61.878 22.2954 61.5262 22.6032C61.1744 22.9 60.8446 23.2848 60.5368 23.7575C60.229 24.2302 59.9981 24.7249 59.8442 25.2416V31.7882H56.3813Z" fill="#5D6A09"/>
<path d="M72.3933 32.0851C71.5688 32.0851 70.8322 31.9092 70.1836 31.5574C69.546 31.2056 69.0458 30.7384 68.683 30.1557C68.3202 29.5731 68.1388 28.9464 68.1388 28.2758C68.1388 27.6382 68.2817 27.0061 68.5675 26.3795C68.8644 25.7418 69.3701 25.1922 70.0846 24.7304C70.8102 24.2687 71.8106 23.9774 73.0859 23.8565C73.3717 23.8235 73.74 23.7905 74.1907 23.7575C74.6524 23.7245 75.0977 23.697 75.5264 23.6751C75.9551 23.6421 76.252 23.6256 76.4169 23.6256V23.0155C76.4169 22.5537 76.153 22.2184 75.6253 22.0096C75.1087 21.8007 74.3831 21.6962 73.4486 21.6962C72.8 21.6962 72.1459 21.8282 71.4863 22.092C70.8377 22.3558 70.1506 22.7406 69.425 23.2463C69.436 22.9715 69.447 22.4988 69.458 21.8282C69.48 21.1466 69.513 20.5529 69.5569 20.0472C70.2605 19.7724 70.9971 19.5195 71.7666 19.2887C72.5472 19.0468 73.4596 18.9259 74.504 18.9259C76.12 18.9259 77.4173 19.2612 78.3957 19.9318C79.3851 20.5914 79.8798 21.4104 79.8798 22.3888V27.2205C79.8798 28.1109 79.9568 28.9244 80.1107 29.661C80.2756 30.3866 80.49 31.0957 80.7538 31.7882H77.4063C77.3293 31.6123 77.2304 31.376 77.1095 31.0792C76.9885 30.7823 76.8841 30.4635 76.7961 30.1227C76.1036 30.8153 75.378 31.3155 74.6194 31.6233C73.8609 31.9312 73.1188 32.0851 72.3933 32.0851ZM73.3002 29.2652C73.8169 29.2652 74.3171 29.1553 74.8008 28.9354C75.2845 28.7156 75.8232 28.2044 76.4169 27.4018V25.9177C76.175 25.9287 75.7628 25.9617 75.1801 26.0167C74.5975 26.0606 74.1467 26.1046 73.8279 26.1486C72.9704 26.2365 72.3823 26.4399 72.0635 26.7587C71.7556 27.0665 71.6017 27.4238 71.6017 27.8306C71.6017 28.2264 71.7556 28.5672 72.0635 28.853C72.3823 29.1278 72.7945 29.2652 73.3002 29.2652Z" fill="#5D6A09"/>
<path d="M88.2898 32.0851C87.1905 32.0851 86.1736 31.9476 85.2391 31.6728C84.3157 31.387 83.5846 31.0572 83.0459 30.6834L83.722 27.6492C84.3377 28.1549 85.0797 28.5617 85.9482 28.8695C86.8277 29.1663 87.6302 29.3147 88.3558 29.3147C88.9384 29.3147 89.4111 29.2048 89.7739 28.9849C90.1477 28.754 90.3346 28.4957 90.3346 28.2099C90.3346 27.8471 90.1422 27.5283 89.7574 27.2534C89.3837 26.9676 88.6086 26.6983 87.4323 26.4454C86.267 26.1926 85.3765 25.8902 84.7609 25.5385C84.1453 25.1867 83.722 24.7854 83.4912 24.3347C83.2713 23.8839 83.1614 23.4002 83.1614 22.8835C83.1614 22.5867 83.2438 22.2184 83.4087 21.7787C83.5736 21.328 83.854 20.8882 84.2497 20.4595C84.6565 20.0197 85.2062 19.6569 85.8987 19.3711C86.6023 19.0743 87.4818 18.9259 88.5372 18.9259C89.5486 18.9259 90.4226 19.0358 91.1591 19.2557C91.9067 19.4646 92.5168 19.6844 92.9895 19.9153L92.5113 22.8341C92.0496 22.5812 91.4669 22.3229 90.7634 22.059C90.0598 21.7842 89.2792 21.6468 88.4217 21.6468C87.6962 21.6468 87.196 21.7732 86.9211 22.026C86.6463 22.2679 86.5089 22.5153 86.5089 22.7681C86.5089 23.0759 86.6463 23.3178 86.9211 23.4937C87.207 23.6586 87.8941 23.851 88.9824 24.0708C89.8399 24.2357 90.6204 24.4666 91.324 24.7634C92.0386 25.0602 92.6103 25.4615 93.039 25.9672C93.4677 26.4729 93.6821 27.116 93.6821 27.8966C93.6821 28.6881 93.4403 29.4027 92.9565 30.0403C92.4838 30.6669 91.8407 31.1671 91.0272 31.5409C90.2137 31.9037 89.3012 32.0851 88.2898 32.0851Z" fill="#5D6A09"/>
<path d="M101.086 32.0851C99.9869 32.0851 98.97 31.9476 98.0355 31.6728C97.1121 31.387 96.381 31.0572 95.8423 30.6834L96.5184 27.6492C97.1341 28.1549 97.8761 28.5617 98.7446 28.8695C99.6241 29.1663 100.427 29.3147 101.152 29.3147C101.735 29.3147 102.208 29.2048 102.57 28.9849C102.944 28.754 103.131 28.4957 103.131 28.2099C103.131 27.8471 102.939 27.5283 102.554 27.2534C102.18 26.9676 101.405 26.6983 100.229 26.4454C99.0634 26.1926 98.1729 25.8902 97.5573 25.5385C96.9417 25.1867 96.5184 24.7854 96.2876 24.3347C96.0677 23.8839 95.9578 23.4002 95.9578 22.8835C95.9578 22.5867 96.0402 22.2184 96.2051 21.7787C96.37 21.328 96.6504 20.8882 97.0461 20.4595C97.4529 20.0197 98.0025 19.6569 98.6951 19.3711C99.3987 19.0743 100.278 18.9259 101.334 18.9259C102.345 18.9259 103.219 19.0358 103.956 19.2557C104.703 19.4646 105.313 19.6844 105.786 19.9153L105.308 22.8341C104.846 22.5812 104.263 22.3229 103.56 22.059C102.856 21.7842 102.076 21.6468 101.218 21.6468C100.493 21.6468 99.9924 21.7732 99.7175 22.026C99.4427 22.2679 99.3053 22.5153 99.3053 22.7681C99.3053 23.0759 99.4427 23.3178 99.7175 23.4937C100.003 23.6586 100.69 23.851 101.779 24.0708C102.636 24.2357 103.417 24.4666 104.12 24.7634C104.835 25.0602 105.407 25.4615 105.835 25.9672C106.264 26.4729 106.479 27.116 106.479 27.8966C106.479 28.6881 106.237 29.4027 105.753 30.0403C105.28 30.6669 104.637 31.1671 103.824 31.5409C103.01 31.9037 102.098 32.0851 101.086 32.0851Z" fill="#5D6A09"/>
<path d="M109.067 31.7882C109.067 31.7882 109.067 31.5079 109.067 30.9472C109.067 30.3756 109.067 29.6335 109.067 28.7211C109.067 27.7976 109.067 26.7972 109.067 25.7198C109.067 24.6315 109.067 23.5596 109.067 22.5043C109.067 21.4489 109.067 20.5034 109.067 19.6679C109.067 18.8324 109.067 18.2168 109.067 17.821C109.067 16.4908 109.056 15.3255 109.034 14.3251C109.023 13.3137 108.974 12.5387 108.886 12H112.53C112.53 12 112.53 12.2968 112.53 12.8905C112.53 13.4841 112.53 14.2262 112.53 15.1166C112.53 15.9961 112.53 16.8921 112.53 17.8046C112.53 18.706 112.53 19.4866 112.53 20.1462C112.53 20.7948 112.53 21.174 112.53 21.284C113.135 20.5034 113.866 19.9153 114.724 19.5195C115.592 19.1238 116.466 18.9259 117.346 18.9259C119.863 18.9259 121.122 20.6409 121.122 24.0708C121.122 24.4776 121.122 25.0053 121.122 25.6539C121.122 26.2915 121.122 26.9621 121.122 27.6657C121.122 28.3693 121.122 29.0344 121.122 29.661C121.122 30.2876 121.122 30.7988 121.122 31.1946C121.122 31.5904 121.122 31.7882 121.122 31.7882H117.659C117.659 31.7882 117.659 31.5244 117.659 30.9967C117.659 30.458 117.659 29.8039 117.659 29.0344C117.659 28.2538 117.659 27.4953 117.659 26.7587C117.659 26.0112 117.659 25.423 117.659 24.9943C117.659 23.785 117.505 22.977 117.197 22.5702C116.889 22.1635 116.406 21.9601 115.746 21.9601C115.042 21.9601 114.383 22.2459 113.767 22.8176C113.163 23.3782 112.75 23.9774 112.53 24.615V31.7882H109.067Z" fill="#5D6A09"/>
<path d="M129.713 32.0851C127.976 32.0851 126.553 31.5244 125.442 30.4031C124.332 29.2707 123.777 27.6437 123.777 25.522C123.777 24.1038 124.057 22.9055 124.618 21.9271C125.189 20.9487 125.942 20.2066 126.877 19.7009C127.822 19.1842 128.85 18.9259 129.961 18.9259C131.709 18.9259 133.132 19.492 134.232 20.6244C135.342 21.7567 135.897 23.3892 135.897 25.522C135.897 26.9401 135.611 28.1384 135.04 29.1168C134.479 30.0843 133.731 30.8208 132.797 31.3265C131.862 31.8322 130.835 32.0851 129.713 32.0851ZM129.845 29.3147C130.637 29.3147 131.263 28.9794 131.725 28.3088C132.198 27.6272 132.434 26.6983 132.434 25.522C132.434 24.3347 132.214 23.4057 131.774 22.7351C131.335 22.0535 130.692 21.7127 129.845 21.7127C129.043 21.7127 128.405 22.0535 127.932 22.7351C127.471 23.4057 127.24 24.3347 127.24 25.522C127.24 26.6983 127.46 27.6272 127.899 28.3088C128.35 28.9794 128.999 29.3147 129.845 29.3147Z" fill="#5D6A09"/>
<path d="M138.799 37.8401V25.8023C138.799 24.2632 138.766 22.9495 138.7 21.8611C138.645 20.7728 138.475 19.8768 138.189 19.1732H141.586C141.674 19.3601 141.762 19.6295 141.85 19.9813C141.949 20.333 142.026 20.7673 142.081 21.284C142.653 20.5914 143.318 20.0252 144.076 19.5855C144.846 19.1458 145.676 18.9259 146.566 18.9259C147.49 18.9259 148.298 19.1952 148.99 19.7339C149.683 20.2726 150.216 21.0146 150.59 21.9601C150.975 22.8945 151.167 23.9664 151.167 25.1757C151.167 26.5828 150.92 27.8086 150.425 28.853C149.93 29.8864 149.265 30.6834 148.43 31.2441C147.594 31.8047 146.671 32.0851 145.659 32.0851C145.011 32.0851 144.428 31.9861 143.911 31.7882C143.395 31.6014 142.845 31.3375 142.262 30.9967V33.6351C142.262 34.6246 142.284 35.4381 142.328 36.0757C142.383 36.7243 142.466 37.3125 142.576 37.8401H138.799ZM144.835 29.2487C145.593 29.2487 146.258 28.9189 146.83 28.2593C147.413 27.5887 147.704 26.6873 147.704 25.5549C147.704 24.4336 147.495 23.5431 147.077 22.8835C146.66 22.2129 146.077 21.8776 145.329 21.8776C144.78 21.8776 144.219 22.1085 143.647 22.5702C143.076 23.021 142.614 23.6861 142.262 24.5655V28.0779C142.9 28.5507 143.384 28.864 143.713 29.0179C144.043 29.1718 144.417 29.2487 144.835 29.2487Z" fill="#5D6A09"/>
<path d="M154.069 37.8401V25.8023C154.069 24.2632 154.036 22.9495 153.97 21.8611C153.915 20.7728 153.745 19.8768 153.459 19.1732H156.856C156.944 19.3601 157.032 19.6295 157.12 19.9813C157.219 20.333 157.296 20.7673 157.351 21.284C157.922 20.5914 158.588 20.0252 159.346 19.5855C160.116 19.1458 160.946 18.9259 161.836 18.9259C162.76 18.9259 163.568 19.1952 164.26 19.7339C164.953 20.2726 165.486 21.0146 165.86 21.9601C166.244 22.8945 166.437 23.9664 166.437 25.1757C166.437 26.5828 166.19 27.8086 165.695 28.853C165.2 29.8864 164.535 30.6834 163.7 31.2441C162.864 31.8047 161.941 32.0851 160.929 32.0851C160.281 32.0851 159.698 31.9861 159.181 31.7882C158.664 31.6014 158.115 31.3375 157.532 30.9967V33.6351C157.532 34.6246 157.554 35.4381 157.598 36.0757C157.653 36.7243 157.736 37.3125 157.845 37.8401H154.069ZM160.105 29.2487C160.863 29.2487 161.528 28.9189 162.1 28.2593C162.683 27.5887 162.974 26.6873 162.974 25.5549C162.974 24.4336 162.765 23.5431 162.347 22.8835C161.93 22.2129 161.347 21.8776 160.599 21.8776C160.05 21.8776 159.489 22.1085 158.917 22.5702C158.346 23.021 157.884 23.6861 157.532 24.5655V28.0779C158.17 28.5507 158.653 28.864 158.983 29.0179C159.313 29.1718 159.687 29.2487 160.105 29.2487Z" fill="#5D6A09"/>
<path d="M174.83 32.0851C173.742 32.0851 172.731 31.8432 171.796 31.3595C170.862 30.8758 170.103 30.1557 169.521 29.1993C168.949 28.2428 168.663 27.0665 168.663 25.6704C168.663 23.6256 169.213 21.9931 170.312 20.7728C171.422 19.5415 172.929 18.9259 174.83 18.9259C176.216 18.9259 177.282 19.2392 178.029 19.8658C178.777 20.4815 179.294 21.2675 179.58 22.2239C179.876 23.1804 180.025 24.1753 180.025 25.2087C180.025 25.3296 180.025 25.5 180.025 25.7198C180.036 25.9397 180.041 26.1101 180.041 26.231H170.543V24.0049H176.892C176.892 23.1364 176.699 22.5098 176.314 22.125C175.941 21.7292 175.391 21.5313 174.665 21.5313C173.775 21.5313 173.11 21.8392 172.67 22.4548C172.241 23.0704 172.027 24.1038 172.027 25.5549C172.027 26.8632 172.291 27.8196 172.819 28.4242C173.346 29.0179 174.121 29.3147 175.144 29.3147C175.957 29.3147 176.749 29.2213 177.518 29.0344C178.299 28.8475 179.074 28.5287 179.843 28.0779L180.107 30.8648C179.217 31.3155 178.354 31.6288 177.518 31.8047C176.694 31.9916 175.798 32.0851 174.83 32.0851Z" fill="#5D6A09"/>
<path d="M183.059 31.7882V24.1863C183.059 22.977 182.988 21.9491 182.845 21.1026C182.713 20.2451 182.581 19.602 182.449 19.1732H185.846C185.934 19.4371 186.027 19.8328 186.126 20.3605C186.225 20.8882 186.297 21.3005 186.341 21.5973C186.945 20.7288 187.605 20.0692 188.319 19.6185C189.034 19.1567 189.672 18.9259 190.232 18.9259C191.398 18.9259 192.222 19.3876 192.706 20.3111C193.2 21.2235 193.448 22.3119 193.448 23.5761L190.694 24.0049C190.65 23.4442 190.513 22.9935 190.282 22.6527C190.051 22.3119 189.672 22.1415 189.144 22.1415C188.869 22.1415 188.556 22.2954 188.204 22.6032C187.852 22.9 187.522 23.2848 187.215 23.7575C186.907 24.2302 186.676 24.7249 186.522 25.2416V31.7882H183.059Z" fill="#5D6A09"/>
<path d="M12.4225 20.625C12.9932 13.9029 18.6302 8.625 25.5 8.625H27.375V20.625H12.4225Z" stroke="#5D6A09" stroke-width="2.25"/>
<circle cx="22.125" cy="14.625" r="1.875" fill="#5D6A09"/>
<path d="M17.625 25.125H27.375V30C27.375 35.6262 23.1025 40.2546 17.625 40.8175V25.125Z" stroke="#5D6A09" stroke-width="2.25"/>
</svg>
