<svg width="174" height="47" viewBox="0 0 174 47" fill="none" xmlns="http://www.w3.org/2000/svg">
<path d="M63 33.5632V13.4032H66.8016V21.4096H67.32L73.8576 13.4032H78.7248L70.3152 23.3392L79.0128 33.5632H74.0016L67.32 25.384H66.8016V33.5632H63Z" fill="#FF9100"/>
<path d="M81.1433 33.5632V19.2784H84.7721V33.5632H81.1433ZM82.9577 17.608C82.3049 17.608 81.7481 17.3968 81.2873 16.9744C80.8457 16.552 80.6249 15.9952 80.6249 15.304C80.6249 14.6128 80.8457 14.056 81.2873 13.6336C81.7481 13.2112 82.3049 13 82.9577 13C83.6297 13 84.1865 13.2112 84.6281 13.6336C85.0697 14.056 85.2905 14.6128 85.2905 15.304C85.2905 15.9952 85.0697 16.552 84.6281 16.9744C84.1865 17.3968 83.6297 17.608 82.9577 17.608Z" fill="#FF9100"/>
<path d="M88.7933 33.5632V19.2784H92.3645V21.1504H92.8829C93.1133 20.6512 93.5453 20.1808 94.1789 19.7392C94.8125 19.2784 95.7725 19.048 97.0589 19.048C98.1725 19.048 99.1421 19.3072 99.9677 19.8256C100.813 20.3248 101.465 21.0256 101.926 21.928C102.387 22.8112 102.617 23.848 102.617 25.0384V33.5632H98.9885V25.3264C98.9885 24.2512 98.7197 23.4448 98.1821 22.9072C97.6637 22.3696 96.9149 22.1008 95.9357 22.1008C94.8221 22.1008 93.9581 22.4752 93.3437 23.224C92.7293 23.9536 92.4221 24.9808 92.4221 26.3056V33.5632H88.7933Z" fill="#FF9100"/>
<path d="M113.049 33.9664C111.628 33.9664 110.371 33.6688 109.276 33.0736C108.201 32.4592 107.356 31.6048 106.742 30.5104C106.147 29.3968 105.849 28.0912 105.849 26.5936V26.248C105.849 24.7504 106.147 23.4544 106.742 22.36C107.337 21.2464 108.172 20.392 109.247 19.7968C110.323 19.1824 111.571 18.8752 112.991 18.8752C114.393 18.8752 115.612 19.192 116.649 19.8256C117.686 20.44 118.492 21.304 119.068 22.4176C119.644 23.512 119.932 24.7888 119.932 26.248V27.4864H109.535C109.574 28.4656 109.939 29.2624 110.63 29.8768C111.321 30.4912 112.166 30.7984 113.164 30.7984C114.182 30.7984 114.931 30.5776 115.411 30.136C115.891 29.6944 116.255 29.2048 116.505 28.6672L119.471 30.2224C119.203 30.7216 118.809 31.2688 118.291 31.864C117.791 32.44 117.119 32.9392 116.275 33.3616C115.43 33.7648 114.355 33.9664 113.049 33.9664ZM109.564 24.7792H116.246C116.169 23.9536 115.833 23.2912 115.238 22.792C114.662 22.2928 113.903 22.0432 112.963 22.0432C111.983 22.0432 111.206 22.2928 110.63 22.792C110.054 23.2912 109.699 23.9536 109.564 24.7792Z" fill="#FF9100"/>
<path d="M128.156 33.5632C127.215 33.5632 126.447 33.2752 125.852 32.6992C125.276 32.104 124.988 31.3168 124.988 30.3376V22.2736H121.417V19.2784H124.988V14.8432H128.617V19.2784H132.534V22.2736H128.617V29.704C128.617 30.28 128.886 30.568 129.423 30.568H132.188V33.5632H128.156Z" fill="#FF9100"/>
<path d="M135.818 33.5632V19.2784H139.447V33.5632H135.818ZM137.633 17.608C136.98 17.608 136.423 17.3968 135.962 16.9744C135.521 16.552 135.3 15.9952 135.3 15.304C135.3 14.6128 135.521 14.056 135.962 13.6336C136.423 13.2112 136.98 13 137.633 13C138.305 13 138.862 13.2112 139.303 13.6336C139.745 14.056 139.966 14.6128 139.966 15.304C139.966 15.9952 139.745 16.552 139.303 16.9744C138.862 17.3968 138.305 17.608 137.633 17.608Z" fill="#FF9100"/>
<path d="M150.179 33.9664C148.796 33.9664 147.539 33.6784 146.406 33.1024C145.292 32.5264 144.409 31.6912 143.756 30.5968C143.104 29.5024 142.777 28.1776 142.777 26.6224V26.2192C142.777 24.664 143.104 23.3392 143.756 22.2448C144.409 21.1504 145.292 20.3152 146.406 19.7392C147.539 19.1632 148.796 18.8752 150.179 18.8752C151.542 18.8752 152.713 19.1152 153.692 19.5952C154.672 20.0752 155.459 20.7376 156.054 21.5824C156.668 22.408 157.072 23.3488 157.264 24.4048L153.75 25.1536C153.673 24.5776 153.5 24.0592 153.232 23.5984C152.963 23.1376 152.579 22.7728 152.08 22.504C151.6 22.2352 150.995 22.1008 150.265 22.1008C149.536 22.1008 148.873 22.264 148.278 22.5904C147.702 22.8976 147.241 23.368 146.896 24.0016C146.569 24.616 146.406 25.3744 146.406 26.2768V26.5648C146.406 27.4672 146.569 28.2352 146.896 28.8688C147.241 29.4832 147.702 29.9536 148.278 30.28C148.873 30.5872 149.536 30.7408 150.265 30.7408C151.36 30.7408 152.185 30.4624 152.742 29.9056C153.318 29.3296 153.683 28.5808 153.836 27.6592L157.35 28.4944C157.1 29.512 156.668 30.4432 156.054 31.288C155.459 32.1136 154.672 32.7664 153.692 33.2464C152.713 33.7264 151.542 33.9664 150.179 33.9664Z" fill="#FF9100"/>
<rect x="17.6279" y="7.62791" width="31.7442" height="31.7442" stroke="#FF9100" stroke-width="3.25581"/>
<path d="M31 10L31 38" stroke="#FF9100" stroke-width="3.26" stroke-linecap="square"/>
<path d="M49 8L31.8925 22.2562C31.4227 22.6478 31.4112 23.3655 31.8683 23.7719L49 39" stroke="#FF9100" stroke-width="3.26"/>
</svg>
