<svg width="192" height="47" viewBox="0 0 192 47" fill="none" xmlns="http://www.w3.org/2000/svg">
<path d="M69.4424 29.9817C68.9709 29.9817 68.5877 29.8712 68.293 29.6501C67.9983 29.4143 67.7625 29.0607 67.5857 28.5891L63.1205 16.0336C62.9289 15.4736 62.9658 14.9947 63.231 14.5968C63.511 14.1989 63.99 14 64.6678 14C65.1394 14 65.5004 14.1105 65.751 14.3316C66.0162 14.5526 66.2299 14.8989 66.392 15.3705L70.0393 26.2239H69.0888L72.935 15.3926C73.1118 14.921 73.3255 14.5747 73.576 14.3537C73.8413 14.1179 74.1876 14 74.6149 14C75.0276 14 75.3591 14.1179 75.6097 14.3537C75.8602 14.5747 76.0739 14.9284 76.2507 15.4147L79.9201 26.2239H79.1022L82.8158 15.3705C82.9631 14.9137 83.1695 14.5747 83.4347 14.3537C83.7 14.1179 84.061 14 84.5178 14C85.0926 14 85.5126 14.1989 85.7778 14.5968C86.0431 14.9947 86.0725 15.4736 85.8662 16.0336L81.3569 28.6112C81.1948 29.068 80.9737 29.4143 80.6937 29.6501C80.4137 29.8712 80.0306 29.9817 79.5443 29.9817C79.0727 29.9817 78.6969 29.8712 78.4169 29.6501C78.137 29.4143 77.9085 29.0607 77.7317 28.5891L74.2392 18.7083H74.7697L71.2329 28.6112C71.0561 29.068 70.8277 29.4143 70.5477 29.6501C70.2824 29.8712 69.914 29.9817 69.4424 29.9817Z" fill="black"/>
<path d="M91.3038 29.9817C90.7586 29.9817 90.3386 29.8343 90.0438 29.5396C89.7638 29.2449 89.6238 28.8249 89.6238 28.2796V15.7021C89.6238 15.1421 89.7638 14.7221 90.0438 14.4421C90.3386 14.1474 90.7586 14 91.3038 14C91.8343 14 92.2396 14.1474 92.5196 14.4421C92.8143 14.7221 92.9617 15.1421 92.9617 15.7021V20.963H92.6522C92.9911 20.2409 93.4922 19.6883 94.1553 19.3051C94.8332 18.9072 95.5995 18.7083 96.4542 18.7083C97.3236 18.7083 98.0384 18.8778 98.5984 19.2167C99.1583 19.5409 99.5783 20.0419 99.8583 20.7198C100.138 21.383 100.278 22.2303 100.278 23.2619V28.2796C100.278 28.8249 100.131 29.2449 99.8362 29.5396C99.5562 29.8343 99.1436 29.9817 98.5984 29.9817C98.0678 29.9817 97.6552 29.8343 97.3605 29.5396C97.0805 29.2449 96.9405 28.8249 96.9405 28.2796V23.4166C96.9405 22.665 96.8005 22.1272 96.5205 21.803C96.2553 21.464 95.8426 21.2945 95.2826 21.2945C94.5753 21.2945 94.0079 21.5156 93.5806 21.9577C93.168 22.3998 92.9617 22.9892 92.9617 23.7261V28.2796C92.9617 29.4143 92.409 29.9817 91.3038 29.9817Z" fill="black"/>
<path d="M108.849 30.0259C107.567 30.0259 106.462 29.7975 105.533 29.3407C104.62 28.8691 103.912 28.2133 103.411 27.3733C102.925 26.5186 102.682 25.5165 102.682 24.3671C102.682 23.2471 102.917 22.2672 103.389 21.4272C103.861 20.5725 104.516 19.9093 105.356 19.4378C106.211 18.9514 107.176 18.7083 108.252 18.7083C109.033 18.7083 109.74 18.8409 110.374 19.1062C111.008 19.3567 111.553 19.7251 112.01 20.2114C112.467 20.683 112.813 21.2651 113.049 21.9577C113.285 22.6356 113.402 23.3945 113.402 24.2345C113.402 24.5145 113.314 24.7281 113.137 24.8755C112.96 25.0081 112.702 25.0744 112.364 25.0744H105.423V23.3503H110.993L110.639 23.6597C110.639 23.0556 110.551 22.5545 110.374 22.1566C110.197 21.744 109.939 21.4345 109.6 21.2282C109.276 21.0219 108.871 20.9188 108.385 20.9188C107.839 20.9188 107.375 21.044 106.992 21.2945C106.609 21.5451 106.314 21.9061 106.108 22.3777C105.902 22.8492 105.798 23.4166 105.798 24.0797V24.2566C105.798 25.3765 106.056 26.2018 106.572 26.7323C107.103 27.2628 107.884 27.5281 108.915 27.5281C109.269 27.5281 109.674 27.4839 110.131 27.3954C110.588 27.307 111.015 27.167 111.413 26.9754C111.752 26.8133 112.054 26.7618 112.319 26.8207C112.585 26.8649 112.791 26.9828 112.938 27.1744C113.086 27.366 113.167 27.587 113.181 27.8375C113.211 28.0881 113.159 28.3386 113.027 28.5891C112.894 28.8249 112.673 29.0238 112.364 29.1859C111.862 29.4659 111.295 29.6722 110.661 29.8048C110.043 29.9522 109.438 30.0259 108.849 30.0259Z" fill="black"/>
<path d="M121.423 30.0259C120.141 30.0259 119.035 29.7975 118.107 29.3407C117.193 28.8691 116.486 28.2133 115.985 27.3733C115.499 26.5186 115.255 25.5165 115.255 24.3671C115.255 23.2471 115.491 22.2672 115.963 21.4272C116.434 20.5725 117.09 19.9093 117.93 19.4378C118.785 18.9514 119.75 18.7083 120.826 18.7083C121.607 18.7083 122.314 18.8409 122.948 19.1062C123.582 19.3567 124.127 19.7251 124.584 20.2114C125.04 20.683 125.387 21.2651 125.623 21.9577C125.858 22.6356 125.976 23.3945 125.976 24.2345C125.976 24.5145 125.888 24.7281 125.711 24.8755C125.534 25.0081 125.276 25.0744 124.937 25.0744H117.996V23.3503H123.567L123.213 23.6597C123.213 23.0556 123.125 22.5545 122.948 22.1566C122.771 21.744 122.513 21.4345 122.174 21.2282C121.85 21.0219 121.445 20.9188 120.958 20.9188C120.413 20.9188 119.949 21.044 119.566 21.2945C119.183 21.5451 118.888 21.9061 118.682 22.3777C118.475 22.8492 118.372 23.4166 118.372 24.0797V24.2566C118.372 25.3765 118.63 26.2018 119.146 26.7323C119.676 27.2628 120.457 27.5281 121.489 27.5281C121.843 27.5281 122.248 27.4839 122.705 27.3954C123.162 27.307 123.589 27.167 123.987 26.9754C124.326 26.8133 124.628 26.7618 124.893 26.8207C125.158 26.8649 125.365 26.9828 125.512 27.1744C125.659 27.366 125.74 27.587 125.755 27.8375C125.785 28.0881 125.733 28.3386 125.6 28.5891C125.468 28.8249 125.247 29.0238 124.937 29.1859C124.436 29.4659 123.869 29.6722 123.235 29.8048C122.616 29.9522 122.012 30.0259 121.423 30.0259Z" fill="black"/>
<path d="M132.272 30.0259C130.961 30.0259 129.981 29.6649 129.332 28.9428C128.684 28.2059 128.36 27.1154 128.36 25.6713V15.7021C128.36 15.1421 128.5 14.7221 128.78 14.4421C129.074 14.1474 129.494 14 130.04 14C130.57 14 130.975 14.1474 131.255 14.4421C131.55 14.7221 131.698 15.1421 131.698 15.7021V25.5386C131.698 26.1428 131.823 26.5923 132.073 26.887C132.339 27.167 132.685 27.307 133.112 27.307C133.23 27.307 133.341 27.2997 133.444 27.2849C133.547 27.2702 133.657 27.2628 133.775 27.2628C134.011 27.2333 134.173 27.307 134.262 27.4839C134.365 27.646 134.416 27.9775 134.416 28.4786C134.416 28.9207 134.328 29.2596 134.151 29.4954C133.974 29.7164 133.702 29.8638 133.333 29.9375C133.186 29.9522 133.016 29.967 132.825 29.9817C132.633 30.0112 132.449 30.0259 132.272 30.0259Z" fill="black"/>
<path d="M136.892 29.9817C136.48 29.9817 136.141 29.8859 135.875 29.6943C135.625 29.5028 135.463 29.2449 135.389 28.9207C135.33 28.5965 135.397 28.2354 135.588 27.8375L141.247 15.4368C141.483 14.9358 141.763 14.5747 142.087 14.3537C142.411 14.1179 142.787 14 143.214 14C143.642 14 144.017 14.1179 144.342 14.3537C144.666 14.5747 144.938 14.9358 145.159 15.4368L150.862 27.8375C151.054 28.2354 151.12 28.6038 151.061 28.9428C151.017 29.267 150.87 29.5249 150.619 29.7164C150.369 29.8933 150.045 29.9817 149.647 29.9817C149.146 29.9817 148.755 29.8638 148.475 29.628C148.21 29.3922 147.974 29.0238 147.768 28.5228L146.442 25.4502L147.812 26.4007H138.594L139.965 25.4502L138.661 28.5228C138.44 29.0386 138.204 29.4143 137.953 29.6501C137.718 29.8712 137.364 29.9817 136.892 29.9817ZM143.17 17.8462L140.341 24.5881L139.744 23.7261H146.663L146.066 24.5881L143.214 17.8462H143.17Z" fill="black"/>
<path d="M154.928 33.9605C154.383 33.9605 153.963 33.8132 153.668 33.5184C153.388 33.2384 153.248 32.8185 153.248 32.2585V20.4325C153.248 19.8872 153.388 19.4746 153.668 19.1946C153.963 18.8999 154.368 18.7525 154.884 18.7525C155.429 18.7525 155.842 18.8999 156.122 19.1946C156.402 19.4746 156.542 19.8872 156.542 20.4325V21.9356L156.299 21.0735C156.52 20.3661 156.962 19.7988 157.625 19.3714C158.303 18.9293 159.076 18.7083 159.946 18.7083C160.889 18.7083 161.714 18.9367 162.422 19.3935C163.144 19.8504 163.704 20.4988 164.102 21.3388C164.499 22.1787 164.698 23.1808 164.698 24.345C164.698 25.5092 164.499 26.5186 164.102 27.3733C163.704 28.228 163.151 28.8838 162.444 29.3407C161.736 29.7975 160.904 30.0259 159.946 30.0259C159.091 30.0259 158.332 29.8196 157.669 29.407C157.006 28.9796 156.557 28.427 156.321 27.7491H156.586V32.2585C156.586 32.8185 156.439 33.2384 156.144 33.5184C155.864 33.8132 155.459 33.9605 154.928 33.9605ZM158.951 27.5281C159.423 27.5281 159.835 27.4102 160.189 27.1744C160.557 26.9386 160.837 26.5923 161.029 26.1355C161.235 25.6639 161.339 25.0671 161.339 24.345C161.339 23.2692 161.117 22.4808 160.675 21.9798C160.233 21.464 159.659 21.2061 158.951 21.2061C158.48 21.2061 158.06 21.3167 157.691 21.5377C157.338 21.7587 157.058 22.1051 156.851 22.5766C156.645 23.0334 156.542 23.6229 156.542 24.345C156.542 25.4208 156.763 26.2239 157.205 26.7544C157.647 27.2702 158.229 27.5281 158.951 27.5281Z" fill="black"/>
<path d="M168.862 33.9605C168.317 33.9605 167.897 33.8132 167.602 33.5184C167.322 33.2384 167.182 32.8185 167.182 32.2585V20.4325C167.182 19.8872 167.322 19.4746 167.602 19.1946C167.897 18.8999 168.302 18.7525 168.818 18.7525C169.363 18.7525 169.776 18.8999 170.056 19.1946C170.336 19.4746 170.476 19.8872 170.476 20.4325V21.9356L170.232 21.0735C170.453 20.3661 170.896 19.7988 171.559 19.3714C172.237 18.9293 173.01 18.7083 173.88 18.7083C174.823 18.7083 175.648 18.9367 176.355 19.3935C177.077 19.8504 177.637 20.4988 178.035 21.3388C178.433 22.1787 178.632 23.1808 178.632 24.345C178.632 25.5092 178.433 26.5186 178.035 27.3733C177.637 28.228 177.085 28.8838 176.377 29.3407C175.67 29.7975 174.838 30.0259 173.88 30.0259C173.025 30.0259 172.266 29.8196 171.603 29.407C170.94 28.9796 170.49 28.427 170.254 27.7491H170.52V32.2585C170.52 32.8185 170.372 33.2384 170.078 33.5184C169.798 33.8132 169.392 33.9605 168.862 33.9605ZM172.885 27.5281C173.356 27.5281 173.769 27.4102 174.123 27.1744C174.491 26.9386 174.771 26.5923 174.963 26.1355C175.169 25.6639 175.272 25.0671 175.272 24.345C175.272 23.2692 175.051 22.4808 174.609 21.9798C174.167 21.464 173.592 21.2061 172.885 21.2061C172.413 21.2061 171.993 21.3167 171.625 21.5377C171.271 21.7587 170.991 22.1051 170.785 22.5766C170.579 23.0334 170.476 23.6229 170.476 24.345C170.476 25.4208 170.697 26.2239 171.139 26.7544C171.581 27.2702 172.163 27.5281 172.885 27.5281Z" fill="black"/>
<line x1="14.2426" y1="28.7812" x2="54.4971" y2="37.7266" stroke="black" stroke-width="2.23636"/>
<path d="M35.7785 28.1678C34.155 29.4126 32.1908 30.1332 30.1475 30.2334C28.1042 30.3336 26.0789 29.8087 24.3414 28.7286C22.604 27.6485 21.237 26.0646 20.4227 24.1879C19.6083 22.3112 19.3852 20.2309 19.7832 18.2242C20.1812 16.2175 21.1812 14.3797 22.6501 12.9559C24.1191 11.532 25.987 10.5896 28.0052 10.2543C30.0233 9.91897 32.0956 10.2067 33.9461 11.0791C35.7965 11.9514 37.3371 13.3671 38.3626 15.1372" stroke="black" stroke-width="2.23636"/>
<circle cx="43.8182" cy="23.1636" r="10.0636" stroke="black" stroke-width="2.23636"/>
</svg>
