<svg width="198" height="28" viewBox="0 0 198 28" fill="none" xmlns="http://www.w3.org/2000/svg">
<path d="M49.772 22C48.7155 22 47.7205 21.7938 46.787 21.3813C45.8607 20.9616 45.0104 20.3464 44.2361 19.536C43.9032 19.1958 43.5993 18.8087 43.3243 18.3745C43.0493 17.9331 42.8141 17.4446 42.6187 16.9091C42.4233 16.3736 42.2714 15.7874 42.1628 15.1506C42.0543 14.5066 42 13.8082 42 13.0556C42 12.5201 42.0977 11.9738 42.2931 11.4166C42.4957 10.8521 42.7707 10.313 43.118 9.79919C43.4654 9.27815 43.8743 8.79692 44.3446 8.3555C44.815 7.90683 45.3216 7.52329 45.8643 7.20488C46.6024 6.75622 47.337 6.44867 48.0678 6.28223C48.806 6.10855 49.4862 6.02171 50.1085 6.02171C50.4197 6.02171 50.7454 6.04704 51.0855 6.09769C51.4256 6.14835 51.7476 6.21348 52.0516 6.29308C52.3627 6.37268 52.645 6.45952 52.8982 6.5536C53.1588 6.64767 53.3614 6.73813 53.5061 6.82497C53.8535 7.03483 54.2081 7.29534 54.5699 7.60651C54.9317 7.91768 55.2718 8.25418 55.5902 8.61601C55.9086 8.97784 56.1945 9.35052 56.4478 9.73406C56.7083 10.1104 56.9109 10.4686 57.0556 10.8087C57.3017 11.3731 57.4681 11.9376 57.555 12.502C57.6418 13.0665 57.6852 13.6526 57.6852 14.2605C57.6852 14.9118 57.6165 15.5233 57.479 16.095C57.3487 16.6594 57.1569 17.1913 56.9037 17.6906C56.6504 18.19 56.3392 18.6603 55.9701 19.1018C55.6083 19.536 55.1958 19.9521 54.7327 20.3501C54.3926 20.6323 54.0452 20.8783 53.6906 21.0882C53.336 21.2908 52.9561 21.4609 52.5509 21.5984C52.1529 21.7359 51.7259 21.8372 51.27 21.9023C50.8141 21.9674 50.3148 22 49.772 22ZM44.8331 14.1737C44.8331 14.521 44.8512 14.8756 44.8874 15.2374C44.9236 15.592 44.9815 15.9466 45.0611 16.3012C45.1407 16.6486 45.242 16.9851 45.365 17.3107C45.4953 17.6364 45.6508 17.9403 45.8318 18.2225C46.0633 18.6061 46.3202 18.9824 46.6024 19.3514C46.8919 19.7133 47.2103 20.0425 47.5577 20.3392C47.9123 20.6287 48.2994 20.8639 48.7191 21.0448C49.1461 21.2185 49.6092 21.3053 50.1085 21.3053C50.5789 21.3053 51.0348 21.1931 51.4763 20.9688C51.9177 20.7372 52.3265 20.4369 52.7028 20.0678C53.0792 19.6915 53.4156 19.2682 53.7123 18.7978C54.0163 18.3275 54.2623 17.8498 54.4505 17.365C54.4722 17.2926 54.5156 17.1624 54.5807 16.9742C54.6531 16.7788 54.7255 16.5436 54.7978 16.2687C54.8702 15.9937 54.9317 15.6825 54.9824 15.3351C55.0403 14.9878 55.0692 14.6187 55.0692 14.228C55.0692 13.8806 55.0403 13.5043 54.9824 13.0991C54.9317 12.6938 54.8485 12.2777 54.7327 11.8507C54.6242 11.4166 54.4867 10.9824 54.3202 10.5482C54.1538 10.114 53.9584 9.69787 53.7341 9.29986C53.5387 8.95975 53.3107 8.62687 53.0502 8.30122C52.7897 7.96834 52.493 7.67526 52.1601 7.42198C51.8345 7.16147 51.4726 6.95522 51.0746 6.80326C50.6766 6.64405 50.2424 6.56445 49.772 6.56445C49.3234 6.56445 48.8964 6.65853 48.4912 6.84668C48.0859 7.03483 47.7169 7.27001 47.384 7.55224C47.0511 7.82723 46.758 8.12393 46.5047 8.44233C46.2587 8.75351 46.0597 9.03935 45.9077 9.29986C45.7919 9.50249 45.6689 9.75577 45.5387 10.0597C45.4156 10.3636 45.2999 10.7182 45.1913 11.1235C45.09 11.5287 45.0032 11.9882 44.9308 12.502C44.8657 13.0086 44.8331 13.5658 44.8331 14.1737Z" fill="#202020"/>
<path d="M70.0271 21.7395C70.0127 21.7395 69.9837 21.7395 69.9403 21.7395C69.8969 21.7467 69.8462 21.7503 69.7883 21.7503C69.7377 21.7576 69.6906 21.7612 69.6472 21.7612C69.6038 21.7684 69.5749 21.772 69.5604 21.772C69.4808 21.772 69.4156 21.7467 69.365 21.6961C69.3216 21.6382 69.2999 21.5694 69.2999 21.4898C69.2999 21.3668 69.3397 21.2872 69.4193 21.251C69.5061 21.2148 69.6219 21.1967 69.7666 21.1967C69.8679 21.1967 69.9801 21.204 70.1031 21.2185C70.2261 21.2257 70.3383 21.2293 70.4396 21.2293C70.5626 21.2293 70.6676 21.2148 70.7544 21.1859C70.8485 21.1569 70.8991 21.0846 70.9064 20.9688V13.3053C70.8991 13.2185 70.8811 13.175 70.8521 13.175C70.8087 13.175 70.7218 13.3198 70.5916 13.6092C70.5409 13.7178 70.4794 13.8408 70.4071 13.9783C70.3347 14.1158 70.2623 14.2533 70.19 14.3908C70.1248 14.5283 70.0597 14.6621 69.9946 14.7924C69.9294 14.9154 69.8788 15.0204 69.8426 15.1072C69.4374 15.9683 69.0538 16.8186 68.692 17.6581C68.3302 18.4903 67.9249 19.3225 67.4763 20.1547C67.4545 20.1909 67.4147 20.2632 67.3569 20.3718C67.3062 20.4731 67.2519 20.5853 67.194 20.7083C67.1361 20.8313 67.0746 20.9579 67.0095 21.0882C66.9516 21.2112 66.9046 21.3161 66.8684 21.403C66.825 21.4826 66.7888 21.5332 66.7598 21.555C66.7309 21.5767 66.6983 21.5875 66.6621 21.5875C66.597 21.5875 66.5247 21.526 66.445 21.403C66.4089 21.3596 66.3654 21.2981 66.3148 21.2185C66.2714 21.1389 66.199 21.005 66.0977 20.8168C66.0036 20.6287 65.8734 20.3718 65.7069 20.0461C65.5405 19.7133 65.3234 19.2754 65.0556 18.7327C64.7879 18.1827 64.455 17.5061 64.057 16.7028C63.6662 15.8996 63.1958 14.9371 62.6459 13.8155C62.5445 13.649 62.4577 13.4862 62.3853 13.327C62.313 13.1606 62.2008 13.0158 62.0488 12.8928C61.9837 13.4355 61.9403 13.9638 61.9186 14.4776C61.8969 14.9842 61.8716 15.5016 61.8426 16.0299C61.8064 16.645 61.7702 17.2637 61.7341 17.886C61.7051 18.5011 61.6906 19.1162 61.6906 19.7313C61.6906 19.8471 61.6943 19.9701 61.7015 20.1004C61.7087 20.2307 61.7304 20.3537 61.7666 20.4695C61.8028 20.5853 61.8535 20.6902 61.9186 20.7843C61.991 20.8711 62.0886 20.9326 62.2117 20.9688L63.46 21.2293C63.4962 21.2438 63.5179 21.2763 63.5251 21.327C63.5323 21.3704 63.536 21.4066 63.536 21.4355C63.536 21.5948 63.4636 21.6816 63.3189 21.6961H62.7761C62.4867 21.6961 62.2081 21.6888 61.9403 21.6744C61.6725 21.6526 61.4012 21.6418 61.1262 21.6418C60.8295 21.6418 60.5364 21.6526 60.2469 21.6744C59.9647 21.6888 59.6753 21.6961 59.3786 21.6961H59.0963C59.0602 21.6816 59.0421 21.6454 59.0421 21.5875C59.0421 21.4573 59.1072 21.3523 59.2374 21.2727C59.3677 21.1931 59.5197 21.1244 59.6934 21.0665C59.8743 21.0014 60.0516 20.9398 60.2252 20.882C60.3989 20.8168 60.5292 20.7336 60.616 20.6323C60.6956 20.531 60.7607 20.3537 60.8114 20.1004C60.8693 19.8471 60.9127 19.5649 60.9417 19.2537C60.9561 19.0801 60.9742 18.863 60.9959 18.6024C61.0176 18.3419 61.043 18.0127 61.0719 17.6147C61.1081 17.2166 61.1479 16.7427 61.1913 16.1927C61.2347 15.6427 61.289 14.9914 61.3541 14.2388C61.3831 14.0289 61.4229 13.7395 61.4735 13.3704C61.5314 12.9941 61.5604 12.5599 61.5604 12.0678C61.5604 11.9159 61.4808 11.8037 61.3216 11.7313C61.1696 11.6517 60.9959 11.5902 60.8005 11.5468C60.6124 11.4962 60.4387 11.4455 60.2795 11.3948C60.1275 11.337 60.0516 11.2537 60.0516 11.1452C60.0516 11.0728 60.0769 11.0149 60.1275 10.9715C60.1854 10.9281 60.2506 10.8991 60.3229 10.8847C60.4025 10.863 60.4821 10.8521 60.5617 10.8521C60.6413 10.8449 60.7101 10.8412 60.768 10.8412C60.7897 10.8412 60.844 10.8485 60.9308 10.863C61.0249 10.8774 61.1226 10.8919 61.2239 10.9064C61.3324 10.9209 61.4301 10.9353 61.517 10.9498C61.611 10.9643 61.6689 10.9715 61.6906 10.9715H63.0475C63.1922 11.0077 63.3008 11.0656 63.3731 11.1452C63.4527 11.2175 63.5179 11.3116 63.5685 11.4274C63.5975 11.4998 63.63 11.5794 63.6662 11.6662C63.7096 11.7458 63.7567 11.8435 63.8073 11.9593C63.8652 12.0678 63.9303 12.2017 64.0027 12.3609C64.0823 12.5201 64.1764 12.7083 64.2849 12.9254C64.4586 13.2872 64.6359 13.6635 64.8168 14.0543C64.9977 14.445 65.1787 14.8358 65.3596 15.2266C65.5405 15.6174 65.7178 16.0081 65.8915 16.3989C66.0651 16.7825 66.2352 17.1515 66.4016 17.5061C66.4161 17.5423 66.4487 17.6255 66.4993 17.7558C66.55 17.886 66.6115 18.0308 66.6839 18.19C66.7562 18.3419 66.8286 18.4939 66.9009 18.6459C66.9806 18.7906 67.0529 18.8991 67.118 18.9715C67.1687 19.0366 67.2194 19.0692 67.27 19.0692C67.3134 19.0692 67.3641 19.0258 67.422 18.9389C67.545 18.6712 67.6861 18.3636 67.8453 18.0163C68.0118 17.6617 68.1854 17.289 68.3664 16.8982C68.5473 16.5002 68.7318 16.095 68.9199 15.6825C69.1153 15.27 69.3035 14.8684 69.4844 14.4776C69.6725 14.0796 69.8498 13.7033 70.0163 13.3487C70.19 12.9941 70.3455 12.6793 70.483 12.4043C70.512 12.3464 70.5445 12.2451 70.5807 12.1004C70.6242 11.9484 70.6712 11.7965 70.7218 11.6445C70.7797 11.4853 70.8412 11.3478 70.9064 11.232C70.9715 11.109 71.0403 11.0475 71.1126 11.0475H73.4464C73.4971 11.0475 73.555 11.0366 73.6201 11.0149C73.6924 10.986 73.7467 10.9715 73.7829 10.9715C73.8697 10.9715 73.9711 10.9824 74.0868 11.0041C74.2026 11.0185 74.2786 11.0764 74.3148 11.1777C74.3365 11.2501 74.3148 11.3044 74.2497 11.3406C74.1845 11.3695 74.0977 11.3948 73.9891 11.4166C73.8806 11.431 73.7576 11.4491 73.6201 11.4708C73.4898 11.4925 73.3632 11.5287 73.2402 11.5794C73.1244 11.63 73.0267 11.706 72.9471 11.8073C72.8675 11.9086 72.8277 12.0461 72.8277 12.2198V21.0231C72.8277 21.1027 72.8458 21.1533 72.882 21.175C72.9688 21.1967 73.0773 21.2148 73.2076 21.2293C73.3379 21.2438 73.4717 21.2619 73.6092 21.2836C73.7467 21.2981 73.8842 21.3198 74.0217 21.3487C74.1592 21.3704 74.2786 21.3994 74.3799 21.4355C74.4161 21.4645 74.4487 21.5007 74.4776 21.5441C74.5066 21.5803 74.521 21.6128 74.521 21.6418C74.521 21.6852 74.5029 21.7214 74.4668 21.7503C74.4306 21.7793 74.3872 21.801 74.3365 21.8155C74.2931 21.8372 74.2424 21.8517 74.1845 21.8589C74.1339 21.8661 74.0941 21.8697 74.0651 21.8697C73.5875 21.8697 73.1099 21.848 72.6323 21.8046C72.1619 21.7612 71.6879 21.7395 71.2103 21.7395H70.0271Z" fill="#202020"/>
<path d="M79.7639 16.2904L81.6201 16.2144C81.9095 16.1927 82.1303 16.1239 82.2822 16.0081C82.4342 15.8851 82.5464 15.7404 82.6187 15.5739C82.6983 15.4003 82.7562 15.2121 82.7924 15.0095C82.8358 14.8069 82.8973 14.6079 82.9769 14.4125C82.9986 14.3256 83.0348 14.2822 83.0855 14.2822C83.1868 14.2822 83.2374 14.3076 83.2374 14.3582V14.7924C83.2374 15.0819 83.223 15.3967 83.194 15.7368C83.1723 16.0697 83.1615 16.3555 83.1615 16.5943C83.1615 16.8259 83.1796 17.0719 83.2157 17.3324C83.2592 17.5929 83.2809 17.8607 83.2809 18.1357C83.2809 18.1719 83.2773 18.2298 83.27 18.3094C83.2628 18.389 83.2519 18.4722 83.2374 18.559C83.223 18.6459 83.2013 18.7218 83.1723 18.787C83.1506 18.8521 83.118 18.8847 83.0746 18.8847C82.995 18.8847 82.9444 18.8485 82.9227 18.7761C82.9082 18.6965 82.8937 18.6242 82.8792 18.559C82.8648 18.4722 82.8394 18.3673 82.8033 18.2442C82.7671 18.1212 82.7273 17.9982 82.6839 17.8752C82.6404 17.7449 82.6006 17.6291 82.5644 17.5278C82.5283 17.4265 82.5029 17.3578 82.4885 17.3216C82.4233 17.1913 82.2967 17.09 82.1085 17.0176C81.9204 16.938 81.7069 16.8801 81.4681 16.844C81.2365 16.8005 80.9941 16.7752 80.7408 16.768C80.4948 16.7535 80.2777 16.7463 80.0896 16.7463H79.7639C79.6481 16.7463 79.5758 16.7716 79.5468 16.8223C79.5179 16.8657 79.5034 16.938 79.5034 17.0393V20.8494C79.5034 21.0665 79.5721 21.204 79.7096 21.2619H83.0095C83.1542 21.2619 83.3026 21.2619 83.4545 21.2619C83.6138 21.2546 83.7187 21.2365 83.7693 21.2076C83.8779 21.1787 83.9683 21.1171 84.0407 21.0231C84.1203 20.9218 84.1854 20.8277 84.2361 20.7408C84.2578 20.7047 84.2976 20.6287 84.3555 20.5129C84.4206 20.3971 84.4858 20.2741 84.5509 20.1438C84.6232 20.0063 84.6884 19.8797 84.7463 19.7639C84.8114 19.6481 84.8584 19.5721 84.8874 19.536C84.9308 19.4491 85.0032 19.4057 85.1045 19.4057C85.1696 19.4057 85.2166 19.431 85.2456 19.4817V21.0991C85.2456 21.1642 85.2384 21.2257 85.2239 21.2836C85.2166 21.3342 85.2058 21.3994 85.1913 21.479C85.1624 21.5803 85.1262 21.649 85.0828 21.6852C85.0393 21.7142 84.9561 21.7431 84.8331 21.772C84.1022 21.772 83.4075 21.7684 82.749 21.7612C82.0977 21.754 81.4356 21.7467 80.7626 21.7395C80.0896 21.7395 79.3804 21.7359 78.635 21.7286C77.8896 21.7214 77.0574 21.7178 76.1384 21.7178C76.0154 21.7178 75.9539 21.6563 75.9539 21.5332C75.9539 21.4536 75.9937 21.3921 76.0733 21.3487C76.1529 21.3053 76.2252 21.2763 76.2904 21.2619C76.3338 21.2619 76.4025 21.2583 76.4966 21.251C76.5979 21.2438 76.7065 21.2402 76.8223 21.2402C76.938 21.2329 77.0502 21.2257 77.1588 21.2185C77.2673 21.2112 77.3614 21.2076 77.441 21.2076C77.6147 21.2076 77.7015 21.0701 77.7015 20.7951V12.7843C77.7015 12.6612 77.687 12.5093 77.6581 12.3284C77.6364 12.1474 77.5893 11.9955 77.517 11.8725C77.4663 11.8363 77.441 11.8182 77.441 11.8182L75.9213 11.6662C75.7838 11.6662 75.7151 11.5975 75.7151 11.46C75.7151 11.4238 75.7223 11.3804 75.7368 11.3297C75.7512 11.2718 75.7983 11.2429 75.8779 11.2429H77.6581C78.3528 11.2429 79.0366 11.2393 79.7096 11.232C80.3826 11.2248 81.0014 11.2212 81.5658 11.2212H83.1072C83.223 11.2212 83.3424 11.2248 83.4654 11.232C83.5957 11.232 83.7187 11.2356 83.8345 11.2429C83.9502 11.2429 84.0552 11.2465 84.1493 11.2537C84.2433 11.2537 84.3157 11.2537 84.3664 11.2537C84.417 11.261 84.4568 11.2863 84.4858 11.3297C84.5147 11.3731 84.5328 11.4274 84.54 11.4925C84.5545 11.5504 84.5617 11.6119 84.5617 11.6771C84.569 11.735 84.5726 11.782 84.5726 11.8182V13.5875C84.5726 13.6526 84.5473 13.6852 84.4966 13.6852C84.417 13.6852 84.3555 13.6346 84.3121 13.5332C84.2759 13.4247 84.218 13.2981 84.1384 13.1533C84.0733 12.9941 83.9937 12.8349 83.8996 12.6757C83.8055 12.5165 83.7368 12.3935 83.6934 12.3066C83.6282 12.1836 83.5269 12.0896 83.3894 12.0244C83.2592 11.9521 83.1108 11.8978 82.9444 11.8616C82.7779 11.8182 82.6079 11.7856 82.4342 11.7639C82.2605 11.7422 82.1085 11.7169 81.9783 11.6879C81.9349 11.6879 81.8227 11.6843 81.6418 11.6771C81.4609 11.6698 81.2546 11.6662 81.0231 11.6662C80.7987 11.659 80.5744 11.6517 80.3501 11.6445C80.133 11.6373 79.9629 11.6336 79.8399 11.6336C79.6879 11.6336 79.5938 11.6771 79.5577 11.7639C79.5215 11.8507 79.5034 11.981 79.5034 12.1547V16.0299C79.5034 16.095 79.5251 16.1565 79.5685 16.2144C79.6192 16.265 79.6843 16.2904 79.7639 16.2904Z" fill="#202020"/>
<path d="M86.7436 16.4423C86.7436 16.0443 86.7906 15.6572 86.8847 15.2809C86.986 14.8973 87.1199 14.5391 87.2863 14.2062C87.46 13.8661 87.6626 13.555 87.8942 13.2727C88.1257 12.9905 88.3754 12.7445 88.6432 12.5346C88.8892 12.3464 89.1678 12.1728 89.479 12.0136C89.7901 11.8471 90.123 11.7024 90.4776 11.5794C90.8394 11.4564 91.2194 11.3587 91.6174 11.2863C92.0154 11.2139 92.4206 11.1777 92.8331 11.1777C93.3252 11.1777 93.7847 11.2212 94.2117 11.308C94.6459 11.3948 95.0873 11.5468 95.536 11.7639C95.6156 11.8146 95.6915 11.8399 95.7639 11.8399C95.829 11.8182 95.8905 11.7675 95.9484 11.6879L96.133 11.536C96.1836 11.4998 96.227 11.4817 96.2632 11.4817C96.4369 11.4817 96.5237 11.5902 96.5237 11.8073V12.7408C96.5237 12.8422 96.5418 12.9507 96.578 13.0665C96.6214 13.175 96.6504 13.2908 96.6649 13.4138C96.6721 13.4428 96.6757 13.5079 96.6757 13.6092V14.228C96.6757 14.2714 96.6468 14.3039 96.5889 14.3256C96.531 14.3474 96.4876 14.3582 96.4586 14.3582C96.2994 14.3582 96.209 14.3076 96.1872 14.2062C96.0498 13.8444 95.8833 13.5079 95.6879 13.1967C95.4925 12.8856 95.2646 12.6142 95.0041 12.3826C94.7436 12.1511 94.4432 11.9701 94.1031 11.8399C93.7702 11.7024 93.3939 11.6336 92.9742 11.6336C92.4532 11.6336 92.0045 11.706 91.6282 11.8507C91.2592 11.9882 90.901 12.2053 90.5536 12.502C90.4378 12.5889 90.3329 12.6757 90.2388 12.7626C90.152 12.8422 90.0687 12.9326 89.9891 13.0339C89.9095 13.1352 89.8299 13.2474 89.7503 13.3704C89.678 13.4934 89.602 13.6418 89.5224 13.8155C89.327 14.1918 89.1787 14.597 89.0773 15.0312C88.976 15.4582 88.9254 15.8598 88.9254 16.2361C88.9254 16.5111 88.929 16.7607 88.9362 16.9851C88.9507 17.2094 88.9796 17.4337 89.0231 17.6581C89.0665 17.8752 89.1352 18.1031 89.2293 18.3419C89.3234 18.5735 89.4536 18.8412 89.6201 19.1452C89.9457 19.7892 90.3799 20.2994 90.9227 20.6757C91.4654 21.0448 92.0769 21.2293 92.7571 21.2293C92.9742 21.2293 93.166 21.2221 93.3324 21.2076C93.4989 21.1859 93.6508 21.1497 93.7883 21.0991C93.9258 21.0484 94.0561 20.976 94.1791 20.882C94.3094 20.7806 94.4469 20.6468 94.5916 20.4803C94.6061 20.4659 94.6278 20.4297 94.6567 20.3718C94.6929 20.3139 94.711 20.2668 94.711 20.2307L94.8195 17.6472C94.8195 17.5604 94.7834 17.4808 94.711 17.4084C94.6386 17.3288 94.5626 17.2709 94.483 17.2347C94.4179 17.213 94.3021 17.1841 94.1357 17.1479C93.9765 17.1117 93.8137 17.0755 93.6472 17.0393C93.488 16.9959 93.3505 16.9561 93.2347 16.9199C93.1189 16.8765 93.0792 16.8367 93.1153 16.8005C93.1153 16.7209 93.1407 16.6811 93.1913 16.6811H97.5984C97.7793 16.6811 97.8878 16.7137 97.924 16.7788C97.9674 16.844 97.9891 16.8946 97.9891 16.9308C97.9891 16.9959 97.9493 17.043 97.8697 17.0719C97.7974 17.1009 97.7033 17.1262 97.5875 17.1479C97.479 17.1624 97.3596 17.1768 97.2293 17.1913C97.1063 17.1986 96.9977 17.213 96.9037 17.2347C96.6938 17.2709 96.5889 17.3578 96.5889 17.4953V20.2198C96.5889 20.2705 96.6323 20.2958 96.7191 20.2958C96.7987 20.2958 96.8783 20.2777 96.9579 20.2415C97.0448 20.1981 97.1461 20.1764 97.2619 20.1764H97.3921C97.45 20.1764 97.4934 20.1909 97.5224 20.2198C97.602 20.2777 97.6418 20.3247 97.6418 20.3609C97.6418 20.4333 97.602 20.4876 97.5224 20.5237C97.45 20.5599 97.3813 20.5961 97.3161 20.6323C96.8458 20.806 96.3899 20.9616 95.9484 21.0991C95.5142 21.2293 95.0837 21.3415 94.6567 21.4355C94.237 21.5296 93.8173 21.602 93.3976 21.6526C92.9778 21.6961 92.5509 21.7178 92.1167 21.7178C91.8489 21.7178 91.5703 21.6961 91.2809 21.6526C90.9986 21.602 90.72 21.5369 90.445 21.4573C90.1701 21.3777 89.9059 21.2836 89.6526 21.175C89.4066 21.0665 89.1823 20.9471 88.9796 20.8168C88.7047 20.6287 88.4333 20.3754 88.1655 20.057C87.905 19.7386 87.6662 19.384 87.4491 18.9932C87.2393 18.6024 87.0692 18.19 86.9389 17.7558C86.8087 17.3143 86.7436 16.8765 86.7436 16.4423Z" fill="#202020"/>
<path d="M98.3582 21.4138C98.3582 21.3849 98.3799 21.3415 98.4233 21.2836C98.4595 21.2257 98.5174 21.1967 98.597 21.1967C98.7128 21.1967 98.8358 21.1787 98.9661 21.1425C99.1036 21.1063 99.2338 21.052 99.3569 20.9796C99.4871 20.9 99.6065 20.8024 99.7151 20.6866C99.8308 20.5635 99.9285 20.4188 100.008 20.2524L102.885 13.4355C102.892 13.4211 102.906 13.3885 102.928 13.3379C102.957 13.28 102.972 13.2329 102.972 13.1967C102.972 13.1171 102.953 13.0375 102.917 12.9579C102.881 12.8783 102.838 12.806 102.787 12.7408C102.744 12.6685 102.704 12.607 102.668 12.5563C102.631 12.4984 102.613 12.4478 102.613 12.4043C102.613 12.332 102.639 12.2741 102.689 12.2307C102.74 12.1872 102.798 12.1547 102.863 12.133C102.935 12.104 103.011 12.0859 103.091 12.0787C103.171 12.0715 103.239 12.0606 103.297 12.0461C103.362 12.0172 103.435 11.9701 103.514 11.905C103.594 11.8327 103.659 11.7748 103.71 11.7313C103.731 11.6952 103.749 11.6481 103.764 11.5902C103.778 11.5323 103.793 11.4781 103.807 11.4274C103.829 11.3768 103.854 11.3333 103.883 11.2972C103.919 11.261 103.967 11.2429 104.024 11.2429C104.169 11.2429 104.256 11.3044 104.285 11.4274L107.389 20.7191C107.433 20.8566 107.48 20.9652 107.531 21.0448C107.588 21.1171 107.657 21.1714 107.737 21.2076C107.816 21.2438 107.903 21.2655 107.997 21.2727C108.099 21.28 108.214 21.2836 108.345 21.2836H108.735C108.801 21.2836 108.851 21.2908 108.887 21.3053C108.924 21.3053 108.963 21.3306 109.007 21.3813C109.057 21.4319 109.083 21.4754 109.083 21.5115C109.083 21.6273 109.018 21.6888 108.887 21.6961C108.873 21.7105 108.822 21.7178 108.735 21.7178H108.117C107.907 21.7178 107.664 21.7069 107.389 21.6852C107.114 21.6563 106.839 21.6418 106.564 21.6418C106.116 21.6418 105.682 21.6563 105.262 21.6852C104.842 21.7069 104.469 21.7178 104.144 21.7178C104.108 21.7178 104.068 21.7105 104.024 21.6961C103.988 21.6816 103.97 21.6526 103.97 21.6092C103.97 21.5658 103.988 21.5224 104.024 21.479C104.061 21.4355 104.104 21.3957 104.155 21.3596C104.205 21.3161 104.26 21.2836 104.318 21.2619C104.383 21.2402 104.441 21.2293 104.491 21.2293C104.564 21.2293 104.636 21.2329 104.708 21.2402C104.781 21.2474 104.86 21.251 104.947 21.251C105.179 21.251 105.367 21.2257 105.512 21.175C105.635 21.1316 105.696 21.0448 105.696 20.9145C105.696 20.9 105.692 20.882 105.685 20.8602C105.678 20.8385 105.671 20.806 105.664 20.7626C105.635 20.6974 105.588 20.578 105.522 20.4043C105.457 20.2234 105.389 20.028 105.316 19.8182C105.244 19.6083 105.171 19.4057 105.099 19.2103C105.034 19.0149 104.983 18.863 104.947 18.7544C104.918 18.6893 104.886 18.6278 104.849 18.5699C104.82 18.5047 104.766 18.4722 104.687 18.4722H101.636C101.455 18.4722 101.34 18.559 101.289 18.7327L100.855 20.3066C100.84 20.3573 100.829 20.4007 100.822 20.4369C100.815 20.4731 100.811 20.5237 100.811 20.5889C100.811 20.7047 100.819 20.7987 100.833 20.8711C100.855 20.9362 100.884 20.9905 100.92 21.0339C100.963 21.0773 101.018 21.1099 101.083 21.1316C101.155 21.1461 101.246 21.1606 101.354 21.175C101.39 21.175 101.448 21.1823 101.528 21.1967C101.615 21.204 101.705 21.2148 101.799 21.2293C101.893 21.2438 101.98 21.2583 102.06 21.2727C102.147 21.28 102.208 21.2836 102.244 21.2836C102.28 21.2981 102.331 21.3342 102.396 21.3921C102.469 21.4428 102.505 21.5007 102.505 21.5658C102.505 21.602 102.49 21.6382 102.461 21.6744C102.432 21.7033 102.378 21.7178 102.299 21.7178H101.962C101.846 21.7178 101.687 21.7142 101.484 21.7069C101.289 21.6997 101.09 21.6961 100.887 21.6961C100.692 21.6961 100.457 21.6997 100.182 21.7069C99.9068 21.7142 99.6246 21.7178 99.3351 21.7178C99.299 21.7178 99.2266 21.7142 99.118 21.7069C99.0095 21.6924 98.8973 21.6744 98.7815 21.6526C98.673 21.6237 98.5753 21.5911 98.4885 21.555C98.4016 21.5115 98.3582 21.4645 98.3582 21.4138ZM101.712 17.5061C101.705 17.5206 101.701 17.5604 101.701 17.6255V17.6798C101.701 17.7594 101.723 17.8281 101.767 17.886C101.817 17.9367 101.882 17.962 101.962 17.962C102.403 17.962 102.82 17.9801 103.21 18.0163C103.608 18.0452 103.992 18.0597 104.361 18.0597C104.441 18.0597 104.502 18.038 104.545 17.9946C104.589 17.9439 104.611 17.8969 104.611 17.8535V17.7341C104.611 17.7196 104.607 17.7051 104.6 17.6906C104.585 17.6689 104.574 17.6327 104.567 17.5821L103.406 14.2822C103.348 14.1303 103.279 14.0543 103.199 14.0543C103.163 14.0543 103.123 14.0687 103.08 14.0977C103.037 14.1266 103.008 14.1556 102.993 14.1845L101.712 17.5061Z" fill="#202020"/>
<path d="M117.05 21.6201C116.659 21.6201 116.287 21.6382 115.932 21.6744C115.578 21.7033 115.187 21.7178 114.76 21.7178H114.326C114.261 21.7178 114.213 21.678 114.185 21.5984C114.156 21.5115 114.141 21.4464 114.141 21.403C114.141 21.3306 114.148 21.2691 114.163 21.2185C114.185 21.1606 114.221 21.128 114.271 21.1208C114.351 21.0991 114.445 21.081 114.554 21.0665C114.662 21.052 114.774 21.0412 114.89 21.0339C115.006 21.0194 115.114 21.0122 115.216 21.0122C115.324 21.005 115.418 21.0014 115.498 21.0014C115.672 21.0014 115.838 20.9616 115.997 20.882C116.164 20.8024 116.298 20.7047 116.399 20.5889C116.471 20.4948 116.533 20.4043 116.583 20.3175C116.634 20.2234 116.678 20.0968 116.714 19.9376C116.757 19.7784 116.79 19.5721 116.811 19.3189C116.84 19.0656 116.869 18.7327 116.898 18.3202L117.408 9.00678C117.408 8.78245 117.383 8.55812 117.332 8.33379C117.282 8.10222 117.199 7.88874 117.083 7.69335C116.974 7.49073 116.829 7.31705 116.649 7.17232C116.468 7.02759 116.247 6.92628 115.986 6.86839C115.965 6.86115 115.907 6.85391 115.813 6.84668C115.719 6.8322 115.617 6.81773 115.509 6.80326C115.4 6.78878 115.299 6.77793 115.205 6.77069C115.111 6.75622 115.049 6.74898 115.02 6.74898C114.876 6.72004 114.76 6.69109 114.673 6.66214C114.593 6.6332 114.554 6.54274 114.554 6.39077C114.554 6.32564 114.557 6.26413 114.564 6.20624C114.572 6.14111 114.601 6.10855 114.651 6.10855H115.096C115.284 6.10855 115.458 6.11578 115.617 6.13026C115.784 6.14473 115.95 6.16282 116.117 6.18453C116.283 6.20624 116.457 6.22433 116.638 6.23881C116.826 6.25328 117.032 6.26052 117.256 6.26052H118.288C118.411 6.26052 118.523 6.25328 118.624 6.23881C118.733 6.2171 118.874 6.20624 119.047 6.20624C119.178 6.20624 119.315 6.22433 119.46 6.26052C119.605 6.28946 119.71 6.35459 119.775 6.4559C119.898 6.60063 120.003 6.76346 120.09 6.94437C120.176 7.11805 120.252 7.30258 120.318 7.49796L123.965 17.0936C123.994 17.166 124.023 17.2275 124.052 17.2782C124.081 17.3216 124.113 17.3433 124.149 17.3433C124.2 17.3433 124.24 17.3143 124.269 17.2564C124.298 17.1986 124.319 17.1443 124.334 17.0936L128.437 6.3365C128.48 6.2569 128.542 6.20624 128.621 6.18453C128.708 6.16282 128.802 6.15197 128.904 6.15197C129.265 6.15197 129.613 6.14473 129.946 6.13026C130.286 6.11578 130.622 6.09769 130.955 6.07598C131.295 6.05427 131.635 6.03618 131.976 6.02171C132.323 6.00724 132.688 6 133.072 6C133.094 6 133.123 6 133.159 6C133.202 6 133.242 6.00724 133.278 6.02171C133.322 6.02895 133.358 6.04342 133.387 6.06513C133.416 6.08684 133.43 6.11578 133.43 6.15197C133.43 6.25328 133.387 6.35821 133.3 6.46676C133.213 6.56807 133.104 6.61872 132.974 6.61872C132.612 6.61872 132.312 6.66214 132.073 6.74898C131.834 6.83582 131.592 7.01312 131.346 7.28087C131.237 7.38942 131.151 7.51244 131.085 7.64993C131.02 7.78743 130.966 7.93578 130.923 8.09498C130.886 8.24695 130.861 8.40615 130.847 8.57259C130.839 8.7318 130.836 8.88738 130.836 9.03935L131.009 20.6323C131.06 20.7843 131.183 20.8892 131.379 20.9471C131.574 21.005 131.791 21.0448 132.03 21.0665C132.269 21.081 132.5 21.0954 132.725 21.1099C132.956 21.1171 133.133 21.1497 133.256 21.2076C133.343 21.2438 133.394 21.2908 133.408 21.3487C133.423 21.3994 133.43 21.4464 133.43 21.4898C133.43 21.6056 133.369 21.678 133.246 21.7069C133.13 21.7286 132.971 21.7395 132.768 21.7395C132.536 21.7395 132.319 21.7359 132.117 21.7286C131.914 21.7214 131.711 21.7178 131.509 21.7178C131.313 21.7105 131.107 21.7033 130.89 21.6961C130.673 21.6888 130.431 21.6852 130.163 21.6852H128.502C128.292 21.6852 128.09 21.6888 127.894 21.6961C127.699 21.6961 127.503 21.7033 127.308 21.7178C127.076 21.7395 126.845 21.7503 126.613 21.7503C126.555 21.7503 126.494 21.7467 126.429 21.7395C126.371 21.7395 126.313 21.7286 126.255 21.7069C126.204 21.6852 126.161 21.6526 126.125 21.6092C126.096 21.5586 126.081 21.4934 126.081 21.4138C126.081 21.2691 126.172 21.175 126.353 21.1316C126.534 21.081 126.751 21.0556 127.004 21.0556H127.46C127.612 21.0556 127.753 21.052 127.883 21.0448C128.021 21.0375 128.14 21.0158 128.242 20.9796C128.343 20.9435 128.422 20.8928 128.48 20.8277C128.545 20.7553 128.578 20.6576 128.578 20.5346L128.437 9.00678C128.437 8.9706 128.43 8.91995 128.415 8.85482C128.401 8.78969 128.375 8.75712 128.339 8.75712C128.289 8.75712 128.249 8.76798 128.22 8.78969C128.198 8.80416 128.18 8.81863 128.166 8.83311L123.303 21.4898C123.274 21.6056 123.23 21.6635 123.172 21.6635C123.114 21.6635 123.064 21.6056 123.02 21.4898L118.179 8.72456C118.157 8.63772 118.114 8.5943 118.049 8.5943C118.02 8.5943 117.995 8.60154 117.973 8.61601C117.958 8.63048 117.951 8.66667 117.951 8.72456L117.669 19.0909C117.669 19.1777 117.673 19.2935 117.68 19.4383C117.694 19.5758 117.712 19.7205 117.734 19.8725C117.763 20.0244 117.796 20.1728 117.832 20.3175C117.875 20.4622 117.929 20.5853 117.995 20.6866C118.089 20.8385 118.23 20.9507 118.418 21.0231C118.613 21.0882 118.82 21.1352 119.037 21.1642C119.261 21.1859 119.482 21.2004 119.699 21.2076C119.923 21.2148 120.111 21.2293 120.263 21.251C120.35 21.2583 120.408 21.2908 120.437 21.3487C120.473 21.4066 120.491 21.4681 120.491 21.5332C120.491 21.5767 120.466 21.6128 120.415 21.6418C120.372 21.6707 120.314 21.6961 120.242 21.7178C120.176 21.7322 120.1 21.7395 120.014 21.7395C119.927 21.7467 119.847 21.7503 119.775 21.7503C119.507 21.7503 119.257 21.7431 119.026 21.7286C118.794 21.7142 118.57 21.6997 118.353 21.6852C118.136 21.6707 117.922 21.6563 117.712 21.6418C117.502 21.6273 117.282 21.6201 117.05 21.6201Z" fill="#202020"/>
<path d="M138.369 11.9159V20.4261C138.369 20.4622 138.373 20.5165 138.38 20.5889C138.387 20.6612 138.398 20.7372 138.412 20.8168C138.434 20.8892 138.463 20.9543 138.499 21.0122C138.536 21.0701 138.586 21.0991 138.651 21.0991H139.845C139.925 21.0991 139.99 21.1316 140.041 21.1967C140.099 21.2619 140.128 21.3342 140.128 21.4138C140.128 21.479 140.095 21.5477 140.03 21.6201C139.965 21.6852 139.9 21.7178 139.834 21.7178H136.426C136.281 21.7178 136.137 21.7214 135.992 21.7286C135.847 21.7431 135.688 21.7503 135.514 21.7503C135.413 21.7503 135.315 21.7467 135.221 21.7395C135.127 21.7322 135.04 21.7178 134.961 21.6961C134.917 21.6671 134.896 21.5984 134.896 21.4898C134.896 21.3379 134.932 21.251 135.004 21.2293C135.185 21.2004 135.341 21.1787 135.471 21.1642C135.601 21.1425 135.739 21.1316 135.883 21.1316C135.999 21.1316 136.079 21.1316 136.122 21.1316C136.173 21.1244 136.231 21.1135 136.296 21.0991C136.397 21.0556 136.448 20.9037 136.448 20.6431V11.9919C136.448 11.905 136.404 11.829 136.318 11.7639C136.238 11.6915 136.158 11.6554 136.079 11.6554C135.912 11.6554 135.782 11.6698 135.688 11.6988C135.601 11.7205 135.485 11.7313 135.341 11.7313C135.246 11.7313 135.152 11.7241 135.058 11.7096C134.964 11.6879 134.87 11.6626 134.776 11.6336C134.725 11.6119 134.7 11.5685 134.7 11.5034C134.678 11.4093 134.686 11.3333 134.722 11.2754C134.765 11.2175 134.823 11.1741 134.896 11.1452C134.968 11.109 135.047 11.0873 135.134 11.0801C135.228 11.0728 135.315 11.0692 135.395 11.0692H139.303C139.491 11.0692 139.61 11.0692 139.661 11.0692C139.711 11.0692 139.744 11.0764 139.758 11.0909C139.896 11.1126 139.965 11.1922 139.965 11.3297C139.965 11.4817 139.882 11.5794 139.715 11.6228C139.549 11.6662 139.364 11.6915 139.161 11.6988C138.966 11.706 138.785 11.7205 138.619 11.7422C138.452 11.7567 138.369 11.8146 138.369 11.9159Z" fill="#202020"/>
<path d="M141.604 21.5115C141.604 21.3451 141.676 21.251 141.821 21.2293H142.233C142.364 21.2293 142.483 21.2293 142.592 21.2293C142.7 21.2221 142.794 21.2076 142.874 21.1859C142.953 21.1642 143.015 21.128 143.058 21.0773C143.109 21.0267 143.134 20.9579 143.134 20.8711V12.1221C143.134 12.0425 143.102 11.9774 143.037 11.9267C142.972 11.8688 142.899 11.8399 142.82 11.8399H141.843C141.806 11.8399 141.763 11.8363 141.712 11.829C141.662 11.8218 141.604 11.8146 141.539 11.8073C141.502 11.7929 141.47 11.7639 141.441 11.7205C141.419 11.6771 141.408 11.6373 141.408 11.6011C141.408 11.4636 141.495 11.3948 141.669 11.3948H144.339C144.361 11.3948 144.415 11.3912 144.502 11.384C144.596 11.3768 144.694 11.3695 144.795 11.3623C144.896 11.355 144.987 11.3478 145.066 11.3406C145.146 11.3333 145.193 11.3297 145.208 11.3297C145.309 11.3225 145.421 11.3152 145.544 11.308C145.674 11.3008 145.779 11.2972 145.859 11.2972C145.881 11.2972 145.92 11.3008 145.978 11.308C146.036 11.308 146.098 11.3116 146.163 11.3189C146.228 11.3189 146.289 11.3225 146.347 11.3297C146.412 11.3297 146.456 11.3297 146.478 11.3297C146.579 11.3514 146.63 11.4093 146.63 11.5034C146.63 11.583 146.604 11.6626 146.554 11.7422C146.51 11.7929 146.441 11.8182 146.347 11.8182H145.153C145.103 11.8182 145.063 11.8471 145.034 11.905C145.005 11.9557 144.98 12.0208 144.958 12.1004C144.943 12.1728 144.933 12.2488 144.925 12.3284C144.925 12.408 144.925 12.4767 144.925 12.5346C144.925 12.9109 144.943 13.2872 144.98 13.6635C145.016 14.0326 145.034 14.4559 145.034 14.9335V20.9254C145.034 20.976 145.045 21.0375 145.066 21.1099C145.095 21.175 145.142 21.2076 145.208 21.2076H148.681C148.877 21.2076 149.061 21.1208 149.235 20.9471C149.408 20.7734 149.568 20.5708 149.712 20.3392C149.864 20.1076 149.995 19.8797 150.103 19.6554C150.219 19.4238 150.313 19.2537 150.385 19.1452C150.429 19.0945 150.472 19.0692 150.516 19.0692C150.552 19.0692 150.584 19.1018 150.613 19.1669C150.642 19.2682 150.657 19.3587 150.657 19.4383C150.664 19.5106 150.668 19.6192 150.668 19.7639C150.668 19.8218 150.657 19.9086 150.635 20.0244C150.621 20.133 150.599 20.2488 150.57 20.3718C150.548 20.4948 150.526 20.6142 150.505 20.73C150.49 20.8385 150.483 20.9254 150.483 20.9905C150.483 21.0267 150.483 21.0773 150.483 21.1425C150.483 21.2004 150.479 21.2619 150.472 21.327C150.472 21.3921 150.469 21.4536 150.461 21.5115C150.454 21.5622 150.443 21.5984 150.429 21.6201C150.327 21.6852 150.237 21.7178 150.157 21.7178C149.253 21.7178 148.287 21.7105 147.259 21.6961C146.232 21.6744 145.208 21.6635 144.187 21.6635C144.006 21.6635 143.818 21.6671 143.623 21.6744C143.427 21.6816 143.239 21.6924 143.058 21.7069C142.877 21.7142 142.704 21.7214 142.537 21.7286C142.378 21.7359 142.241 21.7395 142.125 21.7395C141.973 21.7395 141.846 21.7322 141.745 21.7178C141.651 21.6961 141.604 21.6273 141.604 21.5115Z" fill="#202020"/>
<path d="M151.786 21.5115C151.786 21.3451 151.858 21.251 152.003 21.2293H152.415C152.545 21.2293 152.665 21.2293 152.773 21.2293C152.882 21.2221 152.976 21.2076 153.056 21.1859C153.135 21.1642 153.197 21.128 153.24 21.0773C153.291 21.0267 153.316 20.9579 153.316 20.8711V12.1221C153.316 12.0425 153.284 11.9774 153.218 11.9267C153.153 11.8688 153.081 11.8399 153.001 11.8399H152.024C151.988 11.8399 151.945 11.8363 151.894 11.829C151.844 11.8218 151.786 11.8146 151.72 11.8073C151.684 11.7929 151.652 11.7639 151.623 11.7205C151.601 11.6771 151.59 11.6373 151.59 11.6011C151.59 11.4636 151.677 11.3948 151.851 11.3948H154.521C154.543 11.3948 154.597 11.3912 154.684 11.384C154.778 11.3768 154.876 11.3695 154.977 11.3623C155.078 11.355 155.169 11.3478 155.248 11.3406C155.328 11.3333 155.375 11.3297 155.389 11.3297C155.491 11.3225 155.603 11.3152 155.726 11.308C155.856 11.3008 155.961 11.2972 156.041 11.2972C156.062 11.2972 156.102 11.3008 156.16 11.308C156.218 11.308 156.28 11.3116 156.345 11.3189C156.41 11.3189 156.471 11.3225 156.529 11.3297C156.594 11.3297 156.638 11.3297 156.659 11.3297C156.761 11.3514 156.811 11.4093 156.811 11.5034C156.811 11.583 156.786 11.6626 156.735 11.7422C156.692 11.7929 156.623 11.8182 156.529 11.8182H155.335C155.284 11.8182 155.245 11.8471 155.216 11.905C155.187 11.9557 155.161 12.0208 155.14 12.1004C155.125 12.1728 155.114 12.2488 155.107 12.3284C155.107 12.408 155.107 12.4767 155.107 12.5346C155.107 12.9109 155.125 13.2872 155.161 13.6635C155.198 14.0326 155.216 14.4559 155.216 14.9335V20.9254C155.216 20.976 155.227 21.0375 155.248 21.1099C155.277 21.175 155.324 21.2076 155.389 21.2076H158.863C159.058 21.2076 159.243 21.1208 159.417 20.9471C159.59 20.7734 159.749 20.5708 159.894 20.3392C160.046 20.1076 160.176 19.8797 160.285 19.6554C160.401 19.4238 160.495 19.2537 160.567 19.1452C160.611 19.0945 160.654 19.0692 160.697 19.0692C160.734 19.0692 160.766 19.1018 160.795 19.1669C160.824 19.2682 160.839 19.3587 160.839 19.4383C160.846 19.5106 160.849 19.6192 160.849 19.7639C160.849 19.8218 160.839 19.9086 160.817 20.0244C160.802 20.133 160.781 20.2488 160.752 20.3718C160.73 20.4948 160.708 20.6142 160.687 20.73C160.672 20.8385 160.665 20.9254 160.665 20.9905C160.665 21.0267 160.665 21.0773 160.665 21.1425C160.665 21.2004 160.661 21.2619 160.654 21.327C160.654 21.3921 160.65 21.4536 160.643 21.5115C160.636 21.5622 160.625 21.5984 160.611 21.6201C160.509 21.6852 160.419 21.7178 160.339 21.7178C159.435 21.7178 158.469 21.7105 157.441 21.6961C156.413 21.6744 155.389 21.6635 154.369 21.6635C154.188 21.6635 154 21.6671 153.805 21.6744C153.609 21.6816 153.421 21.6924 153.24 21.7069C153.059 21.7142 152.886 21.7214 152.719 21.7286C152.56 21.7359 152.422 21.7395 152.307 21.7395C152.155 21.7395 152.028 21.7322 151.927 21.7178C151.833 21.6961 151.786 21.6273 151.786 21.5115Z" fill="#202020"/>
<path d="M165.463 11.9159V20.4261C165.463 20.4622 165.466 20.5165 165.474 20.5889C165.481 20.6612 165.492 20.7372 165.506 20.8168C165.528 20.8892 165.557 20.9543 165.593 21.0122C165.629 21.0701 165.68 21.0991 165.745 21.0991H166.939C167.019 21.0991 167.084 21.1316 167.134 21.1967C167.192 21.2619 167.221 21.3342 167.221 21.4138C167.221 21.479 167.189 21.5477 167.123 21.6201C167.058 21.6852 166.993 21.7178 166.928 21.7178H163.52C163.375 21.7178 163.23 21.7214 163.085 21.7286C162.941 21.7431 162.782 21.7503 162.608 21.7503C162.507 21.7503 162.409 21.7467 162.315 21.7395C162.221 21.7322 162.134 21.7178 162.054 21.6961C162.011 21.6671 161.989 21.5984 161.989 21.4898C161.989 21.3379 162.025 21.251 162.098 21.2293C162.279 21.2004 162.434 21.1787 162.564 21.1642C162.695 21.1425 162.832 21.1316 162.977 21.1316C163.093 21.1316 163.172 21.1316 163.216 21.1316C163.266 21.1244 163.324 21.1135 163.389 21.0991C163.491 21.0556 163.541 20.9037 163.541 20.6431V11.9919C163.541 11.905 163.498 11.829 163.411 11.7639C163.332 11.6915 163.252 11.6554 163.172 11.6554C163.006 11.6554 162.876 11.6698 162.782 11.6988C162.695 11.7205 162.579 11.7313 162.434 11.7313C162.34 11.7313 162.246 11.7241 162.152 11.7096C162.058 11.6879 161.964 11.6626 161.87 11.6336C161.819 11.6119 161.794 11.5685 161.794 11.5034C161.772 11.4093 161.779 11.3333 161.815 11.2754C161.859 11.2175 161.917 11.1741 161.989 11.1452C162.062 11.109 162.141 11.0873 162.228 11.0801C162.322 11.0728 162.409 11.0692 162.488 11.0692H166.396C166.584 11.0692 166.704 11.0692 166.754 11.0692C166.805 11.0692 166.838 11.0764 166.852 11.0909C166.99 11.1126 167.058 11.1922 167.058 11.3297C167.058 11.4817 166.975 11.5794 166.809 11.6228C166.642 11.6662 166.458 11.6915 166.255 11.6988C166.06 11.706 165.879 11.7205 165.712 11.7422C165.546 11.7567 165.463 11.8146 165.463 11.9159Z" fill="#202020"/>
<path d="M168.567 16.6052C168.567 16.1782 168.607 15.791 168.687 15.4437C168.766 15.0891 168.886 14.7598 169.045 14.4559C169.204 14.152 169.399 13.8661 169.631 13.5984C169.87 13.3234 170.141 13.0556 170.445 12.7951C170.684 12.5925 170.941 12.4261 171.216 12.2958C171.491 12.1655 171.773 12.0642 172.062 11.9919C172.359 11.9123 172.663 11.858 172.974 11.829C173.285 11.8001 173.593 11.7856 173.897 11.7856C174.157 11.7856 174.432 11.8254 174.722 11.905C175.019 11.9846 175.304 12.0896 175.579 12.2198C175.854 12.3428 176.108 12.4803 176.339 12.6323C176.571 12.777 176.763 12.9181 176.915 13.0556C177.443 13.555 177.852 14.0977 178.141 14.6839C178.431 15.2628 178.575 15.8996 178.575 16.5943C178.575 16.9706 178.546 17.318 178.488 17.6364C178.438 17.9475 178.358 18.2406 178.25 18.5156C178.148 18.7906 178.018 19.0511 177.859 19.2972C177.707 19.5432 177.53 19.7856 177.327 20.0244C177.139 20.2343 176.915 20.4405 176.654 20.6431C176.401 20.8458 176.118 21.0267 175.807 21.1859C175.496 21.3451 175.16 21.4754 174.798 21.5767C174.443 21.6707 174.074 21.7178 173.691 21.7178C173.032 21.7178 172.424 21.6309 171.867 21.4573C171.317 21.2763 170.803 20.9616 170.326 20.5129C169.153 19.4925 168.567 18.19 168.567 16.6052ZM173.593 12.2524C173.267 12.2524 172.989 12.2886 172.757 12.3609C172.533 12.4261 172.33 12.5237 172.149 12.654C171.976 12.777 171.816 12.929 171.672 13.1099C171.527 13.2908 171.379 13.4934 171.227 13.7178C170.952 14.1447 170.771 14.6006 170.684 15.0855C170.597 15.5631 170.554 16.0479 170.554 16.54C170.554 17.1045 170.608 17.6689 170.716 18.2334C170.832 18.7906 171.053 19.3333 171.379 19.8616C171.465 20.0136 171.588 20.1728 171.748 20.3392C171.907 20.4984 172.081 20.6468 172.269 20.7843C172.457 20.9145 172.649 21.0267 172.844 21.1208C173.047 21.2076 173.235 21.251 173.408 21.251C173.749 21.251 174.045 21.1931 174.299 21.0773C174.559 20.9616 174.791 20.8096 174.993 20.6214C175.196 20.4261 175.373 20.2053 175.525 19.9593C175.684 19.706 175.836 19.4455 175.981 19.1777C176.162 18.8232 176.292 18.4432 176.372 18.038C176.459 17.6255 176.502 17.1805 176.502 16.7028C176.502 16.3627 176.477 16.0443 176.426 15.7476C176.383 15.4509 176.31 15.1651 176.209 14.8901C176.115 14.6151 175.995 14.3474 175.851 14.0868C175.706 13.8191 175.536 13.5477 175.341 13.2727C175.145 12.976 174.896 12.7336 174.592 12.5455C174.295 12.3501 173.962 12.2524 173.593 12.2524Z" fill="#202020"/>
<path d="M180.844 21.7178C180.772 21.7178 180.692 21.7142 180.605 21.7069C180.518 21.6997 180.435 21.6852 180.355 21.6635C180.283 21.6346 180.222 21.5948 180.171 21.5441C180.12 21.4934 180.095 21.4247 180.095 21.3379C180.095 21.2727 180.099 21.2148 180.106 21.1642C180.12 21.1135 180.16 21.0737 180.225 21.0448C180.457 21.0086 180.649 20.9833 180.801 20.9688C180.96 20.9543 181.094 20.9218 181.202 20.8711C181.311 20.8204 181.398 20.7336 181.463 20.6106C181.535 20.4803 181.597 20.2849 181.647 20.0244C181.647 19.4093 181.651 18.7761 181.658 18.1248C181.673 17.4735 181.694 16.844 181.723 16.2361C181.738 15.7947 181.774 15.3677 181.832 14.9552C181.897 14.5355 181.929 14.1049 181.929 13.6635C181.929 13.5839 181.926 13.526 181.919 13.4898C181.911 13.4536 181.89 13.3849 181.853 13.2836C181.832 13.2474 181.788 13.1823 181.723 13.0882C181.658 12.9869 181.586 12.8856 181.506 12.7843C181.426 12.6757 181.347 12.5744 181.267 12.4803C181.195 12.379 181.141 12.3103 181.104 12.2741C181.032 12.1872 180.927 12.1185 180.79 12.0678C180.652 12.01 180.515 11.9557 180.377 11.905C180.247 11.8471 180.131 11.7856 180.03 11.7205C179.936 11.6481 179.889 11.5504 179.889 11.4274C179.889 11.3623 179.91 11.3116 179.954 11.2754C180.005 11.232 180.062 11.1995 180.128 11.1777C180.2 11.156 180.269 11.1416 180.334 11.1343C180.406 11.1271 180.464 11.1235 180.507 11.1235C180.522 11.1235 180.551 11.1271 180.594 11.1343C180.638 11.1416 180.685 11.1524 180.735 11.1669C180.786 11.1741 180.833 11.1814 180.877 11.1886C180.92 11.1958 180.953 11.1995 180.974 11.1995H182.125C182.161 11.2139 182.219 11.2465 182.299 11.2972C182.378 11.3406 182.432 11.3768 182.461 11.4057C183.011 12.0063 183.55 12.5961 184.079 13.175C184.607 13.754 185.128 14.3256 185.642 14.8901C186.163 15.4545 186.68 16.0154 187.194 16.5726C187.715 17.1298 188.24 17.6943 188.768 18.2659C188.804 18.3021 188.837 18.3347 188.866 18.3636C188.895 18.3853 188.924 18.4071 188.953 18.4288C188.981 18.4432 189.007 18.4505 189.029 18.4505C189.094 18.4505 189.144 18.4215 189.18 18.3636C189.217 18.2985 189.235 18.2587 189.235 18.2442V14.6947C189.235 14.4414 189.228 14.1845 189.213 13.924C189.206 13.6635 189.191 13.4211 189.17 13.1967C189.148 12.9652 189.119 12.7589 189.083 12.578C189.047 12.3971 189.003 12.2632 188.953 12.1764C188.851 12.01 188.696 11.8942 188.486 11.829C188.276 11.7639 188.066 11.7169 187.856 11.6879C187.646 11.6517 187.462 11.6156 187.303 11.5794C187.151 11.5432 187.075 11.4744 187.075 11.3731C187.075 11.1705 187.194 11.0692 187.433 11.0692H191.547C191.684 11.0692 191.753 11.1524 191.753 11.3189C191.753 11.3912 191.673 11.4527 191.514 11.5034C191.355 11.5468 191.174 11.6047 190.972 11.6771C190.769 11.7494 190.57 11.8435 190.374 11.9593C190.186 12.0751 190.06 12.2343 189.995 12.4369C189.915 12.6178 189.861 12.8132 189.832 13.0231C189.803 13.2329 189.788 13.5224 189.788 13.8915V21.4898C189.788 21.555 189.763 21.6092 189.712 21.6526C189.662 21.6961 189.622 21.7178 189.593 21.7178C189.499 21.7178 189.394 21.649 189.278 21.5115C189.249 21.4754 189.155 21.3704 188.996 21.1967C188.844 21.0231 188.645 20.8024 188.399 20.5346C188.153 20.2668 187.871 19.9629 187.552 19.6228C187.234 19.2827 186.901 18.9245 186.554 18.5482C186.206 18.1719 185.852 17.7883 185.49 17.3976C185.128 17.0068 184.781 16.6305 184.448 16.2687C184.115 15.9068 183.8 15.5703 183.503 15.2592C183.214 14.9408 182.968 14.6694 182.765 14.445C182.693 14.3872 182.628 14.3582 182.57 14.3582C182.454 14.3582 182.382 14.4306 182.353 14.5753C182.324 14.72 182.309 14.872 182.309 15.0312C182.309 15.1036 182.309 15.2121 182.309 15.3569C182.317 15.4943 182.324 15.6572 182.331 15.8453C182.338 16.0262 182.346 16.2216 182.353 16.4315C182.367 16.6341 182.378 16.8331 182.385 17.0285C182.393 17.2166 182.396 17.3903 182.396 17.5495C182.403 17.7087 182.407 17.8354 182.407 17.9294V18.4505C182.407 18.6169 182.407 18.8051 182.407 19.0149C182.414 19.2248 182.425 19.431 182.44 19.6336C182.461 19.8363 182.487 20.0208 182.516 20.1872C182.552 20.3537 182.602 20.4803 182.668 20.5672C182.74 20.6829 182.834 20.7662 182.95 20.8168C183.066 20.8675 183.189 20.9037 183.319 20.9254C183.449 20.9398 183.579 20.9507 183.71 20.9579C183.847 20.9579 183.967 20.9688 184.068 20.9905C184.176 21.0122 184.263 21.0556 184.328 21.1208C184.393 21.1787 184.426 21.2727 184.426 21.403C184.426 21.4681 184.419 21.5224 184.404 21.5658C184.397 21.602 184.357 21.6526 184.285 21.7178H180.844Z" fill="#202020"/>
<path d="M23.875 20.75L34 18.5V23H22.75V19.2346C25.0551 18.2412 26.6875 15.7685 26.6875 12.875C26.6875 9.10625 23.9177 6.15537 20.5 6.15537C17.0822 6.15537 14.3125 9.10512 14.3125 12.875C14.3125 15.7685 15.9449 18.2412 18.25 19.2346V23H7V18.5L17.125 20.75V20.1774C13.8265 19.0096 11.5 16.1802 11.5 12.875C11.5 8.52575 15.5297 5 20.5 5C25.4703 5 29.5 8.52575 29.5 12.875C29.5 16.1802 27.1735 19.0085 23.875 20.1774V20.75Z" fill="#202020"/>
</svg>
