<svg width="123" height="40" viewBox="0 0 123 40" fill="none" xmlns="http://www.w3.org/2000/svg">
<path d="M44.6 19.7893H35.7893V27H35V12.1093H35.7893V19.0853H44.6V12.1093H45.3893V27H44.6V19.7893Z" fill="#0D5C36"/>
<path d="M58.516 27C57.9329 27 57.6271 26.7013 57.5987 26.104V25.3146H57.5133C57.2573 25.8693 56.852 26.3315 56.2973 26.7013C55.7427 27.0711 54.996 27.256 54.0573 27.256C52.9338 27.256 52.0662 26.9858 51.4547 26.4453C50.8431 25.9049 50.5373 25.144 50.5373 24.1626C50.5373 23.6933 50.6084 23.2666 50.7507 22.8826C50.8929 22.4986 51.1276 22.1715 51.4547 21.9013C51.796 21.6169 52.2298 21.4035 52.756 21.2613C53.2964 21.1049 53.9578 21.0266 54.74 21.0266H57.5773V19.576C57.5773 18.552 57.3284 17.7982 56.8307 17.3146C56.3329 16.8169 55.5933 16.568 54.612 16.568C53.0902 16.568 52.0378 17.208 51.4547 18.488L50.9213 18.1253C51.22 17.4569 51.6609 16.9235 52.244 16.5253C52.8271 16.1129 53.6236 15.9066 54.6333 15.9066C55.8422 15.9066 56.7596 16.2195 57.3853 16.8453C58.0111 17.4569 58.324 18.3386 58.324 19.4906V26.3386H59.988V27H58.516ZM54.1213 26.5946C54.5907 26.5946 55.0316 26.5378 55.444 26.424C55.8707 26.296 56.2404 26.1182 56.5533 25.8906C56.8662 25.6631 57.1151 25.3786 57.3 25.0373C57.4849 24.696 57.5773 24.2978 57.5773 23.8426V21.624H54.74C53.5453 21.624 52.6778 21.8302 52.1373 22.2426C51.5969 22.6409 51.3267 23.1742 51.3267 23.8426V24.44C51.3267 25.1511 51.5827 25.6915 52.0947 26.0613C52.6209 26.4169 53.2964 26.5946 54.1213 26.5946Z" fill="#0D5C36"/>
<path d="M64.3072 27V16.1626H65.0538V18.0613H65.1392C65.3667 17.5493 65.7365 17.1084 66.2485 16.7386C66.7605 16.3546 67.5001 16.1626 68.4672 16.1626H69.2778V16.8666H68.3392C67.8983 16.8666 67.4787 16.9235 67.0805 17.0373C66.6823 17.1511 66.3338 17.3218 66.0352 17.5493C65.7365 17.7769 65.4947 18.0613 65.3098 18.4026C65.1392 18.7298 65.0538 19.1138 65.0538 19.5546V27H64.3072Z" fill="#0D5C36"/>
<path d="M72.142 16.1626H72.9313L76.558 26.1893H76.622L80.2487 16.1626H80.9953L77.006 27H76.1313L72.142 16.1626Z" fill="#0D5C36"/>
<path d="M88.933 27.256C87.4966 27.256 86.3588 26.7724 85.5197 25.8053C84.6948 24.8382 84.2823 23.4302 84.2823 21.5813C84.2823 19.7466 84.6877 18.3458 85.4983 17.3786C86.309 16.3973 87.4254 15.9066 88.8477 15.9066C89.5161 15.9066 90.1206 16.0346 90.661 16.2906C91.2157 16.5466 91.685 16.9093 92.069 17.3786C92.4672 17.848 92.773 18.4169 92.9863 19.0853C93.1997 19.7395 93.3063 20.472 93.3063 21.2826V21.624H85.0717V22.2C85.0717 22.8684 85.157 23.4729 85.3277 24.0133C85.4983 24.5538 85.7472 25.016 86.0743 25.4C86.4157 25.784 86.821 26.0826 87.2903 26.296C87.7739 26.4951 88.3214 26.5946 88.933 26.5946C90.6539 26.5946 91.8414 25.7698 92.4957 24.12L93.0717 24.44C92.7446 25.2933 92.2326 25.976 91.5357 26.488C90.8388 27 89.9712 27.256 88.933 27.256ZM88.8477 16.568C88.2503 16.568 87.717 16.6746 87.2477 16.888C86.7926 17.0871 86.4014 17.3786 86.0743 17.7626C85.7472 18.1466 85.4983 18.6089 85.3277 19.1493C85.157 19.6898 85.0717 20.2871 85.0717 20.9413V21.0266H92.4957V20.8986C92.4957 20.2444 92.4032 19.6542 92.2183 19.128C92.0477 18.5875 91.7988 18.1324 91.4717 17.7626C91.1588 17.3786 90.7748 17.0871 90.3197 16.888C89.8788 16.6746 89.3881 16.568 88.8477 16.568Z" fill="#0D5C36"/>
<path d="M101.287 27.256C100.391 27.256 99.6091 27.0924 98.9407 26.7653C98.2864 26.4382 97.7104 25.9262 97.2127 25.2293L97.7887 24.8026C98.2722 25.4426 98.7842 25.9049 99.3247 26.1893C99.8793 26.4595 100.541 26.5946 101.309 26.5946C102.276 26.5946 103.008 26.3955 103.506 25.9973C104.004 25.5991 104.253 25.0231 104.253 24.2693C104.253 23.544 104.039 23.0035 103.613 22.648C103.2 22.2924 102.56 22.0435 101.693 21.9013L100.775 21.752C100.292 21.6809 99.8509 21.5742 99.4527 21.432C99.0687 21.2898 98.7344 21.1049 98.45 20.8773C98.1798 20.6355 97.9664 20.344 97.81 20.0026C97.6678 19.6613 97.5967 19.2489 97.5967 18.7653C97.5967 18.296 97.682 17.8835 97.8527 17.528C98.0376 17.1724 98.2864 16.8738 98.5993 16.632C98.9264 16.3902 99.3033 16.2124 99.73 16.0986C100.171 15.9706 100.64 15.9066 101.138 15.9066C102.048 15.9066 102.788 16.0702 103.357 16.3973C103.926 16.7102 104.395 17.08 104.765 17.5066L104.231 17.9973C104.075 17.8124 103.897 17.6346 103.698 17.464C103.513 17.2933 103.3 17.144 103.058 17.016C102.816 16.8738 102.532 16.7671 102.205 16.696C101.892 16.6106 101.529 16.568 101.117 16.568C100.263 16.568 99.5807 16.7529 99.0687 17.1226C98.5709 17.4924 98.322 18.0329 98.322 18.744C98.322 19.4693 98.5353 20.0026 98.962 20.344C99.3887 20.6711 100.036 20.9058 100.903 21.048L101.821 21.1973C102.83 21.3538 103.606 21.6666 104.146 22.136C104.701 22.5911 104.978 23.2809 104.978 24.2053C104.978 25.1724 104.651 25.9262 103.997 26.4666C103.342 26.9929 102.439 27.256 101.287 27.256Z" fill="#0D5C36"/>
<path d="M111.396 27C110.784 27 110.478 26.7013 110.478 26.104V16.824H108.516V16.1626H109.924C110.165 16.1626 110.322 16.1129 110.393 16.0133C110.478 15.9138 110.521 15.7431 110.521 15.5013V13.0906H111.225V16.1626H113.764V16.824H111.225V26.3386H113.593V27H111.396Z" fill="#0D5C36"/>
<path d="M9.25 19.5C9.25 22.9806 10.5974 26.2008 12.191 28.79C13.7835 31.3775 15.6111 33.3174 16.5461 34.2323C16.8047 34.4854 17.1953 34.4854 17.4539 34.2323C18.3889 33.3174 20.2165 31.3775 21.809 28.79C23.4026 26.2008 24.75 22.9806 24.75 19.5C24.75 16.0194 23.4026 12.7992 21.809 10.21C20.2165 7.62246 18.3889 5.68262 17.4539 4.76766C17.1953 4.51465 16.8047 4.51465 16.5461 4.76766C15.6111 5.68262 13.7835 7.62246 12.191 10.21C10.5974 12.7992 9.25 16.0194 9.25 19.5Z" stroke="#0D5C36" stroke-width="0.5"/>
<path d="M18.33 20.7107L18.4261 20.9415L18.33 20.7107C18.1958 20.7666 18.0926 20.878 18.0472 21.0161L17 24.1999L15.9528 21.0161C15.9074 20.878 15.8041 20.7666 15.67 20.7107L12.7616 19.5L15.67 18.2893C15.8041 18.2334 15.9074 18.122 15.9528 17.9839L17 14.8001L18.0472 17.9839C18.0926 18.122 18.1958 18.2334 18.33 18.2893L18.4221 18.068L18.33 18.2893L21.2384 19.5L18.33 20.7107Z" stroke="#0D5C36" stroke-width="0.5"/>
<path d="M17 10L20 7.5" stroke="#0D5C36" stroke-width="0.5"/>
<path d="M17 12L21 9" stroke="#0D5C36" stroke-width="0.5"/>
<path d="M17 14L22 10.5" stroke="#0D5C36" stroke-width="0.5"/>
<path d="M17 29L14 31.5" stroke="#0D5C36" stroke-width="0.5"/>
<path d="M17 27L13 30" stroke="#0D5C36" stroke-width="0.5"/>
<path d="M17 25L12 28.5" stroke="#0D5C36" stroke-width="0.5"/>
<path d="M17 4.5V15" stroke="#0D5C36" stroke-width="0.5"/>
<path d="M17 24V34.5" stroke="#0D5C36" stroke-width="0.5"/>
</svg>
